<svg width="71" height="60" viewBox="0 0 71 60" fill="none" xmlns="http://www.w3.org/2000/svg">
<g clip-path="url(#clip0_256_1988)">
<path d="M39.5171 71.3669C39.531 71.0339 39.6059 70.7073 39.7373 70.4059C39.8687 70.1045 40.054 69.8344 40.2826 69.6111C40.5112 69.3878 40.7784 69.2158 41.0688 69.1051C41.3592 68.9944 41.667 68.9472 41.9743 68.9661C42.2817 68.9851 42.5826 69.0699 42.8594 69.2157C43.1363 69.3614 43.3837 69.5652 43.5873 69.8152C43.7909 70.0652 43.9467 70.3564 44.0456 70.672C44.1444 70.9877 44.1845 71.3214 44.1634 71.6539C44.1213 72.3153 43.8401 72.9321 43.3807 73.3705C42.9213 73.809 42.3207 74.0337 41.7092 73.9959C41.0977 73.9581 40.5247 73.6609 40.1143 73.1688C39.7039 72.6766 39.4893 72.0292 39.5171 71.3669ZM20.4589 68.6415C20.7252 68.2025 21.1416 67.896 21.6167 67.7893C22.0917 67.6827 22.5865 67.7847 22.992 68.0729C23.3976 68.3611 23.6808 68.8119 23.7793 69.3261C23.8778 69.8404 23.7836 70.3759 23.5174 70.8149C23.3855 71.0323 23.2154 71.2194 23.0167 71.3657C22.818 71.5119 22.5947 71.6143 22.3595 71.6671C22.1242 71.7199 21.8817 71.722 21.6457 71.6733C21.4097 71.6246 21.1849 71.5261 20.9841 71.3834C20.7832 71.2407 20.6104 71.0565 20.4753 70.8415C20.3402 70.6264 20.2456 70.3847 20.1968 70.13C20.1481 69.8754 20.1461 69.6128 20.1911 69.3574C20.236 69.1019 20.327 68.8589 20.4589 68.6415ZM61.3361 67.8647C61.5505 67.7473 61.7842 67.6768 62.0238 67.6573C62.2634 67.6377 62.5043 67.6696 62.7325 67.751C62.9607 67.8324 63.1718 67.9617 63.3538 68.1316C63.5357 68.3015 63.6849 68.5086 63.7928 68.741C63.9558 69.0907 64.0193 69.4848 63.9753 69.8736C63.9314 70.2623 63.7819 70.6283 63.5458 70.925C63.3097 71.2218 62.9976 71.4362 62.6489 71.5409C62.3003 71.6457 61.9308 71.6362 61.5871 71.5136C61.2435 71.391 60.9411 71.1609 60.7183 70.8523C60.4955 70.5437 60.3622 70.1705 60.3354 69.78C60.3085 69.3894 60.3892 68.9989 60.5674 68.658C60.7455 68.3171 61.013 68.0411 61.3361 67.8647ZM24.8768 58.1611C25.2872 57.483 25.9294 57.0091 26.6625 56.8434C27.3955 56.6777 28.1593 56.8338 28.7861 57.2774C29.4127 57.7222 29.8506 58.418 30.0035 59.2121C30.1565 60.0062 30.012 60.8335 29.6018 61.5123C29.189 62.185 28.5472 62.6537 27.8163 62.8159C27.0855 62.9781 26.325 62.8208 25.7009 62.3782C25.0769 61.9356 24.64 61.2437 24.4856 60.4536C24.3311 59.6635 24.4718 58.8393 24.8768 58.1611ZM55.5976 57.033C55.928 56.8506 56.2885 56.7406 56.6583 56.7091C57.0281 56.6777 57.4 56.7254 57.7527 56.8497C58.1054 56.974 58.432 57.1723 58.7139 57.4333C58.9958 57.6944 59.2273 58.013 59.3953 58.371C59.6479 58.9068 59.7491 59.5112 59.6862 60.1088C59.6233 60.7064 59.3991 61.2708 59.0416 61.7313C58.6842 62.1918 58.2093 62.5281 57.6763 62.6981C57.1433 62.8682 56.5758 62.8645 56.0447 62.6874C55.5137 62.5104 55.0426 62.1679 54.6903 61.7028C54.338 61.2376 54.1201 60.6704 54.0639 60.072C54.0077 59.4736 54.1156 58.8705 54.3742 58.3381C54.6328 57.8057 55.0305 57.3676 55.5178 57.0785L55.5976 57.033ZM38.8047 55.1655C39.0924 54.5245 39.5493 53.9904 40.1177 53.6309C40.6861 53.2715 41.3403 53.1028 41.9974 53.1462C43.8257 53.2645 45.2206 54.963 45.1152 56.9428C45.0874 57.4747 44.9508 57.9932 44.7154 58.461C44.48 58.9288 44.1516 59.3342 43.7539 59.6479C43.3562 59.9617 42.8991 60.176 42.4156 60.2753C41.9321 60.3747 41.4343 60.3567 40.958 60.2225C40.4818 60.0884 40.039 59.8415 39.6615 59.4997C39.2841 59.1578 38.9815 58.7296 38.7755 58.2458C38.5695 57.762 38.4652 57.2347 38.4703 56.7021C38.4754 56.1694 38.5896 55.6446 38.8047 55.1655ZM9.39483 49.5937C9.94432 49.2977 10.5796 49.2486 11.1623 49.4572C11.7451 49.6659 12.2281 50.1152 12.5062 50.7075C12.7843 51.2998 12.8349 51.9871 12.6471 52.6196C12.4593 53.2521 12.0482 53.7787 11.5034 54.0847C10.9586 54.3907 10.3242 54.4513 9.73827 54.2534C9.15237 54.0554 8.66244 53.6149 8.37518 53.0277C8.08792 52.4406 8.02658 51.7544 8.20453 51.1185C8.38248 50.4826 8.78529 49.9486 9.32527 49.6328L9.39483 49.5937ZM71.6875 50.3101C71.8535 50.0298 72.0692 49.788 72.3221 49.5985C72.5749 49.409 72.86 49.2757 73.1608 49.2062C73.4616 49.1367 73.7721 49.1324 74.0744 49.1936C74.3767 49.2549 74.6648 49.3803 74.922 49.5628C75.1792 49.7453 75.4005 49.9811 75.573 50.2567C75.7455 50.5323 75.8659 50.8422 75.9271 51.1685C75.9883 51.4947 75.9891 51.8309 75.9295 52.1575C75.87 52.4841 75.7512 52.7947 75.5801 53.0713C75.2389 53.6228 74.7104 54.0062 74.1095 54.1383C73.5086 54.2703 72.8839 54.1404 72.371 53.7766C71.8582 53.4128 71.4987 52.8446 71.3707 52.1955C71.2427 51.5464 71.3566 50.8688 71.6875 50.3101ZM32.6708 39.1392C33.7781 38.492 35.0533 38.2632 36.2944 38.4889C37.5354 38.7146 38.6715 39.3819 39.5227 40.3853C40.3739 41.3886 40.8916 42.6706 40.9939 44.0284C41.0962 45.3861 40.7772 46.742 40.0874 47.8813C39.5744 48.7337 38.8723 49.4334 38.0453 49.9166C37.2183 50.3998 36.2926 50.6511 35.3529 50.6475C34.0945 50.6464 32.8724 50.1911 31.88 49.3535C30.8877 48.516 30.1817 47.3441 29.8739 46.0233C29.5661 44.7026 29.674 43.3084 30.1806 42.0615C30.6872 40.8146 31.5635 39.7863 32.6708 39.1392ZM46.958 38.6788C48.2411 38.2317 49.6295 38.2954 50.873 38.8584C52.1165 39.4214 53.1334 40.4467 53.7404 41.7494C55.1362 44.7649 54.0173 48.4351 51.2368 49.9585C50.4474 50.3922 49.5757 50.6213 48.6905 50.6276C47.3427 50.6275 46.0392 50.1064 45.0149 49.158C43.9906 48.2097 43.3129 46.8965 43.104 45.4552C42.895 44.0138 43.1684 42.5391 43.8751 41.2967C44.5817 40.0543 45.675 39.1259 46.958 38.6788ZM19.7259 42.078C20.0466 41.6745 20.4461 41.353 20.8955 41.1368C21.3449 40.9205 21.8329 40.8148 22.3246 40.8274C22.8162 40.8399 23.2992 40.9703 23.7387 41.2092C24.1781 41.4481 24.5632 41.7896 24.866 42.209C25.1689 42.6284 25.3821 43.1153 25.4902 43.6346C25.5983 44.1539 25.5986 44.6927 25.4912 45.2122C25.3838 45.7317 25.1712 46.2189 24.8689 46.6387C24.5665 47.0586 24.1819 47.4006 23.7428 47.6402C23.056 48.0148 22.2704 48.1202 21.5199 47.9383C20.7693 47.7564 20.1002 47.2986 19.6266 46.6427C19.1529 45.9868 18.9039 45.1734 18.922 44.3411C18.9401 43.5088 19.2242 42.709 19.7259 42.078ZM59.0186 42.355C60.0263 40.6931 62.0879 40.2303 63.6228 41.3214C65.1552 42.4147 65.5818 44.6431 64.5777 46.3057C63.57 47.9673 61.5084 48.4301 59.9734 47.3393C58.4381 46.2482 58.0106 44.0169 59.0186 42.355ZM23.0012 31.7076C23.1777 28.3785 25.7831 25.8151 28.8615 25.9416C31.9394 26.068 34.3576 28.8377 34.3012 32.1715C34.2454 35.4676 31.7897 38.1166 28.7569 38.1791L28.6532 38.1802H28.3441C25.2561 37.9848 22.8897 35.1476 23.0117 31.8153L23.0166 31.7041L23.0012 31.7076ZM49.6811 31.6387C49.8603 28.2627 52.5342 25.683 55.653 25.8769C56.3939 25.9181 57.1197 26.1185 57.7883 26.4666C58.4568 26.8146 59.0546 27.3032 59.5469 27.904C60.2673 28.777 60.7414 29.8553 60.9129 31.011C61.0845 32.1668 60.9463 33.3516 60.5147 34.4249C60.0832 35.4983 59.3764 36.4152 58.4781 37.067C57.5799 37.7188 56.5278 38.0781 55.4466 38.1024L55.3314 38.1038H55.0036C51.8848 37.9099 49.5016 35.0155 49.6808 31.6394M9.54544 31.9179C9.58809 31.1085 9.92588 30.3506 10.4846 29.8108C11.0432 29.2709 11.7771 28.9932 12.5248 29.0388C13.2729 29.0854 13.9733 29.4515 14.4721 30.0568C14.971 30.662 15.2275 31.4569 15.1853 32.2667C15.1425 33.0763 14.8045 33.8343 14.2454 34.374C13.6864 34.9138 12.9521 35.191 12.2042 35.1448C11.4564 35.0985 10.7561 34.7325 10.2574 34.1274C9.75883 33.5222 9.50271 32.7275 9.54544 31.9179ZM68.8112 31.7794C68.8576 30.9729 69.197 30.2192 69.7553 29.6828C70.3136 29.1465 71.0453 28.8711 71.7905 28.917C72.5357 28.9629 73.2339 29.3262 73.7324 29.9275C74.231 30.5289 74.4893 31.3195 74.451 32.1264C74.408 32.9362 74.0698 33.6945 73.5106 34.2345C72.9515 34.7746 72.2172 35.0523 71.469 35.0066C70.7213 34.9599 70.0214 34.5938 69.523 33.9887C69.0247 33.3836 68.7686 32.5887 68.8112 31.7794ZM1.86008 30.1494L1.92833 30.1523C2.16817 30.1664 2.40308 30.2316 2.61955 30.3443C2.83603 30.4569 3.0298 30.6148 3.18975 30.8088C3.34971 31.0027 3.47268 31.229 3.5516 31.4746C3.63053 31.7201 3.66386 31.9801 3.64968 32.2397C3.62909 32.6268 3.5038 32.9988 3.28942 33.3094C3.07503 33.62 2.781 33.8555 2.44392 33.9866C2.10684 34.1177 1.74158 34.1386 1.3936 34.0467C1.04562 33.9548 0.730275 33.7542 0.486806 33.4699C0.243336 33.1855 0.0824897 32.8299 0.0242802 32.4473C-0.0339293 32.0648 0.0130679 31.6721 0.159424 31.3183C0.305781 30.9644 0.545035 30.6649 0.847416 30.4571C1.1498 30.2493 1.50196 30.1423 1.86008 30.1494ZM82.1997 29.9452L82.2758 29.9484C82.7599 29.9794 83.2128 30.2169 83.5355 30.6088C83.8581 31.0006 84.0241 31.5149 83.9972 32.039C83.9765 32.4265 83.8512 32.7989 83.6367 33.1098C83.4221 33.4208 83.1279 33.6567 82.7906 33.7882C82.4532 33.9197 82.0876 33.9409 81.7392 33.8493C81.3908 33.7578 81.0749 33.5574 80.8308 33.2731C80.5868 32.9887 80.4253 32.6331 80.3664 32.2502C80.3075 31.8674 80.3539 31.4742 80.4998 31.1197C80.6456 30.7651 80.8845 30.4648 81.1867 30.256C81.4889 30.0472 81.8412 29.9391 82.1997 29.9452ZM35.3036 13.4263C36.3501 13.4209 37.3774 13.731 38.2703 14.3218C39.1632 14.9126 39.8866 15.7608 40.3594 16.7714C40.7962 17.7053 41.0046 18.7448 40.9647 19.7907C40.9248 20.8366 40.6379 21.8539 40.1314 22.7457C39.625 23.6374 38.9158 24.3737 38.0717 24.8844C37.2275 25.3951 36.2766 25.6631 35.3095 25.6627C34.2607 25.6663 33.2318 25.3528 32.3387 24.7577C31.4455 24.1626 30.7236 23.3094 30.2541 22.2942C29.8224 21.3611 29.618 20.3242 29.6604 19.2817C29.7028 18.2392 29.9905 17.2257 30.4964 16.3373C31.0022 15.449 31.7093 14.7153 32.5507 14.2058C33.392 13.6963 34.3396 13.428 35.3036 13.4263ZM48.6442 13.3829C49.9025 13.3847 51.1243 13.8407 52.1162 14.6787C53.1082 15.5167 53.8136 16.6889 54.1208 18.0097C54.4281 19.3306 54.3196 20.7246 53.8126 21.9711C53.3056 23.2177 52.429 24.2457 51.3216 24.8923C50.2141 25.5389 48.9391 25.7673 47.6983 25.5413C46.4574 25.3152 45.3217 24.6477 44.4708 23.6443C43.6198 22.641 43.1024 21.3591 43.0002 20.0015C42.898 18.644 43.2171 17.2883 43.9068 16.1491C44.4222 15.2986 45.1252 14.6003 45.9523 14.1174C46.7794 13.6345 47.7045 13.3821 48.6442 13.3829ZM19.4164 17.735C20.4235 16.0727 22.4844 15.6085 24.02 16.6986C25.5557 17.7886 25.9845 20.0196 24.9782 21.6818C23.9712 23.3441 21.9102 23.8087 20.3746 22.719C20.009 22.4602 19.6941 22.1258 19.4481 21.7351C19.202 21.3444 19.0295 20.9051 18.9405 20.4421C18.8515 19.9792 18.8477 19.5018 18.9294 19.0373C19.0111 18.5727 19.1766 18.1302 19.4164 17.735ZM60.2576 16.4002C60.6475 16.1871 61.0724 16.0593 61.508 16.0241C61.9437 15.989 62.3814 16.0472 62.7962 16.1954C63.211 16.3436 63.5947 16.5789 63.9254 16.8878C64.2561 17.1967 64.5273 17.5732 64.7234 17.9957C65.5493 19.7713 64.8891 21.9354 63.2491 22.8298C61.6091 23.7241 59.6095 23.0092 58.7833 21.2339C57.9571 19.4587 58.6176 17.2942 60.2576 16.3999M8.418 10.9709C8.75639 10.4122 9.28596 10.0219 9.89021 9.8858C10.1894 9.81844 10.4979 9.81552 10.7982 9.87722C11.0984 9.93892 11.3845 10.064 11.64 10.2454C11.8956 10.4268 12.1157 10.6609 12.2877 10.9343C12.4596 11.2077 12.5802 11.5152 12.6424 11.839C12.7047 12.1629 12.7074 12.4969 12.6504 12.8218C12.5934 13.1468 12.4778 13.4565 12.3102 13.7331C11.9718 14.2918 11.4423 14.6822 10.838 14.8182C10.2338 14.9543 9.60434 14.8249 9.0882 14.4586C8.57205 14.0923 8.21148 13.5191 8.08579 12.865C7.96011 12.2109 8.0796 11.5296 8.418 10.9709ZM72.5049 9.95149C73.055 9.66013 73.689 9.61524 74.2694 9.82654C74.8499 10.0379 75.33 10.4883 75.6057 11.0803C75.8813 11.6722 75.9303 12.358 75.742 12.9887C75.5536 13.6195 75.1432 14.1445 74.5996 14.4499C74.048 14.7504 73.4087 14.8014 72.8223 14.5919C72.2359 14.3824 71.7503 13.9294 71.4723 13.3325C71.195 12.7359 71.148 12.0444 71.3416 11.4103C71.5353 10.7762 71.9537 10.2513 72.5049 9.95113M38.6256 7.09687C38.7306 5.11316 40.3016 3.59688 42.1346 3.70982C43.9671 3.82277 45.3686 5.52233 45.2649 7.50675C45.1615 9.49046 43.5921 11.0082 41.7592 10.897C39.9246 10.7837 38.5219 9.08271 38.6256 7.09687ZM25.8536 1.54675C26.1849 1.36607 26.5458 1.2578 26.9157 1.22809C27.2856 1.19839 27.6573 1.24785 28.0095 1.37364C28.3618 1.49944 28.6877 1.6991 28.9687 1.96124C29.2496 2.22338 29.4802 2.54285 29.6471 2.90142C29.814 3.25999 29.914 3.65064 29.9415 4.05106C29.9689 4.45148 29.9232 4.85383 29.807 5.23513C29.6908 5.61644 29.5063 5.96923 29.2642 6.27337C29.022 6.57751 28.7269 6.82704 28.3956 7.00772C27.7266 7.3726 26.9511 7.43487 26.2397 7.18082C25.5283 6.92677 24.9392 6.37721 24.6021 5.65304C24.2651 4.92887 24.2075 4.08941 24.4422 3.31933C24.6769 2.54925 25.1846 1.91163 25.8536 1.54675ZM54.3861 2.52777C54.6921 2.02123 55.1299 1.62425 55.6442 1.38699C56.1585 1.14973 56.7263 1.08285 57.2757 1.1948C57.8251 1.30676 58.3316 1.59252 58.731 2.01597C59.1305 2.43941 59.4049 2.98154 59.5198 3.57382C59.6347 4.1661 59.5847 4.78195 59.3763 5.34352C59.1679 5.90509 58.8104 6.38717 58.3489 6.72883C57.8875 7.0705 57.3428 7.2564 56.7837 7.26305C56.2247 7.2697 55.6764 7.0968 55.2081 6.76619C54.8966 6.54669 54.6282 6.26282 54.4183 5.93085C54.2083 5.59888 54.0609 5.22533 53.9846 4.83161C53.9082 4.43788 53.9044 4.03172 53.9733 3.63638C54.0422 3.24105 54.1825 2.86432 54.3861 2.52777ZM20.9987 -7.35419C21.4306 -7.58832 21.9306 -7.62799 22.3895 -7.46453C22.8484 -7.30107 23.2289 -6.94775 23.448 -6.4817C23.6671 -6.01565 23.707 -5.47469 23.559 -4.97691C23.411 -4.47912 23.0871 -4.06492 22.658 -3.82471C22.4427 -3.70555 22.2078 -3.63369 21.9667 -3.61327C21.7256 -3.59284 21.4832 -3.62426 21.2534 -3.70571C21.0236 -3.78717 20.811 -3.91704 20.6278 -4.08785C20.4446 -4.25866 20.2944 -4.46703 20.1859 -4.70095C19.9695 -5.16963 19.9336 -5.71201 20.0859 -6.20932C20.2383 -6.70662 20.5665 -7.1183 20.9987 -7.35419ZM60.4768 -6.77168C60.6082 -6.98937 60.778 -7.1769 60.9764 -7.32356C61.1748 -7.47023 61.3979 -7.57315 61.6331 -7.62647C61.8682 -7.67979 62.1108 -7.68244 62.3469 -7.63429C62.583 -7.58614 62.808 -7.48813 63.0091 -7.34584C63.2102 -7.20355 63.3834 -7.01978 63.5189 -6.80502C63.6544 -6.59026 63.7495 -6.34872 63.7988 -6.09418C63.848 -5.83964 63.8505 -5.5771 63.806 -5.32153C63.7615 -5.06596 63.671 -4.82238 63.5395 -4.6047C63.2741 -4.16506 62.8582 -3.85757 62.3833 -3.74986C61.9084 -3.64215 61.4135 -3.74305 61.0074 -4.03037C60.6012 -4.31768 60.3172 -4.76787 60.2176 -5.2819C60.1181 -5.79593 60.2114 -6.33205 60.4768 -6.77168ZM41.1482 -9.84758C41.4378 -9.96187 41.7454 -10.0128 42.0533 -9.99729C42.3611 -9.98183 42.6631 -9.90032 42.9416 -9.75749C43.2201 -9.61467 43.4697 -9.41338 43.6758 -9.16531C43.8818 -8.91724 44.0403 -8.62733 44.1421 -8.31241C44.2438 -7.99749 44.2867 -7.66384 44.2683 -7.33082C44.2499 -6.9978 44.1706 -6.67205 44.035 -6.37248C43.8994 -6.0729 43.7101 -5.80548 43.4782 -5.58573C43.2463 -5.36598 42.9764 -5.19828 42.6842 -5.09237C42.104 -4.88212 41.4707 -4.92764 40.9213 -5.2191C40.3719 -5.51055 39.9506 -6.02448 39.7487 -6.64964C39.5468 -7.27481 39.5804 -7.9609 39.8423 -8.55942C40.1043 -9.15793 40.5734 -9.62071 41.1482 -9.84758Z" fill="#FFA800"/>
</g>
<defs>
<clipPath id="clip0_256_1988">
<rect width="71" height="60" rx="30" fill="white"/>
</clipPath>
</defs>
</svg>
