<svg width="124" height="124" viewBox="0 0 124 124" fill="none" xmlns="http://www.w3.org/2000/svg">
<g filter="url(#filter0_f_3_5156)">
<circle cx="62" cy="62" r="18" fill="#FF7800"/>
</g>
<circle cx="62" cy="62" r="38" fill="white" fill-opacity="0.03"/>
<path d="M51.3059 48.0055L61.9997 41.833L72.6935 48.0055L68.7619 50.2858L61.9997 46.3936L55.2375 50.2858L51.3059 48.0055ZM72.6935 55.7899L68.7619 53.5096L61.9997 57.4018L55.2375 53.5096L51.3059 55.7899V60.3504L58.0681 64.2426V72.0271L61.9997 74.3074L65.9313 72.0271V64.2426L72.6935 60.3504V55.7899ZM72.6935 68.1349V63.5743L68.7619 65.8544V70.415L72.6935 68.1349ZM75.4848 69.7468L68.7225 73.639V78.1996L79.4163 72.0271V59.682L75.4848 61.9625V69.7468ZM71.5534 51.8977L75.4848 54.178V58.7385L79.4163 56.4583V51.8977L75.4848 49.6174L71.5534 51.8977ZM58.0681 75.2902V79.8508L61.9997 82.1311L65.9313 79.8508V75.2902L61.9997 77.5705L58.0681 75.2902ZM51.3059 68.1349L55.2375 70.415V65.8544L51.3059 63.5743V68.1349ZM58.0681 51.8977L61.9997 54.178L65.9313 51.8977L61.9997 49.6174L58.0681 51.8977ZM48.5145 54.178L52.4461 51.8977L48.5145 49.6174L44.583 51.8977V56.4583L48.5145 58.7385V54.178ZM48.5145 61.9625L44.583 59.682V72.0271L55.2767 78.1996V73.639L48.5145 69.7468V61.9625Z" fill="url(#paint0_linear_3_5156)"/>
<defs>
<filter id="filter0_f_3_5156" x="0" y="0" width="124" height="124" filterUnits="userSpaceOnUse" color-interpolation-filters="sRGB">
<feFlood flood-opacity="0" result="BackgroundImageFix"/>
<feBlend mode="normal" in="SourceGraphic" in2="BackgroundImageFix" result="shape"/>
<feGaussianBlur stdDeviation="22" result="effect1_foregroundBlur_3_5156"/>
</filter>
<linearGradient id="paint0_linear_3_5156" x1="79.4163" y1="61.9821" x2="44.583" y2="61.9821" gradientUnits="userSpaceOnUse">
<stop stop-color="#FFE501"/>
<stop offset="0.79589" stop-color="#FF7801"/>
</linearGradient>
</defs>
</svg>
