<svg width="124" height="124" viewBox="0 0 124 124" fill="none" xmlns="http://www.w3.org/2000/svg">
<g filter="url(#filter0_f_49_77)">
<circle cx="62" cy="62" r="18" fill="#FF7800"/>
</g>
<circle cx="62" cy="62" r="38" fill="white" fill-opacity="0.03"/>
<path d="M68.9482 68.5999C67.3917 67.977 66.7702 66.2651 66.7702 66.2651C66.7702 66.2651 66.0689 66.6529 66.0689 65.5639C66.0689 64.4749 66.7702 66.2651 67.4714 62.0604C67.4714 62.0604 69.4143 61.5145 69.0252 57.0004H68.5577C68.5577 57.0004 69.7264 52.1741 68.5577 50.5379C67.3889 48.9044 66.9242 47.8154 64.3543 47.0358C61.7844 46.2561 62.7208 46.4115 60.8522 46.4913C58.9836 46.571 57.4257 47.5816 57.4257 48.1275C57.4257 48.1275 56.2569 48.2045 55.7922 48.672C55.3247 49.1395 54.5464 51.3175 54.5464 51.862C54.5464 52.4065 54.9356 56.0695 55.3247 56.8464L54.8613 57.0031C54.4708 61.5173 56.4151 62.0631 56.4151 62.0631C57.1163 66.2679 57.8176 64.4776 57.8176 65.5666C57.8176 66.6556 57.1163 66.2679 57.1163 66.2679C57.1163 66.2679 56.4948 67.9798 54.9383 68.6026C53.3818 69.2255 44.7413 72.5709 44.0387 73.2721C43.3347 73.9734 43.4144 77.2431 43.4144 77.2431H80.4666C80.4666 77.2431 80.5491 73.9748 79.8451 73.2721C79.1438 72.5709 70.5019 69.2241 68.9454 68.6026L68.9482 68.5999ZM51.8019 68.3634C51.6644 68.1159 51.5984 67.9371 51.5984 67.9371C51.5984 67.9371 51.0044 68.2671 51.0044 67.3431C51.0044 66.4191 51.5984 67.9371 52.1924 64.3731C52.1924 64.3731 53.8424 63.9125 53.5124 60.0859H53.1137C53.1137 60.0859 53.3117 59.2746 53.4409 58.2516C53.4351 57.7946 53.4521 57.3375 53.4918 56.8821L53.5441 56.2964C53.5166 55.6199 53.3969 55.0039 53.1151 54.6106C52.1251 53.226 51.7291 52.3006 49.5538 51.6406C47.3758 50.9806 48.1651 51.1126 46.5838 51.18C44.9998 51.2488 43.6798 52.104 43.6798 52.5688C43.6798 52.5688 42.6898 52.6334 42.2938 53.0294C41.9226 53.4006 41.3244 55.0396 41.2529 55.6213V56.0063C41.3189 56.9055 41.6104 59.375 41.8992 59.9566L41.5059 60.0886C41.1759 63.9139 42.8259 64.3759 42.8259 64.3759C43.4172 67.9371 44.0126 66.4219 44.0126 67.3459C44.0126 68.2699 43.4186 67.9371 43.4186 67.9371C43.4186 67.9371 42.8919 69.3919 41.5719 69.9171L41.2529 70.0436V77.2404H42.0436C42.0023 75.4831 42.1494 73.2158 43.0693 72.2986C43.5602 71.8105 45.1648 71.0061 51.8047 68.3634H51.8019ZM82.5057 55.9114C82.4507 55.3916 82.3311 54.9283 82.1042 54.6106C81.1169 53.2246 80.7196 52.3006 78.5429 51.6406C76.3663 50.9806 77.1583 51.1126 75.5729 51.18C73.9917 51.2488 72.6717 52.104 72.6717 52.5688C72.6717 52.5688 71.6817 52.6334 71.2857 53.0294C70.9144 53.4034 70.3094 55.0534 70.2434 55.6281H70.2888L70.3988 56.8849C70.4263 57.2011 70.4291 57.483 70.4359 57.7704C70.5597 58.6861 70.7247 59.6266 70.8897 59.9566L70.4964 60.0873C70.1664 63.9125 71.8164 64.3745 71.8164 64.3745C72.4104 67.9358 73.0031 66.4205 73.0031 67.3445C73.0031 68.2685 72.4118 67.9358 72.4118 67.9358C72.4118 67.9358 72.3376 68.1324 72.1863 68.4033C78.7451 71.0158 80.3359 71.8133 80.8213 72.2986C81.7426 73.2171 81.8856 75.4831 81.8457 77.2418H82.5057V69.9474L82.4369 69.9171C81.1169 69.3905 80.5889 67.9371 80.5889 67.9371C80.5889 67.9371 79.9936 68.2671 79.9936 67.3459C79.9936 66.4246 80.5889 67.9371 81.1816 64.3759C81.1816 64.3759 82.2871 64.0596 82.5057 61.8459V60.1574C82.5057 60.1336 82.5043 60.1106 82.5016 60.0886H82.1028C82.1028 60.0886 82.3998 58.8649 82.5057 57.5284V55.9114Z" fill="url(#paint0_linear_49_77)"/>
<defs>
<filter id="filter0_f_49_77" x="0" y="0" width="124" height="124" filterUnits="userSpaceOnUse" color-interpolation-filters="sRGB">
<feFlood flood-opacity="0" result="BackgroundImageFix"/>
<feBlend mode="normal" in="SourceGraphic" in2="BackgroundImageFix" result="shape"/>
<feGaussianBlur stdDeviation="22" result="effect1_foregroundBlur_49_77"/>
</filter>
<linearGradient id="paint0_linear_49_77" x1="87.5002" y1="62" x2="41.2529" y2="61.833" gradientUnits="userSpaceOnUse">
<stop stop-color="#FFE601"/>
<stop offset="0.550679" stop-color="#FF7800"/>
</linearGradient>
</defs>
</svg>
