<svg width="372" height="279" viewBox="0 0 372 279" fill="none" xmlns="http://www.w3.org/2000/svg">
<g clip-path="url(#clip0_3_5728)">
<path d="M267.835 192.939L271.154 193.555L271.895 197.062L272.635 193.555L275.954 192.939L272.653 192.13L271.895 188.821L271.142 192.13L267.835 192.939Z" fill="#C7C7C7"/>
<path d="M130.942 174.012L134.261 174.628L135.002 178.135L135.743 174.628L139.061 174.012L135.755 173.203L135.002 169.895L134.243 173.203L130.942 174.012Z" fill="#C7C7C7"/>
<path d="M233.949 136.539L237.262 137.154L238.003 140.656L238.744 137.154L242.062 136.532L238.762 135.723L238.003 132.415L237.25 135.723L233.949 136.539Z" fill="#C7C7C7"/>
<path d="M299.372 172.303L301.227 172.647L301.643 174.609L302.058 172.647L303.913 172.303L302.064 171.85L301.643 169.997L301.221 171.85L299.372 172.303Z" fill="#C7C7C7"/>
<path d="M338.648 246.865L340.504 247.209L340.919 249.171L341.335 247.209L343.184 246.865L341.341 246.412L340.919 244.564L340.498 246.412L338.648 246.865Z" fill="#C7C7C7"/>
<path d="M294.837 84.0981L296.692 84.4422L297.108 86.4043L297.523 84.4422L299.378 84.0981L297.529 83.6453L297.108 81.7979L296.686 83.6453L294.837 84.0981Z" fill="#C7C7C7"/>
<path d="M56.217 10.7385L58.0721 11.0826L58.4877 13.0447L58.9033 11.0826L60.7584 10.7385L58.9094 10.2857L58.4877 8.43823L58.0661 10.2857L56.217 10.7385Z" fill="#C7C7C7"/>
<path d="M58.2168 146.433L60.0719 146.777L60.4875 148.739L60.9031 146.777L62.7582 146.433L60.9091 145.98L60.4875 144.133L60.0659 145.98L58.2168 146.433Z" fill="#C7C7C7"/>
<path d="M76.084 126.251L77.9391 126.589L78.3547 128.551L78.7703 126.589L80.6254 126.245L78.7763 125.792L78.3547 123.944L77.9331 125.792L76.084 126.251Z" fill="#C7C7C7"/>
<path d="M86.0352 225.981L87.8903 226.325L88.3059 228.281L88.7214 226.325L90.5766 225.981L88.7275 225.528L88.3059 223.675L87.8842 225.528L86.0352 225.981Z" fill="#C7C7C7"/>
<path d="M287.681 133.737L289.536 134.081L289.951 136.037L290.367 134.081L292.222 133.731L290.373 133.284L289.951 131.431L289.53 133.284L287.681 133.737Z" fill="#C7C7C7"/>
<path d="M49.0616 60.3776L50.9168 60.7217L51.3324 62.6778L51.7479 60.7217L53.603 60.3715L51.754 59.9248L51.3324 58.0713L50.9107 59.9248L49.0616 60.3776Z" fill="#C7C7C7"/>
<path d="M329.46 56.3414L331.315 56.6856L331.731 58.6416L332.146 56.6856L334.001 56.3414L332.152 55.8886L331.731 54.0352L331.309 55.8886L329.46 56.3414Z" fill="#C7C7C7"/>
<path d="M141.983 39.7174L143.832 40.0615L144.248 42.0176L144.664 40.0615L146.519 39.7174L144.67 39.2646L144.248 37.4111L143.826 39.2646L141.983 39.7174Z" fill="#C7C7C7"/>
<path d="M264.579 99.4811L266.434 99.8252L266.844 101.781L267.259 99.8252L269.114 99.4811L267.271 99.0283L266.844 97.1748L266.422 99.0283L264.579 99.4811Z" fill="#C7C7C7"/>
<path d="M154.264 251.103C154.397 251.117 154.521 251.18 154.61 251.279C154.7 251.379 154.749 251.509 154.749 251.643C154.749 251.777 154.7 251.907 154.61 252.006C154.521 252.106 154.397 252.169 154.264 252.183C154.131 252.169 154.008 252.106 153.918 252.006C153.829 251.907 153.779 251.777 153.779 251.643C153.779 251.509 153.829 251.379 153.918 251.279C154.008 251.18 154.131 251.117 154.264 251.103Z" fill="#C7C7C7"/>
<path d="M350.151 150.043C350.284 150.057 350.407 150.12 350.497 150.22C350.586 150.32 350.636 150.449 350.636 150.583C350.636 150.718 350.586 150.847 350.497 150.947C350.407 151.047 350.284 151.11 350.151 151.124C350.018 151.11 349.895 151.047 349.805 150.947C349.716 150.847 349.666 150.718 349.666 150.583C349.666 150.449 349.716 150.32 349.805 150.22C349.895 150.12 350.018 150.057 350.151 150.043Z" fill="#C7C7C7"/>
<path d="M11.5319 76.6846C11.665 76.6987 11.7883 76.7617 11.8778 76.8615C11.9674 76.9612 12.0169 77.0907 12.0169 77.2249C12.0169 77.3591 11.9674 77.4886 11.8778 77.5883C11.7883 77.6881 11.665 77.7511 11.5319 77.7652C11.3987 77.7511 11.2755 77.6881 11.186 77.5883C11.0964 77.4886 11.0469 77.3591 11.0469 77.2249C11.0469 77.0907 11.0964 76.9612 11.186 76.8615C11.2755 76.7617 11.3987 76.6987 11.5319 76.6846Z" fill="#C7C7C7"/>
<path d="M31.5319 192.276C31.665 192.29 31.7883 192.354 31.8778 192.453C31.9674 192.553 32.0169 192.683 32.0169 192.817C32.0169 192.951 31.9674 193.08 31.8778 193.18C31.7883 193.28 31.665 193.343 31.5319 193.357C31.3987 193.343 31.2755 193.28 31.186 193.18C31.0964 193.08 31.0469 192.951 31.0469 192.817C31.0469 192.683 31.0964 192.553 31.186 192.453C31.2755 192.354 31.3987 192.29 31.5319 192.276Z" fill="#C7C7C7"/>
<path d="M334.322 205.502C334.464 205.502 334.601 205.559 334.701 205.659C334.802 205.76 334.858 205.897 334.858 206.039C334.858 206.182 334.802 206.318 334.701 206.419C334.601 206.52 334.464 206.577 334.322 206.577C334.18 206.577 334.044 206.52 333.943 206.419C333.843 206.318 333.786 206.182 333.786 206.039C333.786 205.897 333.843 205.76 333.943 205.659C334.044 205.559 334.18 205.502 334.322 205.502Z" fill="#C7C7C7"/>
<path d="M124.558 247.058C124.691 247.072 124.815 247.135 124.904 247.235C124.994 247.334 125.043 247.464 125.043 247.598C125.043 247.732 124.994 247.862 124.904 247.961C124.815 248.061 124.691 248.124 124.558 248.138C124.425 248.124 124.302 248.061 124.212 247.961C124.123 247.862 124.073 247.732 124.073 247.598C124.073 247.464 124.123 247.334 124.212 247.235C124.302 247.135 124.425 247.072 124.558 247.058Z" fill="#C7C7C7"/>
<path d="M304.009 254.199C304.143 254.213 304.266 254.276 304.355 254.376C304.445 254.476 304.494 254.605 304.494 254.74C304.494 254.874 304.445 255.003 304.355 255.103C304.266 255.203 304.143 255.266 304.009 255.28C303.876 255.266 303.753 255.203 303.664 255.103C303.574 255.003 303.524 254.874 303.524 254.74C303.524 254.605 303.574 254.476 303.664 254.376C303.753 254.276 303.876 254.213 304.009 254.199Z" fill="#C7C7C7"/>
<path d="M275.731 157.138C275.874 157.138 276.01 157.194 276.11 157.295C276.211 157.396 276.267 157.533 276.267 157.675C276.267 157.818 276.211 157.954 276.11 158.055C276.01 158.156 275.874 158.212 275.731 158.212C275.589 158.212 275.453 158.156 275.352 158.055C275.252 157.954 275.195 157.818 275.195 157.675C275.195 157.533 275.252 157.396 275.352 157.295C275.453 157.194 275.589 157.138 275.731 157.138Z" fill="#C7C7C7"/>
<path d="M37.1122 83.7783C37.2544 83.7783 37.3907 83.8349 37.4913 83.9357C37.5918 84.0365 37.6483 84.1731 37.6483 84.3156C37.6483 84.4581 37.5918 84.5948 37.4913 84.6956C37.3907 84.7964 37.2544 84.853 37.1122 84.853C36.97 84.853 36.8337 84.7964 36.7332 84.6956C36.6326 84.5948 36.5762 84.4581 36.5762 84.3156C36.5762 84.1731 36.6326 84.0365 36.7332 83.9357C36.8337 83.8349 36.97 83.7783 37.1122 83.7783Z" fill="#C7C7C7"/>
<path d="M57.1122 219.473C57.2544 219.473 57.3907 219.529 57.4913 219.63C57.5918 219.731 57.6483 219.867 57.6483 220.01C57.6483 220.152 57.5918 220.289 57.4913 220.39C57.3907 220.491 57.2544 220.547 57.1122 220.547C56.97 220.547 56.8337 220.491 56.7332 220.39C56.6326 220.289 56.5762 220.152 56.5762 220.01C56.5762 219.867 56.6326 219.731 56.7332 219.63C56.8337 219.529 56.97 219.473 57.1122 219.473Z" fill="#C7C7C7"/>
<path d="M167.725 241.412C167.826 241.412 167.922 241.452 167.993 241.524C168.065 241.595 168.105 241.692 168.105 241.792C168.105 241.893 168.065 241.99 167.993 242.061C167.922 242.133 167.826 242.173 167.725 242.173C167.625 242.173 167.528 242.133 167.457 242.061C167.386 241.99 167.346 241.893 167.346 241.792C167.346 241.692 167.386 241.595 167.457 241.524C167.528 241.452 167.625 241.412 167.725 241.412Z" fill="#C7C7C7"/>
<path d="M91.7866 43.4912C91.8798 43.503 91.9655 43.5484 92.0276 43.619C92.0897 43.6896 92.124 43.7805 92.124 43.8746C92.124 43.9687 92.0897 44.0596 92.0276 44.1302C91.9655 44.2008 91.8798 44.2462 91.7866 44.258C91.6934 44.2462 91.6077 44.2008 91.5456 44.1302C91.4835 44.0596 91.4492 43.9687 91.4492 43.8746C91.4492 43.7805 91.4835 43.6896 91.5456 43.619C91.6077 43.5484 91.6934 43.503 91.7866 43.4912Z" fill="#C7C7C7"/>
<path d="M338.455 166.006C338.555 166.006 338.652 166.046 338.723 166.117C338.794 166.189 338.834 166.285 338.834 166.386C338.834 166.487 338.794 166.584 338.723 166.655C338.652 166.726 338.555 166.767 338.455 166.767C338.354 166.767 338.257 166.726 338.186 166.655C338.115 166.584 338.075 166.487 338.075 166.386C338.075 166.285 338.115 166.189 338.186 166.117C338.257 166.046 338.354 166.006 338.455 166.006Z" fill="#C7C7C7"/>
<path d="M-0.165465 92.6475C-0.0648277 92.6475 0.0316805 92.6875 0.102842 92.7589C0.174003 92.8302 0.213973 92.9269 0.213973 93.0278C0.213973 93.1287 0.174003 93.2254 0.102842 93.2968C0.0316805 93.3681 -0.0648277 93.4082 -0.165465 93.4082C-0.266103 93.4082 -0.362629 93.3681 -0.433791 93.2968C-0.504952 93.2254 -0.544922 93.1287 -0.544922 93.0278C-0.544922 92.9269 -0.504952 92.8302 -0.433791 92.7589C-0.362629 92.6875 -0.266103 92.6475 -0.165465 92.6475Z" fill="#C7C7C7"/>
<path d="M29.8355 258.496C29.9361 258.496 30.0327 258.536 30.1038 258.607C30.175 258.679 30.2149 258.776 30.2149 258.876C30.2149 258.977 30.175 259.074 30.1038 259.145C30.0327 259.217 29.9361 259.257 29.8355 259.257C29.7349 259.257 29.6383 259.217 29.5672 259.145C29.496 259.074 29.4561 258.977 29.4561 258.876C29.4561 258.776 29.496 258.679 29.5672 258.607C29.6383 258.536 29.7349 258.496 29.8355 258.496Z" fill="#C7C7C7"/>
<path d="M220.084 198.982C220.178 198.994 220.263 199.04 220.325 199.11C220.388 199.181 220.422 199.272 220.422 199.366C220.422 199.46 220.388 199.551 220.325 199.621C220.263 199.692 220.178 199.737 220.084 199.749C219.991 199.737 219.906 199.692 219.843 199.621C219.781 199.551 219.747 199.46 219.747 199.366C219.747 199.272 219.781 199.181 219.843 199.11C219.906 199.04 219.991 198.994 220.084 198.982Z" fill="#C7C7C7"/>
<path d="M1.46435 261.317C1.55753 261.329 1.64321 261.375 1.70533 261.445C1.76745 261.516 1.80174 261.607 1.80174 261.701C1.80174 261.795 1.76745 261.886 1.70533 261.956C1.64321 262.027 1.55753 262.072 1.46435 262.084C1.37118 262.072 1.28548 262.027 1.22336 261.956C1.16124 261.886 1.12695 261.795 1.12695 261.701C1.12695 261.607 1.16124 261.516 1.22336 261.445C1.28548 261.375 1.37118 261.329 1.46435 261.317Z" fill="#C7C7C7"/>
<path d="M189.999 192.559C190.099 192.559 190.196 192.599 190.267 192.67C190.338 192.741 190.378 192.838 190.378 192.939C190.378 193.04 190.338 193.137 190.267 193.208C190.196 193.279 190.099 193.319 189.999 193.319C189.898 193.319 189.801 193.279 189.73 193.208C189.659 193.137 189.619 193.04 189.619 192.939C189.619 192.838 189.659 192.741 189.73 192.67C189.801 192.599 189.898 192.559 189.999 192.559Z" fill="#C7C7C7"/>
<path d="M225.559 159.075C225.819 159.095 226.062 159.213 226.24 159.405C226.417 159.597 226.516 159.849 226.516 160.111C226.516 160.372 226.417 160.624 226.24 160.816C226.062 161.008 225.819 161.126 225.559 161.146C225.298 161.126 225.055 161.008 224.878 160.816C224.7 160.624 224.602 160.372 224.602 160.111C224.602 159.849 224.7 159.597 224.878 159.405C225.055 159.213 225.298 159.095 225.559 159.075Z" fill="#C7C7C7"/>
<path d="M172.815 54.7505L176.134 55.3602L176.875 58.8679L177.616 55.3602L180.935 54.7444L177.634 53.9354L176.875 50.627L176.122 53.9354L172.815 54.7505Z" fill="#C7C7C7"/>
<path d="M185.457 24.401L187.312 24.7391L187.728 26.7012L188.143 24.7391L189.998 24.3949L188.149 23.9421L187.728 22.0947L187.306 23.9421L185.457 24.401Z" fill="#C7C7C7"/>
<path d="M73.0182 74.6914C73.1514 74.7055 73.2746 74.7686 73.3641 74.8683C73.4537 74.9681 73.5032 75.0975 73.5032 75.2317C73.5032 75.366 73.4537 75.4954 73.3641 75.5952C73.2746 75.6949 73.1514 75.758 73.0182 75.7721C72.8851 75.758 72.7619 75.6949 72.6723 75.5952C72.5828 75.4954 72.5332 75.366 72.5332 75.2317C72.5332 75.0975 72.5828 74.9681 72.6723 74.8683C72.7619 74.7686 72.8851 74.7055 73.0182 74.6914Z" fill="#C7C7C7"/>
<path d="M41.4932 167.338C41.6354 167.338 41.7717 167.395 41.8723 167.495C41.9728 167.596 42.0293 167.733 42.0293 167.875C42.0293 168.018 41.9728 168.155 41.8723 168.255C41.7717 168.356 41.6354 168.413 41.4932 168.413C41.351 168.413 41.2147 168.356 41.1142 168.255C41.0136 168.155 40.9572 168.018 40.9572 167.875C40.9572 167.733 41.0136 167.596 41.1142 167.495C41.2147 167.395 41.351 167.338 41.4932 167.338Z" fill="#C7C7C7"/>
<path d="M26.9352 234.271C27.0684 234.286 27.1916 234.349 27.2811 234.448C27.3707 234.548 27.4202 234.678 27.4202 234.812C27.4202 234.946 27.3707 235.075 27.2811 235.175C27.1916 235.275 27.0684 235.338 26.9352 235.352C26.8021 235.338 26.6788 235.275 26.5893 235.175C26.4997 235.075 26.4502 234.946 26.4502 234.812C26.4502 234.678 26.4997 234.548 26.5893 234.448C26.6788 234.349 26.8021 234.286 26.9352 234.271Z" fill="#C7C7C7"/>
<path d="M94.4606 119.863C94.5937 119.877 94.717 119.94 94.8065 120.04C94.8961 120.14 94.9456 120.269 94.9456 120.404C94.9456 120.538 94.8961 120.667 94.8065 120.767C94.717 120.867 94.5937 120.93 94.4606 120.944C94.3275 120.93 94.2042 120.867 94.1147 120.767C94.0251 120.667 93.9756 120.538 93.9756 120.404C93.9756 120.269 94.0251 120.14 94.1147 120.04C94.2042 119.94 94.3275 119.877 94.4606 119.863Z" fill="#C7C7C7"/>
<path d="M66.9355 26.8574C67.0785 26.8574 67.2156 26.9144 67.3167 27.0157C67.4178 27.117 67.4746 27.2545 67.4746 27.3978C67.4746 27.5411 67.4178 27.6785 67.3167 27.7798C67.2156 27.8812 67.0785 27.9381 66.9355 27.9381C66.7926 27.9381 66.6555 27.8812 66.5544 27.7798C66.4533 27.6785 66.3965 27.5411 66.3965 27.3978C66.3965 27.2545 66.4533 27.117 66.5544 27.0157C66.6555 26.9144 66.7926 26.8574 66.9355 26.8574Z" fill="#C7C7C7"/>
<path d="M115.728 191.906C115.829 191.906 115.925 191.946 115.996 192.018C116.068 192.089 116.108 192.186 116.108 192.287C116.108 192.387 116.068 192.484 115.996 192.556C115.925 192.627 115.829 192.667 115.728 192.667C115.627 192.667 115.531 192.627 115.46 192.556C115.389 192.484 115.349 192.387 115.349 192.287C115.349 192.186 115.389 192.089 115.46 192.018C115.531 191.946 115.627 191.906 115.728 191.906Z" fill="#C7C7C7"/>
<path d="M195.944 240.767C196.045 240.767 196.141 240.807 196.212 240.878C196.283 240.95 196.323 241.046 196.323 241.147C196.323 241.248 196.283 241.345 196.212 241.416C196.141 241.487 196.045 241.528 195.944 241.528C195.843 241.528 195.747 241.487 195.676 241.416C195.604 241.345 195.564 241.248 195.564 241.147C195.564 241.046 195.604 240.95 195.676 240.878C195.747 240.807 195.843 240.767 195.944 240.767Z" fill="#C7C7C7"/>
<path d="M252.422 66.3779C252.523 66.3779 252.62 66.418 252.691 66.4893C252.762 66.5607 252.802 66.6574 252.802 66.7583C252.802 66.8592 252.762 66.9559 252.691 67.0272C252.62 67.0986 252.523 67.1386 252.422 67.1386C252.322 67.1386 252.225 67.0986 252.154 67.0272C252.083 66.9559 252.043 66.8592 252.043 66.7583C252.043 66.6574 252.083 66.5607 252.154 66.4893C252.225 66.418 252.322 66.3779 252.422 66.3779Z" fill="#C7C7C7"/>
<path d="M183.729 43.0322C183.83 43.0322 183.926 43.0723 183.997 43.1436C184.069 43.215 184.109 43.3117 184.109 43.4126C184.109 43.5135 184.069 43.6102 183.997 43.6815C183.926 43.7529 183.83 43.7929 183.729 43.7929C183.628 43.7929 183.532 43.7529 183.461 43.6815C183.39 43.6102 183.35 43.5135 183.35 43.4126C183.35 43.3117 183.39 43.215 183.461 43.1436C183.532 43.0723 183.628 43.0322 183.729 43.0322Z" fill="#C7C7C7"/>
<path d="M160.92 178.364C161.193 178.364 161.455 178.473 161.648 178.667C161.841 178.86 161.95 179.123 161.95 179.397C161.95 179.67 161.841 179.933 161.648 180.127C161.455 180.32 161.193 180.429 160.92 180.429C160.646 180.429 160.384 180.32 160.191 180.127C159.998 179.933 159.89 179.67 159.89 179.397C159.89 179.123 159.998 178.86 160.191 178.667C160.384 178.473 160.646 178.364 160.92 178.364Z" fill="#C7C7C7"/>
<path d="M336.649 100.32C336.922 100.32 337.184 100.429 337.377 100.623C337.571 100.816 337.679 101.079 337.679 101.353C337.679 101.627 337.571 101.889 337.377 102.083C337.184 102.276 336.922 102.385 336.649 102.385C336.376 102.385 336.114 102.276 335.921 102.083C335.728 101.889 335.619 101.627 335.619 101.353C335.619 101.079 335.728 100.816 335.921 100.623C336.114 100.429 336.376 100.32 336.649 100.32Z" fill="#C7C7C7"/>
<path d="M75.7751 200.926C76.0482 200.926 76.3102 201.035 76.5033 201.228C76.6965 201.422 76.805 201.684 76.805 201.958C76.805 202.232 76.6965 202.495 76.5033 202.688C76.3102 202.882 76.0482 202.991 75.7751 202.991C75.5019 202.991 75.2399 202.882 75.0468 202.688C74.8536 202.495 74.7451 202.232 74.7451 201.958C74.7451 201.684 74.8536 201.422 75.0468 201.228C75.2399 201.035 75.5019 200.926 75.7751 200.926Z" fill="#C7C7C7"/>
<path d="M172.339 151.125L174.194 151.469L174.61 153.425L175.019 151.469L176.874 151.119L175.031 150.672L174.61 148.818L174.188 150.672L172.339 151.125Z" fill="#C7C7C7"/>
<path d="M211.73 244.86L213.586 245.204L214.001 247.166L214.417 245.204L216.272 244.86L214.423 244.407L214.001 242.56L213.58 244.407L211.73 244.86Z" fill="#C7C7C7"/>
<path d="M219.946 220.723C220.088 220.723 220.225 220.779 220.325 220.88C220.426 220.981 220.482 221.117 220.482 221.26C220.482 221.402 220.426 221.539 220.325 221.64C220.225 221.741 220.088 221.797 219.946 221.797C219.804 221.797 219.668 221.741 219.567 221.64C219.467 221.539 219.41 221.402 219.41 221.26C219.41 221.117 219.467 220.981 219.567 220.88C219.668 220.779 219.804 220.723 219.946 220.723Z" fill="#C7C7C7"/>
<path d="M240.893 206.39C241.026 206.404 241.15 206.467 241.239 206.567C241.329 206.666 241.378 206.796 241.378 206.93C241.378 207.064 241.329 207.194 241.239 207.293C241.15 207.393 241.026 207.456 240.893 207.47C240.76 207.456 240.637 207.393 240.547 207.293C240.458 207.194 240.408 207.064 240.408 206.93C240.408 206.796 240.458 206.666 240.547 206.567C240.637 206.467 240.76 206.404 240.893 206.39Z" fill="#C7C7C7"/>
<path d="M174.61 231.137L176.465 231.481L176.875 233.438L177.291 231.481L179.146 231.137L177.297 230.685L176.875 228.831L176.453 230.685L174.61 231.137Z" fill="#C7C7C7"/>
<path d="M250.947 57.5938C251.08 57.6079 251.203 57.6709 251.293 57.7707C251.382 57.8704 251.432 57.9999 251.432 58.1341C251.432 58.2683 251.382 58.3978 251.293 58.4975C251.203 58.5973 251.08 58.6603 250.947 58.6744C250.814 58.6603 250.691 58.5973 250.601 58.4975C250.511 58.3978 250.462 58.2683 250.462 58.1341C250.462 57.9999 250.511 57.8704 250.601 57.7707C250.691 57.6709 250.814 57.6079 250.947 57.5938Z" fill="#C7C7C7"/>
<path d="M263.872 208.093C263.972 208.093 264.069 208.133 264.14 208.204C264.211 208.276 264.251 208.372 264.251 208.473C264.251 208.574 264.211 208.671 264.14 208.742C264.069 208.813 263.972 208.853 263.872 208.853C263.771 208.853 263.674 208.813 263.603 208.742C263.532 208.671 263.492 208.574 263.492 208.473C263.492 208.372 263.532 208.276 263.603 208.204C263.674 208.133 263.771 208.093 263.872 208.093Z" fill="#C7C7C7"/>
<path d="M102.062 143.288L103.918 143.632L104.333 145.588L104.749 143.632L106.604 143.282L104.755 142.835L104.333 140.981L103.912 142.835L102.062 143.288Z" fill="#C7C7C7"/>
<path d="M80.6259 172.938C80.7681 172.938 80.9044 172.994 81.0049 173.095C81.1055 173.196 81.162 173.332 81.162 173.475C81.162 173.617 81.1055 173.754 81.0049 173.855C80.9044 173.956 80.7681 174.012 80.6259 174.012C80.4837 174.012 80.3474 173.956 80.2469 173.855C80.1463 173.754 80.0898 173.617 80.0898 173.475C80.0898 173.332 80.1463 173.196 80.2469 173.095C80.3474 172.994 80.4837 172.938 80.6259 172.938Z" fill="#C7C7C7"/>
<path d="M154.782 133.254C154.924 133.254 155.061 133.311 155.161 133.411C155.262 133.512 155.318 133.649 155.318 133.791C155.318 133.934 155.262 134.07 155.161 134.171C155.061 134.272 154.924 134.329 154.782 134.329C154.64 134.329 154.504 134.272 154.403 134.171C154.303 134.07 154.246 133.934 154.246 133.791C154.246 133.649 154.303 133.512 154.403 133.411C154.504 133.311 154.64 133.254 154.782 133.254Z" fill="#C7C7C7"/>
<path d="M91.7867 78.8154C91.8873 78.8154 91.9838 78.8555 92.055 78.9268C92.1262 78.9982 92.1661 79.0949 92.1661 79.1958C92.1661 79.2967 92.1262 79.3934 92.055 79.4647C91.9838 79.5361 91.8873 79.5761 91.7867 79.5761C91.686 79.5761 91.5895 79.5361 91.5184 79.4647C91.4472 79.3934 91.4072 79.2967 91.4072 79.1958C91.4072 79.0949 91.4472 78.9982 91.5184 78.9268C91.5895 78.8555 91.686 78.8154 91.7867 78.8154Z" fill="#C7C7C7"/>
<path d="M26.9196 125.57C27.1928 125.57 27.4547 125.679 27.6479 125.873C27.841 126.066 27.9495 126.329 27.9495 126.603C27.9495 126.877 27.841 127.139 27.6479 127.333C27.4547 127.526 27.1928 127.635 26.9196 127.635C26.6464 127.635 26.3845 127.526 26.1913 127.333C25.9982 127.139 25.8896 126.877 25.8896 126.603C25.8896 126.329 25.9982 126.066 26.1913 125.873C26.3845 125.679 26.6464 125.57 26.9196 125.57Z" fill="#C7C7C7"/>
<path d="M297.679 29.707C297.953 29.707 298.214 29.8158 298.408 30.0094C298.601 30.203 298.709 30.4656 298.709 30.7394C298.709 31.0132 298.601 31.2758 298.408 31.4694C298.214 31.663 297.953 31.7718 297.679 31.7718C297.406 31.7718 297.144 31.663 296.951 31.4694C296.758 31.2758 296.649 31.0132 296.649 30.7394C296.649 30.4656 296.758 30.203 296.951 30.0094C297.144 29.8158 297.406 29.707 297.679 29.707Z" fill="#C7C7C7"/>
<path d="M79.06 92.043C79.3331 92.043 79.5951 92.1517 79.7883 92.3453C79.9814 92.539 80.0899 92.8015 80.0899 93.0754C80.0899 93.3492 79.9814 93.6117 79.7883 93.8054C79.5951 93.999 79.3331 94.1077 79.06 94.1077C78.7868 94.1077 78.5248 93.999 78.3317 93.8054C78.1385 93.6117 78.03 93.3492 78.03 93.0754C78.03 92.8015 78.1385 92.539 78.3317 92.3453C78.5248 92.1517 78.7868 92.043 79.06 92.043Z" fill="#C7C7C7"/>
<path d="M270.532 237.981C278.416 230.523 278.776 218.071 271.336 210.167C263.896 202.264 251.472 201.903 243.588 209.361C235.703 216.819 235.343 229.272 242.784 237.175C250.224 245.078 262.647 245.439 270.532 237.981Z" fill="#455A64"/>
<path d="M238.792 230.901C240.49 229.172 242.447 227.72 244.592 226.596C248.333 224.568 258.734 221.839 263.414 218.977C270.004 214.95 270.558 211.129 270.365 209.209C268.505 207.496 266.334 206.16 263.968 205.272C263.643 207.295 262.3 213.628 251.218 218.555C245.502 221.102 239.774 220.173 237.804 219.859C237.062 223.558 237.405 227.393 238.792 230.901Z" fill="#37474F"/>
<path d="M247.634 240.953C251.586 243.114 256.159 243.85 260.588 243.037C265.017 242.225 269.033 239.915 271.967 236.491C270.81 235.98 269.597 235.607 268.353 235.38C262.993 234.523 257.403 237.512 255.379 238.876C253.129 240.476 250.381 241.213 247.634 240.953Z" fill="#37474F"/>
<path d="M240.195 233.751C240.286 233.908 240.376 234.059 240.472 234.21C240.569 234.361 240.647 234.488 240.737 234.62C240.942 234.928 241.147 235.224 241.37 235.514C241.593 235.804 241.767 236.039 241.972 236.287C242.05 236.383 242.129 236.468 242.213 236.564C242.297 236.661 242.388 236.77 242.478 236.866L242.755 237.168C242.864 237.289 242.978 237.41 243.092 237.518L243.436 237.862L243.737 238.146C243.96 238.351 244.183 238.551 244.411 238.75C245.658 239.028 247.278 238.75 249.591 237.597C253.03 235.912 256.59 232.242 263.264 229.211C267.37 227.385 271.897 226.725 276.352 227.303C277.097 223.311 276.59 219.185 274.9 215.494C273.641 215.548 269.666 216.448 261.65 224.236C259.163 226.724 256.428 228.949 253.488 230.877C246.465 235.321 242.141 234.5 240.298 233.769L240.195 233.751Z" fill="#37474F"/>
<path d="M257.993 212.312C258.409 213.079 259.649 213.206 260.764 212.59C261.878 211.974 262.438 210.863 262.017 210.096C261.595 209.33 260.354 209.209 259.246 209.819C258.138 210.429 257.572 211.545 257.993 212.312Z" fill="#263238"/>
<path d="M263.649 213.2C263.89 213.634 264.619 213.689 265.288 213.32C265.956 212.952 266.306 212.306 266.065 211.871C265.824 211.437 265.101 211.388 264.432 211.757C263.764 212.125 263.414 212.771 263.649 213.2Z" fill="#263238"/>
<path d="M250.681 238.641C251.036 239.293 252.114 239.39 253.09 238.859C254.066 238.327 254.56 237.355 254.198 236.703C253.837 236.051 252.765 235.949 251.789 236.486C250.813 237.023 250.319 238.001 250.681 238.641Z" fill="#263238"/>
<path d="M254.337 239.003C254.476 239.184 254.68 239.303 254.905 239.335C255.13 239.366 255.359 239.308 255.542 239.172C255.652 239.145 255.754 239.092 255.841 239.019C255.928 238.945 255.996 238.853 256.042 238.748C256.087 238.644 256.108 238.53 256.103 238.417C256.097 238.303 256.066 238.192 256.011 238.092C255.956 237.993 255.879 237.907 255.786 237.842C255.692 237.777 255.586 237.734 255.473 237.717C255.361 237.7 255.246 237.709 255.138 237.744C255.03 237.778 254.931 237.837 254.849 237.916C254.64 237.995 254.469 238.153 254.373 238.356C254.278 238.559 254.265 238.791 254.337 239.003Z" fill="#263238"/>
<path d="M254.759 237.132C254.847 237.238 254.973 237.306 255.109 237.322C255.246 237.337 255.384 237.3 255.494 237.216C255.783 237.059 255.927 236.758 255.813 236.552C255.725 236.445 255.6 236.376 255.464 236.359C255.327 236.343 255.189 236.379 255.078 236.462C254.783 236.625 254.644 236.921 254.759 237.132Z" fill="#263238"/>
<path d="M266.95 235.966C267.275 236.57 268.155 236.679 268.944 236.25C269.733 235.822 270.088 235.001 269.769 234.439C269.45 233.878 268.564 233.727 267.781 234.155C266.998 234.584 266.631 235.381 266.95 235.966Z" fill="#263238"/>
<path d="M266.233 233.34C266.336 233.506 266.5 233.624 266.69 233.668C266.88 233.712 267.079 233.679 267.244 233.576C267.353 233.498 267.437 233.391 267.486 233.267C267.535 233.142 267.547 233.007 267.521 232.876C267.496 232.745 267.432 232.624 267.34 232.528C267.247 232.432 267.129 232.365 266.999 232.334C266.869 232.304 266.733 232.312 266.608 232.357C266.482 232.403 266.372 232.483 266.292 232.589C266.211 232.696 266.162 232.823 266.152 232.956C266.141 233.089 266.169 233.223 266.233 233.34Z" fill="#263238"/>
<path d="M241.369 235.513C253.536 232.939 265.381 229.024 276.688 223.837C285.488 219.695 290.909 215.729 290.18 213.489C289.451 211.249 282.844 211.225 273.55 213.018C273.803 213.41 274.044 213.809 274.267 214.225C274.352 214.376 274.436 214.533 274.514 214.69C279.459 214.056 282.736 214.346 283.181 215.711C283.627 217.075 281.085 219.333 276.604 221.796C270.923 224.78 264.992 227.256 258.878 229.198C252.801 231.268 246.553 232.794 240.207 233.756C235.153 234.426 231.774 234.149 231.341 232.766C230.907 231.384 233.352 229.234 237.689 226.813C237.578 226.154 237.505 225.489 237.472 224.821C228.721 228.95 223.216 233.056 223.944 235.29C224.673 237.523 231.594 237.493 241.369 235.513Z" fill="#263238"/>
<path d="M242.478 236.86C248.343 235.604 254.139 234.042 259.842 232.181C265.524 230.359 271.109 228.245 276.574 225.848C288.789 220.414 296.589 214.878 295.571 211.703C294.553 208.527 285.169 208.593 272.298 211.274C272.491 211.515 272.671 211.757 272.852 212.004C283.658 209.928 291.403 210.036 292.283 212.765C293.162 215.494 286.814 220.215 276.653 224.912C271.108 227.435 265.42 229.63 259.619 231.487C253.798 233.39 247.869 234.947 241.863 236.148C230.932 238.273 223.077 238.17 222.198 235.429C221.319 232.688 227.498 228.106 237.43 223.469C237.43 223.161 237.43 222.866 237.461 222.552C225.499 227.895 217.898 233.358 218.903 236.498C219.909 239.637 229.462 239.607 242.478 236.86Z" fill="#37474F"/>
<path d="M175.758 131.163C181.812 129.091 185.044 122.493 182.977 116.425C180.91 110.357 174.327 107.117 168.274 109.188C162.22 111.26 158.988 117.859 161.055 123.927C163.121 129.995 169.704 133.234 175.758 131.163Z" fill="#EBEBEB"/>
<path d="M183.109 123.55C182.03 122.611 180.81 121.847 179.495 121.286C177.2 120.272 170.954 119.167 168.051 117.7C163.986 115.648 163.48 113.432 163.504 112.267C164.519 111.173 165.733 110.284 167.081 109.646C167.371 110.824 168.455 114.476 175.207 116.891C178.694 118.099 182.031 117.302 183.163 117.024C183.771 119.16 183.752 121.425 183.109 123.55Z" fill="#DBDBDB"/>
<path d="M178.368 129.885C176.145 131.342 173.49 131.991 170.848 131.723C168.205 131.454 165.734 130.286 163.847 128.412C164.505 128.057 165.202 127.782 165.925 127.591C169.039 126.83 172.472 128.321 173.755 129.027C175.143 129.851 176.778 130.155 178.368 129.885Z" fill="#DBDBDB"/>
<path d="M182.416 125.289C182.372 125.386 182.324 125.481 182.271 125.573C182.229 125.658 182.187 125.742 182.139 125.827C182.03 126.02 181.922 126.201 181.807 126.382C181.693 126.563 181.602 126.708 181.488 126.865L181.362 127.04C181.313 127.107 181.271 127.167 181.217 127.234L181.072 127.421L180.892 127.644L180.705 127.861L180.542 128.043C180.422 128.175 180.295 128.302 180.169 128.429C179.446 128.652 178.483 128.556 177.067 127.994C174.965 127.167 172.694 125.175 168.635 123.714C166.134 122.834 163.44 122.661 160.847 123.213C160.219 120.899 160.324 118.448 161.148 116.197C161.889 116.197 164.268 116.511 169.346 120.713C170.926 122.054 172.64 123.229 174.459 124.221C178.796 126.497 181.307 125.821 182.355 125.296H182.428L182.416 125.289Z" fill="#DBDBDB"/>
<path d="M171.405 129.661C171.61 129.19 172.333 129.057 173.02 129.347C173.706 129.637 174.098 130.277 173.893 130.748C173.688 131.219 172.959 131.351 172.279 131.062C171.598 130.772 171.201 130.132 171.405 129.661Z" fill="#C7C7C7"/>
<path d="M174.688 128.834C174.802 128.568 175.23 128.496 175.639 128.677C176.049 128.858 176.29 129.22 176.175 129.486C176.061 129.752 175.633 129.824 175.218 129.643C174.802 129.462 174.567 129.1 174.688 128.834Z" fill="#C7C7C7"/>
<path d="M165.72 114.574C165.894 114.169 166.521 114.054 167.123 114.32C167.725 114.586 168.069 115.123 167.894 115.527C167.719 115.932 167.087 116.041 166.485 115.781C165.882 115.521 165.527 114.978 165.72 114.574Z" fill="#C7C7C7"/>
<path d="M167.833 114.175C167.846 114.048 167.898 113.927 167.983 113.831C168.068 113.735 168.181 113.669 168.307 113.642C168.432 113.615 168.562 113.629 168.679 113.682C168.796 113.734 168.893 113.822 168.956 113.934C169.02 114.045 169.046 114.174 169.031 114.301C169.017 114.429 168.962 114.548 168.875 114.642C168.788 114.737 168.674 114.801 168.548 114.825C168.423 114.85 168.293 114.834 168.177 114.779C168.054 114.741 167.95 114.658 167.886 114.545C167.822 114.433 167.803 114.301 167.833 114.175Z" fill="#C7C7C7"/>
<path d="M168.177 115.249C168.224 115.183 168.294 115.136 168.373 115.119C168.453 115.102 168.536 115.117 168.605 115.159C168.786 115.237 168.888 115.406 168.834 115.533C168.787 115.6 168.717 115.646 168.638 115.663C168.559 115.68 168.476 115.666 168.406 115.624C168.226 115.545 168.129 115.376 168.177 115.249Z" fill="#C7C7C7"/>
<path d="M175.411 115.28C175.436 115.074 175.524 114.881 175.664 114.728C175.804 114.575 175.988 114.47 176.191 114.428C176.393 114.386 176.604 114.408 176.793 114.493C176.982 114.577 177.14 114.718 177.245 114.898C177.349 115.077 177.395 115.284 177.375 115.49C177.356 115.697 177.272 115.892 177.136 116.048C177 116.205 176.819 116.314 176.617 116.361C176.416 116.409 176.205 116.391 176.013 116.312C175.798 116.254 175.614 116.113 175.501 115.92C175.388 115.726 175.356 115.496 175.411 115.28Z" fill="#C7C7C7"/>
<path d="M175.127 116.861C175.18 116.756 175.271 116.675 175.381 116.636C175.491 116.596 175.613 116.6 175.72 116.647C175.828 116.694 175.913 116.781 175.958 116.889C176.004 116.998 176.006 117.12 175.964 117.23C175.912 117.335 175.821 117.415 175.711 117.455C175.6 117.495 175.479 117.491 175.371 117.444C175.264 117.397 175.179 117.31 175.133 117.201C175.088 117.093 175.086 116.971 175.127 116.861Z" fill="#C7C7C7"/>
<path d="M95.0102 50.2291C100.949 47.8458 103.835 41.0883 101.458 35.1358C99.08 29.1832 92.3385 26.2898 86.4 28.673C80.4615 31.0563 77.5749 37.8138 79.9525 43.7663C82.3302 49.7188 89.0717 52.6123 95.0102 50.2291Z" fill="#FFE601"/>
<path d="M343.363 104.847C349.301 102.464 352.188 95.7065 349.81 89.7539C347.433 83.8014 340.691 80.9079 334.753 83.2912C328.814 85.6744 325.927 92.4319 328.305 98.3845C330.683 104.337 337.424 107.23 343.363 104.847Z" fill="#FF7800"/>
<g opacity="0.1">
<path d="M101.79 42.8263C100.711 41.8884 99.4916 41.1265 98.1764 40.5683C95.8515 39.5541 89.6296 38.4432 86.7446 36.9942C82.679 34.9355 82.1731 32.7198 82.1911 31.5606C83.2031 30.4632 84.4182 29.5733 85.7688 28.9404C86.0579 30.1117 87.1481 33.7703 93.9 36.1852C97.3813 37.3927 100.718 36.5958 101.85 36.3181C102.453 38.4484 102.432 40.7075 101.79 42.8263Z" fill="black"/>
<path d="M350.143 97.4445C349.064 96.5066 347.845 95.7446 346.53 95.1865C344.205 94.1722 337.983 93.0614 335.098 91.6124C331.032 89.5537 330.526 87.338 330.544 86.1788C331.556 85.0814 332.771 84.1915 334.122 83.5586C334.411 84.7298 335.501 88.3885 342.253 90.8034C345.735 92.0109 349.071 91.2139 350.204 90.9362C350.806 93.0666 350.786 95.3257 350.143 97.4445Z" fill="black"/>
<path d="M97.0566 49.1591C94.8357 50.6189 92.182 51.2697 89.5396 51.0026C86.8972 50.7355 84.4265 49.5668 82.541 47.6921C83.1971 47.3318 83.895 47.054 84.619 46.8649C87.7329 46.1042 91.16 47.5955 92.4128 48.3018C93.8091 49.1339 95.4562 49.438 97.0566 49.1591Z" fill="black"/>
<path d="M345.409 103.778C343.188 105.238 340.535 105.889 337.892 105.622C335.25 105.355 332.779 104.186 330.894 102.311C331.55 101.951 332.248 101.673 332.972 101.484C336.085 100.723 339.513 102.215 340.765 102.921C342.162 103.753 343.809 104.057 345.409 103.778Z" fill="black"/>
<path d="M101.104 44.5709L100.959 44.8486C100.917 44.9392 100.869 45.0177 100.821 45.1022C100.72 45.2954 100.612 45.4826 100.495 45.6637C100.393 45.8267 100.284 45.9897 100.176 46.1406L100.05 46.3157L99.905 46.5089L99.7544 46.7021L99.5738 46.9194C99.5163 46.9959 99.4539 47.0685 99.387 47.1368L99.2244 47.3179C99.104 47.4507 98.9835 47.5775 98.857 47.7043C98.1403 47.9277 97.1705 47.8311 95.7551 47.2696C93.6531 46.4425 91.3884 44.4562 87.3228 42.9891C84.8218 42.1096 82.1277 41.9362 79.535 42.488C78.9078 40.1752 79.0109 37.7244 79.8301 35.4727C80.5709 35.4727 82.9561 35.7806 88.0275 39.9825C89.609 41.3225 91.3223 42.4978 93.1411 43.4902C97.4837 45.7663 99.9893 45.0901 101.037 44.5649H101.116L101.104 44.5709Z" fill="black"/>
<path d="M349.456 99.1891L349.312 99.4668C349.269 99.5574 349.221 99.6358 349.173 99.7204C349.073 99.9136 348.964 100.101 348.848 100.282C348.745 100.445 348.637 100.608 348.529 100.759L348.402 100.934L348.258 101.127L348.107 101.32L347.926 101.538C347.869 101.614 347.806 101.687 347.74 101.755L347.577 101.936C347.456 102.069 347.336 102.196 347.21 102.322C346.493 102.546 345.523 102.449 344.108 101.888C342.006 101.061 339.741 99.0744 335.675 97.6073C333.174 96.7278 330.48 96.5544 327.888 97.1062C327.26 94.7933 327.363 92.3425 328.183 90.0908C328.923 90.0908 331.309 90.3987 336.38 94.6007C337.962 95.9407 339.675 97.116 341.494 98.1084C345.836 100.384 348.342 99.7083 349.39 99.183H349.468L349.456 99.1891Z" fill="black"/>
</g>
<g opacity="0.1">
<path d="M90.0932 48.9357C90.298 48.4648 91.0208 48.3319 91.7074 48.6278C92.3941 48.9236 92.7795 49.5515 92.5747 50.0224C92.37 50.4933 91.6472 50.6261 90.9606 50.3363C90.2739 50.0465 89.8824 49.4126 90.0932 48.9357Z" fill="black"/>
<path d="M338.447 103.554C338.652 103.083 339.374 102.95 340.061 103.246C340.748 103.542 341.133 104.17 340.928 104.641C340.723 105.111 340.001 105.244 339.314 104.954C338.627 104.665 338.236 104.031 338.447 103.554Z" fill="black"/>
<path d="M93.3703 48.1093C93.4847 47.8436 93.9123 47.7772 94.3279 47.9583C94.7435 48.1395 94.9784 48.4957 94.858 48.7613C94.7375 49.0269 94.3159 49.0994 93.9063 48.9183C93.4968 48.7372 93.2558 48.381 93.3703 48.1093Z" fill="black"/>
<path d="M341.723 102.727C341.837 102.462 342.265 102.395 342.68 102.577C343.096 102.758 343.331 103.114 343.211 103.379C343.09 103.645 342.668 103.718 342.259 103.536C341.849 103.355 341.608 102.999 341.723 102.727Z" fill="black"/>
<path d="M84.4078 33.8489C84.5825 33.4505 85.2149 33.3358 85.8172 33.5954C86.4195 33.855 86.7568 34.3983 86.5821 34.8028C86.4075 35.2073 85.7811 35.322 85.1787 35.0564C84.5764 34.7908 84.209 34.2534 84.4078 33.8489Z" fill="black"/>
<path d="M332.76 88.4669C332.935 88.0684 333.567 87.9537 334.17 88.2133C334.772 88.4729 335.109 89.0163 334.935 89.4208C334.76 89.8253 334.134 89.94 333.531 89.6743C332.929 89.4087 332.562 88.8714 332.76 88.4669Z" fill="black"/>
<path d="M86.5159 33.4505C86.6012 33.3641 86.7105 33.3055 86.8296 33.2825C86.9486 33.2594 87.0719 33.2729 87.1832 33.3211C87.2944 33.3694 87.3886 33.4502 87.4533 33.553C87.518 33.6558 87.5503 33.7758 87.5458 33.8972C87.4605 33.9836 87.3512 34.0422 87.2322 34.0652C87.1131 34.0883 86.9899 34.0748 86.8786 34.0266C86.7673 33.9783 86.6732 33.8975 86.6084 33.7947C86.5437 33.6919 86.5115 33.5719 86.5159 33.4505Z" fill="black"/>
<path d="M334.869 88.0686C334.954 87.9823 335.063 87.9237 335.182 87.9006C335.301 87.8776 335.425 87.891 335.536 87.9393C335.647 87.9876 335.741 88.0684 335.806 88.1712C335.871 88.274 335.903 88.3939 335.899 88.5154C335.813 88.6018 335.704 88.6603 335.585 88.6834C335.466 88.7065 335.343 88.693 335.231 88.6447C335.12 88.5965 335.026 88.5156 334.961 88.4129C334.896 88.3101 334.864 88.1901 334.869 88.0686Z" fill="black"/>
<path d="M86.8654 34.5248C86.8732 34.4462 86.9056 34.3721 86.9579 34.3131C87.0103 34.254 87.08 34.2131 87.1569 34.1962C87.2339 34.1793 87.3143 34.1872 87.3865 34.2188C87.4587 34.2504 87.5191 34.3041 87.559 34.3723C87.5989 34.4404 87.6163 34.5194 87.6087 34.598C87.601 34.6766 87.5688 34.7508 87.5166 34.81C87.4643 34.8691 87.3947 34.9102 87.3178 34.9273C87.2409 34.9444 87.1605 34.9366 87.0882 34.9052C86.9075 34.8267 86.8172 34.6576 86.8654 34.5248Z" fill="black"/>
<path d="M335.218 89.143C335.226 89.0644 335.258 88.9902 335.31 88.9312C335.363 88.8722 335.433 88.8313 335.509 88.8144C335.586 88.7974 335.667 88.8053 335.739 88.837C335.811 88.8686 335.872 88.9223 335.912 88.9904C335.951 89.0585 335.969 89.1376 335.961 89.2162C335.954 89.2948 335.921 89.369 335.869 89.4281C335.817 89.4873 335.747 89.5283 335.67 89.5454C335.593 89.5625 335.513 89.5548 335.441 89.5233C335.26 89.4448 335.17 89.2758 335.218 89.143Z" fill="black"/>
<path d="M94.0934 34.5793C94.1181 34.3734 94.2066 34.1804 94.3465 34.0277C94.4864 33.8749 94.6706 33.77 94.8732 33.7278C95.0758 33.6855 95.2864 33.7082 95.4755 33.7924C95.6645 33.8767 95.8224 34.0183 95.9269 34.1973C96.0313 34.3764 96.0771 34.5837 96.0576 34.7902C96.0382 34.9967 95.9545 35.1918 95.8185 35.3481C95.6825 35.5044 95.5009 35.6139 95.2995 35.6612C95.098 35.7085 94.8869 35.6912 94.6957 35.6117C94.481 35.5522 94.2978 35.411 94.1853 35.2182C94.0728 35.0254 94.0399 34.7962 94.0934 34.5793Z" fill="black"/>
<path d="M342.446 89.1975C342.471 88.9916 342.559 88.7986 342.699 88.6458C342.839 88.493 343.023 88.3881 343.226 88.3459C343.428 88.3037 343.639 88.3263 343.828 88.4106C344.017 88.4948 344.175 88.6365 344.279 88.8155C344.384 88.9945 344.43 89.2019 344.41 89.4084C344.391 89.6148 344.307 89.81 344.171 89.9663C344.035 90.1225 343.853 90.232 343.652 90.2793C343.451 90.3266 343.239 90.3093 343.048 90.2299C342.834 90.1704 342.65 90.0292 342.538 89.8364C342.425 89.6435 342.392 89.4143 342.446 89.1975Z" fill="black"/>
<path d="M93.8099 36.1367C93.8625 36.0317 93.9534 35.9508 94.0638 35.911C94.1741 35.8711 94.2955 35.8752 94.4029 35.9225C94.5103 35.9697 94.5955 36.0565 94.641 36.1649C94.6864 36.2733 94.6886 36.395 94.6471 36.505C94.5945 36.6101 94.5036 36.6909 94.3932 36.7307C94.2829 36.7706 94.1615 36.7665 94.0541 36.7193C93.9467 36.672 93.8614 36.5852 93.816 36.4768C93.7706 36.3684 93.7684 36.2467 93.8099 36.1367Z" fill="black"/>
<path d="M342.162 90.7549C342.215 90.6498 342.306 90.569 342.416 90.5291C342.527 90.4893 342.648 90.4934 342.755 90.5406C342.863 90.5879 342.948 90.6747 342.994 90.7831C343.039 90.8915 343.041 91.0132 343 91.1232C342.947 91.2282 342.856 91.309 342.746 91.3489C342.635 91.3888 342.514 91.3847 342.407 91.3374C342.299 91.2902 342.214 91.2034 342.169 91.095C342.123 90.9866 342.121 90.8649 342.162 90.7549Z" fill="black"/>
</g>
<path d="M175.439 61.9099C175.006 61.4028 150.227 49.8775 127.791 67.0477C107.168 82.8292 99.9944 112.491 102.735 113.197C106.09 114.066 115.281 99.9149 132.923 92.1388C139.181 89.3798 149.143 92.1388 149.143 92.1388L175.439 61.9099Z" fill="url(#paint0_linear_3_5728)"/>
<path opacity="0.1" d="M149.143 92.1332C146.189 91.3795 143.157 90.9743 140.108 90.9257C143.993 82.7633 151.263 67.5311 155.973 57.6721C167.08 57.7748 175.211 61.6326 175.458 61.8983L149.143 92.1332Z" fill="black"/>
<path d="M216.258 110.173C216.686 110.68 223.974 137.069 203.411 156.449C184.499 174.265 154.136 176.499 153.889 173.673C153.582 170.214 169.013 163.44 179.554 147.266C183.294 141.53 182.21 131.231 182.21 131.231L216.258 110.173Z" fill="url(#paint1_linear_3_5728)"/>
<path opacity="0.1" d="M217.234 130.265L181.903 140.565C182.375 137.477 182.48 134.344 182.216 131.231L216.258 110.173C216.499 110.456 218.993 119.204 217.234 130.265Z" fill="black"/>
<path d="M158.563 142.43L134.368 113.819C134.368 113.819 147.017 79.8953 176.987 57.1104C191.967 45.7421 209.512 37.2355 225.268 31.6027C246.982 23.8025 265.153 21.5445 267.984 24.8711C270.815 28.1976 265.575 45.7904 254.366 65.9732C246.235 80.5956 234.99 96.5825 221.353 109.539C194.015 135.499 158.563 142.43 158.563 142.43Z" fill="#C7C7C7"/>
<path d="M217.355 97.3134C214.099 100.08 210.098 101.817 205.857 102.304C201.617 102.792 197.327 102.008 193.532 100.051C189.736 98.0952 186.604 95.0546 184.532 91.3142C182.46 87.5737 181.541 83.3014 181.891 79.0375C182.242 74.7735 183.846 70.7095 186.5 67.3594C189.155 64.0092 192.741 61.5233 196.805 60.2161C200.869 58.9089 205.229 58.839 209.333 60.0154C213.437 61.1918 217.1 63.5615 219.86 66.8249C223.56 71.2017 225.374 76.8719 224.904 82.5891C224.435 88.3063 221.719 93.6025 217.355 97.3134Z" fill="#A6A6A6"/>
<path d="M218.535 95.3027C215.28 98.0694 211.279 99.8062 207.038 100.294C202.798 100.781 198.508 99.997 194.712 98.0407C190.916 96.0845 187.784 93.0439 185.712 89.3034C183.64 85.563 182.721 81.2907 183.072 77.0267C183.422 72.7628 185.026 68.6988 187.681 65.3486C190.336 61.9984 193.922 59.5126 197.986 58.2054C202.05 56.8981 206.41 56.8283 210.513 58.0047C214.617 59.181 218.281 61.5507 221.041 64.8142C224.741 69.1909 226.555 74.8612 226.085 80.5784C225.615 86.2956 222.9 91.5918 218.535 95.3027Z" fill="#C6A660"/>
<path d="M214.271 90.2374C212.015 92.1608 209.241 93.3703 206.3 93.7129C203.358 94.0555 200.382 93.5158 197.746 92.1621C195.111 90.8084 192.935 88.7016 191.495 86.1081C190.054 83.5147 189.414 80.5512 189.654 77.5928C189.894 74.6343 191.005 71.8138 192.845 69.4881C194.685 67.1624 197.172 65.4361 199.991 64.5276C202.81 63.6191 205.835 63.5693 208.682 64.3844C211.53 65.1995 214.072 66.8429 215.987 69.1067C218.551 72.1389 219.809 76.0665 219.488 80.0278C219.166 83.9891 217.29 87.6608 214.271 90.2374Z" fill="white"/>
<path d="M214.271 90.2373C212.858 91.4418 211.234 92.3732 209.482 92.9843L197.436 92.0002C194.598 90.4553 192.333 88.0328 190.979 85.0935L216.945 87.2186C216.195 88.3425 215.295 89.3581 214.271 90.2373Z" fill="#EBEBEB"/>
<path d="M217.288 70.8754L193.298 68.9133C193.782 68.3608 194.305 67.8443 194.864 67.3677C197.889 64.7975 201.808 63.5357 205.761 63.8594C209.713 64.1832 213.376 66.066 215.945 69.0944C216.437 69.6527 216.886 70.2482 217.288 70.8754Z" fill="#EBEBEB"/>
<path d="M218.595 84.0849L189.925 81.7425C189.829 81.3024 189.761 80.8568 189.721 80.4082L219.017 82.8231C218.884 83.2518 218.74 83.6804 218.595 84.0849Z" fill="#EBEBEB"/>
<path d="M254.366 65.9734L225.269 31.5606C246.982 23.8026 265.153 21.5447 267.984 24.8712C270.815 28.1978 265.575 45.7906 254.366 65.9734Z" fill="url(#paint2_linear_3_5728)"/>
<path d="M233.821 34.5126C233.63 34.6689 233.397 34.7653 233.151 34.7899C232.905 34.8144 232.658 34.7659 232.439 34.6504C232.221 34.535 232.041 34.3577 231.922 34.1406C231.804 33.9235 231.751 33.6762 231.772 33.4295C231.792 33.1828 231.885 32.9476 232.038 32.7532C232.191 32.5587 232.397 32.4137 232.632 32.3361C232.866 32.2585 233.118 32.2517 233.357 32.3167C233.595 32.3816 233.809 32.5154 233.972 32.7014C234.083 32.8292 234.167 32.978 234.22 33.139C234.272 33.3 234.292 33.47 234.278 33.6388C234.264 33.8077 234.217 33.972 234.138 34.1221C234.06 34.2721 233.952 34.4049 233.821 34.5126Z" fill="white"/>
<path d="M239.002 40.617C238.81 40.7761 238.576 40.8751 238.329 40.9016C238.082 40.928 237.832 40.8808 237.611 40.7659C237.391 40.6509 237.209 40.4733 237.088 40.2552C236.968 40.0371 236.914 39.7883 236.934 39.5398C236.954 39.2913 237.046 39.0541 237.2 38.858C237.353 38.6619 237.561 38.5156 237.797 38.4373C238.033 38.3589 238.287 38.3521 238.527 38.4177C238.767 38.4832 238.982 38.6182 239.146 38.8058C239.258 38.9332 239.342 39.0817 239.395 39.2425C239.448 39.4033 239.469 39.5732 239.455 39.742C239.442 39.9108 239.395 40.0752 239.317 40.2255C239.239 40.3758 239.132 40.5089 239.002 40.617Z" fill="white"/>
<path d="M244.176 46.7509C243.985 46.908 243.752 47.0052 243.506 47.0306C243.26 47.056 243.013 47.0084 242.794 46.8937C242.575 46.779 242.394 46.6022 242.275 46.3855C242.156 46.1688 242.102 45.9216 242.122 45.6749C242.142 45.4281 242.234 45.1925 242.386 44.9976C242.538 44.8026 242.744 44.6569 242.979 44.5786C243.213 44.5002 243.465 44.4926 243.704 44.5569C243.942 44.6211 244.156 44.7542 244.32 44.9397C244.432 45.0668 244.518 45.2152 244.571 45.3761C244.625 45.537 244.645 45.707 244.632 45.8761C244.618 46.0452 244.571 46.2098 244.493 46.3601C244.414 46.5104 244.306 46.6433 244.176 46.7509Z" fill="white"/>
<path d="M249.349 52.8663C249.159 53.0284 248.926 53.1303 248.678 53.1594C248.431 53.1884 248.18 53.1431 247.959 53.0293C247.737 52.9154 247.554 52.7382 247.432 52.52C247.311 52.3018 247.257 52.0524 247.278 51.8034C247.298 51.5545 247.391 51.3172 247.546 51.1215C247.701 50.9259 247.911 50.7808 248.148 50.7045C248.385 50.6283 248.64 50.6243 248.879 50.6932C249.119 50.762 249.333 50.9006 249.493 51.0913C249.708 51.3462 249.814 51.6761 249.787 52.0088C249.76 52.3414 249.602 52.6498 249.349 52.8663Z" fill="white"/>
<path d="M254.523 58.9881C254.331 59.1445 254.098 59.2409 253.853 59.2654C253.607 59.29 253.359 59.2415 253.141 59.126C252.922 59.0106 252.743 58.8333 252.624 58.6162C252.505 58.3991 252.453 58.1518 252.473 57.9051C252.494 57.6584 252.586 57.4232 252.739 57.2287C252.892 57.0343 253.099 56.8893 253.333 56.8117C253.568 56.7341 253.82 56.7273 254.058 56.7923C254.296 56.8572 254.51 56.991 254.673 57.1769C254.784 57.3048 254.869 57.4536 254.921 57.6146C254.974 57.7756 254.994 57.9456 254.98 58.1144C254.966 58.2833 254.918 58.4476 254.84 58.5976C254.761 58.7477 254.653 58.8805 254.523 58.9881Z" fill="white"/>
<path d="M141.349 113.149C141.159 113.311 140.926 113.412 140.679 113.44C140.431 113.469 140.181 113.423 139.96 113.309C139.739 113.195 139.556 113.018 139.435 112.8C139.314 112.582 139.26 112.333 139.281 112.084C139.301 111.836 139.394 111.599 139.548 111.403C139.703 111.208 139.912 111.062 140.149 110.986C140.385 110.909 140.639 110.905 140.879 110.973C141.118 111.041 141.332 111.178 141.493 111.368C141.601 111.495 141.682 111.641 141.733 111.799C141.784 111.957 141.803 112.123 141.79 112.289C141.776 112.454 141.731 112.616 141.655 112.763C141.579 112.911 141.475 113.042 141.349 113.149Z" fill="#A6A6A6"/>
<path d="M146.523 119.265C146.333 119.427 146.1 119.529 145.853 119.558C145.605 119.587 145.355 119.542 145.133 119.428C144.911 119.314 144.728 119.137 144.607 118.919C144.485 118.7 144.431 118.451 144.452 118.202C144.472 117.953 144.565 117.716 144.72 117.52C144.875 117.325 145.085 117.179 145.322 117.103C145.559 117.027 145.814 117.023 146.053 117.092C146.293 117.161 146.507 117.299 146.668 117.49C146.883 117.745 146.988 118.075 146.961 118.407C146.934 118.74 146.776 119.048 146.523 119.265Z" fill="#A6A6A6"/>
<path d="M151.697 125.387C151.506 125.547 151.273 125.648 151.026 125.675C150.778 125.703 150.528 125.656 150.307 125.541C150.087 125.427 149.905 125.249 149.784 125.03C149.664 124.812 149.611 124.563 149.632 124.314C149.653 124.066 149.747 123.829 149.902 123.634C150.058 123.439 150.267 123.295 150.504 123.219C150.741 123.143 150.995 123.139 151.234 123.208C151.473 123.277 151.687 123.415 151.847 123.606C152.062 123.862 152.167 124.194 152.138 124.527C152.11 124.861 151.951 125.17 151.697 125.387Z" fill="#A6A6A6"/>
<path d="M156.876 131.502C156.687 131.664 156.453 131.766 156.206 131.795C155.958 131.824 155.708 131.779 155.486 131.665C155.264 131.551 155.081 131.374 154.96 131.156C154.839 130.938 154.785 130.688 154.805 130.439C154.825 130.19 154.919 129.953 155.074 129.758C155.229 129.562 155.438 129.417 155.675 129.341C155.913 129.264 156.167 129.26 156.407 129.329C156.646 129.398 156.86 129.537 157.021 129.727C157.236 129.982 157.341 130.312 157.314 130.645C157.287 130.977 157.13 131.286 156.876 131.502Z" fill="#A6A6A6"/>
<path d="M162.051 137.625C161.86 137.782 161.627 137.879 161.381 137.905C161.135 137.93 160.888 137.882 160.669 137.768C160.45 137.653 160.269 137.476 160.15 137.26C160.031 137.043 159.977 136.796 159.997 136.549C160.017 136.302 160.109 136.067 160.261 135.872C160.413 135.677 160.619 135.531 160.854 135.453C161.088 135.374 161.34 135.367 161.578 135.431C161.817 135.495 162.031 135.628 162.195 135.814C162.307 135.941 162.393 136.089 162.446 136.25C162.5 136.411 162.52 136.581 162.507 136.75C162.493 136.919 162.446 137.084 162.368 137.234C162.289 137.384 162.181 137.517 162.051 137.625Z" fill="#A6A6A6"/>
<path opacity="0.2" d="M266.599 24.0196C249.843 25.2271 220.824 35.394 190.293 59.3984C167.73 77.13 151.269 108.162 143.596 124.734L134.362 113.819C134.362 113.819 146.981 79.8951 176.982 57.1102C191.961 45.7419 209.56 37.2353 225.269 31.6086C244.729 24.6113 261.359 22.0756 266.599 24.0196Z" fill="white"/>
<path d="M147.757 147.091L128.08 123.817L135.729 115.438L157.262 140.891L147.757 147.091Z" fill="#FFE601"/>
<path opacity="0.1" d="M157.256 140.891L152.625 143.903L132.803 118.643L135.73 115.443L157.256 140.891Z" fill="black"/>
<path d="M254.053 69.1064L245.06 68.5087L240.838 77.0937L241.223 67.5306L233.038 63.7392L242.121 63.8297L246.259 55.7578L246.036 64.8259L254.053 69.1064Z" fill="#FCFCFC"/>
<path d="M251.843 35.8166L246.819 35.4785L244.452 40.2782L244.669 34.9352L240.098 32.8161L245.175 32.8644L247.482 28.3545L247.361 33.4259L251.843 35.8166Z" fill="#FCFCFC"/>
<path d="M211.181 138.161L206.151 137.823L203.79 142.623L204.007 137.28L199.436 135.161L204.513 135.209L206.82 130.699L206.699 135.765L211.181 138.161Z" fill="#FCFCFC"/>
<path d="M121.72 93.6362L116.696 93.2981L114.329 98.0977L114.546 92.7487L109.975 90.6356L115.052 90.6839L117.365 86.168L117.238 91.2393L121.72 93.6362Z" fill="#FCFCFC"/>
<path opacity="0.6" d="M143.427 141.892C134.308 148.081 126.249 155.929 120.37 165.323C114.34 174.772 110.933 185.661 110.498 196.868C110.363 202.554 111.067 208.228 112.588 213.706C114.132 219.288 116.478 224.614 119.551 229.518C122.689 234.52 126.456 239.095 130.76 243.132C135.133 247.24 139.919 250.882 145.041 254C139.516 251.469 134.268 248.372 129.381 244.756C124.436 241.08 119.983 236.783 116.13 231.969C108.136 222.004 103.258 209.893 102.108 197.158C100.982 184.293 103.692 171.083 109.336 159.304C114.98 147.525 123.334 137.069 133.248 128.514L143.427 141.892Z" fill="url(#paint3_linear_3_5728)"/>
<path d="M127.827 155.917L124.238 156.588L123.437 160.379L122.636 156.588L119.046 155.917L122.617 155.042L123.437 151.462L124.25 155.042L127.827 155.917Z" fill="white"/>
<path d="M64.6188 247.043L62.6131 247.418L62.1614 249.537L61.7156 247.418L59.71 247.043L61.7036 246.554L62.1614 244.55L62.6191 246.554L64.6188 247.043Z" fill="white"/>
<path d="M133.541 208.545L131.535 208.913L131.083 211.032L130.638 208.913L128.632 208.539L130.625 208.05L131.083 206.052L131.541 208.05L133.541 208.545Z" fill="white"/>
<path d="M125.172 144.097L123.166 144.471L122.72 146.59L122.268 144.471L120.263 144.097L122.262 143.608L122.72 141.604L123.178 143.608L125.172 144.097Z" fill="white"/>
<path d="M160.365 235.55C160.238 235.585 160.125 235.66 160.045 235.766C159.964 235.871 159.921 236 159.921 236.132C159.921 236.265 159.964 236.394 160.045 236.499C160.125 236.604 160.238 236.68 160.365 236.715C160.493 236.68 160.605 236.604 160.686 236.499C160.766 236.394 160.81 236.265 160.81 236.132C160.81 236 160.766 235.871 160.686 235.766C160.605 235.66 160.493 235.585 160.365 235.55Z" fill="white"/>
<path d="M135.965 141.259C135.837 141.294 135.725 141.369 135.644 141.475C135.564 141.58 135.521 141.709 135.521 141.841C135.521 141.974 135.564 142.103 135.644 142.208C135.725 142.313 135.837 142.389 135.965 142.424C136.092 142.389 136.205 142.313 136.285 142.208C136.366 142.103 136.409 141.974 136.409 141.841C136.409 141.709 136.366 141.58 136.285 141.475C136.205 141.369 136.092 141.294 135.965 141.259Z" fill="white"/>
<path d="M104.65 193.24C104.523 193.275 104.41 193.351 104.33 193.456C104.25 193.561 104.206 193.69 104.206 193.823C104.206 193.955 104.25 194.084 104.33 194.19C104.41 194.295 104.523 194.371 104.65 194.405C104.778 194.371 104.891 194.295 104.971 194.19C105.051 194.084 105.095 193.955 105.095 193.823C105.095 193.69 105.051 193.561 104.971 193.456C104.891 193.351 104.778 193.275 104.65 193.24Z" fill="white"/>
<path d="M138.329 228.492C138.228 228.504 138.135 228.553 138.067 228.629C138 228.706 137.963 228.804 137.963 228.906C137.963 229.008 138 229.106 138.067 229.182C138.135 229.258 138.228 229.307 138.329 229.319C138.429 229.307 138.522 229.258 138.59 229.182C138.657 229.106 138.694 229.008 138.694 228.906C138.694 228.804 138.657 228.706 138.59 228.629C138.522 228.553 138.429 228.504 138.329 228.492Z" fill="white"/>
<path d="M104.44 172.876C104.331 172.876 104.227 172.919 104.15 172.996C104.073 173.073 104.03 173.178 104.03 173.287C104.03 173.395 104.073 173.5 104.15 173.577C104.227 173.654 104.331 173.697 104.44 173.697C104.548 173.697 104.653 173.654 104.729 173.577C104.806 173.5 104.849 173.395 104.849 173.287C104.849 173.178 104.806 173.073 104.729 172.996C104.653 172.919 104.548 172.876 104.44 172.876Z" fill="white"/>
<path d="M248.632 164.796C248.336 164.796 248.053 164.914 247.844 165.123C247.635 165.333 247.518 165.617 247.518 165.913C247.518 166.209 247.635 166.493 247.844 166.703C248.053 166.912 248.336 167.03 248.632 167.03C248.927 167.03 249.211 166.912 249.42 166.703C249.629 166.493 249.746 166.209 249.746 165.913C249.746 165.617 249.629 165.333 249.42 165.123C249.211 164.914 248.927 164.796 248.632 164.796Z" fill="white"/>
<path d="M109.71 169.079C109.428 169.1 109.164 169.227 108.971 169.434C108.779 169.642 108.672 169.915 108.672 170.199C108.672 170.482 108.779 170.755 108.971 170.963C109.164 171.171 109.428 171.298 109.71 171.319C109.992 171.298 110.256 171.171 110.449 170.963C110.641 170.755 110.748 170.482 110.748 170.199C110.748 169.915 110.641 169.642 110.449 169.434C110.256 169.227 109.992 169.1 109.71 169.079Z" fill="white"/>
<path d="M204.078 56.7207C199.718 56.7207 195.455 58.0204 191.829 60.4554C188.203 62.8903 185.377 66.3513 183.709 70.4004C182.04 74.4495 181.604 78.9049 182.455 83.2032C183.307 87.5015 185.407 91.4495 188.491 94.548C191.575 97.6465 195.504 99.7562 199.782 100.61C204.059 101.464 208.492 101.025 212.52 99.3466C216.549 97.6684 219.992 94.8274 222.413 91.1827C224.835 87.5381 226.127 83.2535 226.126 78.8709C226.126 75.9615 225.555 73.0806 224.447 70.3928C223.339 67.7049 221.715 65.2628 219.668 63.2059C217.62 61.1489 215.19 59.5175 212.515 58.4048C209.84 57.292 206.973 56.7198 204.078 56.7207ZM204.078 64.1065L213.063 73.1499L209.764 76.4725L204.085 70.7445L202.394 72.4445L201.692 73.1499L198.379 76.4725L195.073 73.1288L204.078 64.1065ZM207.413 78.8709L204.092 82.2075L200.772 78.8709L204.092 75.5343L207.413 78.8709ZM189.387 78.8709L192.707 75.5343L196.027 78.8709L192.707 82.2146L189.387 78.8709ZM204.085 93.6283L195.073 84.5848L198.379 81.2623L201.692 84.5989L202.064 84.9657L204.057 86.9691L209.736 81.2623L213.042 84.5848L204.085 93.6283ZM215.456 82.2146L212.136 78.878L215.456 75.5413L218.777 78.878L215.456 82.2146Z" fill="url(#paint4_linear_3_5728)"/>
<path d="M11.5406 166.329L9.53496 166.698L9.08323 168.817L8.63752 166.698L6.63184 166.323L8.62547 165.834L9.08323 163.836L9.54098 165.834L11.5406 166.329Z" fill="white"/>
<path d="M6.63185 213.043C6.33632 213.043 6.0529 213.161 5.84394 213.37C5.63497 213.58 5.51758 213.864 5.51758 214.16C5.51758 214.456 5.63497 214.74 5.84394 214.95C6.0529 215.159 6.33632 215.277 6.63185 215.277C6.92737 215.277 7.21079 215.159 7.41975 214.95C7.62872 214.74 7.74611 214.456 7.74611 214.16C7.74611 213.864 7.62872 213.58 7.41975 213.37C7.21079 213.161 6.92737 213.043 6.63185 213.043Z" fill="white"/>
<path d="M10.9424 27.26L14.2611 27.8758L15.0019 31.3835L15.7428 27.8758L19.0615 27.26L15.7548 26.451L15.0019 23.1426L14.243 26.451L10.9424 27.26Z" fill="#C7C7C7"/>
<path d="M323 131.34L326.319 131.956L327.06 135.464L327.8 131.956L331.119 131.34L327.812 130.531L327.06 127.223L326.301 130.531L323 131.34Z" fill="#C7C7C7"/>
</g>
<defs>
<linearGradient id="paint0_linear_3_5728" x1="138.808" y1="57.6562" x2="138.808" y2="113.235" gradientUnits="userSpaceOnUse">
<stop stop-color="#FFE601"/>
<stop offset="0.759615" stop-color="#FF7800"/>
</linearGradient>
<linearGradient id="paint1_linear_3_5728" x1="185.871" y1="110.173" x2="185.871" y2="174.692" gradientUnits="userSpaceOnUse">
<stop stop-color="#FFE601"/>
<stop offset="0.759615" stop-color="#FF7800"/>
</linearGradient>
<linearGradient id="paint2_linear_3_5728" x1="247.005" y1="23.3828" x2="247.005" y2="65.9734" gradientUnits="userSpaceOnUse">
<stop stop-color="#FFE601"/>
<stop offset="0.759615" stop-color="#FF7800"/>
</linearGradient>
<linearGradient id="paint3_linear_3_5728" x1="123.449" y1="128.514" x2="123.449" y2="254" gradientUnits="userSpaceOnUse">
<stop stop-color="#FF7800"/>
<stop offset="1" stop-color="#18191A"/>
</linearGradient>
<linearGradient id="paint4_linear_3_5728" x1="188.496" y1="63.2106" x2="219.823" y2="94.3822" gradientUnits="userSpaceOnUse">
<stop stop-color="#FFE601"/>
<stop offset="1" stop-color="#FF7800"/>
</linearGradient>
<clipPath id="clip0_3_5728">
<rect width="372" height="279" fill="white"/>
</clipPath>
</defs>
</svg>
