<svg width="19" height="13" viewBox="0 0 19 13" fill="none" xmlns="http://www.w3.org/2000/svg">
<path d="M2.67949 0C1.96884 0 1.2873 0.289731 0.784804 0.805456C0.282302 1.32118 0 2.02065 0 2.75V10.25C0 10.9793 0.282302 11.6788 0.784804 12.1945C1.2873 12.7103 1.96884 13 2.67949 13H10.9615C11.6722 13 12.3537 12.7103 12.8562 12.1945C13.3587 11.6788 13.641 10.9793 13.641 10.25V8.656L16.9724 11.701C17.7567 12.418 19 11.846 19 10.767V1.865C19 0.785 17.7567 0.214 16.9724 0.931L13.641 3.976V2.75C13.641 2.02065 13.3587 1.32118 12.8562 0.805456C12.3537 0.289731 11.6722 0 10.9615 0H2.67949Z" fill="#1A1A1A"/>
</svg>
