<svg width="11" height="14" viewBox="0 0 11 14" fill="none" xmlns="http://www.w3.org/2000/svg">
<g clip-path="url(#clip0_3_5019)">
<path d="M7.96998 0H2.09265L2.49444 2.20506H7.96998V0Z" fill="url(#paint0_linear_3_5019)"/>
<g style="mix-blend-mode:multiply" opacity="0.75">
<path d="M2.80718 0H2.09265L2.49444 2.20506H3.98709L2.80718 0Z" fill="#389C5E"/>
</g>
<g style="mix-blend-mode:multiply" opacity="0.75">
<path d="M7.25511 0H7.96964L7.56785 2.20506H6.0752L7.25511 0Z" fill="#389C5E"/>
</g>
<path d="M7.97109 0L3.82812 7.28729H6.23249L10.0606 1.25943L7.97109 0Z" fill="url(#paint1_linear_3_5019)"/>
<path d="M9.65012 1.00433L5.70645 7.28769H4.32617L8.38645 0.243164L9.65012 1.00433Z" fill="url(#paint2_linear_3_5019)"/>
<g style="mix-blend-mode:multiply" opacity="0.5">
<path d="M5.39181 4.53516L3.82812 7.28724H6.23249L6.7159 6.52395L5.39181 4.53516Z" fill="#771A1F"/>
</g>
<path d="M4.95008 6.16699H4.92675C2.41426 6.16699 2.90192 7.92574 3.0726 8.34661L3.11606 8.30632C3.14295 8.28209 3.17205 8.26044 3.20299 8.24166H3.21041C3.23162 8.22787 3.53905 8.21621 3.56237 8.20561C3.42138 7.67979 3.0938 6.80095 4.92675 6.78504H4.95008C6.78409 6.79777 6.45545 7.67661 6.3134 8.19713C6.33672 8.20773 6.6431 8.21939 6.66536 8.23318H6.67172C6.70283 8.2517 6.73196 8.27337 6.75865 8.29784L6.80317 8.33813C6.97491 7.92574 7.46363 6.16699 4.95008 6.16699Z" fill="url(#paint3_radial_3_5019)"/>
<path d="M4.95008 6.16699H4.92675C2.41426 6.16699 2.90192 7.92574 3.0726 8.34661L3.11606 8.30632C3.14295 8.28209 3.17205 8.26044 3.20299 8.24166H3.21041C3.23162 8.22787 3.53905 8.21621 3.56237 8.20561C3.42138 7.67979 3.0938 6.80095 4.92675 6.78504H4.95008C6.78409 6.79777 6.45545 7.67661 6.3134 8.19713C6.33672 8.20773 6.6431 8.21939 6.66536 8.23318H6.67172C6.70283 8.2517 6.73196 8.27337 6.75865 8.29784L6.80317 8.33813C6.97491 7.92574 7.46363 6.16699 4.95008 6.16699Z" fill="url(#paint4_linear_3_5019)"/>
<path opacity="0.75" d="M4.95008 6.16699H4.92675C2.41426 6.16699 2.90192 7.92574 3.0726 8.34661L3.10016 8.32116C2.90934 7.78262 2.60402 6.23802 4.92675 6.23802H4.95008C7.27281 6.23802 6.96431 7.78262 6.77667 8.32116L6.80529 8.34661C6.97492 7.92574 7.46363 6.16699 4.95008 6.16699Z" fill="url(#paint5_radial_3_5019)"/>
<path style="mix-blend-mode:multiply" opacity="0.55" d="M3.45838 7.45801C3.27 7.49843 3.0888 7.56705 2.9209 7.66155C2.93582 7.89649 2.98769 8.12761 3.07462 8.34639L3.11808 8.30611C3.14497 8.28188 3.17407 8.26022 3.20501 8.24144H3.21243C3.23364 8.22766 3.54107 8.216 3.56439 8.2054C3.50503 7.98489 3.41492 7.70926 3.45838 7.45801Z" fill="url(#paint6_linear_3_5019)"/>
<path style="mix-blend-mode:multiply" opacity="0.55" d="M6.41207 7.4209C6.47144 7.68169 6.37496 7.97428 6.31348 8.19903C6.3368 8.20963 6.64318 8.22129 6.66544 8.23507H6.6718C6.70291 8.2536 6.73204 8.27527 6.75873 8.29974L6.80325 8.34003C6.89165 8.11517 6.94285 7.87742 6.95485 7.6361C6.78374 7.54173 6.60136 7.46942 6.41207 7.4209Z" fill="url(#paint7_linear_3_5019)"/>
<path style="mix-blend-mode:multiply" opacity="0.55" d="M4.94838 6.63965H4.92718C3.14193 6.63965 3.21402 7.59376 3.32851 8.26482C3.33911 8.2574 3.54054 8.21075 3.56386 8.20015C3.42074 7.67963 3.09316 6.80079 4.92612 6.78489H4.94944C6.78346 6.79761 6.45482 7.67645 6.31276 8.19697C6.33608 8.20757 6.53645 8.25422 6.54705 8.26164C6.6626 7.598 6.73363 6.63965 4.94838 6.63965Z" fill="url(#paint8_radial_3_5019)"/>
<path d="M0 1.25943L3.82811 7.28729H6.23247L2.0895 0L0 1.25943Z" fill="url(#paint9_linear_3_5019)"/>
<path d="M0.423828 1.00433L4.36749 7.28769H5.74777L1.6875 0.243164L0.423828 1.00433Z" fill="url(#paint10_linear_3_5019)"/>
<mask id="mask0_3_5019" style="mask-type:luminance" maskUnits="userSpaceOnUse" x="1" y="7" width="8" height="8">
<path d="M6.20161 13.7561C7.90938 13.0644 8.73305 11.1192 8.04134 9.41148C7.34962 7.70371 5.40445 6.88004 3.69668 7.57175C1.98891 8.26347 1.16524 10.2086 1.85696 11.9164C2.54868 13.6242 4.49384 14.4478 6.20161 13.7561Z" fill="white"/>
</mask>
<g mask="url(#mask0_3_5019)">
<path d="M6.20161 13.7561C7.90938 13.0644 8.73305 11.1192 8.04134 9.41148C7.34962 7.70371 5.40445 6.88004 3.69668 7.57175C1.98891 8.26347 1.16524 10.2086 1.85696 11.9164C2.54868 13.6242 4.49384 14.4478 6.20161 13.7561Z" fill="url(#paint11_linear_3_5019)"/>
<path opacity="0.75" d="M4.94937 7.32739C4.28953 7.32739 3.64451 7.52306 3.09587 7.88965C2.54724 8.25623 2.11962 8.77728 1.86711 9.38689C1.6146 9.9965 1.54854 10.6673 1.67727 11.3145C1.80599 11.9616 2.12374 12.5561 2.59031 13.0227C3.05689 13.4892 3.65135 13.807 4.29851 13.9357C4.94567 14.0644 5.61647 13.9984 6.22608 13.7459C6.8357 13.4934 7.35674 13.0657 7.72333 12.5171C8.08992 11.9685 8.28558 11.3234 8.28558 10.6636C8.28558 9.77878 7.93409 8.93021 7.30843 8.30455C6.68277 7.67888 5.83419 7.32739 4.94937 7.32739ZM4.94937 13.9076C4.30777 13.9076 3.68058 13.7173 3.14711 13.3609C2.61364 13.0044 2.19785 12.4978 1.95232 11.905C1.7068 11.3123 1.64255 10.66 1.76772 10.0307C1.89289 9.40146 2.20185 8.82344 2.65553 8.36976C3.10921 7.91608 3.68723 7.60713 4.3165 7.48196C4.94577 7.35679 5.59803 7.42103 6.19079 7.66656C6.78355 7.91209 7.29019 8.32787 7.64664 8.86134C8.0031 9.39481 8.19335 10.022 8.19335 10.6636C8.19349 11.0896 8.10968 11.5115 7.9467 11.9052C7.78373 12.2988 7.54478 12.6565 7.24352 12.9578C6.94226 13.259 6.58459 13.498 6.19095 13.6609C5.79731 13.8239 5.37542 13.9077 4.94937 13.9076Z" fill="url(#paint12_radial_3_5019)"/>
<path opacity="0.75" d="M7.56067 11.0293C7.76206 9.58713 6.75625 8.2548 5.31413 8.05341C3.87201 7.85202 2.53968 8.85782 2.33829 10.2999C2.13689 11.7421 3.1427 13.0744 4.58482 13.2758C6.02694 13.4772 7.35927 12.4714 7.56067 11.0293Z" fill="url(#paint13_radial_3_5019)"/>
<path d="M4.94982 13.2112C6.35676 13.2112 7.4973 12.0706 7.4973 10.6637C7.4973 9.25676 6.35676 8.11621 4.94982 8.11621C3.54289 8.11621 2.40234 9.25676 2.40234 10.6637C2.40234 12.0706 3.54289 13.2112 4.94982 13.2112Z" fill="url(#paint14_linear_3_5019)"/>
<g opacity="0.75">
<g style="mix-blend-mode:multiply" opacity="0.85">
<path d="M7.02787 10.9695C7.00775 10.9673 6.98934 10.9571 6.97669 10.9412C6.96404 10.9253 6.95819 10.905 6.96043 10.8847C6.96266 10.8645 6.9728 10.846 6.98861 10.8332C7.00442 10.8205 7.02461 10.8146 7.04473 10.8169C7.05494 10.8177 7.06489 10.8205 7.07399 10.8252C7.0831 10.8299 7.09118 10.8364 7.09775 10.8443C7.10433 10.8522 7.10927 10.8614 7.11229 10.8712C7.11531 10.8811 7.11634 10.8914 7.11533 10.9017C7.11244 10.9222 7.10168 10.9409 7.08533 10.9535C7.06899 10.9662 7.04836 10.972 7.02787 10.9695Z" fill="url(#paint15_linear_3_5019)"/>
<path d="M6.96339 11.2699C6.95291 11.2681 6.94293 11.2641 6.93405 11.2582C6.92517 11.2524 6.9176 11.2447 6.91182 11.2357C6.90603 11.2268 6.90216 11.2167 6.90043 11.2062C6.89871 11.1956 6.89918 11.1848 6.90181 11.1745C6.90443 11.1641 6.90917 11.1544 6.9157 11.146C6.92224 11.1375 6.93045 11.1306 6.9398 11.1255C6.94915 11.1204 6.95944 11.1173 6.97003 11.1165C6.98062 11.1156 6.99127 11.1169 7.00132 11.1204C7.0196 11.1267 7.03485 11.1397 7.04403 11.1568C7.05321 11.1739 7.05565 11.1939 7.05087 11.2127C7.04609 11.2316 7.03443 11.2479 7.01822 11.2585C7.00202 11.2691 6.98244 11.2732 6.96339 11.2699Z" fill="url(#paint16_linear_3_5019)"/>
<path d="M6.85217 11.5554C6.84328 11.5514 6.83528 11.5456 6.82861 11.5385C6.82195 11.5314 6.81675 11.523 6.81332 11.5138C6.80989 11.5047 6.8083 11.4949 6.80864 11.4851C6.80898 11.4753 6.81123 11.4657 6.81528 11.4568C6.82257 11.4383 6.83686 11.4234 6.85504 11.4154C6.87321 11.4075 6.89378 11.4071 6.91223 11.4144C6.92211 11.4183 6.93111 11.4242 6.93867 11.4318C6.94624 11.4393 6.95221 11.4483 6.95625 11.4582C6.96028 11.4681 6.96229 11.4787 6.96215 11.4894C6.96201 11.5001 6.95972 11.5106 6.95543 11.5204C6.94617 11.5386 6.93018 11.5525 6.91088 11.5591C6.89158 11.5656 6.87051 11.5643 6.85217 11.5554Z" fill="url(#paint17_linear_3_5019)"/>
<path d="M6.70235 11.8234C6.6853 11.8124 6.67313 11.7953 6.66841 11.7755C6.66369 11.7557 6.6668 11.7349 6.67706 11.7174C6.68774 11.7 6.7048 11.6876 6.72454 11.6828C6.74428 11.678 6.76509 11.6813 6.78244 11.6919C6.79095 11.6971 6.79835 11.704 6.80423 11.7121C6.81011 11.7202 6.81434 11.7294 6.81669 11.7391C6.81904 11.7489 6.81945 11.759 6.81792 11.7689C6.81638 11.7788 6.81292 11.7883 6.80773 11.7969C6.80254 11.8054 6.79572 11.8129 6.78767 11.8188C6.77962 11.8247 6.77049 11.829 6.76081 11.8313C6.75112 11.8337 6.74106 11.8341 6.73121 11.8326C6.72137 11.831 6.71192 11.8275 6.70341 11.8223L6.70235 11.8234Z" fill="url(#paint18_linear_3_5019)"/>
<path d="M6.51339 12.0651C6.50588 12.0587 6.49972 12.0509 6.49527 12.042C6.49082 12.0332 6.48817 12.0236 6.48748 12.0137C6.4868 12.0038 6.48808 11.9939 6.49126 11.9845C6.49445 11.9751 6.49946 11.9665 6.50601 11.9591C6.51874 11.9439 6.53677 11.9343 6.55638 11.9321C6.576 11.9299 6.59569 11.9354 6.61139 11.9475C6.61907 11.9539 6.6254 11.9619 6.63004 11.9708C6.63467 11.9797 6.63751 11.9895 6.63839 11.9995C6.63927 12.0096 6.63818 12.0197 6.63517 12.0293C6.63216 12.0389 6.62731 12.0479 6.62087 12.0556C6.61444 12.0633 6.60655 12.0697 6.59767 12.0743C6.58878 12.079 6.57908 12.0819 6.56909 12.0827C6.55911 12.0836 6.54906 12.0825 6.5395 12.0795C6.52994 12.0765 6.52107 12.0716 6.51339 12.0651Z" fill="url(#paint19_linear_3_5019)"/>
<path d="M6.29385 12.2806C6.28131 12.2658 6.27441 12.247 6.27441 12.2275C6.27441 12.2081 6.28131 12.1893 6.29385 12.1745C6.30834 12.1615 6.3271 12.1543 6.34653 12.1543C6.36597 12.1543 6.38473 12.1615 6.39922 12.1745C6.41244 12.1893 6.41931 12.2088 6.41832 12.2286C6.41734 12.2485 6.40858 12.2672 6.39395 12.2806C6.38033 12.2932 6.36245 12.3003 6.3439 12.3003C6.32535 12.3003 6.30748 12.2932 6.29385 12.2806Z" fill="url(#paint20_linear_3_5019)"/>
<path d="M6.04206 12.4577C6.03652 12.4494 6.03268 12.44 6.03074 12.4301C6.0288 12.4203 6.02882 12.4102 6.03077 12.4003C6.03273 12.3905 6.03659 12.3811 6.04215 12.3728C6.0477 12.3644 6.05483 12.3573 6.06313 12.3517C6.07144 12.3461 6.08075 12.3423 6.09054 12.3403C6.10033 12.3384 6.1104 12.3384 6.12019 12.3404C6.12997 12.3423 6.13927 12.3462 6.14757 12.3518C6.15586 12.3574 6.16297 12.3646 6.16851 12.3729C6.17992 12.3895 6.18434 12.41 6.18078 12.4299C6.17723 12.4497 6.16599 12.4674 6.14954 12.4789C6.13245 12.4903 6.11159 12.4945 6.09148 12.4905C6.07136 12.4865 6.05361 12.4748 6.04206 12.4577Z" fill="url(#paint21_linear_3_5019)"/>
<path d="M5.77209 12.5998C5.76332 12.5807 5.76226 12.559 5.76914 12.5392C5.77603 12.5194 5.79032 12.5031 5.80897 12.4938C5.81823 12.4891 5.82832 12.4863 5.83865 12.4855C5.84899 12.4848 5.85937 12.4862 5.86918 12.4895C5.87899 12.4929 5.88804 12.4982 5.89579 12.5051C5.90355 12.512 5.90986 12.5204 5.91435 12.5298C5.91945 12.5391 5.92255 12.5493 5.92344 12.5599C5.92433 12.5705 5.92299 12.5811 5.91951 12.5911C5.91602 12.6011 5.91048 12.6103 5.90323 12.618C5.89599 12.6257 5.88721 12.6318 5.87747 12.6358C5.86835 12.6411 5.8582 12.6445 5.8477 12.6455C5.83721 12.6466 5.82661 12.6453 5.81662 12.6419C5.80663 12.6385 5.79749 12.633 5.78981 12.6257C5.78213 12.6184 5.77609 12.6096 5.77209 12.5998Z" fill="url(#paint22_linear_3_5019)"/>
<path d="M5.48116 12.6962C5.47597 12.677 5.47848 12.6566 5.48814 12.6394C5.49781 12.6221 5.51386 12.6094 5.5328 12.6039C5.55147 12.6003 5.57081 12.6038 5.58708 12.6137C5.60335 12.6236 5.6154 12.6392 5.6209 12.6575C5.6264 12.6759 5.62496 12.6956 5.61686 12.7129C5.60877 12.7302 5.59459 12.7439 5.57706 12.7513C5.56716 12.754 5.55683 12.7547 5.54665 12.7535C5.53647 12.7522 5.52665 12.7489 5.51774 12.7437C5.50883 12.7386 5.50101 12.7318 5.49474 12.7236C5.48846 12.7154 5.48385 12.7061 5.48116 12.6962Z" fill="url(#paint23_linear_3_5019)"/>
<path d="M5.1792 12.7546C5.17698 12.7345 5.18236 12.7143 5.19426 12.698C5.20617 12.6817 5.22374 12.6705 5.24348 12.6666C5.26351 12.6641 5.28373 12.6694 5.29999 12.6815C5.31625 12.6935 5.32733 12.7113 5.33094 12.7313C5.33258 12.7413 5.33216 12.7516 5.32973 12.7615C5.3273 12.7714 5.32289 12.7807 5.31678 12.7888C5.31068 12.797 5.30299 12.8038 5.29419 12.8088C5.2854 12.8139 5.27567 12.8171 5.26561 12.8182C5.25574 12.8202 5.24557 12.8201 5.23574 12.8179C5.22591 12.8157 5.21665 12.8115 5.20852 12.8055C5.2004 12.7995 5.1936 12.7919 5.18855 12.7831C5.18351 12.7744 5.18032 12.7647 5.1792 12.7546Z" fill="url(#paint24_linear_3_5019)"/>
<path d="M4.87588 12.7627C4.87809 12.7439 4.88708 12.7265 4.90116 12.7139C4.91525 12.7013 4.93343 12.6943 4.95228 12.6943C4.97112 12.6943 4.98931 12.7013 5.0034 12.7139C5.01748 12.7265 5.02647 12.7439 5.02868 12.7627C5.02896 12.7836 5.02105 12.8038 5.00665 12.8188C4.99225 12.8339 4.97253 12.8427 4.95175 12.8433C4.94151 12.843 4.93142 12.8407 4.92207 12.8365C4.91271 12.8323 4.90427 12.8263 4.89722 12.8188C4.89018 12.8113 4.88467 12.8025 4.88101 12.7929C4.87734 12.7832 4.8756 12.773 4.87588 12.7627Z" fill="url(#paint25_linear_3_5019)"/>
<path d="M4.56741 12.7313C4.57078 12.7114 4.58164 12.6936 4.59773 12.6815C4.61382 12.6695 4.63391 12.6641 4.65381 12.6666C4.67367 12.6702 4.69139 12.6814 4.70334 12.6977C4.71529 12.7141 4.72057 12.7344 4.71809 12.7546C4.71697 12.7647 4.71379 12.7744 4.70874 12.7831C4.70369 12.7919 4.69689 12.7995 4.68877 12.8055C4.68065 12.8115 4.67138 12.8157 4.66156 12.8179C4.65173 12.8201 4.64156 12.8202 4.63169 12.8182C4.62172 12.8169 4.61211 12.8136 4.60343 12.8085C4.59476 12.8034 4.58719 12.7966 4.58119 12.7885C4.57519 12.7804 4.57088 12.7711 4.56851 12.7613C4.56614 12.7515 4.56577 12.7412 4.56741 12.7313Z" fill="url(#paint26_linear_3_5019)"/>
<path d="M4.27057 12.6524C4.27729 12.6337 4.29082 12.6182 4.30843 12.6092C4.32603 12.6001 4.3464 12.5981 4.36541 12.6036C4.38435 12.6091 4.4004 12.6218 4.41007 12.6391C4.41973 12.6563 4.42224 12.6767 4.41704 12.6959C4.41138 12.7158 4.39818 12.7328 4.38026 12.7431C4.36234 12.7534 4.34113 12.7562 4.32115 12.751C4.31132 12.748 4.30218 12.743 4.29428 12.7364C4.28638 12.7298 4.27988 12.7216 4.27517 12.7124C4.27045 12.7032 4.26762 12.6932 4.26683 12.6829C4.26604 12.6726 4.26731 12.6622 4.27057 12.6524Z" fill="url(#paint27_linear_3_5019)"/>
<path d="M3.98807 12.5327C3.99257 12.5233 3.99887 12.5149 4.00663 12.508C4.01438 12.5011 4.02343 12.4958 4.03324 12.4925C4.04305 12.4891 4.05343 12.4877 4.06377 12.4885C4.07411 12.4892 4.08419 12.492 4.09345 12.4967C4.11192 12.5062 4.12597 12.5226 4.13266 12.5424C4.13934 12.5622 4.13813 12.5838 4.12928 12.6027C4.12543 12.6126 4.11946 12.6216 4.1118 12.629C4.10414 12.6364 4.09497 12.642 4.08493 12.6454C4.07489 12.6488 4.06422 12.65 4.05368 12.6489C4.04314 12.6477 4.03298 12.6443 4.0239 12.6387C4.01425 12.6346 4.00558 12.6284 3.99844 12.6207C3.99131 12.6129 3.98588 12.6038 3.9825 12.5938C3.97912 12.5838 3.97787 12.5732 3.97883 12.5626C3.97979 12.5521 3.98294 12.5419 3.98807 12.5327Z" fill="url(#paint28_linear_3_5019)"/>
<path d="M3.72716 12.3725C3.73864 12.3559 3.75618 12.3446 3.77593 12.3411C3.79567 12.3375 3.81603 12.3419 3.83253 12.3534C3.84113 12.3587 3.84857 12.3657 3.85442 12.3739C3.86027 12.3822 3.8644 12.3915 3.86656 12.4014C3.86873 12.4113 3.86888 12.4216 3.86702 12.4315C3.86515 12.4415 3.86131 12.451 3.85571 12.4594C3.84451 12.4762 3.82739 12.488 3.80782 12.4926C3.78825 12.4971 3.76769 12.494 3.75034 12.4838C3.74122 12.4783 3.73334 12.471 3.72717 12.4623C3.72101 12.4536 3.7167 12.4437 3.71453 12.4332C3.71235 12.4228 3.71235 12.412 3.71452 12.4015C3.71669 12.3911 3.721 12.3812 3.72716 12.3725Z" fill="url(#paint29_linear_3_5019)"/>
<path d="M3.4913 12.1765C3.50579 12.1635 3.52455 12.1562 3.54399 12.1562C3.56343 12.1562 3.58219 12.1635 3.59668 12.1765C3.60922 12.1913 3.61611 12.2101 3.61611 12.2295C3.61611 12.2489 3.60922 12.2677 3.59668 12.2825C3.58981 12.2896 3.58161 12.2952 3.57256 12.299C3.56352 12.3028 3.5538 12.3048 3.54399 12.3048C3.53418 12.3048 3.52446 12.3028 3.51542 12.299C3.50637 12.2952 3.49817 12.2896 3.4913 12.2825C3.4774 12.2684 3.4696 12.2494 3.4696 12.2295C3.4696 12.2096 3.4774 12.1906 3.4913 12.1765Z" fill="url(#paint30_linear_3_5019)"/>
<path d="M3.28584 11.9475C3.30154 11.9354 3.32123 11.9299 3.34084 11.9321C3.36046 11.9343 3.37849 11.9439 3.39122 11.9591C3.40392 11.9743 3.41025 11.9938 3.40888 12.0136C3.4075 12.0334 3.39852 12.0519 3.38384 12.0651C3.36812 12.0787 3.34771 12.0856 3.32701 12.0842C3.30631 12.0828 3.28698 12.0733 3.2732 12.0577C3.26669 12.0497 3.26185 12.0404 3.25896 12.0305C3.25607 12.0206 3.25519 12.0102 3.25637 11.9999C3.25755 11.9896 3.26076 11.9797 3.26582 11.9707C3.27089 11.9617 3.27769 11.9538 3.28584 11.9475Z" fill="url(#paint31_linear_3_5019)"/>
<path d="M3.11549 11.6928C3.124 11.6876 3.13345 11.6841 3.1433 11.6826C3.15314 11.681 3.1632 11.6814 3.17289 11.6838C3.18257 11.6862 3.1917 11.6904 3.19975 11.6963C3.20781 11.7022 3.21462 11.7097 3.21981 11.7182C3.225 11.7268 3.22846 11.7363 3.23 11.7462C3.23154 11.7561 3.23112 11.7662 3.22877 11.776C3.22642 11.7857 3.22219 11.7949 3.21631 11.803C3.21043 11.8111 3.20303 11.818 3.19452 11.8232C3.17733 11.8337 3.15669 11.837 3.13712 11.8322C3.11756 11.8274 3.10068 11.815 3.0902 11.7978C3.07972 11.7805 3.0765 11.7597 3.08124 11.74C3.08598 11.7203 3.0983 11.7033 3.11549 11.6928Z" fill="url(#paint32_linear_3_5019)"/>
<path d="M2.98616 11.4144C3.00461 11.4071 3.02518 11.4075 3.04335 11.4154C3.06153 11.4234 3.07583 11.4383 3.08311 11.4568C3.08716 11.4657 3.08942 11.4753 3.08975 11.4851C3.09009 11.4949 3.0885 11.5047 3.08507 11.5138C3.08164 11.523 3.07645 11.5314 3.06978 11.5385C3.06311 11.5456 3.05511 11.5514 3.04623 11.5554C3.03685 11.56 3.02664 11.5627 3.01621 11.5633C3.00578 11.5638 2.99534 11.5623 2.98551 11.5588C2.97568 11.5552 2.96666 11.5497 2.95899 11.5425C2.95132 11.5354 2.94515 11.5268 2.94085 11.5172C2.93711 11.5075 2.93532 11.4971 2.93557 11.4866C2.93582 11.4762 2.93812 11.4659 2.94233 11.4564C2.94654 11.4468 2.95257 11.4382 2.96009 11.431C2.96762 11.4238 2.97647 11.4181 2.98616 11.4144Z" fill="url(#paint33_linear_3_5019)"/>
<path d="M2.89737 11.121C2.91689 11.1167 2.93731 11.12 2.95451 11.1302C2.97172 11.1404 2.98443 11.1568 2.9901 11.1761C2.99442 11.1959 2.99118 11.2166 2.98103 11.2341C2.97087 11.2515 2.95455 11.2645 2.9353 11.2705C2.92561 11.2732 2.91548 11.2739 2.90552 11.2725C2.89555 11.2712 2.88595 11.2679 2.8773 11.2627C2.86864 11.2576 2.86111 11.2507 2.85514 11.2426C2.84917 11.2344 2.8449 11.2252 2.84257 11.2153C2.83988 11.2055 2.83917 11.1953 2.84048 11.1852C2.84179 11.1751 2.8451 11.1653 2.85021 11.1565C2.85531 11.1478 2.86211 11.1401 2.87021 11.134C2.87831 11.1279 2.88755 11.1235 2.89737 11.121Z" fill="url(#paint34_linear_3_5019)"/>
<path d="M2.85331 10.8135C2.87207 10.8137 2.89009 10.8209 2.90399 10.8335C2.91788 10.8462 2.92669 10.8636 2.92877 10.8823C2.93084 10.9011 2.92603 10.9199 2.91523 10.9354C2.90444 10.9508 2.88842 10.9618 2.87017 10.9661C2.85956 10.9687 2.84854 10.9689 2.83784 10.9669C2.82713 10.9648 2.81698 10.9605 2.80806 10.9542C2.79914 10.9479 2.79166 10.9397 2.78611 10.9303C2.78056 10.9208 2.77707 10.9103 2.77586 10.8994C2.77466 10.8885 2.77577 10.8775 2.77913 10.867C2.78248 10.8566 2.78801 10.847 2.79533 10.8389C2.80265 10.8308 2.81161 10.8243 2.82161 10.8199C2.8316 10.8155 2.84241 10.8133 2.85331 10.8135Z" fill="url(#paint35_linear_3_5019)"/>
<path d="M2.8538 10.5109C2.87383 10.512 2.89264 10.521 2.90622 10.5358C2.91981 10.5507 2.92708 10.5703 2.92651 10.5904C2.9249 10.6106 2.91573 10.6294 2.90085 10.643C2.88597 10.6565 2.86651 10.6639 2.84642 10.6636C2.83632 10.6636 2.82632 10.6615 2.81706 10.6575C2.80779 10.6534 2.79948 10.6474 2.79264 10.64C2.7858 10.6325 2.78058 10.6237 2.77732 10.614C2.77406 10.6044 2.77283 10.5942 2.77371 10.5841C2.77397 10.5739 2.77628 10.5639 2.78049 10.5547C2.7847 10.5454 2.79073 10.5371 2.79821 10.5303C2.8057 10.5234 2.81448 10.5182 2.82404 10.5149C2.83359 10.5116 2.84371 10.5102 2.8538 10.5109Z" fill="url(#paint36_linear_3_5019)"/>
<path d="M2.89743 10.207C2.91672 10.2115 2.93359 10.2232 2.94471 10.2397C2.95584 10.2562 2.9604 10.2763 2.95749 10.296C2.95413 10.3158 2.94319 10.3334 2.92702 10.3451C2.91086 10.3568 2.89077 10.3616 2.87109 10.3586C2.86102 10.3569 2.85138 10.3532 2.84273 10.3478C2.83409 10.3424 2.8266 10.3352 2.82072 10.3268C2.81484 10.3185 2.81067 10.309 2.80846 10.299C2.80625 10.2889 2.80605 10.2786 2.80786 10.2685C2.80935 10.2583 2.81291 10.2486 2.81831 10.2399C2.82371 10.2312 2.83085 10.2238 2.83926 10.218C2.84768 10.2122 2.85719 10.2083 2.8672 10.2064C2.87721 10.2045 2.88751 10.2047 2.89743 10.207Z" fill="url(#paint37_linear_3_5019)"/>
<path d="M2.98616 9.91306C3.00501 9.92002 3.02041 9.93411 3.02907 9.95233C3.03774 9.97056 3.03897 9.99146 3.03252 10.0106C3.02499 10.0291 3.01095 10.0442 2.99307 10.053C2.9752 10.0618 2.95474 10.0637 2.93558 10.0583C2.9258 10.0555 2.91672 10.0506 2.90893 10.044C2.90113 10.0375 2.8948 10.0293 2.89033 10.0201C2.88586 10.0109 2.88336 10.0009 2.88298 9.99068C2.88261 9.98046 2.88437 9.97026 2.88816 9.96077C2.89135 9.95107 2.89645 9.94212 2.90314 9.93444C2.90983 9.92676 2.91799 9.92052 2.92713 9.91607C2.93627 9.91162 2.9462 9.90906 2.95634 9.90854C2.96648 9.90803 2.97662 9.90956 2.98616 9.91306Z" fill="url(#paint38_linear_3_5019)"/>
<path d="M3.11555 9.63552C3.13347 9.64561 3.14684 9.66224 3.15292 9.68197C3.159 9.7017 3.15732 9.72302 3.14822 9.74154C3.139 9.75967 3.12299 9.77338 3.10372 9.77964C3.08446 9.7859 3.0635 9.78421 3.04548 9.77493C3.02745 9.76565 3.01383 9.74955 3.0076 9.73017C3.00138 9.71078 3.00306 9.6897 3.01229 9.67157C3.01618 9.66193 3.02208 9.65323 3.02959 9.64607C3.03709 9.6389 3.04603 9.63343 3.0558 9.63002C3.06558 9.62661 3.07597 9.62533 3.08627 9.62628C3.09657 9.62723 3.10656 9.63038 3.11555 9.63552Z" fill="url(#paint39_linear_3_5019)"/>
<path d="M3.28502 9.37989C3.30075 9.39209 3.31118 9.40993 3.31412 9.42969C3.31707 9.44945 3.3123 9.46959 3.30083 9.4859C3.2887 9.50163 3.27114 9.51221 3.25163 9.51555C3.23212 9.51889 3.21207 9.51474 3.19545 9.50392C3.18712 9.49833 3.18002 9.49106 3.17461 9.48258C3.16919 9.47409 3.16558 9.46458 3.164 9.45462C3.16242 9.44467 3.1629 9.43449 3.16541 9.42473C3.16792 9.41497 3.17241 9.40584 3.17859 9.39791C3.18437 9.38965 3.19171 9.38262 3.2002 9.37723C3.2087 9.37185 3.21817 9.36821 3.22807 9.36654C3.23797 9.36486 3.2481 9.36518 3.25787 9.36747C3.26765 9.36976 3.27688 9.37398 3.28502 9.37989Z" fill="url(#paint40_linear_3_5019)"/>
<path d="M3.49063 9.15074C3.50338 9.16542 3.5104 9.18425 3.5104 9.20374C3.5104 9.22324 3.50338 9.24207 3.49063 9.25675C3.47649 9.27048 3.4576 9.27816 3.43794 9.27816C3.41829 9.27816 3.3994 9.27048 3.38526 9.25675C3.37185 9.2424 3.36438 9.22344 3.36438 9.20374C3.36438 9.18404 3.37185 9.16509 3.38526 9.15074C3.39927 9.13675 3.41821 9.12891 3.43794 9.12891C3.45768 9.12891 3.47662 9.13675 3.49063 9.15074Z" fill="url(#paint41_linear_3_5019)"/>
<path d="M3.72555 8.95497C3.73702 8.97111 3.74197 8.99102 3.73943 9.01069C3.73689 9.03035 3.72704 9.04833 3.71186 9.06098C3.69565 9.07204 3.67599 9.07674 3.65657 9.0742C3.63715 9.07166 3.61933 9.06206 3.60648 9.0472C3.60014 9.03947 3.59544 9.03051 3.59268 9.02087C3.58993 9.01124 3.58917 9.00114 3.59045 8.9912C3.59174 8.98126 3.59504 8.97169 3.60015 8.96309C3.60527 8.95448 3.61208 8.94703 3.62018 8.94119C3.63604 8.92914 3.65596 8.92384 3.67567 8.92642C3.69537 8.929 3.71328 8.93925 3.72555 8.95497Z" fill="url(#paint42_linear_3_5019)"/>
<path d="M3.98778 8.79887C3.99768 8.8169 4.00013 8.83812 3.99461 8.85796C3.98909 8.87779 3.97604 8.89464 3.95827 8.90488C3.94966 8.91023 3.94007 8.91379 3.93007 8.91535C3.92006 8.91691 3.90985 8.91644 3.90003 8.91397C3.89021 8.9115 3.88098 8.90708 3.87289 8.90097C3.86479 8.89485 3.858 8.88717 3.8529 8.87838C3.84282 8.8606 3.84004 8.83957 3.84516 8.81976C3.85028 8.79996 3.86289 8.78295 3.8803 8.77236C3.88899 8.76667 3.89875 8.76284 3.90897 8.76109C3.9192 8.75934 3.92967 8.75972 3.93974 8.7622C3.94981 8.76469 3.95927 8.76922 3.96753 8.77553C3.9758 8.78183 3.98269 8.78978 3.98778 8.79887Z" fill="url(#paint43_linear_3_5019)"/>
<path d="M4.27001 8.67516C4.2769 8.69415 4.27612 8.7151 4.26785 8.73352C4.25958 8.75195 4.24447 8.76639 4.22575 8.77375C4.20656 8.77986 4.1858 8.77858 4.1675 8.77016C4.14919 8.76174 4.13465 8.74677 4.1267 8.72816C4.12285 8.7188 4.12094 8.70873 4.1211 8.6986C4.12126 8.68847 4.12348 8.67847 4.12763 8.66923C4.13178 8.66 4.13776 8.65171 4.14521 8.64489C4.15267 8.63807 4.16143 8.63285 4.17096 8.62957C4.18041 8.6257 4.19055 8.62382 4.20075 8.62404C4.21095 8.62426 4.22099 8.62658 4.23027 8.63085C4.23955 8.63511 4.24786 8.64125 4.25469 8.64887C4.26153 8.65649 4.26674 8.66543 4.27001 8.67516Z" fill="url(#paint44_linear_3_5019)"/>
<path d="M4.56668 8.59777C4.56995 8.61736 4.56582 8.63747 4.55509 8.65415C4.54436 8.67082 4.52782 8.68286 4.50872 8.68788C4.48931 8.69235 4.46892 8.68897 4.45197 8.67846C4.43502 8.66795 4.42285 8.65115 4.4181 8.63169C4.41335 8.61145 4.41679 8.59014 4.42766 8.57245C4.43853 8.55475 4.45593 8.54213 4.47605 8.53734C4.48597 8.53486 4.4963 8.53449 4.50637 8.53624C4.51645 8.53799 4.52605 8.54183 4.53457 8.54751C4.54309 8.55319 4.55034 8.56059 4.55587 8.56924C4.5614 8.5779 4.56508 8.58761 4.56668 8.59777Z" fill="url(#paint45_linear_3_5019)"/>
<path d="M4.87496 8.56455C4.87585 8.58456 4.86899 8.60414 4.85582 8.61916C4.84265 8.63419 4.82421 8.64349 4.80436 8.64512C4.78437 8.64555 4.76493 8.63854 4.74976 8.62543C4.73459 8.61232 4.72476 8.59404 4.72217 8.57409C4.721 8.56397 4.72193 8.55372 4.72492 8.54399C4.72791 8.53426 4.73289 8.52526 4.73954 8.51758C4.74618 8.50989 4.75435 8.50369 4.76352 8.49936C4.77269 8.49504 4.78265 8.49269 4.79277 8.49246C4.80291 8.4916 4.81311 8.49279 4.82278 8.49597C4.83245 8.49915 4.84139 8.50426 4.84905 8.51098C4.85672 8.51771 4.86297 8.52591 4.86742 8.53512C4.87187 8.54432 4.87444 8.55433 4.87496 8.56455Z" fill="url(#paint46_linear_3_5019)"/>
<path d="M5.17818 8.57401C5.17606 8.59396 5.16652 8.61238 5.15148 8.62555C5.13643 8.63872 5.11698 8.64569 5.09704 8.64504C5.0772 8.64341 5.05876 8.63411 5.04559 8.61908C5.03242 8.60405 5.02556 8.58448 5.02644 8.56447C5.02698 8.55434 5.02951 8.54443 5.0339 8.5353C5.03828 8.52617 5.04443 8.51801 5.05198 8.5113C5.05954 8.50459 5.06834 8.49946 5.07789 8.49621C5.08744 8.49296 5.09753 8.49166 5.10758 8.49238C5.11776 8.49244 5.1278 8.49468 5.13705 8.49895C5.1463 8.50322 5.15453 8.50942 5.16121 8.51715C5.16789 8.52487 5.17286 8.53393 5.17579 8.54374C5.17871 8.55354 5.17953 8.56386 5.17818 8.57401Z" fill="url(#paint47_linear_3_5019)"/>
<path d="M5.4799 8.63097C5.47491 8.65029 5.4627 8.66691 5.44581 8.67738C5.42893 8.68785 5.40867 8.69136 5.38928 8.68716C5.37005 8.68236 5.35335 8.67037 5.34259 8.65364C5.33182 8.6369 5.3278 8.61667 5.33132 8.59705C5.33277 8.58682 5.33635 8.57701 5.34183 8.56827C5.34732 8.55953 5.35458 8.55207 5.36314 8.54636C5.3717 8.54065 5.38137 8.53683 5.39151 8.53515C5.40164 8.53347 5.41202 8.53397 5.42195 8.53662C5.44207 8.54141 5.45947 8.55403 5.47034 8.57173C5.48121 8.58942 5.48465 8.61073 5.4799 8.63097Z" fill="url(#paint48_linear_3_5019)"/>
<path d="M5.77047 8.72777C5.76252 8.74638 5.74798 8.76135 5.72967 8.76977C5.71137 8.7782 5.6906 8.77947 5.67141 8.77336C5.65303 8.76557 5.63826 8.75109 5.63005 8.7328C5.62184 8.71452 5.62081 8.69379 5.62716 8.67477C5.63406 8.65607 5.64795 8.64084 5.66587 8.63232C5.68379 8.6238 5.70431 8.62267 5.72305 8.62918C5.73296 8.63198 5.74216 8.63687 5.75005 8.64352C5.75794 8.65016 5.76433 8.65842 5.76882 8.66774C5.7733 8.67706 5.77576 8.68723 5.77605 8.69758C5.77633 8.70793 5.77443 8.71822 5.77047 8.72777Z" fill="url(#paint49_linear_3_5019)"/>
<path d="M6.04121 8.87099C6.03611 8.87979 6.02931 8.88747 6.02122 8.89358C6.01312 8.8997 6.00389 8.90412 5.99407 8.90659C5.98425 8.90906 5.97404 8.90953 5.96404 8.90796C5.95404 8.9064 5.94445 8.90284 5.93583 8.8975C5.91807 8.88726 5.90501 8.87041 5.89949 8.85057C5.89397 8.83074 5.89643 8.80951 5.90633 8.79149C5.91095 8.78223 5.91743 8.77403 5.92534 8.7674C5.93326 8.76077 5.94246 8.75586 5.95235 8.75298C5.96224 8.75009 5.97262 8.74929 5.98283 8.75063C5.99304 8.75196 6.00287 8.75541 6.0117 8.76074C6.02107 8.7658 6.0293 8.77273 6.03591 8.78111C6.04251 8.78949 6.04735 8.79914 6.05011 8.80946C6.05287 8.81979 6.05351 8.83057 6.05198 8.84115C6.05045 8.85173 6.04678 8.86189 6.04121 8.87099Z" fill="url(#paint50_linear_3_5019)"/>
<path d="M6.29318 9.04774C6.28033 9.0626 6.26251 9.07221 6.24309 9.07475C6.22368 9.07729 6.20401 9.07258 6.18781 9.06152C6.17881 9.05573 6.17111 9.04812 6.1652 9.03917C6.15929 9.03022 6.15529 9.02013 6.15347 9.00954C6.15165 8.99895 6.15204 8.9881 6.15461 8.97767C6.15719 8.96724 6.1619 8.95747 6.16843 8.94897C6.17497 8.94047 6.1832 8.93344 6.19258 8.92831C6.20197 8.92319 6.21232 8.92009 6.22296 8.91921C6.23361 8.91832 6.24432 8.91968 6.25441 8.9232C6.26451 8.92671 6.27376 8.9323 6.28159 8.93961C6.28972 8.94571 6.29652 8.95344 6.30155 8.9623C6.30658 8.97117 6.30973 8.98098 6.31082 8.99113C6.31191 9.00128 6.3109 9.01155 6.30787 9.02129C6.30483 9.03103 6.29983 9.04003 6.29318 9.04774Z" fill="url(#paint51_linear_3_5019)"/>
<path d="M6.51319 9.26163C6.49905 9.27536 6.48016 9.28304 6.46051 9.28304C6.44085 9.28304 6.42196 9.27536 6.40782 9.26163C6.39486 9.24705 6.3877 9.22818 6.3877 9.20863C6.3877 9.18907 6.39486 9.1702 6.40782 9.15562C6.42183 9.14164 6.44077 9.13379 6.46051 9.13379C6.48024 9.13379 6.49918 9.14164 6.51319 9.15562C6.5266 9.16997 6.53407 9.18893 6.53407 9.20863C6.53407 9.22832 6.5266 9.24728 6.51319 9.26163Z" fill="url(#paint52_linear_3_5019)"/>
<path d="M6.70155 9.50358C6.68493 9.5144 6.66489 9.51855 6.64537 9.51521C6.62586 9.51187 6.60831 9.50129 6.59618 9.48556C6.58444 9.46897 6.57973 9.44837 6.58309 9.42829C6.58645 9.40821 6.5976 9.3903 6.61409 9.37849C6.63058 9.36668 6.65105 9.36194 6.67101 9.36532C6.69097 9.3687 6.70878 9.37992 6.72052 9.39651C6.72678 9.4046 6.73128 9.41393 6.73373 9.42388C6.73618 9.43384 6.73653 9.4442 6.73474 9.4543C6.73295 9.46439 6.72907 9.474 6.72335 9.48249C6.71764 9.49098 6.71021 9.49817 6.70155 9.50358Z" fill="url(#paint53_linear_3_5019)"/>
<path d="M6.85121 9.77175C6.84218 9.77698 6.83217 9.78025 6.82182 9.78137C6.81146 9.78248 6.80099 9.7814 6.79107 9.77821C6.78115 9.77502 6.772 9.76978 6.76421 9.76282C6.75643 9.75587 6.75016 9.74735 6.74583 9.73782C6.73665 9.71944 6.7348 9.69821 6.74068 9.67849C6.74656 9.65878 6.75971 9.64208 6.77745 9.63181C6.78636 9.62638 6.79633 9.62292 6.80667 9.62164C6.81702 9.62037 6.82752 9.62132 6.83747 9.62442C6.84743 9.62753 6.85662 9.63272 6.86444 9.63966C6.87225 9.6466 6.87852 9.65512 6.88282 9.66468C6.88795 9.67374 6.8912 9.68376 6.89239 9.69413C6.89357 9.70449 6.89266 9.71499 6.88971 9.72499C6.88675 9.735 6.88182 9.74429 6.87521 9.75233C6.86859 9.76036 6.86043 9.76697 6.85121 9.77175Z" fill="url(#paint54_linear_3_5019)"/>
<path d="M6.96235 10.0581C6.94319 10.0634 6.92273 10.0616 6.90485 10.0528C6.88698 10.044 6.87294 10.0289 6.86541 10.0103C6.85896 9.99122 6.86019 9.97031 6.86886 9.95209C6.87752 9.93386 6.89292 9.91977 6.91177 9.91282C6.92131 9.90932 6.93145 9.90778 6.94159 9.9083C6.95173 9.90882 6.96166 9.91138 6.9708 9.91582C6.97994 9.92027 6.98809 9.92652 6.99479 9.9342C7.00148 9.94188 7.00658 9.95083 7.00977 9.96052C7.01356 9.97002 7.01532 9.98021 7.01495 9.99044C7.01457 10.0007 7.01207 10.0107 7.0076 10.0199C7.00313 10.0291 6.99679 10.0372 6.989 10.0438C6.98121 10.0504 6.97213 10.0552 6.96235 10.0581Z" fill="url(#paint55_linear_3_5019)"/>
<path d="M7.02761 10.3586C7.00781 10.3617 6.98758 10.3569 6.97125 10.3452C6.95492 10.3335 6.94376 10.3159 6.94015 10.296C6.93753 10.2762 6.94234 10.2561 6.95364 10.2396C6.96493 10.2232 6.98191 10.2115 7.00127 10.207C7.01119 10.2047 7.02149 10.2045 7.0315 10.2064C7.04151 10.2083 7.05102 10.2122 7.05944 10.218C7.06785 10.2238 7.07498 10.2312 7.08039 10.2399C7.08579 10.2486 7.08935 10.2583 7.09084 10.2685C7.09421 10.2888 7.08946 10.3097 7.07762 10.3266C7.06578 10.3435 7.04782 10.355 7.02761 10.3586Z" fill="url(#paint56_linear_3_5019)"/>
<path d="M7.05192 10.6636C7.03183 10.6639 7.01237 10.6565 6.99749 10.643C6.98261 10.6294 6.97344 10.6106 6.97183 10.5904C6.97125 10.5703 6.97853 10.5507 6.99211 10.5358C7.0057 10.521 7.02451 10.512 7.04454 10.5109C7.05463 10.5102 7.06475 10.5116 7.0743 10.5149C7.08386 10.5182 7.09264 10.5234 7.10013 10.5303C7.10761 10.5371 7.11364 10.5454 7.11785 10.5547C7.12206 10.5639 7.12437 10.5739 7.12463 10.5841C7.12551 10.5942 7.12428 10.6044 7.12102 10.614C7.11776 10.6237 7.11254 10.6325 7.1057 10.64C7.09886 10.6474 7.09055 10.6534 7.08128 10.6575C7.07202 10.6615 7.06202 10.6636 7.05192 10.6636Z" fill="url(#paint57_linear_3_5019)"/>
</g>
<g style="mix-blend-mode:multiply" opacity="0.85">
<path d="M7.02787 10.9695C7.00775 10.9673 6.98934 10.9571 6.97669 10.9412C6.96404 10.9253 6.95819 10.905 6.96043 10.8847C6.96266 10.8645 6.9728 10.846 6.98861 10.8332C7.00442 10.8205 7.02461 10.8146 7.04473 10.8169C7.05494 10.8177 7.06489 10.8205 7.07399 10.8252C7.0831 10.8299 7.09118 10.8364 7.09775 10.8443C7.10433 10.8522 7.10927 10.8614 7.11229 10.8712C7.11531 10.8811 7.11634 10.8914 7.11533 10.9017C7.11244 10.9222 7.10168 10.9409 7.08533 10.9535C7.06899 10.9662 7.04836 10.972 7.02787 10.9695Z" fill="url(#paint58_linear_3_5019)"/>
<path d="M6.96339 11.2699C6.95291 11.2681 6.94293 11.2641 6.93405 11.2582C6.92517 11.2524 6.9176 11.2447 6.91182 11.2357C6.90603 11.2268 6.90216 11.2167 6.90043 11.2062C6.89871 11.1956 6.89918 11.1848 6.90181 11.1745C6.90443 11.1641 6.90917 11.1544 6.9157 11.146C6.92224 11.1375 6.93045 11.1306 6.9398 11.1255C6.94915 11.1204 6.95944 11.1173 6.97003 11.1165C6.98062 11.1156 6.99127 11.1169 7.00132 11.1204C7.0196 11.1267 7.03485 11.1397 7.04403 11.1568C7.05321 11.1739 7.05565 11.1939 7.05087 11.2127C7.04609 11.2316 7.03443 11.2479 7.01822 11.2585C7.00202 11.2691 6.98244 11.2732 6.96339 11.2699Z" fill="url(#paint59_linear_3_5019)"/>
<path d="M6.85217 11.5554C6.84328 11.5514 6.83528 11.5456 6.82861 11.5385C6.82195 11.5314 6.81675 11.523 6.81332 11.5138C6.80989 11.5047 6.8083 11.4949 6.80864 11.4851C6.80898 11.4753 6.81123 11.4657 6.81528 11.4568C6.82257 11.4383 6.83686 11.4234 6.85504 11.4154C6.87321 11.4075 6.89378 11.4071 6.91223 11.4144C6.92211 11.4183 6.93111 11.4242 6.93867 11.4318C6.94624 11.4393 6.95221 11.4483 6.95625 11.4582C6.96028 11.4681 6.96229 11.4787 6.96215 11.4894C6.96201 11.5001 6.95972 11.5106 6.95543 11.5204C6.94617 11.5386 6.93018 11.5525 6.91088 11.5591C6.89158 11.5656 6.87051 11.5643 6.85217 11.5554Z" fill="url(#paint60_linear_3_5019)"/>
<path d="M6.70235 11.8234C6.6853 11.8124 6.67313 11.7953 6.66841 11.7755C6.66369 11.7557 6.6668 11.7349 6.67706 11.7174C6.68774 11.7 6.7048 11.6876 6.72454 11.6828C6.74428 11.678 6.76509 11.6813 6.78244 11.6919C6.79095 11.6971 6.79835 11.704 6.80423 11.7121C6.81011 11.7202 6.81434 11.7294 6.81669 11.7391C6.81904 11.7489 6.81945 11.759 6.81792 11.7689C6.81638 11.7788 6.81292 11.7883 6.80773 11.7969C6.80254 11.8054 6.79572 11.8129 6.78767 11.8188C6.77962 11.8247 6.77049 11.829 6.76081 11.8313C6.75112 11.8337 6.74106 11.8341 6.73121 11.8326C6.72137 11.831 6.71192 11.8275 6.70341 11.8223L6.70235 11.8234Z" fill="url(#paint61_linear_3_5019)"/>
<path d="M6.51339 12.0651C6.50588 12.0587 6.49972 12.0509 6.49527 12.042C6.49082 12.0332 6.48817 12.0236 6.48748 12.0137C6.4868 12.0038 6.48808 11.9939 6.49126 11.9845C6.49445 11.9751 6.49946 11.9665 6.50601 11.9591C6.51874 11.9439 6.53677 11.9343 6.55638 11.9321C6.576 11.9299 6.59569 11.9354 6.61139 11.9475C6.61907 11.9539 6.6254 11.9619 6.63004 11.9708C6.63467 11.9797 6.63751 11.9895 6.63839 11.9995C6.63927 12.0096 6.63818 12.0197 6.63517 12.0293C6.63216 12.0389 6.62731 12.0479 6.62087 12.0556C6.61444 12.0633 6.60655 12.0697 6.59767 12.0743C6.58878 12.079 6.57908 12.0819 6.56909 12.0827C6.55911 12.0836 6.54906 12.0825 6.5395 12.0795C6.52994 12.0765 6.52107 12.0716 6.51339 12.0651Z" fill="url(#paint62_linear_3_5019)"/>
<path d="M6.29385 12.2806C6.28131 12.2658 6.27441 12.247 6.27441 12.2275C6.27441 12.2081 6.28131 12.1893 6.29385 12.1745C6.30834 12.1615 6.3271 12.1543 6.34653 12.1543C6.36597 12.1543 6.38473 12.1615 6.39922 12.1745C6.41244 12.1893 6.41931 12.2088 6.41832 12.2286C6.41734 12.2485 6.40858 12.2672 6.39395 12.2806C6.38033 12.2932 6.36245 12.3003 6.3439 12.3003C6.32535 12.3003 6.30748 12.2932 6.29385 12.2806Z" fill="url(#paint63_linear_3_5019)"/>
<path d="M6.04206 12.4577C6.03652 12.4494 6.03268 12.44 6.03074 12.4301C6.0288 12.4203 6.02882 12.4102 6.03077 12.4003C6.03273 12.3905 6.03659 12.3811 6.04215 12.3728C6.0477 12.3644 6.05483 12.3573 6.06313 12.3517C6.07144 12.3461 6.08075 12.3423 6.09054 12.3403C6.10033 12.3384 6.1104 12.3384 6.12019 12.3404C6.12997 12.3423 6.13927 12.3462 6.14757 12.3518C6.15586 12.3574 6.16297 12.3646 6.16851 12.3729C6.17992 12.3895 6.18434 12.41 6.18078 12.4299C6.17723 12.4497 6.16599 12.4674 6.14954 12.4789C6.13245 12.4903 6.11159 12.4945 6.09148 12.4905C6.07136 12.4865 6.05361 12.4748 6.04206 12.4577Z" fill="url(#paint64_linear_3_5019)"/>
<path d="M5.77209 12.5998C5.76332 12.5807 5.76226 12.559 5.76914 12.5392C5.77603 12.5194 5.79032 12.5031 5.80897 12.4938C5.81823 12.4891 5.82832 12.4863 5.83865 12.4855C5.84899 12.4848 5.85937 12.4862 5.86918 12.4895C5.87899 12.4929 5.88804 12.4982 5.89579 12.5051C5.90355 12.512 5.90986 12.5204 5.91435 12.5298C5.91945 12.5391 5.92255 12.5493 5.92344 12.5599C5.92433 12.5705 5.92299 12.5811 5.91951 12.5911C5.91602 12.6011 5.91048 12.6103 5.90323 12.618C5.89599 12.6257 5.88721 12.6318 5.87747 12.6358C5.86835 12.6411 5.8582 12.6445 5.8477 12.6455C5.83721 12.6466 5.82661 12.6453 5.81662 12.6419C5.80663 12.6385 5.79749 12.633 5.78981 12.6257C5.78213 12.6184 5.77609 12.6096 5.77209 12.5998Z" fill="url(#paint65_linear_3_5019)"/>
<path d="M5.48116 12.6962C5.47597 12.677 5.47848 12.6566 5.48814 12.6394C5.49781 12.6221 5.51386 12.6094 5.5328 12.6039C5.55147 12.6003 5.57081 12.6038 5.58708 12.6137C5.60335 12.6236 5.6154 12.6392 5.6209 12.6575C5.6264 12.6759 5.62496 12.6956 5.61686 12.7129C5.60877 12.7302 5.59459 12.7439 5.57706 12.7513C5.56716 12.754 5.55683 12.7547 5.54665 12.7535C5.53647 12.7522 5.52665 12.7489 5.51774 12.7437C5.50883 12.7386 5.50101 12.7318 5.49474 12.7236C5.48846 12.7154 5.48385 12.7061 5.48116 12.6962Z" fill="url(#paint66_linear_3_5019)"/>
<path d="M5.1792 12.7546C5.17698 12.7345 5.18236 12.7143 5.19426 12.698C5.20617 12.6817 5.22374 12.6705 5.24348 12.6666C5.26351 12.6641 5.28373 12.6694 5.29999 12.6815C5.31625 12.6935 5.32733 12.7113 5.33094 12.7313C5.33258 12.7413 5.33216 12.7516 5.32973 12.7615C5.3273 12.7714 5.32289 12.7807 5.31678 12.7888C5.31068 12.797 5.30299 12.8038 5.29419 12.8088C5.2854 12.8139 5.27567 12.8171 5.26561 12.8182C5.25574 12.8202 5.24557 12.8201 5.23574 12.8179C5.22591 12.8157 5.21665 12.8115 5.20852 12.8055C5.2004 12.7995 5.1936 12.7919 5.18855 12.7831C5.18351 12.7744 5.18032 12.7647 5.1792 12.7546Z" fill="url(#paint67_linear_3_5019)"/>
<path d="M4.87588 12.7627C4.87809 12.7439 4.88708 12.7265 4.90116 12.7139C4.91525 12.7013 4.93343 12.6943 4.95228 12.6943C4.97112 12.6943 4.98931 12.7013 5.0034 12.7139C5.01748 12.7265 5.02647 12.7439 5.02868 12.7627C5.02896 12.7836 5.02105 12.8038 5.00665 12.8188C4.99225 12.8339 4.97253 12.8427 4.95175 12.8433C4.94151 12.843 4.93142 12.8407 4.92207 12.8365C4.91271 12.8323 4.90427 12.8263 4.89722 12.8188C4.89018 12.8113 4.88467 12.8025 4.88101 12.7929C4.87734 12.7832 4.8756 12.773 4.87588 12.7627Z" fill="url(#paint68_linear_3_5019)"/>
<path d="M4.56741 12.7313C4.57078 12.7114 4.58164 12.6936 4.59773 12.6815C4.61382 12.6695 4.63391 12.6641 4.65381 12.6666C4.67367 12.6702 4.69139 12.6814 4.70334 12.6977C4.71529 12.7141 4.72057 12.7344 4.71809 12.7546C4.71697 12.7647 4.71379 12.7744 4.70874 12.7831C4.70369 12.7919 4.69689 12.7995 4.68877 12.8055C4.68065 12.8115 4.67138 12.8157 4.66156 12.8179C4.65173 12.8201 4.64156 12.8202 4.63169 12.8182C4.62172 12.8169 4.61211 12.8136 4.60343 12.8085C4.59476 12.8034 4.58719 12.7966 4.58119 12.7885C4.57519 12.7804 4.57088 12.7711 4.56851 12.7613C4.56614 12.7515 4.56577 12.7412 4.56741 12.7313Z" fill="url(#paint69_linear_3_5019)"/>
<path d="M4.27057 12.6524C4.27729 12.6337 4.29082 12.6182 4.30843 12.6092C4.32603 12.6001 4.3464 12.5981 4.36541 12.6036C4.38435 12.6091 4.4004 12.6218 4.41007 12.6391C4.41973 12.6563 4.42224 12.6767 4.41704 12.6959C4.41138 12.7158 4.39818 12.7328 4.38026 12.7431C4.36234 12.7534 4.34113 12.7562 4.32115 12.751C4.31132 12.748 4.30218 12.743 4.29428 12.7364C4.28638 12.7298 4.27988 12.7216 4.27517 12.7124C4.27045 12.7032 4.26762 12.6932 4.26683 12.6829C4.26604 12.6726 4.26731 12.6622 4.27057 12.6524Z" fill="url(#paint70_linear_3_5019)"/>
<path d="M3.98807 12.5327C3.99257 12.5233 3.99887 12.5149 4.00663 12.508C4.01438 12.5011 4.02343 12.4958 4.03324 12.4925C4.04305 12.4891 4.05343 12.4877 4.06377 12.4885C4.07411 12.4892 4.08419 12.492 4.09345 12.4967C4.11192 12.5062 4.12597 12.5226 4.13266 12.5424C4.13934 12.5622 4.13813 12.5838 4.12928 12.6027C4.12543 12.6126 4.11946 12.6216 4.1118 12.629C4.10414 12.6364 4.09497 12.642 4.08493 12.6454C4.07489 12.6488 4.06422 12.65 4.05368 12.6489C4.04314 12.6477 4.03298 12.6443 4.0239 12.6387C4.01425 12.6346 4.00558 12.6284 3.99844 12.6207C3.99131 12.6129 3.98588 12.6038 3.9825 12.5938C3.97912 12.5838 3.97787 12.5732 3.97883 12.5626C3.97979 12.5521 3.98294 12.5419 3.98807 12.5327Z" fill="url(#paint71_linear_3_5019)"/>
<path d="M3.72716 12.3725C3.73864 12.3559 3.75618 12.3446 3.77593 12.3411C3.79567 12.3375 3.81603 12.3419 3.83253 12.3534C3.84113 12.3587 3.84857 12.3657 3.85442 12.3739C3.86027 12.3822 3.8644 12.3915 3.86656 12.4014C3.86873 12.4113 3.86888 12.4216 3.86702 12.4315C3.86515 12.4415 3.86131 12.451 3.85571 12.4594C3.84451 12.4762 3.82739 12.488 3.80782 12.4926C3.78825 12.4971 3.76769 12.494 3.75034 12.4838C3.74122 12.4783 3.73334 12.471 3.72717 12.4623C3.72101 12.4536 3.7167 12.4437 3.71453 12.4332C3.71235 12.4228 3.71235 12.412 3.71452 12.4015C3.71669 12.3911 3.721 12.3812 3.72716 12.3725Z" fill="url(#paint72_linear_3_5019)"/>
<path d="M3.4913 12.1765C3.50579 12.1635 3.52455 12.1562 3.54399 12.1562C3.56343 12.1562 3.58219 12.1635 3.59668 12.1765C3.60922 12.1913 3.61611 12.2101 3.61611 12.2295C3.61611 12.2489 3.60922 12.2677 3.59668 12.2825C3.58981 12.2896 3.58161 12.2952 3.57256 12.299C3.56352 12.3028 3.5538 12.3048 3.54399 12.3048C3.53418 12.3048 3.52446 12.3028 3.51542 12.299C3.50637 12.2952 3.49817 12.2896 3.4913 12.2825C3.4774 12.2684 3.4696 12.2494 3.4696 12.2295C3.4696 12.2096 3.4774 12.1906 3.4913 12.1765Z" fill="url(#paint73_linear_3_5019)"/>
<path d="M3.28584 11.9475C3.30154 11.9354 3.32123 11.9299 3.34084 11.9321C3.36046 11.9343 3.37849 11.9439 3.39122 11.9591C3.40392 11.9743 3.41025 11.9938 3.40888 12.0136C3.4075 12.0334 3.39852 12.0519 3.38384 12.0651C3.36812 12.0787 3.34771 12.0856 3.32701 12.0842C3.30631 12.0828 3.28698 12.0733 3.2732 12.0577C3.26669 12.0497 3.26185 12.0404 3.25896 12.0305C3.25607 12.0206 3.25519 12.0102 3.25637 11.9999C3.25755 11.9896 3.26076 11.9797 3.26582 11.9707C3.27089 11.9617 3.27769 11.9538 3.28584 11.9475Z" fill="url(#paint74_linear_3_5019)"/>
<path d="M3.11549 11.6928C3.124 11.6876 3.13345 11.6841 3.1433 11.6826C3.15314 11.681 3.1632 11.6814 3.17289 11.6838C3.18257 11.6862 3.1917 11.6904 3.19975 11.6963C3.20781 11.7022 3.21462 11.7097 3.21981 11.7182C3.225 11.7268 3.22846 11.7363 3.23 11.7462C3.23154 11.7561 3.23112 11.7662 3.22877 11.776C3.22642 11.7857 3.22219 11.7949 3.21631 11.803C3.21043 11.8111 3.20303 11.818 3.19452 11.8232C3.17733 11.8337 3.15669 11.837 3.13712 11.8322C3.11756 11.8274 3.10068 11.815 3.0902 11.7978C3.07972 11.7805 3.0765 11.7597 3.08124 11.74C3.08598 11.7203 3.0983 11.7033 3.11549 11.6928Z" fill="url(#paint75_linear_3_5019)"/>
<path d="M2.98616 11.4144C3.00461 11.4071 3.02518 11.4075 3.04335 11.4154C3.06153 11.4234 3.07583 11.4383 3.08311 11.4568C3.08716 11.4657 3.08942 11.4753 3.08975 11.4851C3.09009 11.4949 3.0885 11.5047 3.08507 11.5138C3.08164 11.523 3.07645 11.5314 3.06978 11.5385C3.06311 11.5456 3.05511 11.5514 3.04623 11.5554C3.03685 11.56 3.02664 11.5627 3.01621 11.5633C3.00578 11.5638 2.99534 11.5623 2.98551 11.5588C2.97568 11.5552 2.96666 11.5497 2.95899 11.5425C2.95132 11.5354 2.94515 11.5268 2.94085 11.5172C2.93711 11.5075 2.93532 11.4971 2.93557 11.4866C2.93582 11.4762 2.93812 11.4659 2.94233 11.4564C2.94654 11.4468 2.95257 11.4382 2.96009 11.431C2.96762 11.4238 2.97647 11.4181 2.98616 11.4144Z" fill="url(#paint76_linear_3_5019)"/>
<path d="M2.89737 11.121C2.91689 11.1167 2.93731 11.12 2.95451 11.1302C2.97172 11.1404 2.98443 11.1568 2.9901 11.1761C2.99442 11.1959 2.99118 11.2166 2.98103 11.2341C2.97087 11.2515 2.95455 11.2645 2.9353 11.2705C2.92561 11.2732 2.91548 11.2739 2.90552 11.2725C2.89555 11.2712 2.88595 11.2679 2.8773 11.2627C2.86864 11.2576 2.86111 11.2507 2.85514 11.2426C2.84917 11.2344 2.8449 11.2252 2.84257 11.2153C2.83988 11.2055 2.83917 11.1953 2.84048 11.1852C2.84179 11.1751 2.8451 11.1653 2.85021 11.1565C2.85531 11.1478 2.86211 11.1401 2.87021 11.134C2.87831 11.1279 2.88755 11.1235 2.89737 11.121Z" fill="url(#paint77_linear_3_5019)"/>
<path d="M2.85331 10.8135C2.87207 10.8137 2.89009 10.8209 2.90399 10.8335C2.91788 10.8462 2.92669 10.8636 2.92877 10.8823C2.93084 10.9011 2.92603 10.9199 2.91523 10.9354C2.90444 10.9508 2.88842 10.9618 2.87017 10.9661C2.85956 10.9687 2.84854 10.9689 2.83784 10.9669C2.82713 10.9648 2.81698 10.9605 2.80806 10.9542C2.79914 10.9479 2.79166 10.9397 2.78611 10.9303C2.78056 10.9208 2.77707 10.9103 2.77586 10.8994C2.77466 10.8885 2.77577 10.8775 2.77913 10.867C2.78248 10.8566 2.78801 10.847 2.79533 10.8389C2.80265 10.8308 2.81161 10.8243 2.82161 10.8199C2.8316 10.8155 2.84241 10.8133 2.85331 10.8135Z" fill="url(#paint78_linear_3_5019)"/>
<path d="M2.8538 10.5109C2.87383 10.512 2.89264 10.521 2.90622 10.5358C2.91981 10.5507 2.92708 10.5703 2.92651 10.5904C2.9249 10.6106 2.91573 10.6294 2.90085 10.643C2.88597 10.6565 2.86651 10.6639 2.84642 10.6636C2.83632 10.6636 2.82632 10.6615 2.81706 10.6575C2.80779 10.6534 2.79948 10.6474 2.79264 10.64C2.7858 10.6325 2.78058 10.6237 2.77732 10.614C2.77406 10.6044 2.77283 10.5942 2.77371 10.5841C2.77397 10.5739 2.77628 10.5639 2.78049 10.5547C2.7847 10.5454 2.79073 10.5371 2.79821 10.5303C2.8057 10.5234 2.81448 10.5182 2.82404 10.5149C2.83359 10.5116 2.84371 10.5102 2.8538 10.5109Z" fill="url(#paint79_linear_3_5019)"/>
<path d="M2.89743 10.207C2.91672 10.2115 2.93359 10.2232 2.94471 10.2397C2.95584 10.2562 2.9604 10.2763 2.95749 10.296C2.95413 10.3158 2.94319 10.3334 2.92702 10.3451C2.91086 10.3568 2.89077 10.3616 2.87109 10.3586C2.86102 10.3569 2.85138 10.3532 2.84273 10.3478C2.83409 10.3424 2.8266 10.3352 2.82072 10.3268C2.81484 10.3185 2.81067 10.309 2.80846 10.299C2.80625 10.2889 2.80605 10.2786 2.80786 10.2685C2.80935 10.2583 2.81291 10.2486 2.81831 10.2399C2.82371 10.2312 2.83085 10.2238 2.83926 10.218C2.84768 10.2122 2.85719 10.2083 2.8672 10.2064C2.87721 10.2045 2.88751 10.2047 2.89743 10.207Z" fill="url(#paint80_linear_3_5019)"/>
<path d="M2.98616 9.91306C3.00501 9.92002 3.02041 9.93411 3.02907 9.95233C3.03774 9.97056 3.03897 9.99146 3.03252 10.0106C3.02499 10.0291 3.01095 10.0442 2.99307 10.053C2.9752 10.0618 2.95474 10.0637 2.93558 10.0583C2.9258 10.0555 2.91672 10.0506 2.90893 10.044C2.90113 10.0375 2.8948 10.0293 2.89033 10.0201C2.88586 10.0109 2.88336 10.0009 2.88298 9.99068C2.88261 9.98046 2.88437 9.97026 2.88816 9.96077C2.89135 9.95107 2.89645 9.94212 2.90314 9.93444C2.90983 9.92676 2.91799 9.92052 2.92713 9.91607C2.93627 9.91162 2.9462 9.90906 2.95634 9.90854C2.96648 9.90803 2.97662 9.90956 2.98616 9.91306Z" fill="url(#paint81_linear_3_5019)"/>
<path d="M3.11555 9.63552C3.13347 9.64561 3.14684 9.66224 3.15292 9.68197C3.159 9.7017 3.15732 9.72302 3.14822 9.74154C3.139 9.75967 3.12299 9.77338 3.10372 9.77964C3.08446 9.7859 3.0635 9.78421 3.04548 9.77493C3.02745 9.76565 3.01383 9.74955 3.0076 9.73017C3.00138 9.71078 3.00306 9.6897 3.01229 9.67157C3.01618 9.66193 3.02208 9.65323 3.02959 9.64607C3.03709 9.6389 3.04603 9.63343 3.0558 9.63002C3.06558 9.62661 3.07597 9.62533 3.08627 9.62628C3.09657 9.62723 3.10656 9.63038 3.11555 9.63552Z" fill="url(#paint82_linear_3_5019)"/>
<path d="M3.28502 9.37989C3.30075 9.39209 3.31118 9.40993 3.31412 9.42969C3.31707 9.44945 3.3123 9.46959 3.30083 9.4859C3.2887 9.50163 3.27114 9.51221 3.25163 9.51555C3.23212 9.51889 3.21207 9.51474 3.19545 9.50392C3.18712 9.49833 3.18002 9.49106 3.17461 9.48258C3.16919 9.47409 3.16558 9.46458 3.164 9.45462C3.16242 9.44467 3.1629 9.43449 3.16541 9.42473C3.16792 9.41497 3.17241 9.40584 3.17859 9.39791C3.18437 9.38965 3.19171 9.38262 3.2002 9.37723C3.2087 9.37185 3.21817 9.36821 3.22807 9.36654C3.23797 9.36486 3.2481 9.36518 3.25787 9.36747C3.26765 9.36976 3.27688 9.37398 3.28502 9.37989Z" fill="url(#paint83_linear_3_5019)"/>
<path d="M3.49063 9.15074C3.50338 9.16542 3.5104 9.18425 3.5104 9.20374C3.5104 9.22324 3.50338 9.24207 3.49063 9.25675C3.47649 9.27048 3.4576 9.27816 3.43794 9.27816C3.41829 9.27816 3.3994 9.27048 3.38526 9.25675C3.37185 9.2424 3.36438 9.22344 3.36438 9.20374C3.36438 9.18404 3.37185 9.16509 3.38526 9.15074C3.39927 9.13675 3.41821 9.12891 3.43794 9.12891C3.45768 9.12891 3.47662 9.13675 3.49063 9.15074Z" fill="url(#paint84_linear_3_5019)"/>
<path d="M3.72555 8.95497C3.73702 8.97111 3.74197 8.99102 3.73943 9.01069C3.73689 9.03035 3.72704 9.04833 3.71186 9.06098C3.69565 9.07204 3.67599 9.07674 3.65657 9.0742C3.63715 9.07166 3.61933 9.06206 3.60648 9.0472C3.60014 9.03947 3.59544 9.03051 3.59268 9.02087C3.58993 9.01124 3.58917 9.00114 3.59045 8.9912C3.59174 8.98126 3.59504 8.97169 3.60015 8.96309C3.60527 8.95448 3.61208 8.94703 3.62018 8.94119C3.63604 8.92914 3.65596 8.92384 3.67567 8.92642C3.69537 8.929 3.71328 8.93925 3.72555 8.95497Z" fill="url(#paint85_linear_3_5019)"/>
<path d="M3.98778 8.79887C3.99768 8.8169 4.00013 8.83812 3.99461 8.85796C3.98909 8.87779 3.97604 8.89464 3.95827 8.90488C3.94966 8.91023 3.94007 8.91379 3.93007 8.91535C3.92006 8.91691 3.90985 8.91644 3.90003 8.91397C3.89021 8.9115 3.88098 8.90708 3.87289 8.90097C3.86479 8.89485 3.858 8.88717 3.8529 8.87838C3.84282 8.8606 3.84004 8.83957 3.84516 8.81976C3.85028 8.79996 3.86289 8.78295 3.8803 8.77236C3.88899 8.76667 3.89875 8.76284 3.90897 8.76109C3.9192 8.75934 3.92967 8.75972 3.93974 8.7622C3.94981 8.76469 3.95927 8.76922 3.96753 8.77553C3.9758 8.78183 3.98269 8.78978 3.98778 8.79887Z" fill="url(#paint86_linear_3_5019)"/>
<path d="M4.27001 8.67516C4.2769 8.69415 4.27612 8.7151 4.26785 8.73352C4.25958 8.75195 4.24447 8.76639 4.22575 8.77375C4.20656 8.77986 4.1858 8.77858 4.1675 8.77016C4.14919 8.76174 4.13465 8.74677 4.1267 8.72816C4.12285 8.7188 4.12094 8.70873 4.1211 8.6986C4.12126 8.68847 4.12348 8.67847 4.12763 8.66923C4.13178 8.66 4.13776 8.65171 4.14521 8.64489C4.15267 8.63807 4.16143 8.63285 4.17096 8.62957C4.18041 8.6257 4.19055 8.62382 4.20075 8.62404C4.21095 8.62426 4.22099 8.62658 4.23027 8.63085C4.23955 8.63511 4.24786 8.64125 4.25469 8.64887C4.26153 8.65649 4.26674 8.66543 4.27001 8.67516Z" fill="url(#paint87_linear_3_5019)"/>
<path d="M4.56668 8.59777C4.56995 8.61736 4.56582 8.63747 4.55509 8.65415C4.54436 8.67082 4.52782 8.68286 4.50872 8.68788C4.48931 8.69235 4.46892 8.68897 4.45197 8.67846C4.43502 8.66795 4.42285 8.65115 4.4181 8.63169C4.41335 8.61145 4.41679 8.59014 4.42766 8.57245C4.43853 8.55475 4.45593 8.54213 4.47605 8.53734C4.48597 8.53486 4.4963 8.53449 4.50637 8.53624C4.51645 8.53799 4.52605 8.54183 4.53457 8.54751C4.54309 8.55319 4.55034 8.56059 4.55587 8.56924C4.5614 8.5779 4.56508 8.58761 4.56668 8.59777Z" fill="url(#paint88_linear_3_5019)"/>
<path d="M4.87496 8.56455C4.87585 8.58456 4.86899 8.60414 4.85582 8.61916C4.84265 8.63419 4.82421 8.64349 4.80436 8.64512C4.78437 8.64555 4.76493 8.63854 4.74976 8.62543C4.73459 8.61232 4.72476 8.59404 4.72217 8.57409C4.721 8.56397 4.72193 8.55372 4.72492 8.54399C4.72791 8.53426 4.73289 8.52526 4.73954 8.51758C4.74618 8.50989 4.75435 8.50369 4.76352 8.49936C4.77269 8.49504 4.78265 8.49269 4.79277 8.49246C4.80291 8.4916 4.81311 8.49279 4.82278 8.49597C4.83245 8.49915 4.84139 8.50426 4.84905 8.51098C4.85672 8.51771 4.86297 8.52591 4.86742 8.53512C4.87187 8.54432 4.87444 8.55433 4.87496 8.56455Z" fill="url(#paint89_linear_3_5019)"/>
<path d="M5.17818 8.57401C5.17606 8.59396 5.16652 8.61238 5.15148 8.62555C5.13643 8.63872 5.11698 8.64569 5.09704 8.64504C5.0772 8.64341 5.05876 8.63411 5.04559 8.61908C5.03242 8.60405 5.02556 8.58448 5.02644 8.56447C5.02698 8.55434 5.02951 8.54443 5.0339 8.5353C5.03828 8.52617 5.04443 8.51801 5.05198 8.5113C5.05954 8.50459 5.06834 8.49946 5.07789 8.49621C5.08744 8.49296 5.09753 8.49166 5.10758 8.49238C5.11776 8.49244 5.1278 8.49468 5.13705 8.49895C5.1463 8.50322 5.15453 8.50942 5.16121 8.51715C5.16789 8.52487 5.17286 8.53393 5.17579 8.54374C5.17871 8.55354 5.17953 8.56386 5.17818 8.57401Z" fill="url(#paint90_linear_3_5019)"/>
<path d="M5.4799 8.63097C5.47491 8.65029 5.4627 8.66691 5.44581 8.67738C5.42893 8.68785 5.40867 8.69136 5.38928 8.68716C5.37005 8.68236 5.35335 8.67037 5.34259 8.65364C5.33182 8.6369 5.3278 8.61667 5.33132 8.59705C5.33277 8.58682 5.33635 8.57701 5.34183 8.56827C5.34732 8.55953 5.35458 8.55207 5.36314 8.54636C5.3717 8.54065 5.38137 8.53683 5.39151 8.53515C5.40164 8.53347 5.41202 8.53397 5.42195 8.53662C5.44207 8.54141 5.45947 8.55403 5.47034 8.57173C5.48121 8.58942 5.48465 8.61073 5.4799 8.63097Z" fill="url(#paint91_linear_3_5019)"/>
<path d="M5.77047 8.72777C5.76252 8.74638 5.74798 8.76135 5.72967 8.76977C5.71137 8.7782 5.6906 8.77947 5.67141 8.77336C5.65303 8.76557 5.63826 8.75109 5.63005 8.7328C5.62184 8.71452 5.62081 8.69379 5.62716 8.67477C5.63406 8.65607 5.64795 8.64084 5.66587 8.63232C5.68379 8.6238 5.70431 8.62267 5.72305 8.62918C5.73296 8.63198 5.74216 8.63687 5.75005 8.64352C5.75794 8.65016 5.76433 8.65842 5.76882 8.66774C5.7733 8.67706 5.77576 8.68723 5.77605 8.69758C5.77633 8.70793 5.77443 8.71822 5.77047 8.72777Z" fill="url(#paint92_linear_3_5019)"/>
<path d="M6.04121 8.87099C6.03611 8.87979 6.02931 8.88747 6.02122 8.89358C6.01312 8.8997 6.00389 8.90412 5.99407 8.90659C5.98425 8.90906 5.97404 8.90953 5.96404 8.90796C5.95404 8.9064 5.94445 8.90284 5.93583 8.8975C5.91807 8.88726 5.90501 8.87041 5.89949 8.85057C5.89397 8.83074 5.89643 8.80951 5.90633 8.79149C5.91095 8.78223 5.91743 8.77403 5.92534 8.7674C5.93326 8.76077 5.94246 8.75586 5.95235 8.75298C5.96224 8.75009 5.97262 8.74929 5.98283 8.75063C5.99304 8.75196 6.00287 8.75541 6.0117 8.76074C6.02107 8.7658 6.0293 8.77273 6.03591 8.78111C6.04251 8.78949 6.04735 8.79914 6.05011 8.80946C6.05287 8.81979 6.05351 8.83057 6.05198 8.84115C6.05045 8.85173 6.04678 8.86189 6.04121 8.87099Z" fill="url(#paint93_linear_3_5019)"/>
<path d="M6.29318 9.04774C6.28033 9.0626 6.26251 9.07221 6.24309 9.07475C6.22368 9.07729 6.20401 9.07258 6.18781 9.06152C6.17881 9.05573 6.17111 9.04812 6.1652 9.03917C6.15929 9.03022 6.15529 9.02013 6.15347 9.00954C6.15165 8.99895 6.15204 8.9881 6.15461 8.97767C6.15719 8.96724 6.1619 8.95747 6.16843 8.94897C6.17497 8.94047 6.1832 8.93344 6.19258 8.92831C6.20197 8.92319 6.21232 8.92009 6.22296 8.91921C6.23361 8.91832 6.24432 8.91968 6.25441 8.9232C6.26451 8.92671 6.27376 8.9323 6.28159 8.93961C6.28972 8.94571 6.29652 8.95344 6.30155 8.9623C6.30658 8.97117 6.30973 8.98098 6.31082 8.99113C6.31191 9.00128 6.3109 9.01155 6.30787 9.02129C6.30483 9.03103 6.29983 9.04003 6.29318 9.04774Z" fill="url(#paint94_linear_3_5019)"/>
<path d="M6.51319 9.26163C6.49905 9.27536 6.48016 9.28304 6.46051 9.28304C6.44085 9.28304 6.42196 9.27536 6.40782 9.26163C6.39486 9.24705 6.3877 9.22818 6.3877 9.20863C6.3877 9.18907 6.39486 9.1702 6.40782 9.15562C6.42183 9.14164 6.44077 9.13379 6.46051 9.13379C6.48024 9.13379 6.49918 9.14164 6.51319 9.15562C6.5266 9.16997 6.53407 9.18893 6.53407 9.20863C6.53407 9.22832 6.5266 9.24728 6.51319 9.26163Z" fill="url(#paint95_linear_3_5019)"/>
<path d="M6.70155 9.50358C6.68493 9.5144 6.66489 9.51855 6.64537 9.51521C6.62586 9.51187 6.60831 9.50129 6.59618 9.48556C6.58444 9.46897 6.57973 9.44837 6.58309 9.42829C6.58645 9.40821 6.5976 9.3903 6.61409 9.37849C6.63058 9.36668 6.65105 9.36194 6.67101 9.36532C6.69097 9.3687 6.70878 9.37992 6.72052 9.39651C6.72678 9.4046 6.73128 9.41393 6.73373 9.42388C6.73618 9.43384 6.73653 9.4442 6.73474 9.4543C6.73295 9.46439 6.72907 9.474 6.72335 9.48249C6.71764 9.49098 6.71021 9.49817 6.70155 9.50358Z" fill="url(#paint96_linear_3_5019)"/>
<path d="M6.85121 9.77175C6.84218 9.77698 6.83217 9.78025 6.82182 9.78137C6.81146 9.78248 6.80099 9.7814 6.79107 9.77821C6.78115 9.77502 6.772 9.76978 6.76421 9.76282C6.75643 9.75587 6.75016 9.74735 6.74583 9.73782C6.73665 9.71944 6.7348 9.69821 6.74068 9.67849C6.74656 9.65878 6.75971 9.64208 6.77745 9.63181C6.78636 9.62638 6.79633 9.62292 6.80667 9.62164C6.81702 9.62037 6.82752 9.62132 6.83747 9.62442C6.84743 9.62753 6.85662 9.63272 6.86444 9.63966C6.87225 9.6466 6.87852 9.65512 6.88282 9.66468C6.88795 9.67374 6.8912 9.68376 6.89239 9.69413C6.89357 9.70449 6.89266 9.71499 6.88971 9.72499C6.88675 9.735 6.88182 9.74429 6.87521 9.75233C6.86859 9.76036 6.86043 9.76697 6.85121 9.77175Z" fill="url(#paint97_linear_3_5019)"/>
<path d="M6.96235 10.0581C6.94319 10.0634 6.92273 10.0616 6.90485 10.0528C6.88698 10.044 6.87294 10.0289 6.86541 10.0103C6.85896 9.99122 6.86019 9.97031 6.86886 9.95209C6.87752 9.93386 6.89292 9.91977 6.91177 9.91282C6.92131 9.90932 6.93145 9.90778 6.94159 9.9083C6.95173 9.90882 6.96166 9.91138 6.9708 9.91582C6.97994 9.92027 6.98809 9.92652 6.99479 9.9342C7.00148 9.94188 7.00658 9.95083 7.00977 9.96052C7.01356 9.97002 7.01532 9.98021 7.01495 9.99044C7.01457 10.0007 7.01207 10.0107 7.0076 10.0199C7.00313 10.0291 6.99679 10.0372 6.989 10.0438C6.98121 10.0504 6.97213 10.0552 6.96235 10.0581Z" fill="url(#paint98_linear_3_5019)"/>
<path d="M7.02761 10.3586C7.00781 10.3617 6.98758 10.3569 6.97125 10.3452C6.95492 10.3335 6.94376 10.3159 6.94015 10.296C6.93753 10.2762 6.94234 10.2561 6.95364 10.2396C6.96493 10.2232 6.98191 10.2115 7.00127 10.207C7.01119 10.2047 7.02149 10.2045 7.0315 10.2064C7.04151 10.2083 7.05102 10.2122 7.05944 10.218C7.06785 10.2238 7.07498 10.2312 7.08039 10.2399C7.08579 10.2486 7.08935 10.2583 7.09084 10.2685C7.09421 10.2888 7.08946 10.3097 7.07762 10.3266C7.06578 10.3435 7.04782 10.355 7.02761 10.3586Z" fill="url(#paint99_linear_3_5019)"/>
<path d="M7.05192 10.6636C7.03183 10.6639 7.01237 10.6565 6.99749 10.643C6.98261 10.6294 6.97344 10.6106 6.97183 10.5904C6.97125 10.5703 6.97853 10.5507 6.99211 10.5358C7.0057 10.521 7.02451 10.512 7.04454 10.5109C7.05463 10.5102 7.06475 10.5116 7.0743 10.5149C7.08386 10.5182 7.09264 10.5234 7.10013 10.5303C7.10761 10.5371 7.11364 10.5454 7.11785 10.5547C7.12206 10.5639 7.12437 10.5739 7.12463 10.5841C7.12551 10.5942 7.12428 10.6044 7.12102 10.614C7.11776 10.6237 7.11254 10.6325 7.1057 10.64C7.09886 10.6474 7.09055 10.6534 7.08128 10.6575C7.07202 10.6615 7.06202 10.6636 7.05192 10.6636Z" fill="url(#paint100_linear_3_5019)"/>
</g>
</g>
<path style="mix-blend-mode:multiply" opacity="0.75" d="M4.94933 8.11597C4.44611 8.11597 3.9542 8.26519 3.53579 8.54476C3.11738 8.82433 2.79128 9.22169 2.5987 9.6866C2.40613 10.1515 2.35575 10.6631 2.45392 11.1566C2.55209 11.6502 2.79441 12.1035 3.15024 12.4594C3.50606 12.8152 3.95942 13.0575 4.45296 13.1557C4.94651 13.2538 5.45808 13.2035 5.92299 13.0109C6.3879 12.8183 6.78526 12.4922 7.06484 12.0738C7.34441 11.6554 7.49363 11.1635 7.49363 10.6603C7.49363 9.98548 7.22557 9.33832 6.74842 8.86117C6.27127 8.38403 5.62412 8.11597 4.94933 8.11597ZM4.94933 13.0466C4.47798 13.0466 4.01723 12.9068 3.62532 12.645C3.23341 12.3831 2.92795 12.0109 2.74758 11.5754C2.5672 11.14 2.52001 10.6608 2.61196 10.1985C2.70392 9.73623 2.93089 9.31159 3.26418 8.9783C3.59747 8.64501 4.02211 8.41803 4.4844 8.32608C4.94669 8.23412 5.42586 8.28132 5.86132 8.46169C6.29679 8.64207 6.66899 8.94753 6.93085 9.33943C7.19272 9.73134 7.33249 10.1921 7.33249 10.6634C7.33249 11.2955 7.08141 11.9017 6.63448 12.3486C6.18755 12.7955 5.58138 13.0466 4.94933 13.0466Z" fill="url(#paint101_linear_3_5019)"/>
<path style="mix-blend-mode:screen" d="M6.94765 7.65491C8.03958 8.22313 8.71276 9.09243 8.44985 9.59705C8.18694 10.1017 7.08865 10.0497 5.99672 9.4815C4.90479 8.91327 4.23162 8.04291 4.49453 7.53829C4.75744 7.03367 5.85573 7.08562 6.94765 7.65491Z" fill="url(#paint102_radial_3_5019)"/>
<path style="mix-blend-mode:screen" d="M7.15866 8.9207C7.08798 9.05573 6.9789 9.1668 6.84518 9.23993C6.71146 9.31305 6.55909 9.34494 6.40727 9.33159C6.25545 9.31823 6.11098 9.26023 5.99208 9.16488C5.87318 9.06954 5.78517 8.94113 5.73915 8.79583C5.69313 8.65054 5.69116 8.49488 5.73348 8.34847C5.7758 8.20205 5.86053 8.07145 5.97697 7.97312C6.09342 7.8748 6.23637 7.81315 6.3878 7.79595C6.53923 7.77875 6.69237 7.80677 6.8279 7.87648C7.01015 7.97117 7.14736 8.13434 7.20938 8.33014C7.2714 8.52594 7.25315 8.73835 7.15866 8.9207Z" fill="url(#paint103_radial_3_5019)"/>
<path style="mix-blend-mode:screen" d="M3.59665 12.0257C4.18396 12.3893 4.50093 12.9406 4.30481 13.2565C4.10869 13.5724 3.47473 13.5332 2.88742 13.1685C2.30011 12.8038 1.98314 12.2526 2.17926 11.9366C2.37538 11.6207 3.0104 11.661 3.59665 12.0257Z" fill="url(#paint104_radial_3_5019)"/>
<path d="M5.59238 10.4878V10.4762C5.76836 10.4115 5.84363 10.2313 5.84363 10.0288C5.84363 9.72773 5.55634 9.47754 5.04748 9.47754C4.51742 9.47754 4.22482 9.72773 4.22482 10.0309V10.0489C4.22482 10.0595 4.22482 10.0701 4.22482 10.0807V10.1507H4.78033C4.78469 10.1029 4.80639 10.0582 4.84133 10.0253C4.87627 9.99226 4.92206 9.97317 4.97009 9.97156C5.12911 9.97156 5.18212 10.0447 5.18212 10.1592C5.18212 10.2949 5.09519 10.297 4.98705 10.297H4.83015V10.7211H5.03264C5.13865 10.7211 5.2277 10.7603 5.2277 10.897C5.2277 11.0338 5.15243 11.09 4.93829 11.09C4.90926 11.0886 4.88083 11.0812 4.85477 11.0684C4.8287 11.0555 4.80556 11.0375 4.78677 11.0153C4.76798 10.9931 4.75395 10.9673 4.74554 10.9395C4.73714 10.9117 4.73455 10.8824 4.73792 10.8536H4.16016V10.9257V10.9882C4.16016 11.3063 4.43579 11.5713 5.03688 11.5713C5.63797 11.5713 5.89028 11.3094 5.90512 10.985C5.90406 10.7423 5.81925 10.5589 5.59238 10.4878Z" fill="url(#paint105_linear_3_5019)"/>
<path d="M5.7848 10.0582C5.78653 10.1486 5.76095 10.2375 5.7114 10.3131C5.66185 10.3888 5.59063 10.4477 5.50705 10.4822V10.495C5.60772 10.5247 5.6954 10.5876 5.75583 10.6734C5.81626 10.7592 5.84589 10.863 5.83992 10.9678C5.82614 11.2742 5.58443 11.5212 5.03423 11.5212C4.48403 11.5212 4.21899 11.2742 4.21899 10.971V10.9127H4.70877C4.70877 11.0378 4.77556 11.1406 4.99819 11.1406C5.22081 11.1406 5.28654 11.0346 5.28654 10.884C5.28986 10.857 5.28706 10.8296 5.27833 10.8038C5.26961 10.778 5.25519 10.7545 5.23615 10.7351C5.2171 10.7156 5.19392 10.7007 5.16833 10.6914C5.14273 10.6822 5.11538 10.6788 5.0883 10.6815H4.88899V10.3391H5.04801C5.07451 10.341 5.1011 10.337 5.1259 10.3275C5.1507 10.318 5.17313 10.3031 5.19161 10.2841C5.21009 10.265 5.22417 10.2421 5.23288 10.217C5.24159 10.1919 5.2447 10.1652 5.24201 10.1388C5.24156 10.108 5.23474 10.0776 5.22201 10.0496C5.20927 10.0215 5.19088 9.99643 5.16799 9.97583C5.1451 9.95523 5.11821 9.93958 5.08899 9.92985C5.05977 9.92013 5.02885 9.91654 4.99819 9.91932C4.83069 9.91932 4.74482 10.0169 4.74482 10.1313H4.28048V10.0624C4.28048 9.7762 4.55611 9.53979 5.04483 9.53979C5.51765 9.54086 5.7848 9.77514 5.7848 10.0582Z" fill="url(#paint106_linear_3_5019)"/>
</g>
<path style="mix-blend-mode:overlay" opacity="0.55" d="M6.91519 7.97213C6.99682 7.59473 6.99682 7.06255 6.62154 6.67878L6.71589 6.52824L10.0606 1.25943L9.64713 1.0103V1.00394L8.38664 0.242768L7.97107 0H2.09269V0.00954112L2.0895 0L1.68772 0.242768L1.49372 0.359382L0 1.25943L3.37226 6.57277C2.86976 6.97032 2.87718 7.57777 2.96411 7.99122C2.39963 8.40973 1.98176 8.99586 1.77014 9.66594C1.55852 10.336 1.56396 11.0558 1.78568 11.7226C2.0074 12.3895 2.43407 12.9692 3.00481 13.3791C3.57555 13.7891 4.26119 14.0083 4.96389 14.0054C5.66659 14.0026 6.35044 13.7779 6.91786 13.3634C7.48528 12.9489 7.90727 12.3657 8.12362 11.6971C8.33996 11.0286 8.3396 10.3087 8.1226 9.64037C7.90559 8.97201 7.48302 8.38928 6.91519 7.97531V7.97213ZM3.98713 2.20506H6.71801L5.03029 5.17341L3.34257 2.20506H3.98713ZM3.4507 7.68696C3.43259 7.57218 3.44533 7.45464 3.48762 7.34641C3.52991 7.23817 3.60022 7.14313 3.69135 7.07103L3.82811 7.28305H6.23247L6.2982 7.17704C6.40305 7.31861 6.44902 7.49528 6.42647 7.67C5.96403 7.43934 5.45397 7.32025 4.9372 7.32228C4.42043 7.3243 3.91133 7.44739 3.4507 7.68166V7.68696Z" fill="url(#paint107_radial_3_5019)"/>
</g>
<defs>
<linearGradient id="paint0_linear_3_5019" x1="2.09265" y1="1.10253" x2="7.96998" y2="1.10253" gradientUnits="userSpaceOnUse">
<stop stop-color="#056839"/>
<stop offset="0.5" stop-color="#04A852"/>
<stop offset="0.77" stop-color="#058344"/>
<stop offset="1" stop-color="#056839"/>
</linearGradient>
<linearGradient id="paint1_linear_3_5019" x1="9.05878" y1="0.556565" x2="5.06317" y2="7.38907" gradientUnits="userSpaceOnUse">
<stop stop-color="#04A852"/>
<stop offset="0.29" stop-color="#029E4F"/>
<stop offset="0.61" stop-color="#01994E"/>
<stop offset="1" stop-color="#056839"/>
</linearGradient>
<linearGradient id="paint2_linear_3_5019" x1="8.98966" y1="0.673574" x2="5.13081" y2="7.32691" gradientUnits="userSpaceOnUse">
<stop stop-color="#F0E8E5"/>
<stop offset="0.58" stop-color="#EFE6E3"/>
<stop offset="0.82" stop-color="#EBE0DC"/>
<stop offset="0.99" stop-color="#E3D6D0"/>
<stop offset="1" stop-color="#E3D5CF"/>
</linearGradient>
<radialGradient id="paint3_radial_3_5019" cx="0" cy="0" r="1" gradientUnits="userSpaceOnUse" gradientTransform="translate(4.93895 7.2568) scale(1.62305)">
<stop offset="0.01" stop-color="#F6C054"/>
<stop offset="0.54" stop-color="#FFEA72"/>
<stop offset="0.58" stop-color="#FFF071"/>
<stop offset="0.59" stop-color="#FFF171"/>
<stop offset="0.82" stop-color="#FFE05A"/>
<stop offset="0.96" stop-color="#FFD44A"/>
</radialGradient>
<linearGradient id="paint4_linear_3_5019" x1="4.93842" y1="6.26028" x2="4.93842" y2="8.42824" gradientUnits="userSpaceOnUse">
<stop offset="0.01" stop-color="#C37948"/>
<stop offset="0.39" stop-color="#D69249"/>
<stop offset="0.73" stop-color="#B46D43"/>
<stop offset="0.96" stop-color="#B98457"/>
</linearGradient>
<radialGradient id="paint5_radial_3_5019" cx="0" cy="0" r="1" gradientUnits="userSpaceOnUse" gradientTransform="translate(4.93895 7.2568) scale(1.62305)">
<stop stop-color="#D59F81"/>
<stop offset="1" stop-color="#E5BC84"/>
</radialGradient>
<linearGradient id="paint6_linear_3_5019" x1="2.91878" y1="7.9022" x2="6.95785" y2="7.9022" gradientUnits="userSpaceOnUse">
<stop stop-color="#AA7238"/>
<stop offset="0.25" stop-color="#C08443"/>
<stop offset="0.35" stop-color="#BE8242"/>
<stop offset="0.39" stop-color="#B87B3D"/>
<stop offset="0.42" stop-color="#AD7036"/>
<stop offset="0.44" stop-color="#9D5F2B"/>
<stop offset="0.46" stop-color="#88491D"/>
<stop offset="0.47" stop-color="#7A3A14"/>
<stop offset="0.64" stop-color="#7C3C15"/>
<stop offset="0.72" stop-color="#83441A"/>
<stop offset="0.79" stop-color="#8E5123"/>
<stop offset="0.85" stop-color="#9E642F"/>
<stop offset="0.9" stop-color="#B37C3E"/>
<stop offset="0.95" stop-color="#CD9B52"/>
<stop offset="0.99" stop-color="#EBBE68"/>
<stop offset="1" stop-color="#F0C46C"/>
</linearGradient>
<linearGradient id="paint7_linear_3_5019" x1="2.91896" y1="7.88417" x2="6.95803" y2="7.88417" gradientUnits="userSpaceOnUse">
<stop stop-color="#AA7238"/>
<stop offset="0.25" stop-color="#C08443"/>
<stop offset="0.35" stop-color="#BE8242"/>
<stop offset="0.39" stop-color="#B87B3D"/>
<stop offset="0.42" stop-color="#AD7036"/>
<stop offset="0.44" stop-color="#9D5F2B"/>
<stop offset="0.46" stop-color="#88491D"/>
<stop offset="0.47" stop-color="#7A3A14"/>
<stop offset="0.64" stop-color="#7C3C15"/>
<stop offset="0.72" stop-color="#83441A"/>
<stop offset="0.79" stop-color="#8E5123"/>
<stop offset="0.85" stop-color="#9E642F"/>
<stop offset="0.9" stop-color="#B37C3E"/>
<stop offset="0.95" stop-color="#CD9B52"/>
<stop offset="0.99" stop-color="#EBBE68"/>
<stop offset="1" stop-color="#F0C46C"/>
</linearGradient>
<radialGradient id="paint8_radial_3_5019" cx="0" cy="0" r="1" gradientUnits="userSpaceOnUse" gradientTransform="translate(4.93831 7.4517) scale(1.3066)">
<stop offset="0.34" stop-color="#FFEA72"/>
<stop offset="0.99" stop-color="#B35C00"/>
</radialGradient>
<linearGradient id="paint9_linear_3_5019" x1="1.00606" y1="0.567166" x2="5.11404" y2="7.24065" gradientUnits="userSpaceOnUse">
<stop stop-color="#04A852"/>
<stop offset="0.29" stop-color="#029E4F"/>
<stop offset="0.61" stop-color="#01994E"/>
<stop offset="1" stop-color="#056839"/>
</linearGradient>
<linearGradient id="paint10_linear_3_5019" x1="1.08429" y1="0.673574" x2="4.94314" y2="7.32691" gradientUnits="userSpaceOnUse">
<stop stop-color="#F0E8E5"/>
<stop offset="0.58" stop-color="#EFE6E3"/>
<stop offset="0.82" stop-color="#EBE0DC"/>
<stop offset="0.99" stop-color="#E3D6D0"/>
<stop offset="1" stop-color="#E3D5CF"/>
</linearGradient>
<linearGradient id="paint11_linear_3_5019" x1="7.49154" y1="8.65394" x2="2.47927" y2="12.6177" gradientUnits="userSpaceOnUse">
<stop offset="0.01" stop-color="#C37948"/>
<stop offset="0.39" stop-color="#D69249"/>
<stop offset="0.73" stop-color="#B46D43"/>
<stop offset="0.96" stop-color="#B98457"/>
</linearGradient>
<radialGradient id="paint12_radial_3_5019" cx="0" cy="0" r="1" gradientUnits="userSpaceOnUse" gradientTransform="translate(2.62929 12.9832) scale(6.48001 6.48001)">
<stop stop-color="#D59F81"/>
<stop offset="1" stop-color="#E5BC84"/>
</radialGradient>
<radialGradient id="paint13_radial_3_5019" cx="0" cy="0" r="1" gradientUnits="userSpaceOnUse" gradientTransform="translate(4.95048 10.664) scale(2.636)">
<stop stop-color="#C05F43"/>
<stop offset="1" stop-color="#D99D4B"/>
</radialGradient>
<linearGradient id="paint14_linear_3_5019" x1="6.62376" y1="9.18482" x2="3.06068" y2="12.3334" gradientUnits="userSpaceOnUse">
<stop offset="0.01" stop-color="#C37948"/>
<stop offset="0.39" stop-color="#DB9E5D"/>
<stop offset="0.73" stop-color="#B46D43"/>
</linearGradient>
<linearGradient id="paint15_linear_3_5019" x1="6.96254" y1="10.8932" x2="7.11533" y2="10.8932" gradientUnits="userSpaceOnUse">
<stop stop-color="#C97E5E"/>
<stop offset="1" stop-color="#F2BE4A"/>
</linearGradient>
<linearGradient id="paint16_linear_3_5019" x1="6.90543" y1="11.1957" x2="7.05823" y2="11.1957" gradientUnits="userSpaceOnUse">
<stop stop-color="#C97E5E"/>
<stop offset="1" stop-color="#F2BE4A"/>
</linearGradient>
<linearGradient id="paint17_linear_3_5019" x1="6.80791" y1="11.4865" x2="6.9607" y2="11.4865" gradientUnits="userSpaceOnUse">
<stop stop-color="#C97E5E"/>
<stop offset="1" stop-color="#F2BE4A"/>
</linearGradient>
<linearGradient id="paint18_linear_3_5019" x1="6.66653" y1="11.7598" x2="6.81932" y2="11.7598" gradientUnits="userSpaceOnUse">
<stop stop-color="#C97E5E"/>
<stop offset="1" stop-color="#F2BE4A"/>
</linearGradient>
<linearGradient id="paint19_linear_3_5019" x1="6.4881" y1="12.0079" x2="6.64089" y2="12.0079" gradientUnits="userSpaceOnUse">
<stop stop-color="#C97E5E"/>
<stop offset="1" stop-color="#F2BE4A"/>
</linearGradient>
<linearGradient id="paint20_linear_3_5019" x1="6.27488" y1="12.2297" x2="6.42767" y2="12.2297" gradientUnits="userSpaceOnUse">
<stop stop-color="#C97E5E"/>
<stop offset="1" stop-color="#F2BE4A"/>
</linearGradient>
<linearGradient id="paint21_linear_3_5019" x1="6.03258" y1="12.4174" x2="6.18537" y2="12.4174" gradientUnits="userSpaceOnUse">
<stop stop-color="#C97E5E"/>
<stop offset="1" stop-color="#F2BE4A"/>
</linearGradient>
<linearGradient id="paint22_linear_3_5019" x1="5.76577" y1="12.5669" x2="5.91856" y2="12.5669" gradientUnits="userSpaceOnUse">
<stop stop-color="#C97E5E"/>
<stop offset="1" stop-color="#F2BE4A"/>
</linearGradient>
<linearGradient id="paint23_linear_3_5019" x1="5.478" y1="12.6771" x2="5.6308" y2="12.6771" gradientUnits="userSpaceOnUse">
<stop stop-color="#C97E5E"/>
<stop offset="1" stop-color="#F2BE4A"/>
</linearGradient>
<linearGradient id="paint24_linear_3_5019" x1="5.1792" y1="12.7429" x2="5.33199" y2="12.7429" gradientUnits="userSpaceOnUse">
<stop stop-color="#C97E5E"/>
<stop offset="1" stop-color="#F2BE4A"/>
</linearGradient>
<linearGradient id="paint25_linear_3_5019" x1="4.87272" y1="12.7669" x2="5.02552" y2="12.7669" gradientUnits="userSpaceOnUse">
<stop stop-color="#C97E5E"/>
<stop offset="1" stop-color="#F2BE4A"/>
</linearGradient>
<linearGradient id="paint26_linear_3_5019" x1="4.56635" y1="12.7429" x2="4.71915" y2="12.7429" gradientUnits="userSpaceOnUse">
<stop stop-color="#C97E5E"/>
<stop offset="1" stop-color="#F2BE4A"/>
</linearGradient>
<linearGradient id="paint27_linear_3_5019" x1="4.26636" y1="12.6768" x2="4.41915" y2="12.6768" gradientUnits="userSpaceOnUse">
<stop stop-color="#C97E5E"/>
<stop offset="1" stop-color="#F2BE4A"/>
</linearGradient>
<linearGradient id="paint28_linear_3_5019" x1="3.97964" y1="12.5666" x2="4.13138" y2="12.5666" gradientUnits="userSpaceOnUse">
<stop stop-color="#C97E5E"/>
<stop offset="1" stop-color="#F2BE4A"/>
</linearGradient>
<linearGradient id="paint29_linear_3_5019" x1="3.71346" y1="12.417" x2="3.86625" y2="12.417" gradientUnits="userSpaceOnUse">
<stop stop-color="#C97E5E"/>
<stop offset="1" stop-color="#F2BE4A"/>
</linearGradient>
<linearGradient id="paint30_linear_3_5019" x1="3.47023" y1="12.2295" x2="3.62197" y2="12.2295" gradientUnits="userSpaceOnUse">
<stop stop-color="#C97E5E"/>
<stop offset="1" stop-color="#F2BE4A"/>
</linearGradient>
<linearGradient id="paint31_linear_3_5019" x1="3.25739" y1="12.0079" x2="3.41018" y2="12.0079" gradientUnits="userSpaceOnUse">
<stop stop-color="#C97E5E"/>
<stop offset="1" stop-color="#F2BE4A"/>
</linearGradient>
<linearGradient id="paint32_linear_3_5019" x1="3.07861" y1="11.7596" x2="3.2314" y2="11.7596" gradientUnits="userSpaceOnUse">
<stop stop-color="#C97E5E"/>
<stop offset="1" stop-color="#F2BE4A"/>
</linearGradient>
<linearGradient id="paint33_linear_3_5019" x1="2.93769" y1="11.4865" x2="3.09048" y2="11.4865" gradientUnits="userSpaceOnUse">
<stop stop-color="#C97E5E"/>
<stop offset="1" stop-color="#F2BE4A"/>
</linearGradient>
<linearGradient id="paint34_linear_3_5019" x1="2.84047" y1="11.1963" x2="2.9922" y2="11.1963" gradientUnits="userSpaceOnUse">
<stop stop-color="#C97E5E"/>
<stop offset="1" stop-color="#F2BE4A"/>
</linearGradient>
<linearGradient id="paint35_linear_3_5019" x1="2.78271" y1="10.8941" x2="2.9355" y2="10.8941" gradientUnits="userSpaceOnUse">
<stop stop-color="#C97E5E"/>
<stop offset="1" stop-color="#F2BE4A"/>
</linearGradient>
<linearGradient id="paint36_linear_3_5019" x1="2.77371" y1="10.5873" x2="2.92651" y2="10.5873" gradientUnits="userSpaceOnUse">
<stop stop-color="#C97E5E"/>
<stop offset="1" stop-color="#F2BE4A"/>
</linearGradient>
<linearGradient id="paint37_linear_3_5019" x1="2.80681" y1="10.2822" x2="2.95855" y2="10.2822" gradientUnits="userSpaceOnUse">
<stop stop-color="#C97E5E"/>
<stop offset="1" stop-color="#F2BE4A"/>
</linearGradient>
<linearGradient id="paint38_linear_3_5019" x1="2.88289" y1="9.98515" x2="3.03674" y2="9.98515" gradientUnits="userSpaceOnUse">
<stop stop-color="#C97E5E"/>
<stop offset="1" stop-color="#F2BE4A"/>
</linearGradient>
<linearGradient id="paint39_linear_3_5019" x1="3.00386" y1="9.70231" x2="3.15559" y2="9.70231" gradientUnits="userSpaceOnUse">
<stop stop-color="#C97E5E"/>
<stop offset="1" stop-color="#F2BE4A"/>
</linearGradient>
<linearGradient id="paint40_linear_3_5019" x1="3.16279" y1="9.44031" x2="3.31663" y2="9.44031" gradientUnits="userSpaceOnUse">
<stop stop-color="#C97E5E"/>
<stop offset="1" stop-color="#F2BE4A"/>
</linearGradient>
<linearGradient id="paint41_linear_3_5019" x1="3.35997" y1="9.2048" x2="3.5117" y2="9.2048" gradientUnits="userSpaceOnUse">
<stop stop-color="#C97E5E"/>
<stop offset="1" stop-color="#F2BE4A"/>
</linearGradient>
<linearGradient id="paint42_linear_3_5019" x1="3.58646" y1="9.00055" x2="3.74031" y2="9.00055" gradientUnits="userSpaceOnUse">
<stop stop-color="#C97E5E"/>
<stop offset="1" stop-color="#F2BE4A"/>
</linearGradient>
<linearGradient id="paint43_linear_3_5019" x1="3.84447" y1="8.83067" x2="3.99621" y2="8.83067" gradientUnits="userSpaceOnUse">
<stop stop-color="#C97E5E"/>
<stop offset="1" stop-color="#F2BE4A"/>
</linearGradient>
<linearGradient id="paint44_linear_3_5019" x1="4.12143" y1="8.70166" x2="4.27423" y2="8.70166" gradientUnits="userSpaceOnUse">
<stop stop-color="#C97E5E"/>
<stop offset="1" stop-color="#F2BE4A"/>
</linearGradient>
<linearGradient id="paint45_linear_3_5019" x1="4.41599" y1="8.61261" x2="4.56773" y2="8.61261" gradientUnits="userSpaceOnUse">
<stop stop-color="#C97E5E"/>
<stop offset="1" stop-color="#F2BE4A"/>
</linearGradient>
<linearGradient id="paint46_linear_3_5019" x1="4.71901" y1="8.56879" x2="4.8718" y2="8.56879" gradientUnits="userSpaceOnUse">
<stop stop-color="#C97E5E"/>
<stop offset="1" stop-color="#F2BE4A"/>
</linearGradient>
<linearGradient id="paint47_linear_3_5019" x1="5.02644" y1="8.56871" x2="5.17924" y2="8.56871" gradientUnits="userSpaceOnUse">
<stop stop-color="#C97E5E"/>
<stop offset="1" stop-color="#F2BE4A"/>
</linearGradient>
<linearGradient id="paint48_linear_3_5019" x1="5.32922" y1="8.61189" x2="5.48201" y2="8.61189" gradientUnits="userSpaceOnUse">
<stop stop-color="#C97E5E"/>
<stop offset="1" stop-color="#F2BE4A"/>
</linearGradient>
<linearGradient id="paint49_linear_3_5019" x1="5.62294" y1="8.70127" x2="5.77679" y2="8.70127" gradientUnits="userSpaceOnUse">
<stop stop-color="#C97E5E"/>
<stop offset="1" stop-color="#F2BE4A"/>
</linearGradient>
<linearGradient id="paint50_linear_3_5019" x1="5.90211" y1="8.83071" x2="6.05385" y2="8.83071" gradientUnits="userSpaceOnUse">
<stop stop-color="#C97E5E"/>
<stop offset="1" stop-color="#F2BE4A"/>
</linearGradient>
<linearGradient id="paint51_linear_3_5019" x1="6.1562" y1="9.00003" x2="6.31004" y2="9.00003" gradientUnits="userSpaceOnUse">
<stop stop-color="#C97E5E"/>
<stop offset="1" stop-color="#F2BE4A"/>
</linearGradient>
<linearGradient id="paint52_linear_3_5019" x1="6.38675" y1="9.20438" x2="6.53848" y2="9.20438" gradientUnits="userSpaceOnUse">
<stop stop-color="#C97E5E"/>
<stop offset="1" stop-color="#F2BE4A"/>
</linearGradient>
<linearGradient id="paint53_linear_3_5019" x1="6.58142" y1="9.43997" x2="6.73527" y2="9.43997" gradientUnits="userSpaceOnUse">
<stop stop-color="#C97E5E"/>
<stop offset="1" stop-color="#F2BE4A"/>
</linearGradient>
<linearGradient id="paint54_linear_3_5019" x1="6.74267" y1="9.70178" x2="6.89441" y2="9.70178" gradientUnits="userSpaceOnUse">
<stop stop-color="#C97E5E"/>
<stop offset="1" stop-color="#F2BE4A"/>
</linearGradient>
<linearGradient id="paint55_linear_3_5019" x1="6.86119" y1="9.98491" x2="7.01504" y2="9.98491" gradientUnits="userSpaceOnUse">
<stop stop-color="#C97E5E"/>
<stop offset="1" stop-color="#F2BE4A"/>
</linearGradient>
<linearGradient id="paint56_linear_3_5019" x1="6.94015" y1="10.2822" x2="7.09189" y2="10.2822" gradientUnits="userSpaceOnUse">
<stop stop-color="#C97E5E"/>
<stop offset="1" stop-color="#F2BE4A"/>
</linearGradient>
<linearGradient id="paint57_linear_3_5019" x1="6.97183" y1="10.5873" x2="7.12463" y2="10.5873" gradientUnits="userSpaceOnUse">
<stop stop-color="#C97E5E"/>
<stop offset="1" stop-color="#F2BE4A"/>
</linearGradient>
<linearGradient id="paint58_linear_3_5019" x1="6.96254" y1="10.8932" x2="7.11533" y2="10.8932" gradientUnits="userSpaceOnUse">
<stop stop-color="#C97E5E"/>
<stop offset="1" stop-color="#F2BE4A"/>
</linearGradient>
<linearGradient id="paint59_linear_3_5019" x1="6.90543" y1="11.1957" x2="7.05823" y2="11.1957" gradientUnits="userSpaceOnUse">
<stop stop-color="#C97E5E"/>
<stop offset="1" stop-color="#F2BE4A"/>
</linearGradient>
<linearGradient id="paint60_linear_3_5019" x1="6.80791" y1="11.4865" x2="6.9607" y2="11.4865" gradientUnits="userSpaceOnUse">
<stop stop-color="#C97E5E"/>
<stop offset="1" stop-color="#F2BE4A"/>
</linearGradient>
<linearGradient id="paint61_linear_3_5019" x1="6.66653" y1="11.7598" x2="6.81932" y2="11.7598" gradientUnits="userSpaceOnUse">
<stop stop-color="#C97E5E"/>
<stop offset="1" stop-color="#F2BE4A"/>
</linearGradient>
<linearGradient id="paint62_linear_3_5019" x1="6.4881" y1="12.0079" x2="6.64089" y2="12.0079" gradientUnits="userSpaceOnUse">
<stop stop-color="#C97E5E"/>
<stop offset="1" stop-color="#F2BE4A"/>
</linearGradient>
<linearGradient id="paint63_linear_3_5019" x1="6.27488" y1="12.2297" x2="6.42767" y2="12.2297" gradientUnits="userSpaceOnUse">
<stop stop-color="#C97E5E"/>
<stop offset="1" stop-color="#F2BE4A"/>
</linearGradient>
<linearGradient id="paint64_linear_3_5019" x1="6.03258" y1="12.4174" x2="6.18537" y2="12.4174" gradientUnits="userSpaceOnUse">
<stop stop-color="#C97E5E"/>
<stop offset="1" stop-color="#F2BE4A"/>
</linearGradient>
<linearGradient id="paint65_linear_3_5019" x1="5.76577" y1="12.5669" x2="5.91856" y2="12.5669" gradientUnits="userSpaceOnUse">
<stop stop-color="#C97E5E"/>
<stop offset="1" stop-color="#F2BE4A"/>
</linearGradient>
<linearGradient id="paint66_linear_3_5019" x1="5.478" y1="12.6771" x2="5.6308" y2="12.6771" gradientUnits="userSpaceOnUse">
<stop stop-color="#C97E5E"/>
<stop offset="1" stop-color="#F2BE4A"/>
</linearGradient>
<linearGradient id="paint67_linear_3_5019" x1="5.1792" y1="12.7429" x2="5.33199" y2="12.7429" gradientUnits="userSpaceOnUse">
<stop stop-color="#C97E5E"/>
<stop offset="1" stop-color="#F2BE4A"/>
</linearGradient>
<linearGradient id="paint68_linear_3_5019" x1="4.87272" y1="12.7669" x2="5.02552" y2="12.7669" gradientUnits="userSpaceOnUse">
<stop stop-color="#C97E5E"/>
<stop offset="1" stop-color="#F2BE4A"/>
</linearGradient>
<linearGradient id="paint69_linear_3_5019" x1="4.56635" y1="12.7429" x2="4.71915" y2="12.7429" gradientUnits="userSpaceOnUse">
<stop stop-color="#C97E5E"/>
<stop offset="1" stop-color="#F2BE4A"/>
</linearGradient>
<linearGradient id="paint70_linear_3_5019" x1="4.26636" y1="12.6768" x2="4.41915" y2="12.6768" gradientUnits="userSpaceOnUse">
<stop stop-color="#C97E5E"/>
<stop offset="1" stop-color="#F2BE4A"/>
</linearGradient>
<linearGradient id="paint71_linear_3_5019" x1="3.97964" y1="12.5666" x2="4.13138" y2="12.5666" gradientUnits="userSpaceOnUse">
<stop stop-color="#C97E5E"/>
<stop offset="1" stop-color="#F2BE4A"/>
</linearGradient>
<linearGradient id="paint72_linear_3_5019" x1="3.71346" y1="12.417" x2="3.86625" y2="12.417" gradientUnits="userSpaceOnUse">
<stop stop-color="#C97E5E"/>
<stop offset="1" stop-color="#F2BE4A"/>
</linearGradient>
<linearGradient id="paint73_linear_3_5019" x1="3.47023" y1="12.2295" x2="3.62197" y2="12.2295" gradientUnits="userSpaceOnUse">
<stop stop-color="#C97E5E"/>
<stop offset="1" stop-color="#F2BE4A"/>
</linearGradient>
<linearGradient id="paint74_linear_3_5019" x1="3.25739" y1="12.0079" x2="3.41018" y2="12.0079" gradientUnits="userSpaceOnUse">
<stop stop-color="#C97E5E"/>
<stop offset="1" stop-color="#F2BE4A"/>
</linearGradient>
<linearGradient id="paint75_linear_3_5019" x1="3.07861" y1="11.7596" x2="3.2314" y2="11.7596" gradientUnits="userSpaceOnUse">
<stop stop-color="#C97E5E"/>
<stop offset="1" stop-color="#F2BE4A"/>
</linearGradient>
<linearGradient id="paint76_linear_3_5019" x1="2.93769" y1="11.4865" x2="3.09048" y2="11.4865" gradientUnits="userSpaceOnUse">
<stop stop-color="#C97E5E"/>
<stop offset="1" stop-color="#F2BE4A"/>
</linearGradient>
<linearGradient id="paint77_linear_3_5019" x1="2.84047" y1="11.1963" x2="2.9922" y2="11.1963" gradientUnits="userSpaceOnUse">
<stop stop-color="#C97E5E"/>
<stop offset="1" stop-color="#F2BE4A"/>
</linearGradient>
<linearGradient id="paint78_linear_3_5019" x1="2.78271" y1="10.8941" x2="2.9355" y2="10.8941" gradientUnits="userSpaceOnUse">
<stop stop-color="#C97E5E"/>
<stop offset="1" stop-color="#F2BE4A"/>
</linearGradient>
<linearGradient id="paint79_linear_3_5019" x1="2.77371" y1="10.5873" x2="2.92651" y2="10.5873" gradientUnits="userSpaceOnUse">
<stop stop-color="#C97E5E"/>
<stop offset="1" stop-color="#F2BE4A"/>
</linearGradient>
<linearGradient id="paint80_linear_3_5019" x1="2.80681" y1="10.2822" x2="2.95855" y2="10.2822" gradientUnits="userSpaceOnUse">
<stop stop-color="#C97E5E"/>
<stop offset="1" stop-color="#F2BE4A"/>
</linearGradient>
<linearGradient id="paint81_linear_3_5019" x1="2.88289" y1="9.98515" x2="3.03674" y2="9.98515" gradientUnits="userSpaceOnUse">
<stop stop-color="#C97E5E"/>
<stop offset="1" stop-color="#F2BE4A"/>
</linearGradient>
<linearGradient id="paint82_linear_3_5019" x1="3.00386" y1="9.70231" x2="3.15559" y2="9.70231" gradientUnits="userSpaceOnUse">
<stop stop-color="#C97E5E"/>
<stop offset="1" stop-color="#F2BE4A"/>
</linearGradient>
<linearGradient id="paint83_linear_3_5019" x1="3.16279" y1="9.44031" x2="3.31663" y2="9.44031" gradientUnits="userSpaceOnUse">
<stop stop-color="#C97E5E"/>
<stop offset="1" stop-color="#F2BE4A"/>
</linearGradient>
<linearGradient id="paint84_linear_3_5019" x1="3.35997" y1="9.2048" x2="3.5117" y2="9.2048" gradientUnits="userSpaceOnUse">
<stop stop-color="#C97E5E"/>
<stop offset="1" stop-color="#F2BE4A"/>
</linearGradient>
<linearGradient id="paint85_linear_3_5019" x1="3.58646" y1="9.00055" x2="3.74031" y2="9.00055" gradientUnits="userSpaceOnUse">
<stop stop-color="#C97E5E"/>
<stop offset="1" stop-color="#F2BE4A"/>
</linearGradient>
<linearGradient id="paint86_linear_3_5019" x1="3.84447" y1="8.83067" x2="3.99621" y2="8.83067" gradientUnits="userSpaceOnUse">
<stop stop-color="#C97E5E"/>
<stop offset="1" stop-color="#F2BE4A"/>
</linearGradient>
<linearGradient id="paint87_linear_3_5019" x1="4.12143" y1="8.70166" x2="4.27423" y2="8.70166" gradientUnits="userSpaceOnUse">
<stop stop-color="#C97E5E"/>
<stop offset="1" stop-color="#F2BE4A"/>
</linearGradient>
<linearGradient id="paint88_linear_3_5019" x1="4.41599" y1="8.61261" x2="4.56773" y2="8.61261" gradientUnits="userSpaceOnUse">
<stop stop-color="#C97E5E"/>
<stop offset="1" stop-color="#F2BE4A"/>
</linearGradient>
<linearGradient id="paint89_linear_3_5019" x1="4.71901" y1="8.56879" x2="4.8718" y2="8.56879" gradientUnits="userSpaceOnUse">
<stop stop-color="#C97E5E"/>
<stop offset="1" stop-color="#F2BE4A"/>
</linearGradient>
<linearGradient id="paint90_linear_3_5019" x1="5.02644" y1="8.56871" x2="5.17924" y2="8.56871" gradientUnits="userSpaceOnUse">
<stop stop-color="#C97E5E"/>
<stop offset="1" stop-color="#F2BE4A"/>
</linearGradient>
<linearGradient id="paint91_linear_3_5019" x1="5.32922" y1="8.61189" x2="5.48201" y2="8.61189" gradientUnits="userSpaceOnUse">
<stop stop-color="#C97E5E"/>
<stop offset="1" stop-color="#F2BE4A"/>
</linearGradient>
<linearGradient id="paint92_linear_3_5019" x1="5.62294" y1="8.70127" x2="5.77679" y2="8.70127" gradientUnits="userSpaceOnUse">
<stop stop-color="#C97E5E"/>
<stop offset="1" stop-color="#F2BE4A"/>
</linearGradient>
<linearGradient id="paint93_linear_3_5019" x1="5.90211" y1="8.83071" x2="6.05385" y2="8.83071" gradientUnits="userSpaceOnUse">
<stop stop-color="#C97E5E"/>
<stop offset="1" stop-color="#F2BE4A"/>
</linearGradient>
<linearGradient id="paint94_linear_3_5019" x1="6.1562" y1="9.00003" x2="6.31004" y2="9.00003" gradientUnits="userSpaceOnUse">
<stop stop-color="#C97E5E"/>
<stop offset="1" stop-color="#F2BE4A"/>
</linearGradient>
<linearGradient id="paint95_linear_3_5019" x1="6.38675" y1="9.20438" x2="6.53848" y2="9.20438" gradientUnits="userSpaceOnUse">
<stop stop-color="#C97E5E"/>
<stop offset="1" stop-color="#F2BE4A"/>
</linearGradient>
<linearGradient id="paint96_linear_3_5019" x1="6.58142" y1="9.43997" x2="6.73527" y2="9.43997" gradientUnits="userSpaceOnUse">
<stop stop-color="#C97E5E"/>
<stop offset="1" stop-color="#F2BE4A"/>
</linearGradient>
<linearGradient id="paint97_linear_3_5019" x1="6.74267" y1="9.70178" x2="6.89441" y2="9.70178" gradientUnits="userSpaceOnUse">
<stop stop-color="#C97E5E"/>
<stop offset="1" stop-color="#F2BE4A"/>
</linearGradient>
<linearGradient id="paint98_linear_3_5019" x1="6.86119" y1="9.98491" x2="7.01504" y2="9.98491" gradientUnits="userSpaceOnUse">
<stop stop-color="#C97E5E"/>
<stop offset="1" stop-color="#F2BE4A"/>
</linearGradient>
<linearGradient id="paint99_linear_3_5019" x1="6.94015" y1="10.2822" x2="7.09189" y2="10.2822" gradientUnits="userSpaceOnUse">
<stop stop-color="#C97E5E"/>
<stop offset="1" stop-color="#F2BE4A"/>
</linearGradient>
<linearGradient id="paint100_linear_3_5019" x1="6.97183" y1="10.5873" x2="7.12463" y2="10.5873" gradientUnits="userSpaceOnUse">
<stop stop-color="#C97E5E"/>
<stop offset="1" stop-color="#F2BE4A"/>
</linearGradient>
<linearGradient id="paint101_linear_3_5019" x1="6.68687" y1="8.94074" x2="3.31144" y2="12.2876" gradientUnits="userSpaceOnUse">
<stop stop-color="#AA7238"/>
<stop offset="0.25" stop-color="#C08443"/>
<stop offset="0.35" stop-color="#BE8242"/>
<stop offset="0.39" stop-color="#B87B3D"/>
<stop offset="0.42" stop-color="#AD7036"/>
<stop offset="0.44" stop-color="#9D5F2B"/>
<stop offset="0.46" stop-color="#88491D"/>
<stop offset="0.47" stop-color="#7A3A14"/>
<stop offset="0.64" stop-color="#7C3C15"/>
<stop offset="0.72" stop-color="#83441A"/>
<stop offset="0.79" stop-color="#8E5123"/>
<stop offset="0.85" stop-color="#9E642F"/>
<stop offset="0.9" stop-color="#B37C3E"/>
<stop offset="0.95" stop-color="#CD9B52"/>
<stop offset="0.99" stop-color="#EBBE68"/>
<stop offset="1" stop-color="#F0C46C"/>
</linearGradient>
<radialGradient id="paint102_radial_3_5019" cx="0" cy="0" r="1" gradientUnits="userSpaceOnUse" gradientTransform="translate(6.69988 8.73594) rotate(-61.8214) scale(1.02977 2.23304)">
<stop stop-color="#ECCE88"/>
<stop offset="1"/>
</radialGradient>
<radialGradient id="paint103_radial_3_5019" cx="0" cy="0" r="1" gradientUnits="userSpaceOnUse" gradientTransform="translate(6.12278 8.5823) rotate(27.5973) scale(0.730558 0.822433)">
<stop stop-color="#FFA177"/>
<stop offset="0.13" stop-color="#E5916B"/>
<stop offset="0.4" stop-color="#A3674C"/>
<stop offset="0.79" stop-color="#3B251C"/>
<stop offset="1"/>
</radialGradient>
<radialGradient id="paint104_radial_3_5019" cx="0" cy="0" r="1" gradientUnits="userSpaceOnUse" gradientTransform="translate(3.31068 12.5755) rotate(-57.8043) scale(0.675812 1.24607)">
<stop stop-color="#ECC29A"/>
<stop offset="1"/>
</radialGradient>
<linearGradient id="paint105_linear_3_5019" x1="4.1909" y1="11.0317" x2="5.8765" y2="10.0479" gradientUnits="userSpaceOnUse">
<stop offset="0.39" stop-color="#864A25"/>
<stop offset="1" stop-color="#E8B175"/>
</linearGradient>
<linearGradient id="paint106_linear_3_5019" x1="5.02999" y1="9.67125" x2="5.02999" y2="11.4682" gradientUnits="userSpaceOnUse">
<stop stop-color="#E59F69"/>
<stop offset="0.21" stop-color="#C37948"/>
<stop offset="0.32" stop-color="#B46D43"/>
<stop offset="0.45" stop-color="#984C28"/>
<stop offset="0.57" stop-color="#873718"/>
<stop offset="0.65" stop-color="#813012"/>
<stop offset="0.7" stop-color="#974824"/>
<stop offset="0.77" stop-color="#AF6339"/>
<stop offset="0.84" stop-color="#C07647"/>
<stop offset="0.92" stop-color="#CB8150"/>
<stop offset="1" stop-color="#CE8553"/>
</linearGradient>
<radialGradient id="paint107_radial_3_5019" cx="0" cy="0" r="1" gradientUnits="userSpaceOnUse" gradientTransform="translate(5.14849 7.94457) scale(6.09518)">
<stop stop-color="#ECECBB"/>
<stop offset="1" stop-color="#784F58"/>
</radialGradient>
<clipPath id="clip0_3_5019">
<rect width="10.0606" height="14" fill="white"/>
</clipPath>
</defs>
</svg>
