<svg width="18" height="24" viewBox="0 0 18 24" fill="none" xmlns="http://www.w3.org/2000/svg">
<g clip-path="url(#clip0_256_2115)">
<path d="M14.135 0H4.20374L4.88266 3.7801H14.135V0Z" fill="url(#paint0_linear_256_2115)"/>
<g style="mix-blend-mode:multiply" opacity="0.75">
<path d="M5.41111 0H4.20374L4.88266 3.7801H7.40489L5.41111 0Z" fill="#9D0000"/>
</g>
<g style="mix-blend-mode:multiply" opacity="0.75">
<path d="M12.926 0H14.1334L13.4545 3.7801H10.9323L12.926 0Z" fill="#9D0000"/>
</g>
<path d="M14.1359 0L7.13525 12.4925H11.1981L17.6667 2.15902L14.1359 0Z" fill="url(#paint1_linear_256_2115)"/>
<path d="M16.9734 1.72112L10.3095 12.4926H7.97717L14.8381 0.41626L16.9734 1.72112Z" fill="url(#paint2_linear_256_2115)"/>
<g style="mix-blend-mode:multiply" opacity="0.5">
<path d="M9.77751 7.77466L7.13525 12.4925H11.1981L12.0149 11.184L9.77751 7.77466Z" fill="#771A1F"/>
</g>
<path d="M9.03046 10.5715H8.99105C4.74553 10.5715 5.56955 13.5865 5.85796 14.308L5.93141 14.239C5.97684 14.1974 6.02602 14.1603 6.0783 14.1281H6.09084C6.12667 14.1045 6.64616 14.0845 6.68557 14.0663C6.44732 13.1649 5.89379 11.6583 8.99105 11.6311H9.03046C12.1295 11.6529 11.5742 13.1594 11.3341 14.0518C11.3736 14.0699 11.8913 14.0899 11.9289 14.1136H11.9396C11.9922 14.1453 12.0414 14.1825 12.0865 14.2244L12.1618 14.2935C12.452 13.5865 13.2778 10.5715 9.03046 10.5715Z" fill="url(#paint3_radial_256_2115)"/>
<path d="M9.03046 10.5715H8.99105C4.74553 10.5715 5.56955 13.5865 5.85796 14.308L5.93141 14.239C5.97684 14.1974 6.02602 14.1603 6.0783 14.1281H6.09084C6.12667 14.1045 6.64616 14.0845 6.68557 14.0663C6.44732 13.1649 5.89379 11.6583 8.99105 11.6311H9.03046C12.1295 11.6529 11.5742 13.1594 11.3341 14.0518C11.3736 14.0699 11.8913 14.0899 11.9289 14.1136H11.9396C11.9922 14.1453 12.0414 14.1825 12.0865 14.2244L12.1618 14.2935C12.452 13.5865 13.2778 10.5715 9.03046 10.5715Z" fill="url(#paint4_radial_256_2115)"/>
<path style="mix-blend-mode:overlay" opacity="0.75" d="M9.03046 10.5715H8.99105C4.74553 10.5715 5.56955 13.5865 5.85796 14.308L5.90454 14.2644C5.58209 13.3412 5.06618 10.6933 8.99105 10.6933H9.03046C12.9553 10.6933 12.434 13.3412 12.117 14.2644L12.1653 14.308C12.452 13.5865 13.2778 10.5715 9.03046 10.5715Z" fill="url(#paint5_radial_256_2115)"/>
<path style="mix-blend-mode:multiply" opacity="0.55" d="M6.51039 12.7852C6.19207 12.8544 5.88588 12.9721 5.60217 13.1341C5.62738 13.5368 5.71504 13.9331 5.86192 14.3081L5.93537 14.239C5.9808 14.1975 6.02998 14.1604 6.08226 14.1282H6.0948C6.13062 14.1046 6.65012 14.0846 6.68953 14.0664C6.58921 13.6884 6.43695 13.2159 6.51039 12.7852Z" fill="url(#paint6_linear_256_2115)"/>
<path style="mix-blend-mode:multiply" opacity="0.55" d="M11.5012 12.7217C11.6015 13.1687 11.4385 13.6703 11.3346 14.0556C11.374 14.0738 11.8917 14.0938 11.9293 14.1174H11.9401C11.9926 14.1492 12.0419 14.1863 12.087 14.2283L12.1622 14.2973C12.3116 13.9119 12.3981 13.5043 12.4184 13.0906C12.1292 12.9288 11.821 12.8049 11.5012 12.7217Z" fill="url(#paint7_linear_256_2115)"/>
<path style="mix-blend-mode:multiply" opacity="0.55" d="M9.02965 11.3818H8.99382C5.97717 11.3818 6.09898 13.0175 6.29245 14.1678C6.31036 14.1551 6.65072 14.0752 6.69013 14.057C6.4483 13.1647 5.89477 11.6581 8.99203 11.6308H9.03144C12.1305 11.6526 11.5752 13.1592 11.3351 14.0515C11.3745 14.0697 11.7131 14.1497 11.731 14.1624C11.9263 13.0247 12.0463 11.3818 9.02965 11.3818Z" fill="url(#paint8_radial_256_2115)"/>
<path d="M0.666626 2.15902L7.13522 12.4925H11.198L4.1974 0L0.666626 2.15902Z" fill="url(#paint9_linear_256_2115)"/>
<path d="M1.38342 1.72088L8.04728 12.4923H10.3796L3.51872 0.416016L1.38342 1.72088Z" fill="url(#paint10_linear_256_2115)"/>
<mask id="mask0_256_2115" style="mask-type:luminance" maskUnits="userSpaceOnUse" x="3" y="12" width="12" height="13">
<path d="M11.1459 23.5824C14.0316 22.3966 15.4235 19.062 14.2546 16.1344C13.0858 13.2068 9.7989 11.7948 6.91318 12.9806C4.02745 14.1664 2.63564 17.501 3.80448 20.4286C4.97332 23.3562 8.26019 24.7682 11.1459 23.5824Z" fill="white"/>
</mask>
<g mask="url(#mask0_256_2115)">
<path d="M11.1459 23.5824C14.0316 22.3966 15.4235 19.062 14.2546 16.1344C13.0858 13.2068 9.7989 11.7948 6.91318 12.9806C4.02745 14.1664 2.63564 17.501 3.80448 20.4286C4.97332 23.3562 8.26019 24.7682 11.1459 23.5824Z" fill="url(#paint11_radial_256_2115)"/>
<path style="mix-blend-mode:overlay" opacity="0.75" d="M9.0306 12.5615C7.91562 12.5615 6.82569 12.8969 5.89862 13.5254C4.97156 14.1538 4.249 15.047 3.82231 16.0921C3.39563 17.1371 3.28399 18.2871 3.50151 19.3965C3.71903 20.5059 4.25594 21.525 5.04435 22.3248C5.83276 23.1247 6.83724 23.6694 7.93079 23.8901C9.02434 24.1107 10.1578 23.9975 11.1879 23.5646C12.218 23.1317 13.0985 22.3987 13.7179 21.4582C14.3374 20.5176 14.668 19.4119 14.668 18.2807C14.668 16.7639 14.0741 15.3092 13.0168 14.2366C11.9596 13.1641 10.5257 12.5615 9.0306 12.5615ZM9.0306 23.8419C7.94645 23.8419 6.88665 23.5157 5.98521 22.9046C5.08377 22.2936 4.38118 21.425 3.9663 20.4089C3.55141 19.3927 3.44286 18.2746 3.65437 17.1958C3.86587 16.1171 4.38794 15.1262 5.15455 14.3484C5.92116 13.5707 6.89788 13.0411 7.9612 12.8265C9.02452 12.6119 10.1267 12.722 11.1283 13.1429C12.1299 13.5639 12.986 14.2766 13.5883 15.1912C14.1907 16.1057 14.5122 17.1809 14.5122 18.2807C14.5122 19.7556 13.9346 21.1701 12.9066 22.213C11.8787 23.2559 10.4844 23.8419 9.0306 23.8419Z" fill="url(#paint12_radial_256_2115)"/>
<path style="mix-blend-mode:screen" opacity="0.75" d="M10.7461 22.4508C13.0163 21.4883 14.0876 18.841 13.1389 16.5378C12.1901 14.2346 9.58066 13.1478 7.31044 14.1103C5.04021 15.0728 3.96892 17.7201 4.91765 20.0233C5.86637 22.3265 8.47585 23.4133 10.7461 22.4508Z" fill="url(#paint13_linear_256_2115)"/>
<path style="mix-blend-mode:screen" opacity="0.32" d="M10.7461 22.4508C13.0163 21.4883 14.0876 18.841 13.1389 16.5378C12.1901 14.2346 9.58066 13.1478 7.31044 14.1103C5.04021 15.0728 3.96892 17.7201 4.91765 20.0233C5.86637 22.3265 8.47585 23.4133 10.7461 22.4508Z" fill="url(#paint14_linear_256_2115)"/>
<path d="M9.02992 22.6478C11.4073 22.6478 13.3346 20.6926 13.3346 18.2807C13.3346 15.8688 11.4073 13.9136 9.02992 13.9136C6.65253 13.9136 4.72528 15.8688 4.72528 18.2807C4.72528 20.6926 6.65253 22.6478 9.02992 22.6478Z" fill="url(#paint15_linear_256_2115)"/>
<g opacity="0.75">
<g style="mix-blend-mode:multiply" opacity="0.85">
<path d="M12.5438 18.8065C12.5096 18.8026 12.4783 18.7851 12.4568 18.7578C12.4353 18.7306 12.4253 18.6958 12.4291 18.6611C12.4329 18.6264 12.4502 18.5946 12.477 18.5728C12.5039 18.551 12.5382 18.5409 12.5724 18.5448C12.5898 18.5461 12.6067 18.551 12.6222 18.5591C12.6377 18.5672 12.6514 18.5783 12.6626 18.5918C12.6738 18.6054 12.6822 18.6211 12.6873 18.6379C12.6924 18.6548 12.6942 18.6726 12.6925 18.6901C12.6876 18.7254 12.6693 18.7573 12.6415 18.779C12.6137 18.8007 12.5786 18.8106 12.5438 18.8065Z" fill="url(#paint16_linear_256_2115)"/>
<path d="M12.4336 19.3206C12.4158 19.3175 12.3988 19.3107 12.3837 19.3006C12.3686 19.2905 12.3558 19.2774 12.3459 19.262C12.3361 19.2467 12.3295 19.2294 12.3266 19.2113C12.3236 19.1932 12.3244 19.1747 12.3289 19.157C12.3334 19.1392 12.3414 19.1226 12.3525 19.1082C12.3636 19.0937 12.3776 19.0818 12.3935 19.0731C12.4094 19.0643 12.4269 19.0591 12.4449 19.0576C12.4629 19.0561 12.481 19.0584 12.4981 19.0643C12.5291 19.0751 12.5551 19.0974 12.5707 19.1268C12.5863 19.1561 12.5904 19.1903 12.5823 19.2226C12.5742 19.2549 12.5544 19.2829 12.5268 19.3011C12.4993 19.3192 12.466 19.3262 12.4336 19.3206Z" fill="url(#paint17_linear_256_2115)"/>
<path d="M12.2466 19.8092C12.2315 19.8024 12.2179 19.7925 12.2065 19.7803C12.1952 19.7681 12.1863 19.7537 12.1805 19.738C12.1747 19.7223 12.172 19.7055 12.1726 19.6888C12.1731 19.672 12.177 19.6555 12.1839 19.6402C12.1962 19.6084 12.2205 19.5829 12.2514 19.5693C12.2823 19.5557 12.3173 19.555 12.3487 19.5675C12.3655 19.5743 12.3808 19.5844 12.3936 19.5973C12.4065 19.6102 12.4166 19.6256 12.4235 19.6425C12.4304 19.6595 12.4338 19.6777 12.4335 19.6961C12.4333 19.7144 12.4294 19.7325 12.4221 19.7493C12.4064 19.7805 12.3792 19.8043 12.3464 19.8155C12.3136 19.8267 12.2777 19.8245 12.2466 19.8092Z" fill="url(#paint18_linear_256_2115)"/>
<path d="M11.9934 20.2693C11.9644 20.2506 11.9437 20.2212 11.9357 20.1872C11.9276 20.1533 11.9329 20.1176 11.9504 20.0876C11.9685 20.0578 11.9975 20.0365 12.0311 20.0283C12.0646 20.0202 12.1 20.0258 12.1295 20.0439C12.144 20.0529 12.1566 20.0647 12.1666 20.0785C12.1765 20.0924 12.1837 20.1082 12.1877 20.1249C12.1917 20.1416 12.1924 20.1589 12.1898 20.1759C12.1872 20.1929 12.1813 20.2092 12.1725 20.2239C12.1637 20.2385 12.1521 20.2513 12.1384 20.2615C12.1247 20.2716 12.1092 20.2789 12.0927 20.2829C12.0763 20.287 12.0592 20.2877 12.0424 20.2851C12.0257 20.2824 12.0096 20.2764 11.9952 20.2675L11.9934 20.2693Z" fill="url(#paint19_linear_256_2115)"/>
<path d="M11.6739 20.6839C11.6611 20.6729 11.6506 20.6595 11.6431 20.6443C11.6355 20.6292 11.631 20.6127 11.6298 20.5957C11.6287 20.5788 11.6308 20.5618 11.6362 20.5457C11.6417 20.5297 11.6502 20.5148 11.6613 20.5022C11.683 20.4762 11.7136 20.4596 11.747 20.4559C11.7803 20.4522 11.8138 20.4616 11.8405 20.4822C11.8535 20.4933 11.8643 20.5069 11.8722 20.5222C11.88 20.5375 11.8849 20.5543 11.8864 20.5715C11.8879 20.5887 11.886 20.606 11.8809 20.6225C11.8758 20.639 11.8675 20.6543 11.8566 20.6676C11.8456 20.6808 11.8322 20.6917 11.8171 20.6997C11.802 20.7077 11.7855 20.7126 11.7686 20.7141C11.7516 20.7156 11.7345 20.7138 11.7182 20.7086C11.702 20.7034 11.6869 20.695 11.6739 20.6839Z" fill="url(#paint20_linear_256_2115)"/>
<path d="M11.3032 21.0524C11.2819 21.027 11.2701 20.9948 11.2701 20.9615C11.2701 20.9282 11.2819 20.896 11.3032 20.8706C11.3278 20.8483 11.3597 20.8359 11.3927 20.8359C11.4258 20.8359 11.4577 20.8483 11.4823 20.8706C11.5048 20.896 11.5165 20.9293 11.5148 20.9634C11.5131 20.9974 11.4982 21.0294 11.4734 21.0524C11.4502 21.0741 11.4198 21.0862 11.3883 21.0862C11.3567 21.0862 11.3263 21.0741 11.3032 21.0524Z" fill="url(#paint21_linear_256_2115)"/>
<path d="M10.878 21.3563C10.8684 21.342 10.8618 21.3258 10.8585 21.3088C10.8552 21.2918 10.8553 21.2743 10.8588 21.2574C10.8623 21.2404 10.8691 21.2243 10.8789 21.2101C10.8887 21.1959 10.9012 21.1838 10.9156 21.1746C10.9298 21.1634 10.9461 21.1552 10.9635 21.1507C10.9809 21.1461 10.9991 21.1453 11.0168 21.1482C11.0346 21.151 11.0516 21.1576 11.0667 21.1675C11.0818 21.1773 11.0948 21.1902 11.1048 21.2054C11.1148 21.2205 11.1216 21.2376 11.1248 21.2555C11.128 21.2735 11.1275 21.2919 11.1234 21.3097C11.1193 21.3274 11.1116 21.3441 11.1008 21.3587C11.09 21.3733 11.0764 21.3855 11.0607 21.3945C11.0315 21.4138 10.9959 21.4207 10.9616 21.4135C10.9274 21.4064 10.8974 21.3858 10.878 21.3563Z" fill="url(#paint22_linear_256_2115)"/>
<path d="M10.4215 21.5995C10.4065 21.5668 10.4047 21.5296 10.4165 21.4957C10.4282 21.4617 10.4525 21.4338 10.4842 21.4177C10.4999 21.4097 10.517 21.4049 10.5346 21.4036C10.5522 21.4024 10.5698 21.4047 10.5865 21.4105C10.6032 21.4162 10.6186 21.4253 10.6318 21.4372C10.6449 21.449 10.6557 21.4634 10.6633 21.4795C10.672 21.4954 10.6772 21.513 10.6788 21.5311C10.6803 21.5492 10.678 21.5675 10.6721 21.5846C10.6662 21.6018 10.6567 21.6175 10.6444 21.6307C10.6321 21.6439 10.6172 21.6543 10.6006 21.6612C10.5851 21.6704 10.5679 21.6761 10.55 21.6779C10.5322 21.6797 10.5141 21.6776 10.4972 21.6717C10.4802 21.6659 10.4646 21.6564 10.4516 21.6439C10.4385 21.6315 10.4283 21.6163 10.4215 21.5995Z" fill="url(#paint23_linear_256_2115)"/>
<path d="M9.92894 21.765C9.92011 21.7322 9.92437 21.6972 9.94081 21.6676C9.95724 21.638 9.98452 21.6162 10.0167 21.6069C10.0485 21.6007 10.0813 21.6067 10.109 21.6237C10.1367 21.6406 10.1571 21.6674 10.1665 21.6988C10.1758 21.7302 10.1734 21.764 10.1596 21.7936C10.1459 21.8233 10.1218 21.8468 10.092 21.8595C10.0751 21.8642 10.0576 21.8654 10.0403 21.8632C10.023 21.861 10.0063 21.8553 9.99112 21.8465C9.97597 21.8378 9.96269 21.826 9.95202 21.812C9.94135 21.798 9.93351 21.782 9.92894 21.765Z" fill="url(#paint24_linear_256_2115)"/>
<path d="M9.41917 21.8648C9.41539 21.8303 9.42453 21.7956 9.44478 21.7677C9.46502 21.7398 9.49489 21.7206 9.52844 21.7139C9.56249 21.7096 9.59686 21.7187 9.62451 21.7394C9.65216 21.76 9.67098 21.7905 9.67713 21.8248C9.6799 21.842 9.6792 21.8597 9.67507 21.8766C9.67093 21.8936 9.66344 21.9095 9.65306 21.9234C9.64267 21.9374 9.62961 21.949 9.61465 21.9577C9.5997 21.9663 9.58317 21.9718 9.56606 21.9738C9.54928 21.9772 9.53199 21.977 9.51528 21.9732C9.49858 21.9695 9.48282 21.9623 9.46902 21.952C9.45521 21.9418 9.44365 21.9287 9.43507 21.9137C9.42649 21.8987 9.42107 21.882 9.41917 21.8648Z" fill="url(#paint25_linear_256_2115)"/>
<path d="M8.90685 21.8794C8.91059 21.8471 8.92588 21.8173 8.94982 21.7957C8.97376 21.7741 9.00469 21.7622 9.03672 21.7622C9.06876 21.7622 9.09968 21.7741 9.12362 21.7957C9.14756 21.8173 9.16285 21.8471 9.1666 21.8794C9.16708 21.9152 9.15363 21.9498 9.12915 21.9757C9.10467 22.0015 9.07115 22.0165 9.03583 22.0175C9.01842 22.017 9.00127 22.0131 8.98536 22.0059C8.96946 21.9987 8.95511 21.9884 8.94313 21.9755C8.93115 21.9627 8.92178 21.9476 8.91556 21.9311C8.90933 21.9146 8.90637 21.897 8.90685 21.8794Z" fill="url(#paint26_linear_256_2115)"/>
<path d="M8.38513 21.8249C8.38771 21.8078 8.39359 21.7914 8.40242 21.7767C8.41124 21.7619 8.42285 21.749 8.43657 21.7388C8.4503 21.7286 8.46587 21.7213 8.4824 21.7171C8.49893 21.713 8.51609 21.7123 8.53291 21.7149C8.54973 21.7175 8.56588 21.7235 8.58043 21.7324C8.59498 21.7414 8.60765 21.7532 8.61771 21.7671C8.62777 21.781 8.63503 21.7968 8.63908 21.8136C8.64313 21.8304 8.64388 21.8478 8.64129 21.8648C8.63939 21.8821 8.63397 21.8987 8.62539 21.9138C8.61681 21.9288 8.60525 21.9418 8.59144 21.9521C8.57764 21.9623 8.56188 21.9696 8.54518 21.9733C8.52847 21.9771 8.51118 21.9773 8.4944 21.9739C8.47745 21.9717 8.46111 21.966 8.44637 21.9573C8.43162 21.9485 8.41876 21.9368 8.40856 21.9229C8.39836 21.909 8.39103 21.8932 8.387 21.8763C8.38298 21.8595 8.38234 21.842 8.38513 21.8249Z" fill="url(#paint27_linear_256_2115)"/>
<path d="M7.88432 21.6904C7.89573 21.6583 7.91874 21.6318 7.94867 21.6163C7.9786 21.6008 8.01323 21.5974 8.04554 21.6068C8.07774 21.6161 8.10502 21.6379 8.12145 21.6675C8.13788 21.6971 8.14215 21.7321 8.13332 21.7649C8.12875 21.782 8.12091 21.798 8.11024 21.812C8.09957 21.826 8.08629 21.8377 8.07114 21.8465C8.056 21.8552 8.0393 21.8609 8.02199 21.8631C8.00469 21.8653 7.98712 21.8641 7.9703 21.8594C7.95358 21.8542 7.93805 21.8457 7.92462 21.8344C7.91119 21.823 7.90014 21.8091 7.89213 21.7933C7.88411 21.7775 7.87929 21.7603 7.87795 21.7426C7.87661 21.725 7.87877 21.7072 7.88432 21.6904Z" fill="url(#paint28_linear_256_2115)"/>
<path d="M7.40661 21.4852C7.41402 21.4696 7.42436 21.4558 7.43706 21.4443C7.44976 21.4329 7.46456 21.424 7.48061 21.4184C7.49666 21.4127 7.51365 21.4103 7.53062 21.4114C7.54758 21.4124 7.56418 21.4168 7.57947 21.4243C7.59476 21.4318 7.60844 21.4423 7.61974 21.4552C7.63103 21.4681 7.63971 21.4831 7.64528 21.4994C7.65085 21.5156 7.65321 21.5329 7.65221 21.5501C7.65122 21.5673 7.64689 21.5841 7.63948 21.5996C7.63294 21.6167 7.6228 21.6321 7.60978 21.6447C7.59675 21.6574 7.58116 21.667 7.5641 21.6729C7.54703 21.6787 7.5289 21.6808 7.51097 21.6788C7.49305 21.6768 7.47577 21.6709 7.46035 21.6614C7.44527 21.6536 7.4319 21.6428 7.421 21.6296C7.41011 21.6164 7.40192 21.6012 7.39691 21.5848C7.39191 21.5683 7.39019 21.5511 7.39185 21.534C7.39351 21.5169 7.39853 21.5003 7.40661 21.4852Z" fill="url(#paint29_linear_256_2115)"/>
<path d="M6.96431 21.2102C6.98384 21.1819 7.01365 21.1625 7.04722 21.1564C7.0808 21.1502 7.1154 21.1578 7.14345 21.1775C7.15806 21.1866 7.17072 21.1986 7.18066 21.2127C7.1906 21.2269 7.19762 21.2429 7.20131 21.2599C7.20499 21.2769 7.20525 21.2944 7.20208 21.3115C7.19891 21.3286 7.19237 21.3448 7.18286 21.3593C7.16382 21.388 7.13471 21.4084 7.10144 21.4161C7.06817 21.4239 7.03323 21.4185 7.00372 21.4011C6.98823 21.3917 6.97482 21.3791 6.96434 21.3642C6.95386 21.3493 6.94654 21.3323 6.94284 21.3144C6.93914 21.2965 6.93914 21.278 6.94283 21.2601C6.94653 21.2421 6.95384 21.2252 6.96431 21.2102Z" fill="url(#paint30_linear_256_2115)"/>
<path d="M6.56679 20.8746C6.59143 20.8522 6.62331 20.8398 6.65636 20.8398C6.68941 20.8398 6.7213 20.8522 6.74593 20.8746C6.76725 20.8999 6.77897 20.9321 6.77897 20.9654C6.77897 20.9987 6.76725 21.031 6.74593 21.0563C6.73425 21.0684 6.72032 21.078 6.70494 21.0845C6.68956 21.0911 6.67304 21.0945 6.65636 21.0945C6.63968 21.0945 6.62316 21.0911 6.60779 21.0845C6.59241 21.078 6.57847 21.0684 6.56679 21.0563C6.54317 21.0321 6.52991 20.9995 6.52991 20.9654C6.52991 20.9314 6.54317 20.8987 6.56679 20.8746Z" fill="url(#paint31_linear_256_2115)"/>
<path d="M6.21955 20.4822C6.24624 20.4616 6.27971 20.4522 6.31305 20.4559C6.34639 20.4596 6.37705 20.4762 6.39868 20.5022C6.42028 20.5282 6.43105 20.5617 6.42871 20.5956C6.42637 20.6295 6.4111 20.6612 6.38615 20.6839C6.35942 20.7073 6.32472 20.719 6.28953 20.7166C6.25434 20.7143 6.22148 20.6979 6.19805 20.6712C6.18699 20.6574 6.17877 20.6416 6.17385 20.6246C6.16894 20.6075 6.16744 20.5897 6.16944 20.5721C6.17145 20.5545 6.17691 20.5374 6.18552 20.522C6.19413 20.5065 6.2057 20.493 6.21955 20.4822Z" fill="url(#paint32_linear_256_2115)"/>
<path d="M5.9332 20.0457C5.96241 20.0274 5.99761 20.0216 6.03103 20.0296C6.06446 20.0377 6.09338 20.0588 6.11144 20.0884C6.12949 20.1181 6.1352 20.1538 6.1273 20.1877C6.11941 20.2216 6.09856 20.251 6.06934 20.2693C6.05487 20.2783 6.03878 20.2844 6.022 20.2872C6.00521 20.29 5.98805 20.2893 5.9715 20.2854C5.95495 20.2814 5.93933 20.2742 5.92553 20.2641C5.91174 20.254 5.90004 20.2412 5.8911 20.2266C5.88216 20.2119 5.87616 20.1956 5.87344 20.1785C5.87071 20.1615 5.87132 20.1441 5.87523 20.1273C5.87914 20.1105 5.88627 20.0947 5.89622 20.0807C5.90616 20.0667 5.91873 20.0548 5.9332 20.0457Z" fill="url(#paint33_linear_256_2115)"/>
<path d="M5.71556 19.5675C5.74692 19.555 5.78189 19.5557 5.81279 19.5693C5.84369 19.5829 5.86799 19.6084 5.88037 19.6402C5.88725 19.6555 5.8911 19.672 5.89167 19.6888C5.89224 19.7055 5.88954 19.7223 5.88371 19.738C5.87788 19.7537 5.86904 19.7681 5.85771 19.7803C5.84638 19.7925 5.83277 19.8024 5.81767 19.8092C5.80172 19.8172 5.78437 19.8218 5.76664 19.8228C5.74891 19.8237 5.73116 19.8211 5.71445 19.815C5.69774 19.8089 5.68241 19.7995 5.66937 19.7872C5.65633 19.775 5.64584 19.7602 5.63854 19.7438C5.63218 19.7271 5.62913 19.7093 5.62956 19.6914C5.62999 19.6735 5.63389 19.6559 5.64104 19.6395C5.6482 19.6231 5.65846 19.6083 5.67125 19.596C5.68403 19.5836 5.69909 19.574 5.71556 19.5675Z" fill="url(#paint34_linear_256_2115)"/>
<path d="M5.56324 19.0644C5.59563 19.0588 5.62891 19.0657 5.65647 19.0839C5.68402 19.102 5.70383 19.1301 5.71196 19.1623C5.72009 19.1946 5.71594 19.2289 5.70033 19.2582C5.68472 19.2875 5.65881 19.3098 5.62773 19.3206C5.61126 19.3253 5.59404 19.3265 5.5771 19.3242C5.56015 19.3219 5.54384 19.3162 5.52912 19.3074C5.51441 19.2985 5.5016 19.2868 5.49146 19.2728C5.48131 19.2589 5.47405 19.243 5.47009 19.2261C5.46552 19.2093 5.46431 19.1917 5.46654 19.1744C5.46877 19.1571 5.47439 19.1404 5.48307 19.1253C5.49175 19.1103 5.50331 19.0971 5.51708 19.0867C5.53085 19.0762 5.54655 19.0686 5.56324 19.0644Z" fill="url(#paint35_linear_256_2115)"/>
<path d="M5.49041 18.5371C5.5223 18.5375 5.55294 18.5498 5.57656 18.5715C5.60019 18.5932 5.61517 18.623 5.61869 18.6551C5.62221 18.6873 5.61403 18.7196 5.59568 18.7461C5.57734 18.7725 5.55009 18.7913 5.51907 18.7988C5.48423 18.803 5.44917 18.7931 5.42138 18.7714C5.3936 18.7496 5.3753 18.7177 5.37039 18.6825C5.36867 18.6649 5.37043 18.6472 5.37556 18.6303C5.38069 18.6134 5.38909 18.5977 5.40027 18.5842C5.41145 18.5707 5.42518 18.5595 5.44066 18.5514C5.45614 18.5433 5.47305 18.5385 5.49041 18.5371Z" fill="url(#paint36_linear_256_2115)"/>
<path d="M5.49074 18.0194C5.52479 18.0212 5.55677 18.0366 5.57986 18.062C5.60295 18.0875 5.61533 18.1211 5.61434 18.1557C5.61161 18.1902 5.59602 18.2224 5.57073 18.2457C5.54544 18.269 5.51235 18.2816 5.4782 18.2811C5.46102 18.2811 5.44402 18.2776 5.42828 18.2706C5.41253 18.2636 5.3984 18.2534 5.38677 18.2406C5.37514 18.2277 5.36627 18.2126 5.36073 18.1961C5.35519 18.1796 5.3531 18.1621 5.35459 18.1448C5.35504 18.1273 5.35895 18.1102 5.36611 18.0943C5.37327 18.0785 5.38352 18.0643 5.39625 18.0525C5.40897 18.0408 5.4239 18.0318 5.44014 18.0261C5.45638 18.0204 5.4736 18.0181 5.49074 18.0194Z" fill="url(#paint37_linear_256_2115)"/>
<path d="M5.56511 17.4974C5.59789 17.5052 5.62658 17.5253 5.64549 17.5535C5.6644 17.5818 5.67216 17.6163 5.66722 17.6501C5.66151 17.6839 5.6429 17.7141 5.61542 17.7342C5.58794 17.7543 5.55378 17.7625 5.52033 17.7573C5.50321 17.7544 5.48683 17.7481 5.47213 17.7388C5.45743 17.7295 5.4447 17.7173 5.4347 17.7029C5.4247 17.6885 5.41762 17.6723 5.41386 17.6551C5.41011 17.6379 5.40977 17.6201 5.41285 17.6028C5.41537 17.5854 5.42142 17.5688 5.4306 17.5539C5.43979 17.539 5.45192 17.5262 5.46622 17.5163C5.48053 17.5064 5.4967 17.4996 5.51372 17.4963C5.53074 17.4931 5.54824 17.4934 5.56511 17.4974Z" fill="url(#paint38_linear_256_2115)"/>
<path d="M5.71515 16.9942C5.7472 17.0062 5.77338 17.0303 5.78811 17.0616C5.80284 17.0928 5.80494 17.1286 5.79397 17.1614C5.78116 17.1932 5.7573 17.2191 5.72691 17.2342C5.69653 17.2492 5.66174 17.2525 5.62916 17.2432C5.61254 17.2384 5.59711 17.2301 5.58386 17.2188C5.57061 17.2075 5.55984 17.1935 5.55224 17.1778C5.54465 17.162 5.54039 17.1448 5.53976 17.1273C5.53912 17.1098 5.54212 17.0923 5.54855 17.076C5.55398 17.0594 5.56264 17.0441 5.57402 17.0309C5.5854 17.0177 5.59927 17.007 5.61481 16.9994C5.63034 16.9918 5.64723 16.9874 5.66446 16.9865C5.6817 16.9856 5.69893 16.9882 5.71515 16.9942Z" fill="url(#paint39_linear_256_2115)"/>
<path d="M5.9326 16.5183C5.96305 16.5356 5.98579 16.5641 5.99613 16.5979C6.00646 16.6318 6.0036 16.6683 5.98813 16.7001C5.97245 16.7311 5.94524 16.7546 5.91249 16.7654C5.87973 16.7761 5.84411 16.7732 5.81347 16.7573C5.78283 16.7414 5.75967 16.7138 5.74908 16.6806C5.7385 16.6473 5.74136 16.6112 5.75704 16.5801C5.76367 16.5636 5.7737 16.5487 5.78645 16.5364C5.79921 16.5241 5.81441 16.5147 5.83103 16.5089C5.84764 16.503 5.8653 16.5008 5.88281 16.5025C5.90033 16.5041 5.9173 16.5095 5.9326 16.5183Z" fill="url(#paint40_linear_256_2115)"/>
<path d="M6.21981 16.0803C6.24655 16.1012 6.26427 16.1318 6.26928 16.1656C6.27429 16.1995 6.26619 16.234 6.24668 16.262C6.22632 16.2893 6.19644 16.3077 6.16315 16.3135C6.12986 16.3192 6.09566 16.3119 6.06754 16.2929C6.05301 16.2836 6.04058 16.2714 6.03104 16.2569C6.02151 16.2424 6.0151 16.2261 6.01222 16.2089C6.00935 16.1918 6.01008 16.1742 6.01436 16.1574C6.01865 16.1405 6.02639 16.1248 6.03709 16.1112C6.04691 16.0967 6.05949 16.0845 6.07407 16.0751C6.08866 16.0657 6.10496 16.0593 6.122 16.0565C6.13904 16.0536 6.15648 16.0542 6.17329 16.0583C6.19009 16.0624 6.20591 16.0699 6.21981 16.0803Z" fill="url(#paint41_linear_256_2115)"/>
<path d="M6.5668 15.6878C6.58847 15.713 6.60041 15.7453 6.60041 15.7787C6.60041 15.8121 6.58847 15.8444 6.5668 15.8695C6.54275 15.8931 6.51064 15.9062 6.47723 15.9062C6.44382 15.9062 6.41171 15.8931 6.38766 15.8695C6.36486 15.8449 6.35217 15.8124 6.35217 15.7787C6.35217 15.7449 6.36486 15.7124 6.38766 15.6878C6.41148 15.6638 6.44368 15.6504 6.47723 15.6504C6.51078 15.6504 6.54298 15.6638 6.5668 15.6878Z" fill="url(#paint42_linear_256_2115)"/>
<path d="M6.96569 15.3518C6.98518 15.3795 6.99361 15.4136 6.98929 15.4473C6.98497 15.481 6.96821 15.5118 6.94241 15.5335C6.91486 15.5525 6.88143 15.5606 6.84842 15.5562C6.81541 15.5518 6.78512 15.5354 6.76327 15.5099C6.75249 15.4966 6.7445 15.4813 6.73981 15.4648C6.73513 15.4483 6.73383 15.4309 6.73602 15.4139C6.7382 15.3969 6.74381 15.3805 6.75251 15.3657C6.7612 15.351 6.77279 15.3382 6.78656 15.3282C6.81352 15.3075 6.84739 15.2984 6.88088 15.3029C6.91438 15.3073 6.94483 15.3248 6.96569 15.3518Z" fill="url(#paint43_linear_256_2115)"/>
<path d="M7.40748 15.0842C7.42431 15.1151 7.42848 15.1515 7.4191 15.1855C7.40971 15.2195 7.38752 15.2484 7.35732 15.2659C7.34268 15.2751 7.32637 15.2812 7.30937 15.2839C7.29237 15.2865 7.27501 15.2857 7.25832 15.2815C7.24162 15.2773 7.22593 15.2697 7.21217 15.2592C7.19841 15.2487 7.18685 15.2356 7.17819 15.2205C7.16105 15.19 7.15633 15.154 7.16503 15.12C7.17373 15.0861 7.19517 15.0569 7.22476 15.0388C7.23954 15.029 7.25613 15.0224 7.27351 15.0194C7.29089 15.0164 7.30869 15.0171 7.32582 15.0213C7.34294 15.0256 7.35902 15.0334 7.37307 15.0442C7.38711 15.055 7.39883 15.0686 7.40748 15.0842Z" fill="url(#paint44_linear_256_2115)"/>
<path d="M7.88463 14.8718C7.89633 14.9044 7.89502 14.9403 7.88096 14.9719C7.86689 15.0035 7.84121 15.0282 7.80939 15.0408C7.77677 15.0513 7.74147 15.0491 7.71035 15.0347C7.67923 15.0203 7.65452 14.9946 7.64101 14.9627C7.63445 14.9466 7.63121 14.9294 7.63149 14.912C7.63176 14.8947 7.63553 14.8775 7.64258 14.8617C7.64963 14.8458 7.65981 14.8316 7.67247 14.8199C7.68514 14.8083 7.70004 14.7993 7.71624 14.7937C7.73231 14.7871 7.74954 14.7838 7.76688 14.7842C7.78422 14.7846 7.8013 14.7886 7.81707 14.7959C7.83284 14.8032 7.84697 14.8137 7.85859 14.8268C7.87021 14.8398 7.87907 14.8552 7.88463 14.8718Z" fill="url(#paint45_linear_256_2115)"/>
<path d="M8.38558 14.7389C8.39114 14.7725 8.38412 14.807 8.36588 14.8356C8.34765 14.8642 8.31953 14.8848 8.28705 14.8934C8.25409 14.9006 8.21965 14.8946 8.19095 14.8766C8.16224 14.8587 8.14148 14.8302 8.13299 14.7971C8.12493 14.7624 8.13078 14.7258 8.14925 14.6955C8.16773 14.6652 8.19732 14.6435 8.23152 14.6353C8.24839 14.6311 8.26594 14.6304 8.28306 14.6334C8.30019 14.6364 8.31651 14.643 8.331 14.6528C8.34548 14.6625 8.35782 14.6752 8.36721 14.69C8.37661 14.7049 8.38286 14.7215 8.38558 14.7389Z" fill="url(#paint46_linear_256_2115)"/>
<path d="M8.90768 14.6826C8.90918 14.7169 8.89752 14.7505 8.87513 14.7763C8.85275 14.802 8.82139 14.818 8.78766 14.8208C8.75367 14.8215 8.72061 14.8095 8.69483 14.787C8.66904 14.7645 8.65234 14.7332 8.64793 14.699C8.64593 14.6817 8.64753 14.6641 8.65261 14.6474C8.65769 14.6307 8.66615 14.6153 8.67745 14.6021C8.68875 14.5889 8.70264 14.5783 8.71822 14.5709C8.73381 14.5635 8.75074 14.5595 8.76795 14.5591C8.78518 14.5576 8.80253 14.5596 8.81897 14.5651C8.83541 14.5705 8.8506 14.5793 8.86363 14.5908C8.87667 14.6023 8.88728 14.6164 8.89485 14.6322C8.90242 14.648 8.90678 14.6651 8.90768 14.6826Z" fill="url(#paint47_linear_256_2115)"/>
<path d="M9.41885 14.6989C9.41525 14.7331 9.39903 14.7646 9.37345 14.7872C9.34787 14.8098 9.31481 14.8217 9.28092 14.8206C9.24718 14.8178 9.21583 14.8019 9.19344 14.7761C9.17106 14.7504 9.15939 14.7168 9.1609 14.6825C9.1618 14.6651 9.16611 14.6481 9.17357 14.6325C9.18102 14.6169 9.19148 14.6029 9.20432 14.5914C9.21716 14.5799 9.23213 14.5711 9.24836 14.5655C9.26458 14.5599 9.28174 14.5577 9.29883 14.5589C9.31613 14.559 9.33321 14.5629 9.34893 14.5702C9.36465 14.5775 9.37865 14.5881 9.39001 14.6014C9.40136 14.6146 9.40981 14.6302 9.41478 14.647C9.41975 14.6638 9.42114 14.6815 9.41885 14.6989Z" fill="url(#paint48_linear_256_2115)"/>
<path d="M9.92914 14.7968C9.92065 14.8299 9.89989 14.8584 9.87119 14.8764C9.84248 14.8943 9.80805 14.9003 9.77508 14.8931C9.74239 14.8849 9.71401 14.8643 9.69571 14.8356C9.67741 14.807 9.67056 14.7723 9.67656 14.7386C9.67901 14.7211 9.6851 14.7043 9.69442 14.6893C9.70375 14.6743 9.71609 14.6615 9.73065 14.6517C9.7452 14.6419 9.76164 14.6354 9.77887 14.6325C9.7961 14.6296 9.81374 14.6305 9.83061 14.635C9.86482 14.6433 9.89441 14.6649 9.91288 14.6952C9.93136 14.7256 9.93721 14.7621 9.92914 14.7968Z" fill="url(#paint49_linear_256_2115)"/>
<path d="M10.4209 14.9623C10.4078 14.9941 10.3834 15.0197 10.3526 15.0341C10.3217 15.0486 10.2867 15.0509 10.2543 15.0405C10.2228 15.0275 10.1972 15.0028 10.1829 14.9714C10.1686 14.94 10.1666 14.9043 10.1773 14.8714C10.189 14.8394 10.2127 14.8133 10.2431 14.7987C10.2736 14.7841 10.3085 14.7821 10.3403 14.7933C10.3572 14.7981 10.3728 14.8065 10.3862 14.8179C10.3996 14.8293 10.4105 14.8434 10.4181 14.8594C10.4257 14.8754 10.4299 14.8928 10.4304 14.9105C10.4309 14.9283 10.4277 14.9459 10.4209 14.9623Z" fill="url(#paint50_linear_256_2115)"/>
<path d="M10.8774 15.2079C10.8687 15.223 10.8571 15.2362 10.8434 15.2466C10.8296 15.2571 10.8139 15.2647 10.7972 15.2689C10.7805 15.2732 10.7632 15.274 10.7462 15.2713C10.7292 15.2686 10.7129 15.2625 10.6982 15.2533C10.668 15.2358 10.6458 15.2069 10.6364 15.1729C10.6271 15.1389 10.6312 15.1025 10.6481 15.0716C10.6559 15.0557 10.6669 15.0417 10.6804 15.0303C10.6938 15.019 10.7095 15.0105 10.7263 15.0056C10.7431 15.0006 10.7607 14.9993 10.7781 15.0016C10.7955 15.0039 10.8122 15.0098 10.8272 15.0189C10.8431 15.0276 10.8571 15.0395 10.8683 15.0538C10.8796 15.0682 10.8878 15.0847 10.8925 15.1024C10.8972 15.1201 10.8983 15.1386 10.8957 15.1567C10.8931 15.1749 10.8868 15.1923 10.8774 15.2079Z" fill="url(#paint51_linear_256_2115)"/>
<path d="M11.3037 15.5115C11.2819 15.5369 11.2516 15.5534 11.2186 15.5578C11.1856 15.5621 11.1521 15.554 11.1246 15.5351C11.1006 15.5126 11.0859 15.4817 11.0832 15.4487C11.0805 15.4157 11.0901 15.3828 11.1101 15.3566C11.1301 15.3304 11.159 15.3128 11.1912 15.3071C11.2234 15.3015 11.2565 15.3082 11.284 15.3261C11.2978 15.3366 11.3094 15.3498 11.3179 15.365C11.3265 15.3802 11.3319 15.397 11.3337 15.4144C11.3356 15.4318 11.3338 15.4494 11.3287 15.4661C11.3235 15.4828 11.315 15.4983 11.3037 15.5115Z" fill="url(#paint52_linear_256_2115)"/>
<path d="M11.6749 15.8783C11.6509 15.9019 11.6187 15.915 11.5853 15.915C11.5519 15.915 11.5198 15.9019 11.4958 15.8783C11.4737 15.8533 11.4615 15.821 11.4615 15.7875C11.4615 15.7539 11.4737 15.7216 11.4958 15.6966C11.5196 15.6726 11.5518 15.6592 11.5853 15.6592C11.6189 15.6592 11.6511 15.6726 11.6749 15.6966C11.6977 15.7212 11.7104 15.7537 11.7104 15.7875C11.7104 15.8212 11.6977 15.8537 11.6749 15.8783Z" fill="url(#paint53_linear_256_2115)"/>
<path d="M11.9929 16.2926C11.9646 16.3111 11.9305 16.3182 11.8974 16.3125C11.8642 16.3068 11.8343 16.2886 11.8137 16.2617C11.7938 16.2332 11.7858 16.1979 11.7915 16.1635C11.7972 16.1291 11.8161 16.0983 11.8442 16.0781C11.8722 16.0579 11.907 16.0497 11.9409 16.0555C11.9749 16.0613 12.0051 16.0806 12.0251 16.109C12.0357 16.1229 12.0434 16.1389 12.0476 16.1559C12.0517 16.173 12.0523 16.1908 12.0493 16.2081C12.0462 16.2254 12.0396 16.2418 12.0299 16.2564C12.0202 16.2709 12.0076 16.2833 11.9929 16.2926Z" fill="url(#paint54_linear_256_2115)"/>
<path d="M12.245 16.7524C12.2297 16.7614 12.2127 16.767 12.1951 16.7689C12.1775 16.7708 12.1597 16.769 12.1428 16.7635C12.1259 16.758 12.1104 16.749 12.0971 16.7371C12.0839 16.7252 12.0733 16.7106 12.0659 16.6943C12.0503 16.6627 12.0471 16.6263 12.0571 16.5925C12.0671 16.5587 12.0895 16.5301 12.1196 16.5125C12.1348 16.5032 12.1517 16.4973 12.1693 16.4951C12.1869 16.4929 12.2048 16.4945 12.2217 16.4998C12.2386 16.5052 12.2542 16.5141 12.2675 16.526C12.2808 16.5379 12.2915 16.5525 12.2988 16.5689C12.3075 16.5844 12.313 16.6016 12.315 16.6193C12.317 16.6371 12.3155 16.6551 12.3105 16.6723C12.3055 16.6894 12.2971 16.7053 12.2858 16.7191C12.2746 16.7329 12.2607 16.7442 12.245 16.7524Z" fill="url(#paint55_linear_256_2115)"/>
<path d="M12.4341 17.2432C12.4015 17.2525 12.3667 17.2492 12.3363 17.2342C12.3059 17.2191 12.2821 17.1932 12.2693 17.1614C12.2583 17.1286 12.2604 17.0928 12.2751 17.0616C12.2899 17.0303 12.316 17.0062 12.3481 16.9942C12.3643 16.9882 12.3815 16.9856 12.3988 16.9865C12.416 16.9874 12.4329 16.9918 12.4484 16.9994C12.464 17.007 12.4778 17.0177 12.4892 17.0309C12.5006 17.0441 12.5093 17.0594 12.5147 17.076C12.5211 17.0923 12.5241 17.1098 12.5235 17.1273C12.5228 17.1448 12.5186 17.162 12.511 17.1778C12.5034 17.1935 12.4926 17.2075 12.4794 17.2188C12.4661 17.2301 12.4507 17.2384 12.4341 17.2432Z" fill="url(#paint56_linear_256_2115)"/>
<path d="M12.5431 17.7573C12.5094 17.7626 12.475 17.7543 12.4472 17.7343C12.4195 17.7143 12.4005 17.6841 12.3944 17.6501C12.3899 17.6161 12.3981 17.5816 12.4173 17.5534C12.4365 17.5252 12.4654 17.5052 12.4983 17.4974C12.5151 17.4934 12.5326 17.4931 12.5497 17.4963C12.5667 17.4996 12.5829 17.5064 12.5972 17.5163C12.6115 17.5262 12.6236 17.539 12.6328 17.5539C12.642 17.5688 12.648 17.5854 12.6505 17.6028C12.6563 17.6377 12.6482 17.6735 12.6281 17.7024C12.608 17.7314 12.5774 17.7511 12.5431 17.7573Z" fill="url(#paint57_linear_256_2115)"/>
<path d="M12.5841 18.2811C12.5499 18.2816 12.5168 18.269 12.4915 18.2457C12.4663 18.2224 12.4507 18.1902 12.4479 18.1557C12.4469 18.1211 12.4593 18.0875 12.4824 18.062C12.5055 18.0366 12.5375 18.0212 12.5715 18.0194C12.5887 18.0181 12.6059 18.0204 12.6221 18.0261C12.6384 18.0318 12.6533 18.0408 12.666 18.0525C12.6788 18.0643 12.689 18.0785 12.6962 18.0943C12.7033 18.1102 12.7072 18.1273 12.7077 18.1448C12.7092 18.1621 12.7071 18.1796 12.7015 18.1961C12.696 18.2126 12.6871 18.2277 12.6755 18.2406C12.6639 18.2534 12.6497 18.2636 12.634 18.2706C12.6183 18.2776 12.6013 18.2811 12.5841 18.2811Z" fill="url(#paint58_linear_256_2115)"/>
</g>
<g style="mix-blend-mode:multiply" opacity="0.85">
<path d="M12.5438 18.8065C12.5096 18.8026 12.4783 18.7851 12.4568 18.7578C12.4353 18.7306 12.4253 18.6958 12.4291 18.6611C12.4329 18.6264 12.4502 18.5946 12.477 18.5728C12.5039 18.551 12.5382 18.5409 12.5724 18.5448C12.5898 18.5461 12.6067 18.551 12.6222 18.5591C12.6377 18.5672 12.6514 18.5783 12.6626 18.5918C12.6738 18.6054 12.6822 18.6211 12.6873 18.6379C12.6924 18.6548 12.6942 18.6726 12.6925 18.6901C12.6876 18.7254 12.6693 18.7573 12.6415 18.779C12.6137 18.8007 12.5786 18.8106 12.5438 18.8065Z" fill="url(#paint59_linear_256_2115)"/>
<path d="M12.4336 19.3206C12.4158 19.3175 12.3988 19.3107 12.3837 19.3006C12.3686 19.2905 12.3558 19.2774 12.3459 19.262C12.3361 19.2467 12.3295 19.2294 12.3266 19.2113C12.3236 19.1932 12.3244 19.1747 12.3289 19.157C12.3334 19.1392 12.3414 19.1226 12.3525 19.1082C12.3636 19.0937 12.3776 19.0818 12.3935 19.0731C12.4094 19.0643 12.4269 19.0591 12.4449 19.0576C12.4629 19.0561 12.481 19.0584 12.4981 19.0643C12.5291 19.0751 12.5551 19.0974 12.5707 19.1268C12.5863 19.1561 12.5904 19.1903 12.5823 19.2226C12.5742 19.2549 12.5544 19.2829 12.5268 19.3011C12.4993 19.3192 12.466 19.3262 12.4336 19.3206Z" fill="url(#paint60_linear_256_2115)"/>
<path d="M12.2466 19.8092C12.2315 19.8024 12.2179 19.7925 12.2065 19.7803C12.1952 19.7681 12.1863 19.7537 12.1805 19.738C12.1747 19.7223 12.172 19.7055 12.1726 19.6888C12.1731 19.672 12.177 19.6555 12.1839 19.6402C12.1962 19.6084 12.2205 19.5829 12.2514 19.5693C12.2823 19.5557 12.3173 19.555 12.3487 19.5675C12.3655 19.5743 12.3808 19.5844 12.3936 19.5973C12.4065 19.6102 12.4166 19.6256 12.4235 19.6425C12.4304 19.6595 12.4338 19.6777 12.4335 19.6961C12.4333 19.7144 12.4294 19.7325 12.4221 19.7493C12.4064 19.7805 12.3792 19.8043 12.3464 19.8155C12.3136 19.8267 12.2777 19.8245 12.2466 19.8092Z" fill="url(#paint61_linear_256_2115)"/>
<path d="M11.9934 20.2693C11.9644 20.2506 11.9437 20.2212 11.9357 20.1872C11.9276 20.1533 11.9329 20.1176 11.9504 20.0876C11.9685 20.0578 11.9975 20.0365 12.0311 20.0283C12.0646 20.0202 12.1 20.0258 12.1295 20.0439C12.144 20.0529 12.1566 20.0647 12.1666 20.0785C12.1765 20.0924 12.1837 20.1082 12.1877 20.1249C12.1917 20.1416 12.1924 20.1589 12.1898 20.1759C12.1872 20.1929 12.1813 20.2092 12.1725 20.2239C12.1637 20.2385 12.1521 20.2513 12.1384 20.2615C12.1247 20.2716 12.1092 20.2789 12.0927 20.2829C12.0763 20.287 12.0592 20.2877 12.0424 20.2851C12.0257 20.2824 12.0096 20.2764 11.9952 20.2675L11.9934 20.2693Z" fill="url(#paint62_linear_256_2115)"/>
<path d="M11.6739 20.6839C11.6611 20.6729 11.6506 20.6595 11.6431 20.6443C11.6355 20.6292 11.631 20.6127 11.6298 20.5957C11.6287 20.5788 11.6308 20.5618 11.6362 20.5457C11.6417 20.5297 11.6502 20.5148 11.6613 20.5022C11.683 20.4762 11.7136 20.4596 11.747 20.4559C11.7803 20.4522 11.8138 20.4616 11.8405 20.4822C11.8535 20.4933 11.8643 20.5069 11.8722 20.5222C11.88 20.5375 11.8849 20.5543 11.8864 20.5715C11.8879 20.5887 11.886 20.606 11.8809 20.6225C11.8758 20.639 11.8675 20.6543 11.8566 20.6676C11.8456 20.6808 11.8322 20.6917 11.8171 20.6997C11.802 20.7077 11.7855 20.7126 11.7686 20.7141C11.7516 20.7156 11.7345 20.7138 11.7182 20.7086C11.702 20.7034 11.6869 20.695 11.6739 20.6839Z" fill="url(#paint63_linear_256_2115)"/>
<path d="M11.3032 21.0524C11.2819 21.027 11.2701 20.9948 11.2701 20.9615C11.2701 20.9282 11.2819 20.896 11.3032 20.8706C11.3278 20.8483 11.3597 20.8359 11.3927 20.8359C11.4258 20.8359 11.4577 20.8483 11.4823 20.8706C11.5048 20.896 11.5165 20.9293 11.5148 20.9634C11.5131 20.9974 11.4982 21.0294 11.4734 21.0524C11.4502 21.0741 11.4198 21.0862 11.3883 21.0862C11.3567 21.0862 11.3263 21.0741 11.3032 21.0524Z" fill="url(#paint64_linear_256_2115)"/>
<path d="M10.878 21.3563C10.8684 21.342 10.8618 21.3258 10.8585 21.3088C10.8552 21.2918 10.8553 21.2743 10.8588 21.2574C10.8623 21.2404 10.8691 21.2243 10.8789 21.2101C10.8887 21.1959 10.9012 21.1838 10.9156 21.1746C10.9298 21.1634 10.9461 21.1552 10.9635 21.1507C10.9809 21.1461 10.9991 21.1453 11.0168 21.1482C11.0346 21.151 11.0516 21.1576 11.0667 21.1675C11.0818 21.1773 11.0948 21.1902 11.1048 21.2054C11.1148 21.2205 11.1216 21.2376 11.1248 21.2555C11.128 21.2735 11.1275 21.2919 11.1234 21.3097C11.1193 21.3274 11.1116 21.3441 11.1008 21.3587C11.09 21.3733 11.0764 21.3855 11.0607 21.3945C11.0315 21.4138 10.9959 21.4207 10.9616 21.4135C10.9274 21.4064 10.8974 21.3858 10.878 21.3563Z" fill="url(#paint65_linear_256_2115)"/>
<path d="M10.4215 21.5995C10.4065 21.5668 10.4047 21.5296 10.4165 21.4957C10.4282 21.4617 10.4525 21.4338 10.4842 21.4177C10.4999 21.4097 10.517 21.4049 10.5346 21.4036C10.5522 21.4024 10.5698 21.4047 10.5865 21.4105C10.6032 21.4162 10.6186 21.4253 10.6318 21.4372C10.6449 21.449 10.6557 21.4634 10.6633 21.4795C10.672 21.4954 10.6772 21.513 10.6788 21.5311C10.6803 21.5492 10.678 21.5675 10.6721 21.5846C10.6662 21.6018 10.6567 21.6175 10.6444 21.6307C10.6321 21.6439 10.6172 21.6543 10.6006 21.6612C10.5851 21.6704 10.5679 21.6761 10.55 21.6779C10.5322 21.6797 10.5141 21.6776 10.4972 21.6717C10.4802 21.6659 10.4646 21.6564 10.4516 21.6439C10.4385 21.6315 10.4283 21.6163 10.4215 21.5995Z" fill="url(#paint66_linear_256_2115)"/>
<path d="M9.92894 21.765C9.92011 21.7322 9.92437 21.6972 9.94081 21.6676C9.95724 21.638 9.98452 21.6162 10.0167 21.6069C10.0485 21.6007 10.0813 21.6067 10.109 21.6237C10.1367 21.6406 10.1571 21.6674 10.1665 21.6988C10.1758 21.7302 10.1734 21.764 10.1596 21.7936C10.1459 21.8233 10.1218 21.8468 10.092 21.8595C10.0751 21.8642 10.0576 21.8654 10.0403 21.8632C10.023 21.861 10.0063 21.8553 9.99112 21.8465C9.97597 21.8378 9.96269 21.826 9.95202 21.812C9.94135 21.798 9.93351 21.782 9.92894 21.765Z" fill="url(#paint67_linear_256_2115)"/>
<path d="M9.41917 21.8648C9.41539 21.8303 9.42453 21.7956 9.44478 21.7677C9.46502 21.7398 9.49489 21.7206 9.52844 21.7139C9.56249 21.7096 9.59686 21.7187 9.62451 21.7394C9.65216 21.76 9.67098 21.7905 9.67713 21.8248C9.6799 21.842 9.6792 21.8597 9.67507 21.8766C9.67093 21.8936 9.66344 21.9095 9.65306 21.9234C9.64267 21.9374 9.62961 21.949 9.61465 21.9577C9.5997 21.9663 9.58317 21.9718 9.56606 21.9738C9.54928 21.9772 9.53199 21.977 9.51528 21.9732C9.49858 21.9695 9.48282 21.9623 9.46902 21.952C9.45521 21.9418 9.44365 21.9287 9.43507 21.9137C9.42649 21.8987 9.42107 21.882 9.41917 21.8648Z" fill="url(#paint68_linear_256_2115)"/>
<path d="M8.90685 21.8794C8.91059 21.8471 8.92588 21.8173 8.94982 21.7957C8.97376 21.7741 9.00469 21.7622 9.03672 21.7622C9.06876 21.7622 9.09968 21.7741 9.12362 21.7957C9.14756 21.8173 9.16285 21.8471 9.1666 21.8794C9.16708 21.9152 9.15363 21.9498 9.12915 21.9757C9.10467 22.0015 9.07115 22.0165 9.03583 22.0175C9.01842 22.017 9.00127 22.0131 8.98536 22.0059C8.96946 21.9987 8.95511 21.9884 8.94313 21.9755C8.93115 21.9627 8.92178 21.9476 8.91556 21.9311C8.90933 21.9146 8.90637 21.897 8.90685 21.8794Z" fill="url(#paint69_linear_256_2115)"/>
<path d="M8.38513 21.8249C8.38771 21.8078 8.39359 21.7914 8.40242 21.7767C8.41124 21.7619 8.42285 21.749 8.43657 21.7388C8.4503 21.7286 8.46587 21.7213 8.4824 21.7171C8.49893 21.713 8.51609 21.7123 8.53291 21.7149C8.54973 21.7175 8.56588 21.7235 8.58043 21.7324C8.59498 21.7414 8.60765 21.7532 8.61771 21.7671C8.62777 21.781 8.63503 21.7968 8.63908 21.8136C8.64313 21.8304 8.64388 21.8478 8.64129 21.8648C8.63939 21.8821 8.63397 21.8987 8.62539 21.9138C8.61681 21.9288 8.60525 21.9418 8.59144 21.9521C8.57764 21.9623 8.56188 21.9696 8.54518 21.9733C8.52847 21.9771 8.51118 21.9773 8.4944 21.9739C8.47745 21.9717 8.46111 21.966 8.44637 21.9573C8.43162 21.9485 8.41876 21.9368 8.40856 21.9229C8.39836 21.909 8.39103 21.8932 8.387 21.8763C8.38298 21.8595 8.38234 21.842 8.38513 21.8249Z" fill="url(#paint70_linear_256_2115)"/>
<path d="M7.88432 21.6904C7.89573 21.6583 7.91874 21.6318 7.94867 21.6163C7.9786 21.6008 8.01323 21.5974 8.04554 21.6068C8.07774 21.6161 8.10502 21.6379 8.12145 21.6675C8.13788 21.6971 8.14215 21.7321 8.13332 21.7649C8.12875 21.782 8.12091 21.798 8.11024 21.812C8.09957 21.826 8.08629 21.8377 8.07114 21.8465C8.056 21.8552 8.0393 21.8609 8.02199 21.8631C8.00469 21.8653 7.98712 21.8641 7.9703 21.8594C7.95358 21.8542 7.93805 21.8457 7.92462 21.8344C7.91119 21.823 7.90014 21.8091 7.89213 21.7933C7.88411 21.7775 7.87929 21.7603 7.87795 21.7426C7.87661 21.725 7.87877 21.7072 7.88432 21.6904Z" fill="url(#paint71_linear_256_2115)"/>
<path d="M7.40661 21.4852C7.41402 21.4696 7.42436 21.4558 7.43706 21.4443C7.44976 21.4329 7.46456 21.424 7.48061 21.4184C7.49666 21.4127 7.51365 21.4103 7.53062 21.4114C7.54758 21.4124 7.56418 21.4168 7.57947 21.4243C7.59476 21.4318 7.60844 21.4423 7.61974 21.4552C7.63103 21.4681 7.63971 21.4831 7.64528 21.4994C7.65085 21.5156 7.65321 21.5329 7.65221 21.5501C7.65122 21.5673 7.64689 21.5841 7.63948 21.5996C7.63294 21.6167 7.6228 21.6321 7.60978 21.6447C7.59675 21.6574 7.58116 21.667 7.5641 21.6729C7.54703 21.6787 7.5289 21.6808 7.51097 21.6788C7.49305 21.6768 7.47577 21.6709 7.46035 21.6614C7.44527 21.6536 7.4319 21.6428 7.421 21.6296C7.41011 21.6164 7.40192 21.6012 7.39691 21.5848C7.39191 21.5683 7.39019 21.5511 7.39185 21.534C7.39351 21.5169 7.39853 21.5003 7.40661 21.4852Z" fill="url(#paint72_linear_256_2115)"/>
<path d="M6.96431 21.2102C6.98384 21.1819 7.01365 21.1625 7.04722 21.1564C7.0808 21.1502 7.1154 21.1578 7.14345 21.1775C7.15806 21.1866 7.17072 21.1986 7.18066 21.2127C7.1906 21.2269 7.19762 21.2429 7.20131 21.2599C7.20499 21.2769 7.20525 21.2944 7.20208 21.3115C7.19891 21.3286 7.19237 21.3448 7.18286 21.3593C7.16382 21.388 7.13471 21.4084 7.10144 21.4161C7.06817 21.4239 7.03323 21.4185 7.00372 21.4011C6.98823 21.3917 6.97482 21.3791 6.96434 21.3642C6.95386 21.3493 6.94654 21.3323 6.94284 21.3144C6.93914 21.2965 6.93914 21.278 6.94283 21.2601C6.94653 21.2421 6.95384 21.2252 6.96431 21.2102Z" fill="url(#paint73_linear_256_2115)"/>
<path d="M6.56679 20.8746C6.59143 20.8522 6.62331 20.8398 6.65636 20.8398C6.68941 20.8398 6.7213 20.8522 6.74593 20.8746C6.76725 20.8999 6.77897 20.9321 6.77897 20.9654C6.77897 20.9987 6.76725 21.031 6.74593 21.0563C6.73425 21.0684 6.72032 21.078 6.70494 21.0845C6.68956 21.0911 6.67304 21.0945 6.65636 21.0945C6.63968 21.0945 6.62316 21.0911 6.60779 21.0845C6.59241 21.078 6.57847 21.0684 6.56679 21.0563C6.54317 21.0321 6.52991 20.9995 6.52991 20.9654C6.52991 20.9314 6.54317 20.8987 6.56679 20.8746Z" fill="url(#paint74_linear_256_2115)"/>
<path d="M6.21955 20.4822C6.24624 20.4616 6.27971 20.4522 6.31305 20.4559C6.34639 20.4596 6.37705 20.4762 6.39868 20.5022C6.42028 20.5282 6.43105 20.5617 6.42871 20.5956C6.42637 20.6295 6.4111 20.6612 6.38615 20.6839C6.35942 20.7073 6.32472 20.719 6.28953 20.7166C6.25434 20.7143 6.22148 20.6979 6.19805 20.6712C6.18699 20.6574 6.17877 20.6416 6.17385 20.6246C6.16894 20.6075 6.16744 20.5897 6.16944 20.5721C6.17145 20.5545 6.17691 20.5374 6.18552 20.522C6.19413 20.5065 6.2057 20.493 6.21955 20.4822Z" fill="url(#paint75_linear_256_2115)"/>
<path d="M5.9332 20.0457C5.96241 20.0274 5.99761 20.0216 6.03103 20.0296C6.06446 20.0377 6.09338 20.0588 6.11144 20.0884C6.12949 20.1181 6.1352 20.1538 6.1273 20.1877C6.11941 20.2216 6.09856 20.251 6.06934 20.2693C6.05487 20.2783 6.03878 20.2844 6.022 20.2872C6.00521 20.29 5.98805 20.2893 5.9715 20.2854C5.95495 20.2814 5.93933 20.2742 5.92553 20.2641C5.91174 20.254 5.90004 20.2412 5.8911 20.2266C5.88216 20.2119 5.87616 20.1956 5.87344 20.1785C5.87071 20.1615 5.87132 20.1441 5.87523 20.1273C5.87914 20.1105 5.88627 20.0947 5.89622 20.0807C5.90616 20.0667 5.91873 20.0548 5.9332 20.0457Z" fill="url(#paint76_linear_256_2115)"/>
<path d="M5.71556 19.5675C5.74692 19.555 5.78189 19.5557 5.81279 19.5693C5.84369 19.5829 5.86799 19.6084 5.88037 19.6402C5.88725 19.6555 5.8911 19.672 5.89167 19.6888C5.89224 19.7055 5.88954 19.7223 5.88371 19.738C5.87788 19.7537 5.86904 19.7681 5.85771 19.7803C5.84638 19.7925 5.83277 19.8024 5.81767 19.8092C5.80172 19.8172 5.78437 19.8218 5.76664 19.8228C5.74891 19.8237 5.73116 19.8211 5.71445 19.815C5.69774 19.8089 5.68241 19.7995 5.66937 19.7872C5.65633 19.775 5.64584 19.7602 5.63854 19.7438C5.63218 19.7271 5.62913 19.7093 5.62956 19.6914C5.62999 19.6735 5.63389 19.6559 5.64104 19.6395C5.6482 19.6231 5.65846 19.6083 5.67125 19.596C5.68403 19.5836 5.69909 19.574 5.71556 19.5675Z" fill="url(#paint77_linear_256_2115)"/>
<path d="M5.56324 19.0644C5.59563 19.0588 5.62891 19.0657 5.65647 19.0839C5.68402 19.102 5.70383 19.1301 5.71196 19.1623C5.72009 19.1946 5.71594 19.2289 5.70033 19.2582C5.68472 19.2875 5.65881 19.3098 5.62773 19.3206C5.61126 19.3253 5.59404 19.3265 5.5771 19.3242C5.56015 19.3219 5.54384 19.3162 5.52912 19.3074C5.51441 19.2985 5.5016 19.2868 5.49146 19.2728C5.48131 19.2589 5.47405 19.243 5.47009 19.2261C5.46552 19.2093 5.46431 19.1917 5.46654 19.1744C5.46877 19.1571 5.47439 19.1404 5.48307 19.1253C5.49175 19.1103 5.50331 19.0971 5.51708 19.0867C5.53085 19.0762 5.54655 19.0686 5.56324 19.0644Z" fill="url(#paint78_linear_256_2115)"/>
<path d="M5.49041 18.5371C5.5223 18.5375 5.55294 18.5498 5.57656 18.5715C5.60019 18.5932 5.61517 18.623 5.61869 18.6551C5.62221 18.6873 5.61403 18.7196 5.59568 18.7461C5.57734 18.7725 5.55009 18.7913 5.51907 18.7988C5.48423 18.803 5.44917 18.7931 5.42138 18.7714C5.3936 18.7496 5.3753 18.7177 5.37039 18.6825C5.36867 18.6649 5.37043 18.6472 5.37556 18.6303C5.38069 18.6134 5.38909 18.5977 5.40027 18.5842C5.41145 18.5707 5.42518 18.5595 5.44066 18.5514C5.45614 18.5433 5.47305 18.5385 5.49041 18.5371Z" fill="url(#paint79_linear_256_2115)"/>
<path d="M5.49074 18.0194C5.52479 18.0212 5.55677 18.0366 5.57986 18.062C5.60295 18.0875 5.61533 18.1211 5.61434 18.1557C5.61161 18.1902 5.59602 18.2224 5.57073 18.2457C5.54544 18.269 5.51235 18.2816 5.4782 18.2811C5.46102 18.2811 5.44402 18.2776 5.42828 18.2706C5.41253 18.2636 5.3984 18.2534 5.38677 18.2406C5.37514 18.2277 5.36627 18.2126 5.36073 18.1961C5.35519 18.1796 5.3531 18.1621 5.35459 18.1448C5.35504 18.1273 5.35895 18.1102 5.36611 18.0943C5.37327 18.0785 5.38352 18.0643 5.39625 18.0525C5.40897 18.0408 5.4239 18.0318 5.44014 18.0261C5.45638 18.0204 5.4736 18.0181 5.49074 18.0194Z" fill="url(#paint80_linear_256_2115)"/>
<path d="M5.56511 17.4974C5.59789 17.5052 5.62658 17.5253 5.64549 17.5535C5.6644 17.5818 5.67216 17.6163 5.66722 17.6501C5.66151 17.6839 5.6429 17.7141 5.61542 17.7342C5.58794 17.7543 5.55378 17.7625 5.52033 17.7573C5.50321 17.7544 5.48683 17.7481 5.47213 17.7388C5.45743 17.7295 5.4447 17.7173 5.4347 17.7029C5.4247 17.6885 5.41762 17.6723 5.41386 17.6551C5.41011 17.6379 5.40977 17.6201 5.41285 17.6028C5.41537 17.5854 5.42142 17.5688 5.4306 17.5539C5.43979 17.539 5.45192 17.5262 5.46622 17.5163C5.48053 17.5064 5.4967 17.4996 5.51372 17.4963C5.53074 17.4931 5.54824 17.4934 5.56511 17.4974Z" fill="url(#paint81_linear_256_2115)"/>
<path d="M5.71515 16.9942C5.7472 17.0062 5.77338 17.0303 5.78811 17.0616C5.80284 17.0928 5.80494 17.1286 5.79397 17.1614C5.78116 17.1932 5.7573 17.2191 5.72691 17.2342C5.69653 17.2492 5.66174 17.2525 5.62916 17.2432C5.61254 17.2384 5.59711 17.2301 5.58386 17.2188C5.57061 17.2075 5.55984 17.1935 5.55224 17.1778C5.54465 17.162 5.54039 17.1448 5.53976 17.1273C5.53912 17.1098 5.54212 17.0923 5.54855 17.076C5.55398 17.0594 5.56264 17.0441 5.57402 17.0309C5.5854 17.0177 5.59927 17.007 5.61481 16.9994C5.63034 16.9918 5.64723 16.9874 5.66446 16.9865C5.6817 16.9856 5.69893 16.9882 5.71515 16.9942Z" fill="url(#paint82_linear_256_2115)"/>
<path d="M5.9326 16.5183C5.96305 16.5356 5.98579 16.5641 5.99613 16.5979C6.00646 16.6318 6.0036 16.6683 5.98813 16.7001C5.97245 16.7311 5.94524 16.7546 5.91249 16.7654C5.87973 16.7761 5.84411 16.7732 5.81347 16.7573C5.78283 16.7414 5.75967 16.7138 5.74908 16.6806C5.7385 16.6473 5.74136 16.6112 5.75704 16.5801C5.76367 16.5636 5.7737 16.5487 5.78645 16.5364C5.79921 16.5241 5.81441 16.5147 5.83103 16.5089C5.84764 16.503 5.8653 16.5008 5.88281 16.5025C5.90033 16.5041 5.9173 16.5095 5.9326 16.5183Z" fill="url(#paint83_linear_256_2115)"/>
<path d="M6.21981 16.0803C6.24655 16.1012 6.26427 16.1318 6.26928 16.1656C6.27429 16.1995 6.26619 16.234 6.24668 16.262C6.22632 16.2893 6.19644 16.3077 6.16315 16.3135C6.12986 16.3192 6.09566 16.3119 6.06754 16.2929C6.05301 16.2836 6.04058 16.2714 6.03104 16.2569C6.02151 16.2424 6.0151 16.2261 6.01222 16.2089C6.00935 16.1918 6.01008 16.1742 6.01436 16.1574C6.01865 16.1405 6.02639 16.1248 6.03709 16.1112C6.04691 16.0967 6.05949 16.0845 6.07407 16.0751C6.08866 16.0657 6.10496 16.0593 6.122 16.0565C6.13904 16.0536 6.15648 16.0542 6.17329 16.0583C6.19009 16.0624 6.20591 16.0699 6.21981 16.0803Z" fill="url(#paint84_linear_256_2115)"/>
<path d="M6.5668 15.6878C6.58847 15.713 6.60041 15.7453 6.60041 15.7787C6.60041 15.8121 6.58847 15.8444 6.5668 15.8695C6.54275 15.8931 6.51064 15.9062 6.47723 15.9062C6.44382 15.9062 6.41171 15.8931 6.38766 15.8695C6.36486 15.8449 6.35217 15.8124 6.35217 15.7787C6.35217 15.7449 6.36486 15.7124 6.38766 15.6878C6.41148 15.6638 6.44368 15.6504 6.47723 15.6504C6.51078 15.6504 6.54298 15.6638 6.5668 15.6878Z" fill="url(#paint85_linear_256_2115)"/>
<path d="M6.96569 15.3518C6.98518 15.3795 6.99361 15.4136 6.98929 15.4473C6.98497 15.481 6.96821 15.5118 6.94241 15.5335C6.91486 15.5525 6.88143 15.5606 6.84842 15.5562C6.81541 15.5518 6.78512 15.5354 6.76327 15.5099C6.75249 15.4966 6.7445 15.4813 6.73981 15.4648C6.73513 15.4483 6.73383 15.4309 6.73602 15.4139C6.7382 15.3969 6.74381 15.3805 6.75251 15.3657C6.7612 15.351 6.77279 15.3382 6.78656 15.3282C6.81352 15.3075 6.84739 15.2984 6.88088 15.3029C6.91438 15.3073 6.94483 15.3248 6.96569 15.3518Z" fill="url(#paint86_linear_256_2115)"/>
<path d="M7.40748 15.0842C7.42431 15.1151 7.42848 15.1515 7.4191 15.1855C7.40971 15.2195 7.38752 15.2484 7.35732 15.2659C7.34268 15.2751 7.32637 15.2812 7.30937 15.2839C7.29237 15.2865 7.27501 15.2857 7.25832 15.2815C7.24162 15.2773 7.22593 15.2697 7.21217 15.2592C7.19841 15.2487 7.18685 15.2356 7.17819 15.2205C7.16105 15.19 7.15633 15.154 7.16503 15.12C7.17373 15.0861 7.19517 15.0569 7.22476 15.0388C7.23954 15.029 7.25613 15.0224 7.27351 15.0194C7.29089 15.0164 7.30869 15.0171 7.32582 15.0213C7.34294 15.0256 7.35902 15.0334 7.37307 15.0442C7.38711 15.055 7.39883 15.0686 7.40748 15.0842Z" fill="url(#paint87_linear_256_2115)"/>
<path d="M7.88463 14.8718C7.89633 14.9044 7.89502 14.9403 7.88096 14.9719C7.86689 15.0035 7.84121 15.0282 7.80939 15.0408C7.77677 15.0513 7.74147 15.0491 7.71035 15.0347C7.67923 15.0203 7.65452 14.9946 7.64101 14.9627C7.63445 14.9466 7.63121 14.9294 7.63149 14.912C7.63176 14.8947 7.63553 14.8775 7.64258 14.8617C7.64963 14.8458 7.65981 14.8316 7.67247 14.8199C7.68514 14.8083 7.70004 14.7993 7.71624 14.7937C7.73231 14.7871 7.74954 14.7838 7.76688 14.7842C7.78422 14.7846 7.8013 14.7886 7.81707 14.7959C7.83284 14.8032 7.84697 14.8137 7.85859 14.8268C7.87021 14.8398 7.87907 14.8552 7.88463 14.8718Z" fill="url(#paint88_linear_256_2115)"/>
<path d="M8.38558 14.7389C8.39114 14.7725 8.38412 14.807 8.36588 14.8356C8.34765 14.8642 8.31953 14.8848 8.28705 14.8934C8.25409 14.9006 8.21965 14.8946 8.19095 14.8766C8.16224 14.8587 8.14148 14.8302 8.13299 14.7971C8.12493 14.7624 8.13078 14.7258 8.14925 14.6955C8.16773 14.6652 8.19732 14.6435 8.23152 14.6353C8.24839 14.6311 8.26594 14.6304 8.28306 14.6334C8.30019 14.6364 8.31651 14.643 8.331 14.6528C8.34548 14.6625 8.35782 14.6752 8.36721 14.69C8.37661 14.7049 8.38286 14.7215 8.38558 14.7389Z" fill="url(#paint89_linear_256_2115)"/>
<path d="M8.90768 14.6826C8.90918 14.7169 8.89752 14.7505 8.87513 14.7763C8.85275 14.802 8.82139 14.818 8.78766 14.8208C8.75367 14.8215 8.72061 14.8095 8.69483 14.787C8.66904 14.7645 8.65234 14.7332 8.64793 14.699C8.64593 14.6817 8.64753 14.6641 8.65261 14.6474C8.65769 14.6307 8.66615 14.6153 8.67745 14.6021C8.68875 14.5889 8.70264 14.5783 8.71822 14.5709C8.73381 14.5635 8.75074 14.5595 8.76795 14.5591C8.78518 14.5576 8.80253 14.5596 8.81897 14.5651C8.83541 14.5705 8.8506 14.5793 8.86363 14.5908C8.87667 14.6023 8.88728 14.6164 8.89485 14.6322C8.90242 14.648 8.90678 14.6651 8.90768 14.6826Z" fill="url(#paint90_linear_256_2115)"/>
<path d="M9.41885 14.6989C9.41525 14.7331 9.39903 14.7646 9.37345 14.7872C9.34787 14.8098 9.31481 14.8217 9.28092 14.8206C9.24718 14.8178 9.21583 14.8019 9.19344 14.7761C9.17106 14.7504 9.15939 14.7168 9.1609 14.6825C9.1618 14.6651 9.16611 14.6481 9.17357 14.6325C9.18102 14.6169 9.19148 14.6029 9.20432 14.5914C9.21716 14.5799 9.23213 14.5711 9.24836 14.5655C9.26458 14.5599 9.28174 14.5577 9.29883 14.5589C9.31613 14.559 9.33321 14.5629 9.34893 14.5702C9.36465 14.5775 9.37865 14.5881 9.39001 14.6014C9.40136 14.6146 9.40981 14.6302 9.41478 14.647C9.41975 14.6638 9.42114 14.6815 9.41885 14.6989Z" fill="url(#paint91_linear_256_2115)"/>
<path d="M9.92914 14.7968C9.92065 14.8299 9.89989 14.8584 9.87119 14.8764C9.84248 14.8943 9.80805 14.9003 9.77508 14.8931C9.74239 14.8849 9.71401 14.8643 9.69571 14.8356C9.67741 14.807 9.67056 14.7723 9.67656 14.7386C9.67901 14.7211 9.6851 14.7043 9.69442 14.6893C9.70375 14.6743 9.71609 14.6615 9.73065 14.6517C9.7452 14.6419 9.76164 14.6354 9.77887 14.6325C9.7961 14.6296 9.81374 14.6305 9.83061 14.635C9.86482 14.6433 9.89441 14.6649 9.91288 14.6952C9.93136 14.7256 9.93721 14.7621 9.92914 14.7968Z" fill="url(#paint92_linear_256_2115)"/>
<path d="M10.4209 14.9623C10.4078 14.9941 10.3834 15.0197 10.3526 15.0341C10.3217 15.0486 10.2867 15.0509 10.2543 15.0405C10.2228 15.0275 10.1972 15.0028 10.1829 14.9714C10.1686 14.94 10.1666 14.9043 10.1773 14.8714C10.189 14.8394 10.2127 14.8133 10.2431 14.7987C10.2736 14.7841 10.3085 14.7821 10.3403 14.7933C10.3572 14.7981 10.3728 14.8065 10.3862 14.8179C10.3996 14.8293 10.4105 14.8434 10.4181 14.8594C10.4257 14.8754 10.4299 14.8928 10.4304 14.9105C10.4309 14.9283 10.4277 14.9459 10.4209 14.9623Z" fill="url(#paint93_linear_256_2115)"/>
<path d="M10.8774 15.2079C10.8687 15.223 10.8571 15.2362 10.8434 15.2466C10.8296 15.2571 10.8139 15.2647 10.7972 15.2689C10.7805 15.2732 10.7632 15.274 10.7462 15.2713C10.7292 15.2686 10.7129 15.2625 10.6982 15.2533C10.668 15.2358 10.6458 15.2069 10.6364 15.1729C10.6271 15.1389 10.6312 15.1025 10.6481 15.0716C10.6559 15.0557 10.6669 15.0417 10.6804 15.0303C10.6938 15.019 10.7095 15.0105 10.7263 15.0056C10.7431 15.0006 10.7607 14.9993 10.7781 15.0016C10.7955 15.0039 10.8122 15.0098 10.8272 15.0189C10.8431 15.0276 10.8571 15.0395 10.8683 15.0538C10.8796 15.0682 10.8878 15.0847 10.8925 15.1024C10.8972 15.1201 10.8983 15.1386 10.8957 15.1567C10.8931 15.1749 10.8868 15.1923 10.8774 15.2079Z" fill="url(#paint94_linear_256_2115)"/>
<path d="M11.3037 15.5115C11.2819 15.5369 11.2516 15.5534 11.2186 15.5578C11.1856 15.5621 11.1521 15.554 11.1246 15.5351C11.1006 15.5126 11.0859 15.4817 11.0832 15.4487C11.0805 15.4157 11.0901 15.3828 11.1101 15.3566C11.1301 15.3304 11.159 15.3128 11.1912 15.3071C11.2234 15.3015 11.2565 15.3082 11.284 15.3261C11.2978 15.3366 11.3094 15.3498 11.3179 15.365C11.3265 15.3802 11.3319 15.397 11.3337 15.4144C11.3356 15.4318 11.3338 15.4494 11.3287 15.4661C11.3235 15.4828 11.315 15.4983 11.3037 15.5115Z" fill="url(#paint95_linear_256_2115)"/>
<path d="M11.6749 15.8783C11.6509 15.9019 11.6187 15.915 11.5853 15.915C11.5519 15.915 11.5198 15.9019 11.4958 15.8783C11.4737 15.8533 11.4615 15.821 11.4615 15.7875C11.4615 15.7539 11.4737 15.7216 11.4958 15.6966C11.5196 15.6726 11.5518 15.6592 11.5853 15.6592C11.6189 15.6592 11.6511 15.6726 11.6749 15.6966C11.6977 15.7212 11.7104 15.7537 11.7104 15.7875C11.7104 15.8212 11.6977 15.8537 11.6749 15.8783Z" fill="url(#paint96_linear_256_2115)"/>
<path d="M11.9929 16.2926C11.9646 16.3111 11.9305 16.3182 11.8974 16.3125C11.8642 16.3068 11.8343 16.2886 11.8137 16.2617C11.7938 16.2332 11.7858 16.1979 11.7915 16.1635C11.7972 16.1291 11.8161 16.0983 11.8442 16.0781C11.8722 16.0579 11.907 16.0497 11.9409 16.0555C11.9749 16.0613 12.0051 16.0806 12.0251 16.109C12.0357 16.1229 12.0434 16.1389 12.0476 16.1559C12.0517 16.173 12.0523 16.1908 12.0493 16.2081C12.0462 16.2254 12.0396 16.2418 12.0299 16.2564C12.0202 16.2709 12.0076 16.2833 11.9929 16.2926Z" fill="url(#paint97_linear_256_2115)"/>
<path d="M12.245 16.7524C12.2297 16.7614 12.2127 16.767 12.1951 16.7689C12.1775 16.7708 12.1597 16.769 12.1428 16.7635C12.1259 16.758 12.1104 16.749 12.0971 16.7371C12.0839 16.7252 12.0733 16.7106 12.0659 16.6943C12.0503 16.6627 12.0471 16.6263 12.0571 16.5925C12.0671 16.5587 12.0895 16.5301 12.1196 16.5125C12.1348 16.5032 12.1517 16.4973 12.1693 16.4951C12.1869 16.4929 12.2048 16.4945 12.2217 16.4998C12.2386 16.5052 12.2542 16.5141 12.2675 16.526C12.2808 16.5379 12.2915 16.5525 12.2988 16.5689C12.3075 16.5844 12.313 16.6016 12.315 16.6193C12.317 16.6371 12.3155 16.6551 12.3105 16.6723C12.3055 16.6894 12.2971 16.7053 12.2858 16.7191C12.2746 16.7329 12.2607 16.7442 12.245 16.7524Z" fill="url(#paint98_linear_256_2115)"/>
<path d="M12.4341 17.2432C12.4015 17.2525 12.3667 17.2492 12.3363 17.2342C12.3059 17.2191 12.2821 17.1932 12.2693 17.1614C12.2583 17.1286 12.2604 17.0928 12.2751 17.0616C12.2899 17.0303 12.316 17.0062 12.3481 16.9942C12.3643 16.9882 12.3815 16.9856 12.3988 16.9865C12.416 16.9874 12.4329 16.9918 12.4484 16.9994C12.464 17.007 12.4778 17.0177 12.4892 17.0309C12.5006 17.0441 12.5093 17.0594 12.5147 17.076C12.5211 17.0923 12.5241 17.1098 12.5235 17.1273C12.5228 17.1448 12.5186 17.162 12.511 17.1778C12.5034 17.1935 12.4926 17.2075 12.4794 17.2188C12.4661 17.2301 12.4507 17.2384 12.4341 17.2432Z" fill="url(#paint99_linear_256_2115)"/>
<path d="M12.5431 17.7573C12.5094 17.7626 12.475 17.7543 12.4472 17.7343C12.4195 17.7143 12.4005 17.6841 12.3944 17.6501C12.3899 17.6161 12.3981 17.5816 12.4173 17.5534C12.4365 17.5252 12.4654 17.5052 12.4983 17.4974C12.5151 17.4934 12.5326 17.4931 12.5497 17.4963C12.5667 17.4996 12.5829 17.5064 12.5972 17.5163C12.6115 17.5262 12.6236 17.539 12.6328 17.5539C12.642 17.5688 12.648 17.5854 12.6505 17.6028C12.6563 17.6377 12.6482 17.6735 12.6281 17.7024C12.608 17.7314 12.5774 17.7511 12.5431 17.7573Z" fill="url(#paint100_linear_256_2115)"/>
<path d="M12.5841 18.2811C12.5499 18.2816 12.5168 18.269 12.4915 18.2457C12.4663 18.2224 12.4507 18.1902 12.4479 18.1557C12.4469 18.1211 12.4593 18.0875 12.4824 18.062C12.5055 18.0366 12.5375 18.0212 12.5715 18.0194C12.5887 18.0181 12.6059 18.0204 12.6221 18.0261C12.6384 18.0318 12.6533 18.0408 12.666 18.0525C12.6788 18.0643 12.689 18.0785 12.6962 18.0943C12.7033 18.1102 12.7072 18.1273 12.7077 18.1448C12.7092 18.1621 12.7071 18.1796 12.7015 18.1961C12.696 18.2126 12.6871 18.2277 12.6755 18.2406C12.6639 18.2534 12.6497 18.2636 12.634 18.2706C12.6183 18.2776 12.6013 18.2811 12.5841 18.2811Z" fill="url(#paint101_linear_256_2115)"/>
</g>
</g>
<path d="M9.03034 13.9136C8.18003 13.9136 7.34881 14.1694 6.6418 14.6486C5.93479 15.1279 5.38374 15.8091 5.05834 16.6061C4.73294 17.4031 4.6478 18.2801 4.81369 19.1261C4.97958 19.9722 5.38904 20.7494 5.99031 21.3594C6.59157 21.9694 7.35762 22.3848 8.1916 22.5531C9.02557 22.7214 9.89001 22.635 10.6756 22.3049C11.4612 21.9747 12.1326 21.4157 12.605 20.6984C13.0775 19.9812 13.3296 19.1379 13.3296 18.2752C13.3296 17.1184 12.8766 16.009 12.0704 15.1911C11.2641 14.3731 10.1706 13.9136 9.03034 13.9136ZM9.03034 22.3661C8.23388 22.3661 7.45531 22.1265 6.79308 21.6776C6.13084 21.2287 5.6147 20.5906 5.3099 19.8441C5.00511 19.0976 4.92536 18.2761 5.08074 17.4837C5.23613 16.6912 5.61966 15.9632 6.18284 15.3919C6.74602 14.8205 7.46356 14.4314 8.24472 14.2738C9.02588 14.1161 9.83557 14.197 10.5714 14.5062C11.3072 14.8155 11.9362 15.3391 12.3787 16.0109C12.8211 16.6828 13.0573 17.4727 13.0573 18.2807C13.0573 19.3642 12.633 20.4033 11.8778 21.1695C11.1226 21.9357 10.0984 22.3661 9.03034 22.3661Z" fill="url(#paint102_linear_256_2115)"/>
<path style="mix-blend-mode:screen" d="M12.406 13.1227C14.2511 14.0968 15.3886 15.587 14.9444 16.4521C14.5001 17.3172 12.6443 17.2281 10.7992 16.254C8.95408 15.2799 7.81657 13.7878 8.26083 12.9228C8.70508 12.0577 10.5609 12.1468 12.406 13.1227Z" fill="url(#paint103_radial_256_2115)"/>
<path style="mix-blend-mode:screen" d="M12.7628 15.293C12.6434 15.5245 12.4591 15.7149 12.2332 15.8403C12.0072 15.9656 11.7497 16.0203 11.4932 15.9974C11.2366 15.9745 10.9925 15.8751 10.7916 15.7116C10.5907 15.5482 10.442 15.3281 10.3642 15.079C10.2865 14.8299 10.2831 14.5631 10.3546 14.3121C10.4262 14.0611 10.5693 13.8372 10.7661 13.6686C10.9628 13.5001 11.2044 13.3944 11.4603 13.3649C11.7162 13.3354 11.9749 13.3835 12.2039 13.503C12.5119 13.6653 12.7438 13.945 12.8486 14.2807C12.9534 14.6163 12.9225 14.9804 12.7628 15.293Z" fill="url(#paint104_radial_256_2115)"/>
<path style="mix-blend-mode:screen" d="M6.74374 20.6159C7.73615 21.2393 8.27177 22.1843 7.94037 22.7259C7.60897 23.2675 6.53773 23.2002 5.54532 22.5751C4.55291 21.9499 4.01729 21.0049 4.34869 20.4633C4.68009 19.9217 5.75312 19.9908 6.74374 20.6159Z" fill="url(#paint105_radial_256_2115)"/>
</g>
<path d="M10.7072 19.0623H9.89031C9.87257 19.0618 9.85571 19.0543 9.84333 19.0414C9.83095 19.0285 9.82402 19.0112 9.82403 18.9932V16.0182C9.82427 16.0092 9.82273 16.0003 9.81951 15.9919C9.81628 15.9836 9.81144 15.9759 9.80526 15.9695C9.79908 15.9631 9.79169 15.9579 9.78353 15.9544C9.77537 15.951 9.76661 15.9492 9.75775 15.9492H9.44426C9.4337 15.9463 9.42258 15.9463 9.41202 15.9492C9.11459 16.117 8.80498 16.2616 8.48588 16.3817C8.21255 16.4864 7.92494 16.5477 7.6332 16.5634C7.61657 16.5648 7.60106 16.5725 7.58977 16.5849C7.57848 16.5974 7.57224 16.6137 7.57229 16.6307V17.3449C7.57276 17.3629 7.58014 17.38 7.59285 17.3926C7.60557 17.4051 7.62261 17.4121 7.64036 17.4121H8.49305C8.51048 17.4126 8.52708 17.4198 8.53941 17.4323C8.55175 17.4448 8.55888 17.4617 8.55933 17.4794V18.9841C8.55933 18.9932 8.55757 19.0022 8.55415 19.0106C8.55073 19.019 8.54571 19.0266 8.53939 19.033C8.53307 19.0394 8.52557 19.0445 8.51731 19.0479C8.50905 19.0514 8.5002 19.0532 8.49126 19.0532H7.6332C7.61545 19.0532 7.5984 19.0602 7.58569 19.0728C7.57297 19.0853 7.56559 19.1024 7.56512 19.1204V20.0509C7.56512 20.0599 7.56689 20.0688 7.57034 20.0771C7.57378 20.0854 7.57882 20.0929 7.58517 20.0991C7.59151 20.1054 7.59903 20.1103 7.60728 20.1136C7.61553 20.1169 7.62434 20.1184 7.6332 20.1182H10.7072C10.7159 20.1184 10.7247 20.1169 10.7328 20.1136C10.741 20.1103 10.7484 20.1053 10.7546 20.099C10.7608 20.0927 10.7657 20.0852 10.7689 20.077C10.7722 20.0687 10.7737 20.0598 10.7734 20.0509V19.1223C10.7721 19.1056 10.7644 19.09 10.7521 19.0789C10.7398 19.0677 10.7237 19.0618 10.7072 19.0623Z" fill="url(#paint106_linear_256_2115)"/>
<path d="M9.82489 19.1567H10.597C10.6057 19.1564 10.6145 19.158 10.6226 19.1613C10.6308 19.1646 10.6382 19.1695 10.6444 19.1758C10.6506 19.1821 10.6555 19.1896 10.6587 19.1979C10.6619 19.2062 10.6635 19.215 10.6632 19.2239V19.9909C10.6632 20.0087 10.6563 20.0258 10.6438 20.0384C10.6314 20.051 10.6145 20.0581 10.597 20.0581H7.73079C7.71304 20.0581 7.696 20.0511 7.68328 20.0385C7.67056 20.026 7.66319 20.0089 7.66272 19.9909V19.2239C7.66272 19.215 7.66449 19.2061 7.66793 19.1978C7.67137 19.1895 7.67642 19.182 7.68276 19.1757C7.68911 19.1695 7.69663 19.1646 7.70488 19.1613C7.71313 19.158 7.72194 19.1565 7.73079 19.1567H8.54765C8.56539 19.1562 8.58225 19.1487 8.59463 19.1358C8.60701 19.1229 8.61394 19.1056 8.61393 19.0876V17.4011C8.61348 17.3834 8.60635 17.3666 8.59402 17.3541C8.58168 17.3416 8.56509 17.3343 8.54765 17.3339H7.73437C7.72552 17.3341 7.71671 17.3326 7.70846 17.3293C7.70021 17.326 7.69269 17.3211 7.68634 17.3148C7.68 17.3086 7.67496 17.3011 7.67151 17.2928C7.66807 17.2845 7.6663 17.2756 7.6663 17.2666V16.7196C7.66581 16.7031 7.67171 16.6869 7.68275 16.6747C7.6938 16.6625 7.7091 16.6551 7.72542 16.6542C8.30546 16.5663 8.86083 16.3558 9.35555 16.0363C9.36552 16.0292 9.37741 16.0254 9.38959 16.0254H9.69054C9.70812 16.0254 9.72498 16.0325 9.73741 16.0451C9.74984 16.0577 9.75682 16.0748 9.75682 16.0926V19.0822C9.75608 19.0917 9.75729 19.1013 9.76037 19.1103C9.76346 19.1193 9.76836 19.1276 9.77475 19.1346C9.78115 19.1416 9.78891 19.1472 9.79754 19.151C9.80617 19.1548 9.81548 19.1567 9.82489 19.1567Z" fill="url(#paint107_linear_256_2115)"/>
<path style="mix-blend-mode:overlay" opacity="0.55" d="M12.6168 13.8682C12.5326 13.7955 12.4376 13.7319 12.3517 13.6665C12.3517 13.6665 12.3517 13.6538 12.3517 13.6465C12.3517 13.6393 12.3624 13.5956 12.366 13.5684C12.3696 13.5411 12.366 13.5211 12.3767 13.4975C12.3776 13.4903 12.3776 13.4829 12.3767 13.4757C12.4023 13.3098 12.4149 13.142 12.4144 12.9741C12.4144 12.9214 12.4144 12.8687 12.4144 12.816C12.4144 12.7633 12.4144 12.7106 12.4 12.6561C12.3874 12.5482 12.3677 12.4414 12.3409 12.3362C12.3007 12.1916 12.2473 12.051 12.1815 11.9164C12.0958 11.7454 11.986 11.5881 11.8555 11.4493L12.0149 11.1913L17.6666 2.15902L16.968 1.73194V1.72104L14.8381 0.416174L14.1359 0H4.20277V0.0163562L4.1974 0L3.51847 0.416174L3.19065 0.616084L0.666626 2.15902L6.36494 11.2676C6.02833 11.5354 5.78838 11.9085 5.68243 12.3289C5.6424 12.486 5.61779 12.6467 5.60899 12.8087C5.60899 12.8608 5.60899 12.9135 5.60899 12.9668C5.60899 13.0704 5.60899 13.174 5.62332 13.274C5.62253 13.2855 5.62253 13.297 5.62332 13.3085C5.6242 13.3206 5.6242 13.3327 5.62332 13.3448C5.62332 13.3903 5.63407 13.4357 5.64123 13.4793V13.5175C5.64123 13.5629 5.65735 13.6084 5.66631 13.652C5.66631 13.652 5.66631 13.6683 5.66631 13.6756C5.66631 13.6829 5.66631 13.6865 5.66631 13.6938C5.29837 13.9681 4.96454 14.2867 4.67211 14.6424C4.44211 14.9254 4.2388 15.2296 4.06483 15.5511C3.70627 16.2253 3.48458 16.9655 3.41289 17.7281C3.3412 18.4907 3.42096 19.2601 3.64745 19.9909C3.75515 20.3428 3.89676 20.6831 4.07021 21.0068C4.24374 21.3286 4.44708 21.6328 4.67748 21.9155C4.79213 22.0572 4.91394 22.1917 5.03575 22.3208C5.29069 22.5812 5.5703 22.8156 5.87052 23.0204C7.07061 23.8533 8.54146 24.1835 9.97586 23.9421C11.4102 23.7007 12.6972 22.9064 13.568 21.7251C14.4388 20.5438 14.826 19.0668 14.6487 17.6027C14.4715 16.1386 13.7435 14.8007 12.6168 13.8682ZM7.13522 12.4907H11.198L11.3091 12.309C11.3799 12.3991 11.4345 12.5012 11.4703 12.6106C11.4829 12.647 11.4918 12.6833 11.5008 12.7197C11.5244 12.8307 11.5346 12.9442 11.5312 13.0577C11.5312 13.0868 11.5312 13.1159 11.5312 13.1449C10.7516 12.7513 9.89204 12.548 9.0212 12.5511C8.15035 12.5543 7.29227 12.7638 6.51541 13.1631C6.51005 13.0887 6.51005 13.014 6.51541 12.9396C6.51873 12.886 6.52471 12.8326 6.53333 12.7796C6.5424 12.7216 6.55618 12.6645 6.57453 12.6088C6.64311 12.4122 6.76783 12.2408 6.9328 12.1163L7.13522 12.4907ZM7.40393 3.7801H12.0185L9.16663 8.8687L6.31478 3.7801H7.40393Z" fill="url(#paint108_radial_256_2115)"/>
</g>
<defs>
<linearGradient id="paint0_linear_256_2115" x1="4.20374" y1="1.89005" x2="14.135" y2="1.89005" gradientUnits="userSpaceOnUse">
<stop stop-color="#9D0000"/>
<stop offset="0.5" stop-color="#BE0000"/>
<stop offset="1" stop-color="#9D0000"/>
</linearGradient>
<linearGradient id="paint1_linear_256_2115" x1="15.8251" y1="1.20672" x2="8.829" y2="12.4207" gradientUnits="userSpaceOnUse">
<stop stop-color="#DB1A1F"/>
<stop offset="0.67" stop-color="#DF1F24"/>
<stop offset="0.71" stop-color="#DF1F24"/>
<stop offset="0.73" stop-color="#D81C21"/>
<stop offset="0.82" stop-color="#C41318"/>
<stop offset="0.91" stop-color="#B70D12"/>
<stop offset="1" stop-color="#B30B10"/>
</linearGradient>
<linearGradient id="paint2_linear_256_2115" x1="15.8574" y1="1.15411" x2="9.19521" y2="12.4765" gradientUnits="userSpaceOnUse">
<stop stop-color="#F0E8E5"/>
<stop offset="0.58" stop-color="#EFE6E3"/>
<stop offset="0.82" stop-color="#EBE0DC"/>
<stop offset="0.99" stop-color="#E3D6D0"/>
<stop offset="1" stop-color="#E3D5CF"/>
</linearGradient>
<radialGradient id="paint3_radial_256_2115" cx="0" cy="0" r="1" gradientUnits="userSpaceOnUse" gradientTransform="translate(9.01076 12.4398) scale(2.74257 2.78237)">
<stop offset="0.01" stop-color="#F6C054"/>
<stop offset="0.54" stop-color="#FFEA72"/>
<stop offset="0.58" stop-color="#FFF071"/>
<stop offset="0.59" stop-color="#FFF171"/>
<stop offset="0.82" stop-color="#FFE05A"/>
<stop offset="0.96" stop-color="#FFD44A"/>
</radialGradient>
<radialGradient id="paint4_radial_256_2115" cx="0" cy="0" r="1" gradientUnits="userSpaceOnUse" gradientTransform="translate(9.01076 12.4398) scale(2.74257 2.78237)">
<stop offset="0.01" stop-color="#F6C054"/>
<stop offset="0.54" stop-color="#FFEA72"/>
<stop offset="0.58" stop-color="#FFF071"/>
<stop offset="0.59" stop-color="#FFF171"/>
<stop offset="0.82" stop-color="#FFE05A"/>
<stop offset="0.96" stop-color="#FFD44A"/>
</radialGradient>
<radialGradient id="paint5_radial_256_2115" cx="0" cy="0" r="1" gradientUnits="userSpaceOnUse" gradientTransform="translate(11.8053 11.2558) scale(4.03325 4.09178)">
<stop stop-color="#FFFFC3"/>
<stop offset="0.95" stop-color="#FFEA72"/>
</radialGradient>
<linearGradient id="paint6_linear_256_2115" x1="5.59859" y1="13.5466" x2="12.4237" y2="13.5466" gradientUnits="userSpaceOnUse">
<stop stop-color="#AA7238"/>
<stop offset="0.25" stop-color="#C08443"/>
<stop offset="0.35" stop-color="#BE8242"/>
<stop offset="0.39" stop-color="#B87B3D"/>
<stop offset="0.42" stop-color="#AD7036"/>
<stop offset="0.44" stop-color="#9D5F2B"/>
<stop offset="0.46" stop-color="#88491D"/>
<stop offset="0.47" stop-color="#7A3A14"/>
<stop offset="0.64" stop-color="#7C3C15"/>
<stop offset="0.72" stop-color="#83441A"/>
<stop offset="0.79" stop-color="#8E5123"/>
<stop offset="0.85" stop-color="#9E642F"/>
<stop offset="0.9" stop-color="#B37C3E"/>
<stop offset="0.95" stop-color="#CD9B52"/>
<stop offset="0.99" stop-color="#EBBE68"/>
<stop offset="1" stop-color="#F0C46C"/>
</linearGradient>
<linearGradient id="paint7_linear_256_2115" x1="5.59866" y1="13.5159" x2="12.4237" y2="13.5159" gradientUnits="userSpaceOnUse">
<stop stop-color="#AA7238"/>
<stop offset="0.25" stop-color="#C08443"/>
<stop offset="0.35" stop-color="#BE8242"/>
<stop offset="0.39" stop-color="#B87B3D"/>
<stop offset="0.42" stop-color="#AD7036"/>
<stop offset="0.44" stop-color="#9D5F2B"/>
<stop offset="0.46" stop-color="#88491D"/>
<stop offset="0.47" stop-color="#7A3A14"/>
<stop offset="0.64" stop-color="#7C3C15"/>
<stop offset="0.72" stop-color="#83441A"/>
<stop offset="0.79" stop-color="#8E5123"/>
<stop offset="0.85" stop-color="#9E642F"/>
<stop offset="0.9" stop-color="#B37C3E"/>
<stop offset="0.95" stop-color="#CD9B52"/>
<stop offset="0.99" stop-color="#EBBE68"/>
<stop offset="1" stop-color="#F0C46C"/>
</linearGradient>
<radialGradient id="paint8_radial_256_2115" cx="0" cy="0" r="1" gradientUnits="userSpaceOnUse" gradientTransform="translate(9.01173 12.7739) scale(2.20785 2.23989)">
<stop offset="0.34" stop-color="#FFEA72"/>
<stop offset="0.99" stop-color="#B35C00"/>
</radialGradient>
<linearGradient id="paint9_linear_256_2115" x1="2.43828" y1="1.09041" x2="9.23299" y2="12.4778" gradientUnits="userSpaceOnUse">
<stop stop-color="#DB1A1F"/>
<stop offset="0.67" stop-color="#DF1F24"/>
<stop offset="0.71" stop-color="#DF1F24"/>
<stop offset="0.73" stop-color="#D81C21"/>
<stop offset="0.82" stop-color="#C41318"/>
<stop offset="0.91" stop-color="#B70D12"/>
<stop offset="1" stop-color="#B30B10"/>
</linearGradient>
<linearGradient id="paint10_linear_256_2115" x1="2.49944" y1="1.15386" x2="9.16159" y2="12.4763" gradientUnits="userSpaceOnUse">
<stop stop-color="#F0E8E5"/>
<stop offset="0.58" stop-color="#EFE6E3"/>
<stop offset="0.82" stop-color="#EBE0DC"/>
<stop offset="0.99" stop-color="#E3D6D0"/>
<stop offset="1" stop-color="#E3D5CF"/>
</linearGradient>
<radialGradient id="paint11_radial_256_2115" cx="0" cy="0" r="1" gradientUnits="userSpaceOnUse" gradientTransform="translate(5.10886 22.2585) scale(10.9497 11.1086)">
<stop offset="0.01" stop-color="#F6C054"/>
<stop offset="0.3" stop-color="#F2A942"/>
<stop offset="0.54" stop-color="#FFEA72"/>
<stop offset="0.58" stop-color="#FFF071"/>
<stop offset="0.59" stop-color="#FFF171"/>
<stop offset="0.76" stop-color="#FADA61"/>
<stop offset="0.96" stop-color="#F3B94A"/>
</radialGradient>
<radialGradient id="paint12_radial_256_2115" cx="0" cy="0" r="1" gradientUnits="userSpaceOnUse" gradientTransform="translate(5.10842 22.2571) scale(10.9497 11.1086)">
<stop stop-color="#FFFFC3"/>
<stop offset="0.95" stop-color="#FFEA72"/>
</radialGradient>
<linearGradient id="paint13_linear_256_2115" x1="12.4661" y1="15.4643" x2="5.50387" y2="21.0055" gradientUnits="userSpaceOnUse">
<stop offset="0.48" stop-color="#CC9434"/>
<stop offset="0.68" stop-color="#FFEA72"/>
<stop offset="0.76" stop-color="#FFE76C"/>
<stop offset="0.87" stop-color="#FFDE5C"/>
<stop offset="0.96" stop-color="#FFD44A"/>
</linearGradient>
<linearGradient id="paint14_linear_256_2115" x1="6.9953" y1="14.1358" x2="11.1472" y2="22.3552" gradientUnits="userSpaceOnUse">
<stop offset="0.48" stop-color="#CC9434"/>
<stop offset="0.68" stop-color="#FFEA72"/>
<stop offset="0.76" stop-color="#FFE76C"/>
<stop offset="0.87" stop-color="#FFDE5C"/>
<stop offset="0.96" stop-color="#FFD44A"/>
</linearGradient>
<linearGradient id="paint15_linear_256_2115" x1="11.8585" y1="15.7455" x2="5.76175" y2="21.0577" gradientUnits="userSpaceOnUse">
<stop offset="0.01" stop-color="#F6C054"/>
<stop offset="0.54" stop-color="#FFEA72"/>
<stop offset="0.58" stop-color="#FFF071"/>
<stop offset="0.59" stop-color="#FFF171"/>
<stop offset="0.82" stop-color="#FFE05A"/>
<stop offset="0.96" stop-color="#FFD44A"/>
</linearGradient>
<linearGradient id="paint16_linear_256_2115" x1="12.4327" y1="18.6756" x2="12.6925" y2="18.6756" gradientUnits="userSpaceOnUse">
<stop stop-color="#F3CE5E"/>
<stop offset="1" stop-color="#F2BE4A"/>
</linearGradient>
<linearGradient id="paint17_linear_256_2115" x1="12.3351" y1="19.1934" x2="12.5948" y2="19.1934" gradientUnits="userSpaceOnUse">
<stop stop-color="#F3CE5E"/>
<stop offset="1" stop-color="#F2BE4A"/>
</linearGradient>
<linearGradient id="paint18_linear_256_2115" x1="12.1713" y1="19.6911" x2="12.4311" y2="19.6911" gradientUnits="userSpaceOnUse">
<stop stop-color="#F3CE5E"/>
<stop offset="1" stop-color="#F2BE4A"/>
</linearGradient>
<linearGradient id="paint19_linear_256_2115" x1="11.9325" y1="20.1603" x2="12.1922" y2="20.1603" gradientUnits="userSpaceOnUse">
<stop stop-color="#F3CE5E"/>
<stop offset="1" stop-color="#F2BE4A"/>
</linearGradient>
<linearGradient id="paint20_linear_256_2115" x1="11.6309" y1="20.5858" x2="11.8906" y2="20.5858" gradientUnits="userSpaceOnUse">
<stop stop-color="#F3CE5E"/>
<stop offset="1" stop-color="#F2BE4A"/>
</linearGradient>
<linearGradient id="paint21_linear_256_2115" x1="11.2709" y1="20.9651" x2="11.5307" y2="20.9651" gradientUnits="userSpaceOnUse">
<stop stop-color="#F3CE5E"/>
<stop offset="1" stop-color="#F2BE4A"/>
</linearGradient>
<linearGradient id="paint22_linear_256_2115" x1="10.8619" y1="21.2873" x2="11.1216" y2="21.2873" gradientUnits="userSpaceOnUse">
<stop stop-color="#F3CE5E"/>
<stop offset="1" stop-color="#F2BE4A"/>
</linearGradient>
<linearGradient id="paint23_linear_256_2115" x1="10.4107" y1="21.5431" x2="10.6705" y2="21.5431" gradientUnits="userSpaceOnUse">
<stop stop-color="#F3CE5E"/>
<stop offset="1" stop-color="#F2BE4A"/>
</linearGradient>
<linearGradient id="paint24_linear_256_2115" x1="9.92357" y1="21.7323" x2="10.1833" y2="21.7323" gradientUnits="userSpaceOnUse">
<stop stop-color="#F3CE5E"/>
<stop offset="1" stop-color="#F2BE4A"/>
</linearGradient>
<linearGradient id="paint25_linear_256_2115" x1="9.41917" y1="21.8448" x2="9.67892" y2="21.8448" gradientUnits="userSpaceOnUse">
<stop stop-color="#F3CE5E"/>
<stop offset="1" stop-color="#F2BE4A"/>
</linearGradient>
<linearGradient id="paint26_linear_256_2115" x1="8.90147" y1="21.8866" x2="9.16122" y2="21.8866" gradientUnits="userSpaceOnUse">
<stop stop-color="#F3CE5E"/>
<stop offset="1" stop-color="#F2BE4A"/>
</linearGradient>
<linearGradient id="paint27_linear_256_2115" x1="8.38333" y1="21.8448" x2="8.64308" y2="21.8448" gradientUnits="userSpaceOnUse">
<stop stop-color="#F3CE5E"/>
<stop offset="1" stop-color="#F2BE4A"/>
</linearGradient>
<linearGradient id="paint28_linear_256_2115" x1="7.87894" y1="21.7322" x2="8.1369" y2="21.7322" gradientUnits="userSpaceOnUse">
<stop stop-color="#F3CE5E"/>
<stop offset="1" stop-color="#F2BE4A"/>
</linearGradient>
<linearGradient id="paint29_linear_256_2115" x1="7.39227" y1="21.5433" x2="7.65023" y2="21.5433" gradientUnits="userSpaceOnUse">
<stop stop-color="#F3CE5E"/>
<stop offset="1" stop-color="#F2BE4A"/>
</linearGradient>
<linearGradient id="paint30_linear_256_2115" x1="6.94103" y1="21.2866" x2="7.20077" y2="21.2866" gradientUnits="userSpaceOnUse">
<stop stop-color="#F3CE5E"/>
<stop offset="1" stop-color="#F2BE4A"/>
</linearGradient>
<linearGradient id="paint31_linear_256_2115" x1="6.53097" y1="20.9654" x2="6.78892" y2="20.9654" gradientUnits="userSpaceOnUse">
<stop stop-color="#F3CE5E"/>
<stop offset="1" stop-color="#F2BE4A"/>
</linearGradient>
<linearGradient id="paint32_linear_256_2115" x1="6.17118" y1="20.5858" x2="6.43093" y2="20.5858" gradientUnits="userSpaceOnUse">
<stop stop-color="#F3CE5E"/>
<stop offset="1" stop-color="#F2BE4A"/>
</linearGradient>
<linearGradient id="paint33_linear_256_2115" x1="5.8705" y1="20.1602" x2="6.13025" y2="20.1602" gradientUnits="userSpaceOnUse">
<stop stop-color="#F3CE5E"/>
<stop offset="1" stop-color="#F2BE4A"/>
</linearGradient>
<linearGradient id="paint34_linear_256_2115" x1="5.63316" y1="19.6911" x2="5.89291" y2="19.6911" gradientUnits="userSpaceOnUse">
<stop stop-color="#F3CE5E"/>
<stop offset="1" stop-color="#F2BE4A"/>
</linearGradient>
<linearGradient id="paint35_linear_256_2115" x1="5.46651" y1="19.1934" x2="5.72626" y2="19.1934" gradientUnits="userSpaceOnUse">
<stop stop-color="#F3CE5E"/>
<stop offset="1" stop-color="#F2BE4A"/>
</linearGradient>
<linearGradient id="paint36_linear_256_2115" x1="5.37039" y1="18.6752" x2="5.63014" y2="18.6752" gradientUnits="userSpaceOnUse">
<stop stop-color="#F3CE5E"/>
<stop offset="1" stop-color="#F2BE4A"/>
</linearGradient>
<linearGradient id="paint37_linear_256_2115" x1="5.35459" y1="18.1502" x2="5.61434" y2="18.1502" gradientUnits="userSpaceOnUse">
<stop stop-color="#F3CE5E"/>
<stop offset="1" stop-color="#F2BE4A"/>
</linearGradient>
<linearGradient id="paint38_linear_256_2115" x1="5.41105" y1="17.6264" x2="5.66901" y2="17.6264" gradientUnits="userSpaceOnUse">
<stop stop-color="#F3CE5E"/>
<stop offset="1" stop-color="#F2BE4A"/>
</linearGradient>
<linearGradient id="paint39_linear_256_2115" x1="5.5396" y1="17.1178" x2="5.80113" y2="17.1178" gradientUnits="userSpaceOnUse">
<stop stop-color="#F3CE5E"/>
<stop offset="1" stop-color="#F2BE4A"/>
</linearGradient>
<linearGradient id="paint40_linear_256_2115" x1="5.74271" y1="16.6328" x2="6.00067" y2="16.6328" gradientUnits="userSpaceOnUse">
<stop stop-color="#F3CE5E"/>
<stop offset="1" stop-color="#F2BE4A"/>
</linearGradient>
<linearGradient id="paint41_linear_256_2115" x1="6.01201" y1="16.1839" x2="6.27355" y2="16.1839" gradientUnits="userSpaceOnUse">
<stop stop-color="#F3CE5E"/>
<stop offset="1" stop-color="#F2BE4A"/>
</linearGradient>
<linearGradient id="paint42_linear_256_2115" x1="6.34467" y1="15.7805" x2="6.60263" y2="15.7805" gradientUnits="userSpaceOnUse">
<stop stop-color="#F3CE5E"/>
<stop offset="1" stop-color="#F2BE4A"/>
</linearGradient>
<linearGradient id="paint43_linear_256_2115" x1="6.72923" y1="15.4299" x2="6.99077" y2="15.4299" gradientUnits="userSpaceOnUse">
<stop stop-color="#F3CE5E"/>
<stop offset="1" stop-color="#F2BE4A"/>
</linearGradient>
<linearGradient id="paint44_linear_256_2115" x1="7.16385" y1="15.1387" x2="7.42181" y2="15.1387" gradientUnits="userSpaceOnUse">
<stop stop-color="#F3CE5E"/>
<stop offset="1" stop-color="#F2BE4A"/>
</linearGradient>
<linearGradient id="paint45_linear_256_2115" x1="7.63205" y1="14.9173" x2="7.8918" y2="14.9173" gradientUnits="userSpaceOnUse">
<stop stop-color="#F3CE5E"/>
<stop offset="1" stop-color="#F2BE4A"/>
</linearGradient>
<linearGradient id="paint46_linear_256_2115" x1="8.12941" y1="14.7644" x2="8.38737" y2="14.7644" gradientUnits="userSpaceOnUse">
<stop stop-color="#F3CE5E"/>
<stop offset="1" stop-color="#F2BE4A"/>
</linearGradient>
<linearGradient id="paint47_linear_256_2115" x1="8.64256" y1="14.6899" x2="8.9023" y2="14.6899" gradientUnits="userSpaceOnUse">
<stop stop-color="#F3CE5E"/>
<stop offset="1" stop-color="#F2BE4A"/>
</linearGradient>
<linearGradient id="paint48_linear_256_2115" x1="9.1609" y1="14.6898" x2="9.42064" y2="14.6898" gradientUnits="userSpaceOnUse">
<stop stop-color="#F3CE5E"/>
<stop offset="1" stop-color="#F2BE4A"/>
</linearGradient>
<linearGradient id="paint49_linear_256_2115" x1="9.67297" y1="14.7641" x2="9.93272" y2="14.7641" gradientUnits="userSpaceOnUse">
<stop stop-color="#F3CE5E"/>
<stop offset="1" stop-color="#F2BE4A"/>
</linearGradient>
<linearGradient id="paint50_linear_256_2115" x1="10.1701" y1="14.9169" x2="10.4317" y2="14.9169" gradientUnits="userSpaceOnUse">
<stop stop-color="#F3CE5E"/>
<stop offset="1" stop-color="#F2BE4A"/>
</linearGradient>
<linearGradient id="paint51_linear_256_2115" x1="10.6409" y1="15.1388" x2="10.8989" y2="15.1388" gradientUnits="userSpaceOnUse">
<stop stop-color="#F3CE5E"/>
<stop offset="1" stop-color="#F2BE4A"/>
</linearGradient>
<linearGradient id="paint52_linear_256_2115" x1="11.0726" y1="15.4297" x2="11.3324" y2="15.4297" gradientUnits="userSpaceOnUse">
<stop stop-color="#F3CE5E"/>
<stop offset="1" stop-color="#F2BE4A"/>
</linearGradient>
<linearGradient id="paint53_linear_256_2115" x1="11.4599" y1="15.7802" x2="11.7179" y2="15.7802" gradientUnits="userSpaceOnUse">
<stop stop-color="#F3CE5E"/>
<stop offset="1" stop-color="#F2BE4A"/>
</linearGradient>
<linearGradient id="paint54_linear_256_2115" x1="11.7886" y1="16.1835" x2="12.0502" y2="16.1835" gradientUnits="userSpaceOnUse">
<stop stop-color="#F3CE5E"/>
<stop offset="1" stop-color="#F2BE4A"/>
</linearGradient>
<linearGradient id="paint55_linear_256_2115" x1="12.0605" y1="16.6325" x2="12.3185" y2="16.6325" gradientUnits="userSpaceOnUse">
<stop stop-color="#F3CE5E"/>
<stop offset="1" stop-color="#F2BE4A"/>
</linearGradient>
<linearGradient id="paint56_linear_256_2115" x1="12.2621" y1="17.1178" x2="12.5236" y2="17.1178" gradientUnits="userSpaceOnUse">
<stop stop-color="#F3CE5E"/>
<stop offset="1" stop-color="#F2BE4A"/>
</linearGradient>
<linearGradient id="paint57_linear_256_2115" x1="12.3944" y1="17.6264" x2="12.6523" y2="17.6264" gradientUnits="userSpaceOnUse">
<stop stop-color="#F3CE5E"/>
<stop offset="1" stop-color="#F2BE4A"/>
</linearGradient>
<linearGradient id="paint58_linear_256_2115" x1="12.4479" y1="18.1502" x2="12.7077" y2="18.1502" gradientUnits="userSpaceOnUse">
<stop stop-color="#F3CE5E"/>
<stop offset="1" stop-color="#F2BE4A"/>
</linearGradient>
<linearGradient id="paint59_linear_256_2115" x1="12.4327" y1="18.6756" x2="12.6925" y2="18.6756" gradientUnits="userSpaceOnUse">
<stop stop-color="#F3CE5E"/>
<stop offset="1" stop-color="#F2BE4A"/>
</linearGradient>
<linearGradient id="paint60_linear_256_2115" x1="12.3351" y1="19.1934" x2="12.5948" y2="19.1934" gradientUnits="userSpaceOnUse">
<stop stop-color="#F3CE5E"/>
<stop offset="1" stop-color="#F2BE4A"/>
</linearGradient>
<linearGradient id="paint61_linear_256_2115" x1="12.1713" y1="19.6911" x2="12.4311" y2="19.6911" gradientUnits="userSpaceOnUse">
<stop stop-color="#F3CE5E"/>
<stop offset="1" stop-color="#F2BE4A"/>
</linearGradient>
<linearGradient id="paint62_linear_256_2115" x1="11.9325" y1="20.1603" x2="12.1922" y2="20.1603" gradientUnits="userSpaceOnUse">
<stop stop-color="#F3CE5E"/>
<stop offset="1" stop-color="#F2BE4A"/>
</linearGradient>
<linearGradient id="paint63_linear_256_2115" x1="11.6309" y1="20.5858" x2="11.8906" y2="20.5858" gradientUnits="userSpaceOnUse">
<stop stop-color="#F3CE5E"/>
<stop offset="1" stop-color="#F2BE4A"/>
</linearGradient>
<linearGradient id="paint64_linear_256_2115" x1="11.2709" y1="20.9651" x2="11.5307" y2="20.9651" gradientUnits="userSpaceOnUse">
<stop stop-color="#F3CE5E"/>
<stop offset="1" stop-color="#F2BE4A"/>
</linearGradient>
<linearGradient id="paint65_linear_256_2115" x1="10.8619" y1="21.2873" x2="11.1216" y2="21.2873" gradientUnits="userSpaceOnUse">
<stop stop-color="#F3CE5E"/>
<stop offset="1" stop-color="#F2BE4A"/>
</linearGradient>
<linearGradient id="paint66_linear_256_2115" x1="10.4107" y1="21.5431" x2="10.6705" y2="21.5431" gradientUnits="userSpaceOnUse">
<stop stop-color="#F3CE5E"/>
<stop offset="1" stop-color="#F2BE4A"/>
</linearGradient>
<linearGradient id="paint67_linear_256_2115" x1="9.92357" y1="21.7323" x2="10.1833" y2="21.7323" gradientUnits="userSpaceOnUse">
<stop stop-color="#F3CE5E"/>
<stop offset="1" stop-color="#F2BE4A"/>
</linearGradient>
<linearGradient id="paint68_linear_256_2115" x1="9.41917" y1="21.8448" x2="9.67892" y2="21.8448" gradientUnits="userSpaceOnUse">
<stop stop-color="#F3CE5E"/>
<stop offset="1" stop-color="#F2BE4A"/>
</linearGradient>
<linearGradient id="paint69_linear_256_2115" x1="8.90147" y1="21.8866" x2="9.16122" y2="21.8866" gradientUnits="userSpaceOnUse">
<stop stop-color="#F3CE5E"/>
<stop offset="1" stop-color="#F2BE4A"/>
</linearGradient>
<linearGradient id="paint70_linear_256_2115" x1="8.38333" y1="21.8448" x2="8.64308" y2="21.8448" gradientUnits="userSpaceOnUse">
<stop stop-color="#F3CE5E"/>
<stop offset="1" stop-color="#F2BE4A"/>
</linearGradient>
<linearGradient id="paint71_linear_256_2115" x1="7.87894" y1="21.7322" x2="8.1369" y2="21.7322" gradientUnits="userSpaceOnUse">
<stop stop-color="#F3CE5E"/>
<stop offset="1" stop-color="#F2BE4A"/>
</linearGradient>
<linearGradient id="paint72_linear_256_2115" x1="7.39227" y1="21.5433" x2="7.65023" y2="21.5433" gradientUnits="userSpaceOnUse">
<stop stop-color="#F3CE5E"/>
<stop offset="1" stop-color="#F2BE4A"/>
</linearGradient>
<linearGradient id="paint73_linear_256_2115" x1="6.94103" y1="21.2866" x2="7.20077" y2="21.2866" gradientUnits="userSpaceOnUse">
<stop stop-color="#F3CE5E"/>
<stop offset="1" stop-color="#F2BE4A"/>
</linearGradient>
<linearGradient id="paint74_linear_256_2115" x1="6.53097" y1="20.9654" x2="6.78892" y2="20.9654" gradientUnits="userSpaceOnUse">
<stop stop-color="#F3CE5E"/>
<stop offset="1" stop-color="#F2BE4A"/>
</linearGradient>
<linearGradient id="paint75_linear_256_2115" x1="6.17118" y1="20.5858" x2="6.43093" y2="20.5858" gradientUnits="userSpaceOnUse">
<stop stop-color="#F3CE5E"/>
<stop offset="1" stop-color="#F2BE4A"/>
</linearGradient>
<linearGradient id="paint76_linear_256_2115" x1="5.8705" y1="20.1602" x2="6.13025" y2="20.1602" gradientUnits="userSpaceOnUse">
<stop stop-color="#F3CE5E"/>
<stop offset="1" stop-color="#F2BE4A"/>
</linearGradient>
<linearGradient id="paint77_linear_256_2115" x1="5.63316" y1="19.6911" x2="5.89291" y2="19.6911" gradientUnits="userSpaceOnUse">
<stop stop-color="#F3CE5E"/>
<stop offset="1" stop-color="#F2BE4A"/>
</linearGradient>
<linearGradient id="paint78_linear_256_2115" x1="5.46651" y1="19.1934" x2="5.72626" y2="19.1934" gradientUnits="userSpaceOnUse">
<stop stop-color="#F3CE5E"/>
<stop offset="1" stop-color="#F2BE4A"/>
</linearGradient>
<linearGradient id="paint79_linear_256_2115" x1="5.37039" y1="18.6752" x2="5.63014" y2="18.6752" gradientUnits="userSpaceOnUse">
<stop stop-color="#F3CE5E"/>
<stop offset="1" stop-color="#F2BE4A"/>
</linearGradient>
<linearGradient id="paint80_linear_256_2115" x1="5.35459" y1="18.1502" x2="5.61434" y2="18.1502" gradientUnits="userSpaceOnUse">
<stop stop-color="#F3CE5E"/>
<stop offset="1" stop-color="#F2BE4A"/>
</linearGradient>
<linearGradient id="paint81_linear_256_2115" x1="5.41105" y1="17.6264" x2="5.66901" y2="17.6264" gradientUnits="userSpaceOnUse">
<stop stop-color="#F3CE5E"/>
<stop offset="1" stop-color="#F2BE4A"/>
</linearGradient>
<linearGradient id="paint82_linear_256_2115" x1="5.5396" y1="17.1178" x2="5.80113" y2="17.1178" gradientUnits="userSpaceOnUse">
<stop stop-color="#F3CE5E"/>
<stop offset="1" stop-color="#F2BE4A"/>
</linearGradient>
<linearGradient id="paint83_linear_256_2115" x1="5.74271" y1="16.6328" x2="6.00067" y2="16.6328" gradientUnits="userSpaceOnUse">
<stop stop-color="#F3CE5E"/>
<stop offset="1" stop-color="#F2BE4A"/>
</linearGradient>
<linearGradient id="paint84_linear_256_2115" x1="6.01201" y1="16.1839" x2="6.27355" y2="16.1839" gradientUnits="userSpaceOnUse">
<stop stop-color="#F3CE5E"/>
<stop offset="1" stop-color="#F2BE4A"/>
</linearGradient>
<linearGradient id="paint85_linear_256_2115" x1="6.34467" y1="15.7805" x2="6.60263" y2="15.7805" gradientUnits="userSpaceOnUse">
<stop stop-color="#F3CE5E"/>
<stop offset="1" stop-color="#F2BE4A"/>
</linearGradient>
<linearGradient id="paint86_linear_256_2115" x1="6.72923" y1="15.4299" x2="6.99077" y2="15.4299" gradientUnits="userSpaceOnUse">
<stop stop-color="#F3CE5E"/>
<stop offset="1" stop-color="#F2BE4A"/>
</linearGradient>
<linearGradient id="paint87_linear_256_2115" x1="7.16385" y1="15.1387" x2="7.42181" y2="15.1387" gradientUnits="userSpaceOnUse">
<stop stop-color="#F3CE5E"/>
<stop offset="1" stop-color="#F2BE4A"/>
</linearGradient>
<linearGradient id="paint88_linear_256_2115" x1="7.63205" y1="14.9173" x2="7.8918" y2="14.9173" gradientUnits="userSpaceOnUse">
<stop stop-color="#F3CE5E"/>
<stop offset="1" stop-color="#F2BE4A"/>
</linearGradient>
<linearGradient id="paint89_linear_256_2115" x1="8.12941" y1="14.7644" x2="8.38737" y2="14.7644" gradientUnits="userSpaceOnUse">
<stop stop-color="#F3CE5E"/>
<stop offset="1" stop-color="#F2BE4A"/>
</linearGradient>
<linearGradient id="paint90_linear_256_2115" x1="8.64256" y1="14.6899" x2="8.9023" y2="14.6899" gradientUnits="userSpaceOnUse">
<stop stop-color="#F3CE5E"/>
<stop offset="1" stop-color="#F2BE4A"/>
</linearGradient>
<linearGradient id="paint91_linear_256_2115" x1="9.1609" y1="14.6898" x2="9.42064" y2="14.6898" gradientUnits="userSpaceOnUse">
<stop stop-color="#F3CE5E"/>
<stop offset="1" stop-color="#F2BE4A"/>
</linearGradient>
<linearGradient id="paint92_linear_256_2115" x1="9.67297" y1="14.7641" x2="9.93272" y2="14.7641" gradientUnits="userSpaceOnUse">
<stop stop-color="#F3CE5E"/>
<stop offset="1" stop-color="#F2BE4A"/>
</linearGradient>
<linearGradient id="paint93_linear_256_2115" x1="10.1701" y1="14.9169" x2="10.4317" y2="14.9169" gradientUnits="userSpaceOnUse">
<stop stop-color="#F3CE5E"/>
<stop offset="1" stop-color="#F2BE4A"/>
</linearGradient>
<linearGradient id="paint94_linear_256_2115" x1="10.6409" y1="15.1388" x2="10.8989" y2="15.1388" gradientUnits="userSpaceOnUse">
<stop stop-color="#F3CE5E"/>
<stop offset="1" stop-color="#F2BE4A"/>
</linearGradient>
<linearGradient id="paint95_linear_256_2115" x1="11.0726" y1="15.4297" x2="11.3324" y2="15.4297" gradientUnits="userSpaceOnUse">
<stop stop-color="#F3CE5E"/>
<stop offset="1" stop-color="#F2BE4A"/>
</linearGradient>
<linearGradient id="paint96_linear_256_2115" x1="11.4599" y1="15.7802" x2="11.7179" y2="15.7802" gradientUnits="userSpaceOnUse">
<stop stop-color="#F3CE5E"/>
<stop offset="1" stop-color="#F2BE4A"/>
</linearGradient>
<linearGradient id="paint97_linear_256_2115" x1="11.7886" y1="16.1835" x2="12.0502" y2="16.1835" gradientUnits="userSpaceOnUse">
<stop stop-color="#F3CE5E"/>
<stop offset="1" stop-color="#F2BE4A"/>
</linearGradient>
<linearGradient id="paint98_linear_256_2115" x1="12.0605" y1="16.6325" x2="12.3185" y2="16.6325" gradientUnits="userSpaceOnUse">
<stop stop-color="#F3CE5E"/>
<stop offset="1" stop-color="#F2BE4A"/>
</linearGradient>
<linearGradient id="paint99_linear_256_2115" x1="12.2621" y1="17.1178" x2="12.5236" y2="17.1178" gradientUnits="userSpaceOnUse">
<stop stop-color="#F3CE5E"/>
<stop offset="1" stop-color="#F2BE4A"/>
</linearGradient>
<linearGradient id="paint100_linear_256_2115" x1="12.3944" y1="17.6264" x2="12.6523" y2="17.6264" gradientUnits="userSpaceOnUse">
<stop stop-color="#F3CE5E"/>
<stop offset="1" stop-color="#F2BE4A"/>
</linearGradient>
<linearGradient id="paint101_linear_256_2115" x1="12.4479" y1="18.1502" x2="12.7077" y2="18.1502" gradientUnits="userSpaceOnUse">
<stop stop-color="#F3CE5E"/>
<stop offset="1" stop-color="#F2BE4A"/>
</linearGradient>
<linearGradient id="paint102_linear_256_2115" x1="11.9682" y1="15.3275" x2="6.18123" y2="20.9815" gradientUnits="userSpaceOnUse">
<stop stop-color="#AA7238"/>
<stop offset="0.25" stop-color="#C08443"/>
<stop offset="0.35" stop-color="#BE8242"/>
<stop offset="0.39" stop-color="#B87B3D"/>
<stop offset="0.42" stop-color="#AD7036"/>
<stop offset="0.44" stop-color="#9D5F2B"/>
<stop offset="0.46" stop-color="#88491D"/>
<stop offset="0.47" stop-color="#7A3A14"/>
<stop offset="0.64" stop-color="#7C3C15"/>
<stop offset="0.72" stop-color="#83441A"/>
<stop offset="0.79" stop-color="#8E5123"/>
<stop offset="0.85" stop-color="#9E642F"/>
<stop offset="0.9" stop-color="#B37C3E"/>
<stop offset="0.95" stop-color="#CD9B52"/>
<stop offset="0.99" stop-color="#EBBE68"/>
<stop offset="1" stop-color="#F0C46C"/>
</linearGradient>
<radialGradient id="paint103_radial_256_2115" cx="0" cy="0" r="1" gradientUnits="userSpaceOnUse" gradientTransform="translate(11.9475 14.8718) rotate(-62.1637) scale(1.75972 3.78531)">
<stop stop-color="#ECCE88"/>
<stop offset="1"/>
</radialGradient>
<radialGradient id="paint104_radial_256_2115" cx="0" cy="0" r="1" gradientUnits="userSpaceOnUse" gradientTransform="translate(11.2121 14.7836) rotate(27.9376) scale(1.23834 1.40548)">
<stop stop-color="#FFA177"/>
<stop offset="0.13" stop-color="#E5916B"/>
<stop offset="0.4" stop-color="#A3674C"/>
<stop offset="0.79" stop-color="#3B251C"/>
<stop offset="1"/>
</radialGradient>
<radialGradient id="paint105_radial_256_2115" cx="0" cy="0" r="1" gradientUnits="userSpaceOnUse" gradientTransform="translate(6.28633 21.6204) rotate(-58.1753) scale(1.15386 2.11411)">
<stop stop-color="#ECC29A"/>
<stop offset="1"/>
</radialGradient>
<linearGradient id="paint106_linear_256_2115" x1="7.86249" y1="18.9732" x2="10.5058" y2="17.7468" gradientUnits="userSpaceOnUse">
<stop stop-color="#F1C848"/>
<stop offset="0.19" stop-color="#F0C94F"/>
<stop offset="0.45" stop-color="#EBCC62"/>
<stop offset="0.48" stop-color="#EBCC64"/>
<stop offset="0.75" stop-color="#F5E579"/>
<stop offset="1" stop-color="#FFFF8E"/>
</linearGradient>
<linearGradient id="paint107_linear_256_2115" x1="9.16567" y1="16.1544" x2="9.16567" y2="20.1035" gradientUnits="userSpaceOnUse">
<stop stop-color="#FFEE7B"/>
<stop offset="0.15" stop-color="#FFC757"/>
<stop offset="0.27" stop-color="#E1A11B"/>
<stop offset="0.28" stop-color="#E3A622"/>
<stop offset="0.31" stop-color="#EDC044"/>
<stop offset="0.34" stop-color="#F4D35F"/>
<stop offset="0.37" stop-color="#FAE272"/>
<stop offset="0.41" stop-color="#FDEA7D"/>
<stop offset="0.44" stop-color="#FEED81"/>
<stop offset="0.47" stop-color="#F8E37B"/>
<stop offset="0.51" stop-color="#E8C76B"/>
<stop offset="0.57" stop-color="#CE9B51"/>
<stop offset="0.63" stop-color="#AB5E2D"/>
<stop offset="0.65" stop-color="#A24F24"/>
<stop offset="0.76" stop-color="#E0B439"/>
<stop offset="0.86" stop-color="#F1C848"/>
<stop offset="1" stop-color="#FFFF8E"/>
</linearGradient>
<radialGradient id="paint108_radial_256_2115" cx="0" cy="0" r="1" gradientUnits="userSpaceOnUse" gradientTransform="translate(9.2544 9.39028) scale(10.2994 10.4489)">
<stop stop-color="#ECECBB"/>
<stop offset="1" stop-color="#784F58"/>
</radialGradient>
<clipPath id="clip0_256_2115">
<rect width="17" height="24" fill="white" transform="translate(0.666626)"/>
</clipPath>
</defs>
</svg>
