<svg width="11" height="16" viewBox="0 0 11 16" fill="none" xmlns="http://www.w3.org/2000/svg">
<path d="M8.14374 0H2.42383L2.81485 2.22359H8.14374V0Z" fill="url(#paint0_linear_3_4889)"/>
<g style="mix-blend-mode:multiply" opacity="0.75">
<path d="M3.11921 0H2.42383L2.81485 2.22359H4.26753L3.11921 0Z" fill="#4A8195"/>
</g>
<g style="mix-blend-mode:multiply" opacity="0.75">
<path d="M7.44788 0H8.14326L7.75224 2.22359H6.29956L7.44788 0Z" fill="#4A8195"/>
</g>
<path d="M8.14419 0L4.11218 7.34853H6.45215L10.1777 1.27001L8.14419 0Z" fill="url(#paint1_linear_3_4889)"/>
<path d="M9.77901 1.01268L5.94097 7.34884H4.59766L8.54918 0.245117L9.77901 1.01268Z" fill="url(#paint2_linear_3_4889)"/>
<g style="mix-blend-mode:multiply" opacity="0.5">
<path d="M5.63399 4.57324L4.11218 7.34845H6.45215L6.92262 6.57875L5.63399 4.57324Z" fill="#771A1F"/>
</g>
<path d="M5.20427 6.21875H5.18157C2.73637 6.21875 3.21097 7.99228 3.37708 8.41668L3.41938 8.37606C3.44554 8.35162 3.47387 8.32979 3.50398 8.31085H3.5112C3.53184 8.29695 3.83104 8.28519 3.85373 8.2745C3.71651 7.74426 3.39771 6.85803 5.18157 6.842H5.20427C6.98916 6.85482 6.66933 7.74105 6.53108 8.26595C6.55377 8.27664 6.85194 8.2884 6.87361 8.3023H6.8798C6.91008 8.32098 6.93843 8.34283 6.9644 8.36751L7.00773 8.40813C7.17488 7.99228 7.64947 6.21875 5.20427 6.21875Z" fill="url(#paint3_radial_3_4889)"/>
<path d="M5.20427 6.21875H5.18157C2.73637 6.21875 3.21097 7.99228 3.37708 8.41668L3.41938 8.37606C3.44554 8.35162 3.47387 8.32979 3.50398 8.31085H3.5112C3.53184 8.29695 3.83104 8.28519 3.85373 8.2745C3.71651 7.74426 3.39771 6.85803 5.18157 6.842H5.20427C6.98916 6.85482 6.66933 7.74105 6.53108 8.26595C6.55377 8.27664 6.85194 8.2884 6.87361 8.3023H6.8798C6.91008 8.32098 6.93843 8.34283 6.9644 8.36751L7.00773 8.40813C7.17488 7.99228 7.64947 6.21875 5.20427 6.21875Z" fill="url(#paint4_linear_3_4889)"/>
<path d="M5.20427 6.21875H5.18157C2.73637 6.21875 3.21097 7.99228 3.37708 8.41668L3.4039 8.39102C3.21819 7.84796 2.92105 6.29038 5.18157 6.29038H5.20427C7.46479 6.29038 7.16456 7.84796 6.98194 8.39102L7.0098 8.41668C7.17488 7.99228 7.6505 6.21875 5.20427 6.21875Z" fill="url(#paint5_linear_3_4889)"/>
<path style="mix-blend-mode:multiply" d="M3.75258 7.52051C3.56924 7.56126 3.39289 7.63046 3.22949 7.72576C3.24401 7.96268 3.2945 8.19574 3.37909 8.41636L3.42139 8.37573C3.44756 8.3513 3.47589 8.32947 3.506 8.31052H3.51322C3.53385 8.29663 3.83305 8.28487 3.85575 8.27418C3.79798 8.05182 3.71028 7.77387 3.75258 7.52051Z" fill="url(#paint6_linear_3_4889)"/>
<path style="mix-blend-mode:multiply" d="M6.62622 7.4834C6.684 7.74638 6.59011 8.04143 6.53027 8.26807C6.55297 8.27876 6.85114 8.29052 6.87281 8.30442H6.879C6.90927 8.3231 6.93762 8.34495 6.9636 8.36963L7.00693 8.41025C7.09296 8.1835 7.14279 7.94375 7.15447 7.70041C6.98794 7.60525 6.81045 7.53233 6.62622 7.4834Z" fill="url(#paint7_linear_3_4889)"/>
<path style="mix-blend-mode:multiply" opacity="0.55" d="M5.20248 6.69531H5.18184C3.44441 6.69531 3.51457 7.65744 3.62599 8.33414C3.63631 8.32666 3.83234 8.27962 3.85504 8.26893C3.71575 7.74403 3.39695 6.85781 5.18081 6.84177H5.20351C6.9884 6.8546 6.66857 7.74083 6.53032 8.26572C6.55301 8.27641 6.74801 8.32345 6.75833 8.33093C6.87079 7.66172 6.93991 6.69531 5.20248 6.69531Z" fill="url(#paint8_radial_3_4889)"/>
<path d="M0.386719 1.27001L4.1123 7.34853H6.45226L2.42026 0L0.386719 1.27001Z" fill="url(#paint9_linear_3_4889)"/>
<path d="M0.799805 1.01268L4.63784 7.34884H5.98116L2.02963 0.245117L0.799805 1.01268Z" fill="url(#paint10_linear_3_4889)"/>
<mask id="mask0_3_4889" style="mask-type:luminance" maskUnits="userSpaceOnUse" x="1" y="7" width="8" height="8">
<path d="M7.50005 13.1328C8.76802 11.819 8.76802 9.68884 7.50005 8.37502C6.23207 7.0612 4.17628 7.0612 2.9083 8.37502C1.64032 9.68884 1.64032 11.819 2.9083 13.1328C4.17628 14.4466 6.23207 14.4466 7.50005 13.1328Z" fill="white"/>
</mask>
<g mask="url(#mask0_3_4889)">
<path d="M7.50005 13.1328C8.76802 11.819 8.76802 9.68884 7.50005 8.37502C6.23207 7.0612 4.17628 7.0612 2.9083 8.37502C1.64032 9.68884 1.64032 11.819 2.9083 13.1328C4.17628 14.4466 6.23207 14.4466 7.50005 13.1328Z" fill="url(#paint11_linear_3_4889)"/>
<path d="M5.20401 7.3894C4.56184 7.3894 3.9341 7.58671 3.40015 7.95638C2.86621 8.32605 2.45005 8.85147 2.20431 9.46621C1.95856 10.0809 1.89426 10.7574 2.01954 11.41C2.14482 12.0626 2.45406 12.662 2.90814 13.1325C3.36222 13.603 3.94075 13.9234 4.57058 14.0533C5.20041 14.1831 5.85324 14.1164 6.44653 13.8618C7.03981 13.6072 7.5469 13.176 7.90367 12.6227C8.26044 12.0695 8.45087 11.419 8.45087 10.7536C8.45087 9.8614 8.10879 9.00569 7.49988 8.37477C6.89098 7.74385 6.06513 7.3894 5.20401 7.3894ZM5.20401 14.0249C4.5796 14.0249 3.9692 13.833 3.45002 13.4736C2.93084 13.1141 2.52619 12.6032 2.28723 12.0055C2.04828 11.4078 1.98576 10.75 2.10758 10.1155C2.2294 9.4809 2.53008 8.89802 2.97161 8.44053C3.41313 7.98304 3.97568 7.67149 4.58809 7.54527C5.20051 7.41904 5.8353 7.48383 6.41218 7.73142C6.98906 7.97901 7.48213 8.39829 7.82904 8.93625C8.17595 9.4742 8.36111 10.1067 8.36111 10.7536C8.36124 11.1833 8.27967 11.6087 8.12106 12.0057C7.96245 12.4026 7.72991 12.7633 7.43672 13.0671C7.14353 13.3709 6.79544 13.6118 6.41234 13.7762C6.02924 13.9405 5.61864 14.025 5.20401 14.0249Z" fill="url(#paint12_linear_3_4889)"/>
<path style="mix-blend-mode:screen" opacity="0.75" d="M6.19468 13.2055C7.50212 12.639 8.11886 11.0817 7.57222 9.72696C7.02557 8.37225 5.52254 7.73321 4.2151 8.29962C2.90767 8.86603 2.29092 10.4234 2.83757 11.7781C3.38421 13.1328 4.88724 13.7719 6.19468 13.2055Z" fill="url(#paint13_linear_3_4889)"/>
<path d="M6.19468 13.2055C7.50212 12.639 8.11886 11.0817 7.57222 9.72696C7.02557 8.37225 5.52254 7.73321 4.2151 8.29962C2.90767 8.86603 2.29092 10.4234 2.83757 11.7781C3.38421 13.1328 4.88724 13.7719 6.19468 13.2055Z" fill="url(#paint14_linear_3_4889)"/>
<path d="M5.20398 13.3226C6.57323 13.3226 7.68323 12.1725 7.68323 10.7537C7.68323 9.33494 6.57323 8.18481 5.20398 8.18481C3.83473 8.18481 2.72473 9.33494 2.72473 10.7537C2.72473 12.1725 3.83473 13.3226 5.20398 13.3226Z" fill="url(#paint15_linear_3_4889)"/>
<g opacity="0.5">
<g style="mix-blend-mode:multiply" opacity="0.85">
<path d="M7.22677 11.0626C7.20706 11.0603 7.18904 11.0501 7.17666 11.034C7.16427 11.018 7.15855 10.9975 7.16074 10.9771C7.16292 10.9567 7.17285 10.938 7.18833 10.9252C7.20381 10.9123 7.22357 10.9064 7.24327 10.9087C7.25327 10.9095 7.26301 10.9123 7.27193 10.9171C7.28085 10.9219 7.28876 10.9284 7.29519 10.9364C7.30163 10.9443 7.30647 10.9536 7.30943 10.9635C7.31238 10.9734 7.31339 10.9839 7.3124 10.9942C7.30957 11.0149 7.29903 11.0337 7.28303 11.0465C7.26703 11.0593 7.24684 11.0651 7.22677 11.0626Z" fill="url(#paint16_linear_3_4889)"/>
<path d="M7.16335 11.3649C7.15309 11.3631 7.14331 11.3591 7.13462 11.3532C7.12593 11.3473 7.11852 11.3395 7.11285 11.3305C7.10719 11.3215 7.10339 11.3113 7.10171 11.3007C7.10002 11.29 7.10048 11.2791 7.10305 11.2687C7.10562 11.2583 7.11026 11.2485 7.11666 11.24C7.12306 11.2315 7.13109 11.2244 7.14025 11.2193C7.1494 11.2142 7.15948 11.2111 7.16985 11.2102C7.18022 11.2093 7.19065 11.2107 7.20049 11.2142C7.21838 11.2206 7.23331 11.2337 7.2423 11.2509C7.25129 11.2682 7.25368 11.2883 7.249 11.3073C7.24432 11.3263 7.23291 11.3428 7.21704 11.3535C7.20117 11.3641 7.182 11.3682 7.16335 11.3649Z" fill="url(#paint17_linear_3_4889)"/>
<path d="M7.05548 11.6523C7.04678 11.6483 7.03895 11.6425 7.03242 11.6353C7.02589 11.6281 7.0208 11.6196 7.01745 11.6104C7.01409 11.6012 7.01253 11.5913 7.01286 11.5815C7.01319 11.5716 7.0154 11.5619 7.01937 11.5529C7.0265 11.5342 7.0405 11.5192 7.05829 11.5112C7.07609 11.5032 7.09623 11.5028 7.11429 11.5101C7.12397 11.5141 7.13277 11.5201 7.14018 11.5277C7.14759 11.5352 7.15344 11.5443 7.15739 11.5543C7.16134 11.5642 7.1633 11.575 7.16316 11.5857C7.16303 11.5965 7.16079 11.6072 7.15659 11.617C7.14752 11.6354 7.13186 11.6494 7.11297 11.656C7.09407 11.6626 7.07344 11.6613 7.05548 11.6523Z" fill="url(#paint18_linear_3_4889)"/>
<path d="M6.90949 11.9222C6.89279 11.9112 6.88087 11.8939 6.87625 11.874C6.87163 11.854 6.87467 11.833 6.88472 11.8153C6.89517 11.7978 6.91188 11.7853 6.93121 11.7805C6.95054 11.7757 6.97091 11.779 6.9879 11.7897C6.99623 11.7949 7.00348 11.8018 7.00923 11.81C7.01499 11.8182 7.01913 11.8274 7.02143 11.8373C7.02373 11.8471 7.02414 11.8573 7.02263 11.8673C7.02113 11.8773 7.01774 11.8869 7.01266 11.8955C7.00758 11.9041 7.00091 11.9116 6.99302 11.9176C6.98514 11.9236 6.9762 11.9279 6.96672 11.9302C6.95723 11.9326 6.94739 11.9331 6.93774 11.9315C6.9281 11.9299 6.91885 11.9264 6.91052 11.9212L6.90949 11.9222Z" fill="url(#paint19_linear_3_4889)"/>
<path d="M6.72683 12.1659C6.71948 12.1594 6.71345 12.1515 6.70909 12.1426C6.70473 12.1337 6.70214 12.1239 6.70147 12.114C6.7008 12.104 6.70206 12.094 6.70517 12.0846C6.70829 12.0751 6.7132 12.0664 6.71961 12.059C6.73207 12.0437 6.74973 12.0339 6.76893 12.0317C6.78813 12.0295 6.80741 12.0351 6.82279 12.0472C6.8303 12.0537 6.83651 12.0617 6.84105 12.0707C6.84558 12.0797 6.84836 12.0896 6.84922 12.0997C6.85009 12.1098 6.84901 12.12 6.84607 12.1297C6.84313 12.1394 6.83837 12.1484 6.83207 12.1562C6.82577 12.164 6.81805 12.1705 6.80935 12.1752C6.80065 12.1799 6.79115 12.1827 6.78138 12.1836C6.7716 12.1845 6.76176 12.1834 6.7524 12.1804C6.74304 12.1773 6.73435 12.1724 6.72683 12.1659Z" fill="url(#paint20_linear_3_4889)"/>
<path d="M6.51231 12.3832C6.50003 12.3683 6.49329 12.3493 6.49329 12.3297C6.49329 12.3101 6.50003 12.2912 6.51231 12.2763C6.5265 12.2631 6.54487 12.2559 6.5639 12.2559C6.58293 12.2559 6.6013 12.2631 6.61549 12.2763C6.62843 12.2912 6.63516 12.3108 6.63419 12.3308C6.63322 12.3509 6.62464 12.3697 6.61033 12.3832C6.59699 12.396 6.57949 12.403 6.56132 12.403C6.54316 12.403 6.52566 12.396 6.51231 12.3832Z" fill="url(#paint21_linear_3_4889)"/>
<path d="M6.26667 12.5619C6.26114 12.5535 6.25731 12.544 6.25541 12.534C6.25351 12.524 6.25357 12.5137 6.25559 12.5037C6.25761 12.4937 6.26156 12.4843 6.26718 12.4759C6.27281 12.4675 6.28 12.4604 6.28833 12.455C6.29649 12.4484 6.30588 12.4436 6.31591 12.4409C6.32594 12.4383 6.33639 12.4378 6.34661 12.4395C6.35684 12.4412 6.36661 12.445 6.37533 12.4508C6.38405 12.4566 6.39152 12.4642 6.39728 12.4731C6.40304 12.482 6.40697 12.4921 6.40881 12.5026C6.41065 12.5132 6.41037 12.524 6.40799 12.5345C6.40561 12.5449 6.40118 12.5547 6.39497 12.5633C6.38876 12.5719 6.38091 12.5791 6.3719 12.5844C6.35505 12.5957 6.33454 12.5998 6.31483 12.5956C6.29512 12.5914 6.27781 12.5793 6.26667 12.5619Z" fill="url(#paint22_linear_3_4889)"/>
<path d="M6.00448 12.7052C5.99589 12.686 5.99485 12.6641 6.00159 12.6442C6.00834 12.6242 6.02233 12.6078 6.04059 12.5983C6.04965 12.5936 6.05953 12.5908 6.06965 12.59C6.07977 12.5893 6.08993 12.5907 6.09954 12.5941C6.10914 12.5974 6.118 12.6028 6.1256 12.6097C6.13319 12.6167 6.13937 12.6252 6.14376 12.6347C6.14876 12.644 6.1518 12.6544 6.15267 12.665C6.15354 12.6757 6.15222 12.6864 6.14881 12.6965C6.14541 12.7066 6.13998 12.7158 6.13288 12.7236C6.12579 12.7314 6.11719 12.7375 6.10765 12.7416C6.09873 12.7469 6.08879 12.7503 6.07851 12.7513C6.06824 12.7524 6.05786 12.7512 6.04808 12.7477C6.0383 12.7443 6.02935 12.7387 6.02183 12.7314C6.01431 12.724 6.00839 12.7151 6.00448 12.7052Z" fill="url(#paint23_linear_3_4889)"/>
<path d="M5.72134 12.8024C5.71626 12.7831 5.71871 12.7626 5.72818 12.7451C5.73764 12.7277 5.75335 12.7149 5.7719 12.7094C5.79018 12.7058 5.80912 12.7093 5.82505 12.7193C5.84098 12.7293 5.85277 12.745 5.85816 12.7635C5.86354 12.7819 5.86214 12.8018 5.85421 12.8193C5.84628 12.8367 5.8324 12.8505 5.81523 12.858C5.80554 12.8607 5.79543 12.8615 5.78546 12.8602C5.77549 12.8589 5.76587 12.8556 5.75715 12.8504C5.74843 12.8452 5.74078 12.8383 5.73463 12.8301C5.72849 12.8219 5.72397 12.8125 5.72134 12.8024Z" fill="url(#paint24_linear_3_4889)"/>
<path d="M5.42736 12.8609C5.42518 12.8407 5.43045 12.8203 5.44211 12.8038C5.45377 12.7874 5.47097 12.7761 5.4903 12.7722C5.50983 12.7694 5.52963 12.7747 5.54545 12.7869C5.56127 12.7991 5.57184 12.8172 5.5749 12.8374C5.57791 12.8577 5.57302 12.8784 5.56132 12.8949C5.54961 12.9114 5.53204 12.9225 5.51248 12.9256C5.49291 12.9287 5.47295 12.9237 5.45699 12.9115C5.44103 12.8994 5.43037 12.8812 5.42736 12.8609Z" fill="url(#paint25_linear_3_4889)"/>
<path d="M5.13199 12.8697C5.13414 12.8507 5.14295 12.8332 5.15674 12.8205C5.17053 12.8078 5.18834 12.8008 5.20679 12.8008C5.22524 12.8008 5.24305 12.8078 5.25684 12.8205C5.27062 12.8332 5.27943 12.8507 5.28159 12.8697C5.28187 12.8908 5.27412 12.9111 5.26002 12.9263C5.24592 12.9415 5.22661 12.9504 5.20627 12.9509C5.19624 12.9507 5.18637 12.9484 5.17721 12.9441C5.16805 12.9399 5.15978 12.9338 5.15288 12.9263C5.14598 12.9187 5.14059 12.9099 5.137 12.9001C5.13342 12.8904 5.13171 12.8801 5.13199 12.8697Z" fill="url(#paint26_linear_3_4889)"/>
<path d="M4.83216 12.8373C4.83546 12.8172 4.84609 12.7993 4.86185 12.7871C4.8776 12.775 4.89727 12.7696 4.91676 12.7721C4.9362 12.7757 4.95355 12.787 4.96525 12.8035C4.97695 12.82 4.98212 12.8405 4.97969 12.8608C4.9786 12.871 4.97548 12.8808 4.97054 12.8896C4.9656 12.8984 4.95894 12.9061 4.95099 12.9121C4.94303 12.9182 4.93396 12.9224 4.92434 12.9246C4.91472 12.9268 4.90476 12.9269 4.89509 12.925C4.88533 12.9237 4.87592 12.9203 4.86743 12.9152C4.85894 12.91 4.85153 12.9032 4.84566 12.895C4.83978 12.8868 4.83556 12.8775 4.83324 12.8676C4.83092 12.8576 4.83055 12.8474 4.83216 12.8373Z" fill="url(#paint27_linear_3_4889)"/>
<path d="M4.54307 12.7583C4.54965 12.7394 4.5629 12.7239 4.58014 12.7147C4.59738 12.7056 4.61732 12.7036 4.63593 12.7091C4.65448 12.7146 4.67019 12.7274 4.67965 12.7449C4.68912 12.7623 4.69157 12.7828 4.68648 12.8021C4.68386 12.8122 4.67934 12.8216 4.6732 12.8298C4.66705 12.8381 4.6594 12.8449 4.65068 12.8501C4.64195 12.8553 4.63233 12.8586 4.62237 12.8599C4.6124 12.8612 4.60228 12.8605 4.5926 12.8577C4.58297 12.8547 4.57402 12.8497 4.56629 12.843C4.55855 12.8363 4.55219 12.8281 4.54757 12.8188C4.54296 12.8096 4.54018 12.7994 4.53941 12.789C4.53863 12.7786 4.53988 12.7682 4.54307 12.7583Z" fill="url(#paint28_linear_3_4889)"/>
<path d="M4.26827 12.6376C4.27267 12.6281 4.27884 12.6196 4.28644 12.6127C4.29403 12.6057 4.30289 12.6004 4.3125 12.597C4.3221 12.5936 4.33226 12.5922 4.34238 12.593C4.3525 12.5937 4.36238 12.5965 4.37144 12.6012C4.38952 12.6109 4.40329 12.6274 4.40983 12.6473C4.41638 12.6673 4.41519 12.6891 4.40652 12.7081C4.40275 12.7182 4.39691 12.7272 4.38941 12.7347C4.38191 12.7421 4.37293 12.7477 4.3631 12.7512C4.35327 12.7547 4.34283 12.7559 4.33251 12.7547C4.32219 12.7535 4.31223 12.7501 4.30335 12.7445C4.2939 12.7403 4.28541 12.7341 4.27842 12.7263C4.27144 12.7185 4.26612 12.7092 4.26281 12.6991C4.2595 12.6891 4.25828 12.6784 4.25922 12.6678C4.26016 12.6572 4.26324 12.6469 4.26827 12.6376Z" fill="url(#paint29_linear_3_4889)"/>
<path d="M4.01384 12.4765C4.02509 12.4598 4.04226 12.4484 4.0616 12.4448C4.08093 12.4412 4.10086 12.4457 4.11702 12.4573C4.12543 12.4626 4.13272 12.4696 4.13845 12.478C4.14418 12.4863 4.14822 12.4957 4.15034 12.5057C4.15246 12.5157 4.15261 12.526 4.15079 12.5361C4.14896 12.5461 4.14519 12.5557 4.13972 12.5642C4.12875 12.5811 4.11199 12.593 4.09282 12.5976C4.07366 12.6022 4.05354 12.599 4.03654 12.5888C4.02762 12.5832 4.0199 12.5759 4.01386 12.5671C4.00783 12.5583 4.00361 12.5483 4.00148 12.5378C3.99935 12.5272 3.99934 12.5164 4.00147 12.5058C4.0036 12.4953 4.00781 12.4853 4.01384 12.4765Z" fill="url(#paint30_linear_3_4889)"/>
<path d="M3.78504 12.2782C3.79923 12.2651 3.81759 12.2578 3.83663 12.2578C3.85566 12.2578 3.87402 12.2651 3.88821 12.2782C3.90049 12.2931 3.90724 12.3121 3.90724 12.3317C3.90724 12.3513 3.90049 12.3702 3.88821 12.3851C3.88149 12.3922 3.87346 12.3979 3.8646 12.4018C3.85575 12.4056 3.84623 12.4076 3.83663 12.4076C3.82702 12.4076 3.81751 12.4056 3.80865 12.4018C3.79979 12.3979 3.79176 12.3922 3.78504 12.3851C3.77143 12.3709 3.76379 12.3517 3.76379 12.3317C3.76379 12.3117 3.77143 12.2924 3.78504 12.2782Z" fill="url(#paint31_linear_3_4889)"/>
<path d="M3.58514 12.0472C3.60051 12.0351 3.61979 12.0295 3.639 12.0317C3.6582 12.0339 3.67585 12.0437 3.68832 12.059C3.70075 12.0743 3.70696 12.094 3.70561 12.1139C3.70426 12.1339 3.69547 12.1525 3.68109 12.1659C3.6657 12.1796 3.64572 12.1865 3.62545 12.1851C3.60518 12.1837 3.58626 12.1741 3.57276 12.1584C3.56639 12.1503 3.56165 12.141 3.55882 12.131C3.55599 12.1209 3.55513 12.1104 3.55628 12.1001C3.55744 12.0897 3.56059 12.0797 3.56554 12.0706C3.5705 12.0615 3.57716 12.0536 3.58514 12.0472Z" fill="url(#paint32_linear_3_4889)"/>
<path d="M3.41954 11.7906C3.42787 11.7853 3.43712 11.7818 3.44677 11.7802C3.45641 11.7787 3.46625 11.7791 3.47574 11.7815C3.48522 11.7838 3.49416 11.7881 3.50204 11.7941C3.50993 11.8001 3.5166 11.8076 3.52168 11.8162C3.52676 11.8248 3.53015 11.8344 3.53166 11.8444C3.53316 11.8544 3.53275 11.8646 3.53045 11.8744C3.52815 11.8843 3.52401 11.8935 3.51825 11.9017C3.5125 11.9099 3.50525 11.9168 3.49692 11.922C3.48009 11.9327 3.45987 11.9359 3.44072 11.9311C3.42156 11.9263 3.40504 11.9138 3.39478 11.8964C3.38452 11.879 3.38136 11.858 3.386 11.8382C3.39065 11.8183 3.40271 11.8012 3.41954 11.7906Z" fill="url(#paint33_linear_3_4889)"/>
<path d="M3.29382 11.5101C3.31188 11.5028 3.33202 11.5032 3.34982 11.5112C3.36761 11.5192 3.38161 11.5342 3.38874 11.5529C3.39271 11.5619 3.39492 11.5716 3.39525 11.5815C3.39558 11.5913 3.39402 11.6012 3.39066 11.6104C3.38731 11.6196 3.38222 11.6281 3.37569 11.6353C3.36916 11.6425 3.36133 11.6483 3.35263 11.6523C3.34344 11.657 3.33345 11.6597 3.32324 11.6603C3.31302 11.6609 3.3028 11.6593 3.29318 11.6557C3.28356 11.6521 3.27473 11.6466 3.26722 11.6394C3.25971 11.6322 3.25367 11.6235 3.24946 11.6138C3.24579 11.604 3.24404 11.5935 3.24429 11.583C3.24453 11.5725 3.24678 11.5621 3.2509 11.5525C3.25502 11.5428 3.26093 11.5341 3.2683 11.5269C3.27566 11.5196 3.28433 11.5139 3.29382 11.5101Z" fill="url(#paint34_linear_3_4889)"/>
<path d="M3.20683 11.2138C3.22595 11.2094 3.24594 11.2128 3.26279 11.2231C3.27963 11.2334 3.29208 11.2499 3.29763 11.2694C3.30186 11.2893 3.29869 11.3102 3.28875 11.3278C3.27881 11.3454 3.26282 11.3585 3.24398 11.3645C3.23449 11.3672 3.22457 11.3679 3.21481 11.3666C3.20505 11.3653 3.19566 11.3619 3.18718 11.3567C3.17871 11.3515 3.17133 11.3446 3.16549 11.3364C3.15965 11.3282 3.15546 11.3188 3.15318 11.3089C3.15055 11.299 3.14985 11.2887 3.15114 11.2785C3.15242 11.2683 3.15566 11.2585 3.16066 11.2496C3.16566 11.2408 3.17232 11.233 3.18025 11.2269C3.18818 11.2207 3.19722 11.2163 3.20683 11.2138Z" fill="url(#paint35_linear_3_4889)"/>
<path d="M3.16532 10.9033C3.18369 10.9036 3.20133 10.9108 3.21494 10.9235C3.22854 10.9363 3.23717 10.9538 3.2392 10.9727C3.24123 10.9916 3.23652 11.0107 3.22595 11.0262C3.21539 11.0418 3.19969 11.0528 3.18183 11.0573C3.16176 11.0597 3.14156 11.0539 3.12556 11.0411C3.10956 11.0283 3.09902 11.0096 3.09619 10.9888C3.0952 10.9785 3.09621 10.9681 3.09917 10.9581C3.10212 10.9482 3.10696 10.939 3.1134 10.931C3.11984 10.9231 3.12775 10.9165 3.13666 10.9117C3.14558 10.907 3.15532 10.9041 3.16532 10.9033Z" fill="url(#paint36_linear_3_4889)"/>
<path d="M3.16474 10.5988C3.18435 10.5999 3.20277 10.6089 3.21607 10.6239C3.22937 10.6389 3.2365 10.6587 3.23593 10.679C3.23436 10.6993 3.22538 10.7183 3.21081 10.732C3.19625 10.7457 3.17719 10.7531 3.15752 10.7528C3.14763 10.7528 3.13783 10.7507 3.12877 10.7466C3.1197 10.7425 3.11156 10.7365 3.10486 10.7289C3.09816 10.7214 3.09305 10.7125 3.08986 10.7028C3.08667 10.6931 3.08547 10.6828 3.08633 10.6726C3.08658 10.6623 3.08884 10.6522 3.09296 10.6429C3.09709 10.6336 3.10299 10.6252 3.11032 10.6183C3.11765 10.6114 3.12625 10.6062 3.1356 10.6028C3.14495 10.5995 3.15487 10.5981 3.16474 10.5988Z" fill="url(#paint37_linear_3_4889)"/>
<path d="M3.20718 10.292C3.22606 10.2966 3.24258 10.3084 3.25348 10.325C3.26437 10.3416 3.26883 10.3619 3.26599 10.3818C3.2627 10.4017 3.25198 10.4194 3.23616 10.4312C3.22033 10.443 3.20066 10.4479 3.18139 10.4448C3.17153 10.4432 3.16209 10.4395 3.15363 10.434C3.14516 10.4285 3.13783 10.4213 3.13207 10.4128C3.12631 10.4044 3.12223 10.3948 3.12007 10.3847C3.11791 10.3746 3.11771 10.3641 3.11948 10.354C3.12094 10.3437 3.12442 10.3339 3.12971 10.3252C3.135 10.3164 3.14199 10.3089 3.15023 10.3031C3.15847 10.2972 3.16778 10.2932 3.17758 10.2913C3.18738 10.2894 3.19746 10.2896 3.20718 10.292Z" fill="url(#paint38_linear_3_4889)"/>
<path d="M3.29357 9.99586C3.31203 10.0029 3.32711 10.0171 3.33559 10.0355C3.34407 10.0538 3.34528 10.0749 3.33897 10.0942C3.33159 10.1129 3.31784 10.1281 3.30034 10.137C3.28284 10.1459 3.26281 10.1478 3.24405 10.1423C3.23448 10.1395 3.22559 10.1346 3.21796 10.1279C3.21032 10.1213 3.20412 10.1131 3.19975 10.1038C3.19537 10.0946 3.19292 10.0844 3.19255 10.0741C3.19219 10.0638 3.19391 10.0535 3.19762 10.044C3.20075 10.0342 3.20573 10.0252 3.21229 10.0174C3.21884 10.0097 3.22683 10.0034 3.23578 9.9989C3.24472 9.99441 3.25445 9.99183 3.26438 9.99131C3.2743 9.99079 3.28423 9.99234 3.29357 9.99586Z" fill="url(#paint39_linear_3_4889)"/>
<path d="M3.41998 9.71666C3.43752 9.72683 3.45062 9.7436 3.45657 9.76349C3.46253 9.78339 3.46088 9.80489 3.45197 9.82356C3.44294 9.84185 3.42727 9.85567 3.4084 9.86199C3.38954 9.8683 3.36902 9.86659 3.35137 9.85724C3.33372 9.84788 3.32038 9.83164 3.31429 9.8121C3.30819 9.79255 3.30984 9.77129 3.31887 9.75301C3.32269 9.74328 3.32846 9.73451 3.33581 9.72729C3.34316 9.72006 3.35191 9.71455 3.36148 9.71111C3.37105 9.70767 3.38122 9.70638 3.39131 9.70734C3.4014 9.7083 3.41117 9.71147 3.41998 9.71666Z" fill="url(#paint40_linear_3_4889)"/>
<path d="M3.58435 9.45887C3.59975 9.47117 3.60996 9.48916 3.61285 9.50909C3.61573 9.52902 3.61107 9.54933 3.59983 9.56577C3.58795 9.58163 3.57076 9.5923 3.55166 9.59567C3.53255 9.59903 3.51293 9.59485 3.49666 9.58394C3.48849 9.5783 3.48155 9.57097 3.47625 9.56242C3.47095 9.55386 3.46741 9.54427 3.46586 9.53423C3.46431 9.52419 3.46478 9.51393 3.46724 9.50409C3.4697 9.49424 3.47409 9.48504 3.48015 9.47704C3.4858 9.46871 3.49299 9.46162 3.50131 9.45619C3.50962 9.45076 3.5189 9.44709 3.52859 9.4454C3.53828 9.44371 3.5482 9.44403 3.55777 9.44634C3.56735 9.44865 3.57638 9.45291 3.58435 9.45887Z" fill="url(#paint41_linear_3_4889)"/>
<path d="M3.78487 9.22807C3.79735 9.24287 3.80423 9.26186 3.80423 9.28152C3.80423 9.30118 3.79735 9.32017 3.78487 9.33497C3.77102 9.34882 3.75253 9.35656 3.73328 9.35656C3.71404 9.35656 3.69554 9.34882 3.6817 9.33497C3.66856 9.3205 3.66125 9.30138 3.66125 9.28152C3.66125 9.26166 3.66856 9.24254 3.6817 9.22807C3.69542 9.21397 3.71396 9.20605 3.73328 9.20605C3.75261 9.20605 3.77115 9.21397 3.78487 9.22807Z" fill="url(#paint42_linear_3_4889)"/>
<path d="M4.01386 9.02943C4.02508 9.04571 4.02993 9.06578 4.02745 9.08562C4.02496 9.10545 4.01531 9.12357 4.00044 9.13634C3.98458 9.14749 3.96532 9.15223 3.94631 9.14967C3.9273 9.14711 3.90986 9.13742 3.89727 9.12244C3.89106 9.11464 3.88646 9.10561 3.88376 9.09589C3.88106 9.08618 3.88032 9.07599 3.88158 9.06597C3.88283 9.05594 3.88607 9.04629 3.89107 9.03762C3.89608 9.02894 3.90276 9.02143 3.91068 9.01553C3.92621 9.00339 3.94572 8.99804 3.96501 9.00064C3.9843 9.00324 4.00184 9.01358 4.01386 9.02943Z" fill="url(#paint43_linear_3_4889)"/>
<path d="M4.26917 8.87219C4.27886 8.89037 4.28127 8.91177 4.27586 8.93178C4.27046 8.95178 4.25768 8.96877 4.24028 8.9791C4.23185 8.98449 4.22246 8.98808 4.21266 8.98965C4.20287 8.99122 4.19287 8.99075 4.18326 8.98826C4.17364 8.98577 4.16461 8.98131 4.15668 8.97515C4.14876 8.96898 4.1421 8.96124 4.13711 8.95237C4.12724 8.93445 4.12452 8.91324 4.12953 8.89326C4.13454 8.87329 4.14689 8.85614 4.16393 8.84547C4.17244 8.83973 4.182 8.83586 4.19201 8.8341C4.20202 8.83233 4.21227 8.83272 4.22214 8.83522C4.232 8.83773 4.24126 8.8423 4.24935 8.84866C4.25744 8.85502 4.26418 8.86303 4.26917 8.87219Z" fill="url(#paint44_linear_3_4889)"/>
<path d="M4.54339 8.74785C4.55013 8.767 4.54937 8.78813 4.54127 8.80671C4.53318 8.82529 4.51838 8.83985 4.50006 8.84727C4.48127 8.85344 4.46094 8.85215 4.44302 8.84365C4.42509 8.83516 4.41086 8.82006 4.40307 8.8013C4.3993 8.79186 4.39744 8.78171 4.39759 8.77149C4.39775 8.76127 4.39992 8.75119 4.40398 8.74188C4.40804 8.73256 4.4139 8.72421 4.4212 8.71733C4.4285 8.71045 4.43707 8.70519 4.44641 8.70188C4.45566 8.69798 4.46558 8.69609 4.47557 8.69631C4.48556 8.69653 4.4954 8.69886 4.50448 8.70317C4.51356 8.70747 4.5217 8.71366 4.52839 8.72134C4.53508 8.72903 4.54019 8.73805 4.54339 8.74785Z" fill="url(#paint45_linear_3_4889)"/>
<path d="M4.83208 8.66958C4.83529 8.68934 4.83124 8.70962 4.82074 8.72643C4.81024 8.74325 4.79404 8.75539 4.77534 8.76045C4.75633 8.76496 4.73637 8.76155 4.71977 8.75095C4.70317 8.74035 4.69126 8.72341 4.68661 8.70379C4.68196 8.68338 4.68533 8.66189 4.69597 8.64405C4.70661 8.62621 4.72366 8.61347 4.74335 8.60865C4.75307 8.60615 4.76318 8.60577 4.77304 8.60754C4.7829 8.6093 4.79231 8.61317 4.80065 8.6189C4.80899 8.62463 4.81609 8.6321 4.82151 8.64082C4.82692 8.64954 4.83052 8.65934 4.83208 8.66958Z" fill="url(#paint46_linear_3_4889)"/>
<path d="M5.13263 8.63645C5.13349 8.65663 5.12677 8.67637 5.11388 8.69152C5.10099 8.70667 5.08293 8.71605 5.0635 8.71769C5.04393 8.71813 5.02489 8.71106 5.01003 8.69784C4.99518 8.68462 4.98556 8.66618 4.98303 8.64607C4.98187 8.63587 4.98279 8.62553 4.98572 8.61571C4.98865 8.6059 4.99352 8.59683 5.00003 8.58908C5.00654 8.58133 5.01453 8.57507 5.02351 8.57071C5.03249 8.56635 5.04224 8.56398 5.05215 8.56375C5.06208 8.56288 5.07207 8.56408 5.08154 8.56729C5.091 8.5705 5.09975 8.57565 5.10726 8.58243C5.11477 8.58921 5.12088 8.59749 5.12524 8.60677C5.1296 8.61605 5.13211 8.62614 5.13263 8.63645Z" fill="url(#paint47_linear_3_4889)"/>
<path d="M5.42733 8.64599C5.42526 8.66611 5.41592 8.68468 5.40118 8.69796C5.38645 8.71125 5.36741 8.71826 5.34789 8.71761C5.32846 8.71597 5.3104 8.70659 5.29751 8.69144C5.28461 8.67628 5.2779 8.65654 5.27876 8.63636C5.27928 8.62616 5.28177 8.61616 5.28606 8.60695C5.29035 8.59775 5.29637 8.58952 5.30377 8.58275C5.31116 8.57599 5.31979 8.57081 5.32913 8.56754C5.33848 8.56426 5.34836 8.56295 5.3582 8.56367C5.36817 8.56373 5.378 8.56599 5.38706 8.5703C5.39611 8.5746 5.40418 8.58086 5.41072 8.58864C5.41726 8.59643 5.42212 8.60557 5.42498 8.61546C5.42785 8.62535 5.42865 8.63575 5.42733 8.64599Z" fill="url(#paint48_linear_3_4889)"/>
<path d="M5.7209 8.7038C5.71601 8.72328 5.70405 8.74004 5.68752 8.7506C5.67099 8.76116 5.65116 8.76469 5.63217 8.76046C5.61328 8.75562 5.59684 8.74358 5.58613 8.72674C5.57542 8.70989 5.57123 8.68949 5.57439 8.66959C5.57609 8.6593 5.57981 8.64949 5.58532 8.64076C5.59084 8.63203 5.59804 8.62458 5.60646 8.61886C5.61488 8.61314 5.62435 8.60928 5.63428 8.60753C5.64421 8.60577 5.65438 8.60616 5.66415 8.60866C5.68385 8.61348 5.7009 8.62621 5.71154 8.64406C5.72218 8.6619 5.72555 8.68339 5.7209 8.7038Z" fill="url(#paint49_linear_3_4889)"/>
<path d="M6.00384 8.8009C5.99606 8.81966 5.98182 8.83476 5.9639 8.84325C5.94597 8.85175 5.92564 8.85304 5.90685 8.84687C5.88886 8.83902 5.87439 8.82441 5.86636 8.80597C5.85832 8.78753 5.85731 8.76663 5.86352 8.74745C5.87028 8.7286 5.88388 8.71323 5.90143 8.70464C5.91897 8.69605 5.93907 8.69492 5.95741 8.70148C5.96711 8.70431 5.97612 8.70923 5.98384 8.71594C5.99157 8.72264 5.99783 8.73096 6.00222 8.74036C6.00661 8.74976 6.00902 8.76002 6.0093 8.77045C6.00958 8.78089 6.00772 8.79127 6.00384 8.8009Z" fill="url(#paint50_linear_3_4889)"/>
<path d="M6.2667 8.94525C6.26171 8.95412 6.25506 8.96187 6.24713 8.96803C6.2392 8.9742 6.23017 8.97866 6.22055 8.98115C6.21094 8.98364 6.20094 8.98411 6.19115 8.98253C6.18135 8.98096 6.17196 8.97737 6.16353 8.97198C6.14613 8.96166 6.13335 8.94466 6.12795 8.92466C6.12254 8.90466 6.12495 8.88326 6.13464 8.86508C6.13917 8.85574 6.14551 8.84747 6.15326 8.84079C6.16101 8.83411 6.17001 8.82916 6.1797 8.82625C6.18938 8.82334 6.19955 8.82253 6.20955 8.82388C6.21955 8.82522 6.22917 8.82869 6.23782 8.83407C6.24698 8.83918 6.25505 8.84616 6.26152 8.85461C6.26798 8.86306 6.27271 8.87279 6.27542 8.8832C6.27812 8.89361 6.27875 8.90449 6.27725 8.91516C6.27575 8.92583 6.27216 8.93607 6.2667 8.94525Z" fill="url(#paint51_linear_3_4889)"/>
<path d="M6.51312 9.12428C6.50054 9.13926 6.48309 9.14895 6.46408 9.15151C6.44507 9.15407 6.42581 9.14933 6.40995 9.13817C6.39616 9.12492 6.38766 9.10679 6.38612 9.08737C6.38458 9.06794 6.39011 9.04862 6.40162 9.03321C6.41313 9.01779 6.42979 9.0074 6.44833 9.00407C6.46686 9.00075 6.48593 9.00473 6.50177 9.01523C6.50974 9.02139 6.51639 9.02918 6.52131 9.03812C6.52624 9.04706 6.52933 9.05696 6.53039 9.06719C6.53146 9.07743 6.53047 9.08778 6.5275 9.0976C6.52453 9.10742 6.51964 9.1165 6.51312 9.12428Z" fill="url(#paint52_linear_3_4889)"/>
<path d="M6.72652 9.33985C6.71267 9.3537 6.69417 9.36144 6.67493 9.36144C6.65568 9.36144 6.63719 9.3537 6.62334 9.33985C6.61065 9.32515 6.60364 9.30612 6.60364 9.2864C6.60364 9.26668 6.61065 9.24765 6.62334 9.23295C6.63706 9.21885 6.6556 9.21094 6.67493 9.21094C6.69425 9.21094 6.71279 9.21885 6.72652 9.23295C6.73965 9.24742 6.74696 9.26654 6.74696 9.2864C6.74696 9.30627 6.73965 9.32538 6.72652 9.33985Z" fill="url(#paint53_linear_3_4889)"/>
<path d="M6.90999 9.58361C6.89372 9.59452 6.87409 9.5987 6.85499 9.59534C6.83589 9.59197 6.81869 9.5813 6.80682 9.56544C6.79532 9.54871 6.79072 9.52793 6.79401 9.50769C6.79729 9.48744 6.80821 9.46937 6.82436 9.45746C6.8405 9.44556 6.86055 9.44078 6.88009 9.44419C6.89963 9.4476 6.91707 9.45891 6.92856 9.47564C6.9347 9.4838 6.9391 9.4932 6.9415 9.50324C6.9439 9.51328 6.94424 9.52373 6.94249 9.53391C6.94073 9.54409 6.93694 9.55378 6.93134 9.56234C6.92574 9.5709 6.91847 9.57815 6.90999 9.58361Z" fill="url(#paint54_linear_3_4889)"/>
<path d="M7.05501 9.85407C7.04617 9.85934 7.03637 9.86265 7.02623 9.86377C7.01609 9.86489 7.00584 9.8638 6.99612 9.86058C6.98641 9.85736 6.97746 9.85208 6.96983 9.84507C6.9622 9.83805 6.95607 9.82947 6.95183 9.81986C6.94284 9.80132 6.94103 9.77991 6.94679 9.76003C6.95254 9.74015 6.96542 9.72331 6.98278 9.71296C6.99152 9.70748 7.00127 9.70399 7.0114 9.7027C7.02153 9.70142 7.03181 9.70237 7.04156 9.7055C7.05131 9.70864 7.0603 9.71387 7.06796 9.72087C7.07561 9.72787 7.08175 9.73646 7.08596 9.7461C7.09098 9.75524 7.09417 9.76534 7.09533 9.7758C7.09648 9.78625 7.09559 9.79684 7.0927 9.80692C7.08981 9.81701 7.08498 9.82638 7.0785 9.83449C7.07202 9.84259 7.06403 9.84925 7.05501 9.85407Z" fill="url(#paint55_linear_3_4889)"/>
<path d="M7.16349 10.1423C7.14473 10.1478 7.12469 10.1459 7.10719 10.137C7.08969 10.1281 7.07595 10.1129 7.06857 10.0942C7.06225 10.0749 7.06346 10.0538 7.07195 10.0355C7.08043 10.0171 7.09551 10.0029 7.11397 9.99586C7.12331 9.99234 7.13323 9.99079 7.14316 9.99131C7.15309 9.99183 7.16281 9.99441 7.17176 9.9989C7.18071 10.0034 7.18869 10.0097 7.19525 10.0174C7.2018 10.0252 7.20679 10.0342 7.20992 10.044C7.21362 10.0535 7.21535 10.0638 7.21498 10.0741C7.21462 10.0844 7.21217 10.0946 7.20779 10.1038C7.20342 10.1131 7.19721 10.1213 7.18958 10.1279C7.18195 10.1346 7.17306 10.1395 7.16349 10.1423Z" fill="url(#paint56_linear_3_4889)"/>
<path d="M7.22706 10.4448C7.20767 10.4479 7.18787 10.4431 7.17188 10.4313C7.15589 10.4195 7.14496 10.4018 7.14143 10.3818C7.13887 10.3618 7.14357 10.3415 7.15463 10.3249C7.16569 10.3083 7.18232 10.2966 7.20127 10.292C7.21099 10.2896 7.22107 10.2894 7.23087 10.2913C7.24067 10.2932 7.24999 10.2972 7.25822 10.3031C7.26646 10.3089 7.27345 10.3164 7.27874 10.3252C7.28403 10.3339 7.28751 10.3437 7.28897 10.354C7.29227 10.3745 7.28762 10.3956 7.27603 10.4126C7.26444 10.4296 7.24685 10.4412 7.22706 10.4448Z" fill="url(#paint57_linear_3_4889)"/>
<path d="M7.25044 10.7528C7.23077 10.7531 7.21171 10.7457 7.19715 10.732C7.18258 10.7183 7.1736 10.6993 7.17203 10.679C7.17146 10.6587 7.17859 10.6389 7.19189 10.6239C7.20518 10.6089 7.2236 10.5999 7.24322 10.5988C7.25309 10.5981 7.263 10.5995 7.27236 10.6028C7.28171 10.6062 7.29031 10.6114 7.29764 10.6183C7.30497 10.6252 7.31087 10.6336 7.315 10.6429C7.31912 10.6522 7.32138 10.6623 7.32163 10.6726C7.32249 10.6828 7.32129 10.6931 7.3181 10.7028C7.31491 10.7125 7.3098 10.7214 7.3031 10.7289C7.2964 10.7365 7.28826 10.7425 7.27919 10.7466C7.27013 10.7507 7.26033 10.7528 7.25044 10.7528Z" fill="url(#paint58_linear_3_4889)"/>
</g>
<g style="mix-blend-mode:multiply" opacity="0.85">
<path d="M7.22677 11.0626C7.20706 11.0603 7.18904 11.0501 7.17666 11.034C7.16427 11.018 7.15855 10.9975 7.16074 10.9771C7.16292 10.9567 7.17285 10.938 7.18833 10.9252C7.20381 10.9123 7.22357 10.9064 7.24327 10.9087C7.25327 10.9095 7.26301 10.9123 7.27193 10.9171C7.28085 10.9219 7.28876 10.9284 7.29519 10.9364C7.30163 10.9443 7.30647 10.9536 7.30943 10.9635C7.31238 10.9734 7.31339 10.9839 7.3124 10.9942C7.30957 11.0149 7.29903 11.0337 7.28303 11.0465C7.26703 11.0593 7.24684 11.0651 7.22677 11.0626Z" fill="url(#paint59_linear_3_4889)"/>
<path d="M7.16335 11.3649C7.15309 11.3631 7.14331 11.3591 7.13462 11.3532C7.12593 11.3473 7.11852 11.3395 7.11285 11.3305C7.10719 11.3215 7.10339 11.3113 7.10171 11.3007C7.10002 11.29 7.10048 11.2791 7.10305 11.2687C7.10562 11.2583 7.11026 11.2485 7.11666 11.24C7.12306 11.2315 7.13109 11.2244 7.14025 11.2193C7.1494 11.2142 7.15948 11.2111 7.16985 11.2102C7.18022 11.2093 7.19065 11.2107 7.20049 11.2142C7.21838 11.2206 7.23331 11.2337 7.2423 11.2509C7.25129 11.2682 7.25368 11.2883 7.249 11.3073C7.24432 11.3263 7.23291 11.3428 7.21704 11.3535C7.20117 11.3641 7.182 11.3682 7.16335 11.3649Z" fill="url(#paint60_linear_3_4889)"/>
<path d="M7.05548 11.6523C7.04678 11.6483 7.03895 11.6425 7.03242 11.6353C7.02589 11.6281 7.0208 11.6196 7.01745 11.6104C7.01409 11.6012 7.01253 11.5913 7.01286 11.5815C7.01319 11.5716 7.0154 11.5619 7.01937 11.5529C7.0265 11.5342 7.0405 11.5192 7.05829 11.5112C7.07609 11.5032 7.09623 11.5028 7.11429 11.5101C7.12397 11.5141 7.13277 11.5201 7.14018 11.5277C7.14759 11.5352 7.15344 11.5443 7.15739 11.5543C7.16134 11.5642 7.1633 11.575 7.16316 11.5857C7.16303 11.5965 7.16079 11.6072 7.15659 11.617C7.14752 11.6354 7.13186 11.6494 7.11297 11.656C7.09407 11.6626 7.07344 11.6613 7.05548 11.6523Z" fill="url(#paint61_linear_3_4889)"/>
<path d="M6.90949 11.9222C6.89279 11.9112 6.88087 11.8939 6.87625 11.874C6.87163 11.854 6.87467 11.833 6.88472 11.8153C6.89517 11.7978 6.91188 11.7853 6.93121 11.7805C6.95054 11.7757 6.97091 11.779 6.9879 11.7897C6.99623 11.7949 7.00348 11.8018 7.00923 11.81C7.01499 11.8182 7.01913 11.8274 7.02143 11.8373C7.02373 11.8471 7.02414 11.8573 7.02263 11.8673C7.02113 11.8773 7.01774 11.8869 7.01266 11.8955C7.00758 11.9041 7.00091 11.9116 6.99302 11.9176C6.98514 11.9236 6.9762 11.9279 6.96672 11.9302C6.95723 11.9326 6.94739 11.9331 6.93774 11.9315C6.9281 11.9299 6.91885 11.9264 6.91052 11.9212L6.90949 11.9222Z" fill="url(#paint62_linear_3_4889)"/>
<path d="M6.72683 12.1659C6.71948 12.1594 6.71345 12.1515 6.70909 12.1426C6.70473 12.1337 6.70214 12.1239 6.70147 12.114C6.7008 12.104 6.70206 12.094 6.70517 12.0846C6.70829 12.0751 6.7132 12.0664 6.71961 12.059C6.73207 12.0437 6.74973 12.0339 6.76893 12.0317C6.78813 12.0295 6.80741 12.0351 6.82279 12.0472C6.8303 12.0537 6.83651 12.0617 6.84105 12.0707C6.84558 12.0797 6.84836 12.0896 6.84922 12.0997C6.85009 12.1098 6.84901 12.12 6.84607 12.1297C6.84313 12.1394 6.83837 12.1484 6.83207 12.1562C6.82577 12.164 6.81805 12.1705 6.80935 12.1752C6.80065 12.1799 6.79115 12.1827 6.78138 12.1836C6.7716 12.1845 6.76176 12.1834 6.7524 12.1804C6.74304 12.1773 6.73435 12.1724 6.72683 12.1659Z" fill="url(#paint63_linear_3_4889)"/>
<path d="M6.51231 12.3832C6.50003 12.3683 6.49329 12.3493 6.49329 12.3297C6.49329 12.3101 6.50003 12.2912 6.51231 12.2763C6.5265 12.2631 6.54487 12.2559 6.5639 12.2559C6.58293 12.2559 6.6013 12.2631 6.61549 12.2763C6.62843 12.2912 6.63516 12.3108 6.63419 12.3308C6.63322 12.3509 6.62464 12.3697 6.61033 12.3832C6.59699 12.396 6.57949 12.403 6.56132 12.403C6.54316 12.403 6.52566 12.396 6.51231 12.3832Z" fill="url(#paint64_linear_3_4889)"/>
<path d="M6.26667 12.5619C6.26114 12.5535 6.25731 12.544 6.25541 12.534C6.25351 12.524 6.25357 12.5137 6.25559 12.5037C6.25761 12.4937 6.26156 12.4843 6.26718 12.4759C6.27281 12.4675 6.28 12.4604 6.28833 12.455C6.29649 12.4484 6.30588 12.4436 6.31591 12.4409C6.32594 12.4383 6.33639 12.4378 6.34661 12.4395C6.35684 12.4412 6.36661 12.445 6.37533 12.4508C6.38405 12.4566 6.39152 12.4642 6.39728 12.4731C6.40304 12.482 6.40697 12.4921 6.40881 12.5026C6.41065 12.5132 6.41037 12.524 6.40799 12.5345C6.40561 12.5449 6.40118 12.5547 6.39497 12.5633C6.38876 12.5719 6.38091 12.5791 6.3719 12.5844C6.35505 12.5957 6.33454 12.5998 6.31483 12.5956C6.29512 12.5914 6.27781 12.5793 6.26667 12.5619Z" fill="url(#paint65_linear_3_4889)"/>
<path d="M6.00448 12.7052C5.99589 12.686 5.99485 12.6641 6.00159 12.6442C6.00834 12.6242 6.02233 12.6078 6.04059 12.5983C6.04965 12.5936 6.05953 12.5908 6.06965 12.59C6.07977 12.5893 6.08993 12.5907 6.09954 12.5941C6.10914 12.5974 6.118 12.6028 6.1256 12.6097C6.13319 12.6167 6.13937 12.6252 6.14376 12.6347C6.14876 12.644 6.1518 12.6544 6.15267 12.665C6.15354 12.6757 6.15222 12.6864 6.14881 12.6965C6.14541 12.7066 6.13998 12.7158 6.13288 12.7236C6.12579 12.7314 6.11719 12.7375 6.10765 12.7416C6.09873 12.7469 6.08879 12.7503 6.07851 12.7513C6.06824 12.7524 6.05786 12.7512 6.04808 12.7477C6.0383 12.7443 6.02935 12.7387 6.02183 12.7314C6.01431 12.724 6.00839 12.7151 6.00448 12.7052Z" fill="url(#paint66_linear_3_4889)"/>
<path d="M5.72134 12.8024C5.71626 12.7831 5.71871 12.7626 5.72818 12.7451C5.73764 12.7277 5.75335 12.7149 5.7719 12.7094C5.79018 12.7058 5.80912 12.7093 5.82505 12.7193C5.84098 12.7293 5.85277 12.745 5.85816 12.7635C5.86354 12.7819 5.86214 12.8018 5.85421 12.8193C5.84628 12.8367 5.8324 12.8505 5.81523 12.858C5.80554 12.8607 5.79543 12.8615 5.78546 12.8602C5.77549 12.8589 5.76587 12.8556 5.75715 12.8504C5.74843 12.8452 5.74078 12.8383 5.73463 12.8301C5.72849 12.8219 5.72397 12.8125 5.72134 12.8024Z" fill="url(#paint67_linear_3_4889)"/>
<path d="M5.42736 12.8609C5.42518 12.8407 5.43045 12.8203 5.44211 12.8038C5.45377 12.7874 5.47097 12.7761 5.4903 12.7722C5.50983 12.7694 5.52963 12.7747 5.54545 12.7869C5.56127 12.7991 5.57184 12.8172 5.5749 12.8374C5.57791 12.8577 5.57302 12.8784 5.56132 12.8949C5.54961 12.9114 5.53204 12.9225 5.51248 12.9256C5.49291 12.9287 5.47295 12.9237 5.45699 12.9115C5.44103 12.8994 5.43037 12.8812 5.42736 12.8609Z" fill="url(#paint68_linear_3_4889)"/>
<path d="M5.13199 12.8697C5.13414 12.8507 5.14295 12.8332 5.15674 12.8205C5.17053 12.8078 5.18834 12.8008 5.20679 12.8008C5.22524 12.8008 5.24305 12.8078 5.25684 12.8205C5.27062 12.8332 5.27943 12.8507 5.28159 12.8697C5.28187 12.8908 5.27412 12.9111 5.26002 12.9263C5.24592 12.9415 5.22661 12.9504 5.20627 12.9509C5.19624 12.9507 5.18637 12.9484 5.17721 12.9441C5.16805 12.9399 5.15978 12.9338 5.15288 12.9263C5.14598 12.9187 5.14059 12.9099 5.137 12.9001C5.13342 12.8904 5.13171 12.8801 5.13199 12.8697Z" fill="url(#paint69_linear_3_4889)"/>
<path d="M4.83216 12.8373C4.83546 12.8172 4.84609 12.7993 4.86185 12.7871C4.8776 12.775 4.89727 12.7696 4.91676 12.7721C4.9362 12.7757 4.95355 12.787 4.96525 12.8035C4.97695 12.82 4.98212 12.8405 4.97969 12.8608C4.9786 12.871 4.97548 12.8808 4.97054 12.8896C4.9656 12.8984 4.95894 12.9061 4.95099 12.9121C4.94303 12.9182 4.93396 12.9224 4.92434 12.9246C4.91472 12.9268 4.90476 12.9269 4.89509 12.925C4.88533 12.9237 4.87592 12.9203 4.86743 12.9152C4.85894 12.91 4.85153 12.9032 4.84566 12.895C4.83978 12.8868 4.83556 12.8775 4.83324 12.8676C4.83092 12.8576 4.83055 12.8474 4.83216 12.8373Z" fill="url(#paint70_linear_3_4889)"/>
<path d="M4.54307 12.7583C4.54965 12.7394 4.5629 12.7239 4.58014 12.7147C4.59738 12.7056 4.61732 12.7036 4.63593 12.7091C4.65448 12.7146 4.67019 12.7274 4.67965 12.7449C4.68912 12.7623 4.69157 12.7828 4.68648 12.8021C4.68386 12.8122 4.67934 12.8216 4.6732 12.8298C4.66705 12.8381 4.6594 12.8449 4.65068 12.8501C4.64195 12.8553 4.63233 12.8586 4.62237 12.8599C4.6124 12.8612 4.60228 12.8605 4.5926 12.8577C4.58297 12.8547 4.57402 12.8497 4.56629 12.843C4.55855 12.8363 4.55219 12.8281 4.54757 12.8188C4.54296 12.8096 4.54018 12.7994 4.53941 12.789C4.53863 12.7786 4.53988 12.7682 4.54307 12.7583Z" fill="url(#paint71_linear_3_4889)"/>
<path d="M4.26827 12.6376C4.27267 12.6281 4.27884 12.6196 4.28644 12.6127C4.29403 12.6057 4.30289 12.6004 4.3125 12.597C4.3221 12.5936 4.33226 12.5922 4.34238 12.593C4.3525 12.5937 4.36238 12.5965 4.37144 12.6012C4.38952 12.6109 4.40329 12.6274 4.40983 12.6473C4.41638 12.6673 4.41519 12.6891 4.40652 12.7081C4.40275 12.7182 4.39691 12.7272 4.38941 12.7347C4.38191 12.7421 4.37293 12.7477 4.3631 12.7512C4.35327 12.7547 4.34283 12.7559 4.33251 12.7547C4.32219 12.7535 4.31223 12.7501 4.30335 12.7445C4.2939 12.7403 4.28541 12.7341 4.27842 12.7263C4.27144 12.7185 4.26612 12.7092 4.26281 12.6991C4.2595 12.6891 4.25828 12.6784 4.25922 12.6678C4.26016 12.6572 4.26324 12.6469 4.26827 12.6376Z" fill="url(#paint72_linear_3_4889)"/>
<path d="M4.01384 12.4765C4.02509 12.4598 4.04226 12.4484 4.0616 12.4448C4.08093 12.4412 4.10086 12.4457 4.11702 12.4573C4.12543 12.4626 4.13272 12.4696 4.13845 12.478C4.14418 12.4863 4.14822 12.4957 4.15034 12.5057C4.15246 12.5157 4.15261 12.526 4.15079 12.5361C4.14896 12.5461 4.14519 12.5557 4.13972 12.5642C4.12875 12.5811 4.11199 12.593 4.09282 12.5976C4.07366 12.6022 4.05354 12.599 4.03654 12.5888C4.02762 12.5832 4.0199 12.5759 4.01386 12.5671C4.00783 12.5583 4.00361 12.5483 4.00148 12.5378C3.99935 12.5272 3.99934 12.5164 4.00147 12.5058C4.0036 12.4953 4.00781 12.4853 4.01384 12.4765Z" fill="url(#paint73_linear_3_4889)"/>
<path d="M3.78504 12.2782C3.79923 12.2651 3.81759 12.2578 3.83663 12.2578C3.85566 12.2578 3.87402 12.2651 3.88821 12.2782C3.90049 12.2931 3.90724 12.3121 3.90724 12.3317C3.90724 12.3513 3.90049 12.3702 3.88821 12.3851C3.88149 12.3922 3.87346 12.3979 3.8646 12.4018C3.85575 12.4056 3.84623 12.4076 3.83663 12.4076C3.82702 12.4076 3.81751 12.4056 3.80865 12.4018C3.79979 12.3979 3.79176 12.3922 3.78504 12.3851C3.77143 12.3709 3.76379 12.3517 3.76379 12.3317C3.76379 12.3117 3.77143 12.2924 3.78504 12.2782Z" fill="url(#paint74_linear_3_4889)"/>
<path d="M3.58514 12.0472C3.60051 12.0351 3.61979 12.0295 3.639 12.0317C3.6582 12.0339 3.67585 12.0437 3.68832 12.059C3.70075 12.0743 3.70696 12.094 3.70561 12.1139C3.70426 12.1339 3.69547 12.1525 3.68109 12.1659C3.6657 12.1796 3.64572 12.1865 3.62545 12.1851C3.60518 12.1837 3.58626 12.1741 3.57276 12.1584C3.56639 12.1503 3.56165 12.141 3.55882 12.131C3.55599 12.1209 3.55513 12.1104 3.55628 12.1001C3.55744 12.0897 3.56059 12.0797 3.56554 12.0706C3.5705 12.0615 3.57716 12.0536 3.58514 12.0472Z" fill="url(#paint75_linear_3_4889)"/>
<path d="M3.41954 11.7906C3.42787 11.7853 3.43712 11.7818 3.44677 11.7802C3.45641 11.7787 3.46625 11.7791 3.47574 11.7815C3.48522 11.7838 3.49416 11.7881 3.50204 11.7941C3.50993 11.8001 3.5166 11.8076 3.52168 11.8162C3.52676 11.8248 3.53015 11.8344 3.53166 11.8444C3.53316 11.8544 3.53275 11.8646 3.53045 11.8744C3.52815 11.8843 3.52401 11.8935 3.51825 11.9017C3.5125 11.9099 3.50525 11.9168 3.49692 11.922C3.48009 11.9327 3.45987 11.9359 3.44072 11.9311C3.42156 11.9263 3.40504 11.9138 3.39478 11.8964C3.38452 11.879 3.38136 11.858 3.386 11.8382C3.39065 11.8183 3.40271 11.8012 3.41954 11.7906Z" fill="url(#paint76_linear_3_4889)"/>
<path d="M3.29382 11.5101C3.31188 11.5028 3.33202 11.5032 3.34982 11.5112C3.36761 11.5192 3.38161 11.5342 3.38874 11.5529C3.39271 11.5619 3.39492 11.5716 3.39525 11.5815C3.39558 11.5913 3.39402 11.6012 3.39066 11.6104C3.38731 11.6196 3.38222 11.6281 3.37569 11.6353C3.36916 11.6425 3.36133 11.6483 3.35263 11.6523C3.34344 11.657 3.33345 11.6597 3.32324 11.6603C3.31302 11.6609 3.3028 11.6593 3.29318 11.6557C3.28356 11.6521 3.27473 11.6466 3.26722 11.6394C3.25971 11.6322 3.25367 11.6235 3.24946 11.6138C3.24579 11.604 3.24404 11.5935 3.24429 11.583C3.24453 11.5725 3.24678 11.5621 3.2509 11.5525C3.25502 11.5428 3.26093 11.5341 3.2683 11.5269C3.27566 11.5196 3.28433 11.5139 3.29382 11.5101Z" fill="url(#paint77_linear_3_4889)"/>
<path d="M3.20683 11.2138C3.22595 11.2094 3.24594 11.2128 3.26279 11.2231C3.27963 11.2334 3.29208 11.2499 3.29763 11.2694C3.30186 11.2893 3.29869 11.3102 3.28875 11.3278C3.27881 11.3454 3.26282 11.3585 3.24398 11.3645C3.23449 11.3672 3.22457 11.3679 3.21481 11.3666C3.20505 11.3653 3.19566 11.3619 3.18718 11.3567C3.17871 11.3515 3.17133 11.3446 3.16549 11.3364C3.15965 11.3282 3.15546 11.3188 3.15318 11.3089C3.15055 11.299 3.14985 11.2887 3.15114 11.2785C3.15242 11.2683 3.15566 11.2585 3.16066 11.2496C3.16566 11.2408 3.17232 11.233 3.18025 11.2269C3.18818 11.2207 3.19722 11.2163 3.20683 11.2138Z" fill="url(#paint78_linear_3_4889)"/>
<path d="M3.16532 10.9033C3.18369 10.9036 3.20133 10.9108 3.21494 10.9235C3.22854 10.9363 3.23717 10.9538 3.2392 10.9727C3.24123 10.9916 3.23652 11.0107 3.22595 11.0262C3.21539 11.0418 3.19969 11.0528 3.18183 11.0573C3.16176 11.0597 3.14156 11.0539 3.12556 11.0411C3.10956 11.0283 3.09902 11.0096 3.09619 10.9888C3.0952 10.9785 3.09621 10.9681 3.09917 10.9581C3.10212 10.9482 3.10696 10.939 3.1134 10.931C3.11984 10.9231 3.12775 10.9165 3.13666 10.9117C3.14558 10.907 3.15532 10.9041 3.16532 10.9033Z" fill="url(#paint79_linear_3_4889)"/>
<path d="M3.16474 10.5988C3.18435 10.5999 3.20277 10.6089 3.21607 10.6239C3.22937 10.6389 3.2365 10.6587 3.23593 10.679C3.23436 10.6993 3.22538 10.7183 3.21081 10.732C3.19625 10.7457 3.17719 10.7531 3.15752 10.7528C3.14763 10.7528 3.13783 10.7507 3.12877 10.7466C3.1197 10.7425 3.11156 10.7365 3.10486 10.7289C3.09816 10.7214 3.09305 10.7125 3.08986 10.7028C3.08667 10.6931 3.08547 10.6828 3.08633 10.6726C3.08658 10.6623 3.08884 10.6522 3.09296 10.6429C3.09709 10.6336 3.10299 10.6252 3.11032 10.6183C3.11765 10.6114 3.12625 10.6062 3.1356 10.6028C3.14495 10.5995 3.15487 10.5981 3.16474 10.5988Z" fill="url(#paint80_linear_3_4889)"/>
<path d="M3.20718 10.292C3.22606 10.2966 3.24258 10.3084 3.25348 10.325C3.26437 10.3416 3.26883 10.3619 3.26599 10.3818C3.2627 10.4017 3.25198 10.4194 3.23616 10.4312C3.22033 10.443 3.20066 10.4479 3.18139 10.4448C3.17153 10.4432 3.16209 10.4395 3.15363 10.434C3.14516 10.4285 3.13783 10.4213 3.13207 10.4128C3.12631 10.4044 3.12223 10.3948 3.12007 10.3847C3.11791 10.3746 3.11771 10.3641 3.11948 10.354C3.12094 10.3437 3.12442 10.3339 3.12971 10.3252C3.135 10.3164 3.14199 10.3089 3.15023 10.3031C3.15847 10.2972 3.16778 10.2932 3.17758 10.2913C3.18738 10.2894 3.19746 10.2896 3.20718 10.292Z" fill="url(#paint81_linear_3_4889)"/>
<path d="M3.29357 9.99586C3.31203 10.0029 3.32711 10.0171 3.33559 10.0355C3.34407 10.0538 3.34528 10.0749 3.33897 10.0942C3.33159 10.1129 3.31784 10.1281 3.30034 10.137C3.28284 10.1459 3.26281 10.1478 3.24405 10.1423C3.23448 10.1395 3.22559 10.1346 3.21796 10.1279C3.21032 10.1213 3.20412 10.1131 3.19975 10.1038C3.19537 10.0946 3.19292 10.0844 3.19255 10.0741C3.19219 10.0638 3.19391 10.0535 3.19762 10.044C3.20075 10.0342 3.20573 10.0252 3.21229 10.0174C3.21884 10.0097 3.22683 10.0034 3.23578 9.9989C3.24472 9.99441 3.25445 9.99183 3.26438 9.99131C3.2743 9.99079 3.28423 9.99234 3.29357 9.99586Z" fill="url(#paint82_linear_3_4889)"/>
<path d="M3.41998 9.71666C3.43752 9.72683 3.45062 9.7436 3.45657 9.76349C3.46253 9.78339 3.46088 9.80489 3.45197 9.82356C3.44294 9.84185 3.42727 9.85567 3.4084 9.86199C3.38954 9.8683 3.36902 9.86659 3.35137 9.85724C3.33372 9.84788 3.32038 9.83164 3.31429 9.8121C3.30819 9.79255 3.30984 9.77129 3.31887 9.75301C3.32269 9.74328 3.32846 9.73451 3.33581 9.72729C3.34316 9.72006 3.35191 9.71455 3.36148 9.71111C3.37105 9.70767 3.38122 9.70638 3.39131 9.70734C3.4014 9.7083 3.41117 9.71147 3.41998 9.71666Z" fill="url(#paint83_linear_3_4889)"/>
<path d="M3.58435 9.45887C3.59975 9.47117 3.60996 9.48916 3.61285 9.50909C3.61573 9.52902 3.61107 9.54933 3.59983 9.56577C3.58795 9.58163 3.57076 9.5923 3.55166 9.59567C3.53255 9.59903 3.51293 9.59485 3.49666 9.58394C3.48849 9.5783 3.48155 9.57097 3.47625 9.56242C3.47095 9.55386 3.46741 9.54427 3.46586 9.53423C3.46431 9.52419 3.46478 9.51393 3.46724 9.50409C3.4697 9.49424 3.47409 9.48504 3.48015 9.47704C3.4858 9.46871 3.49299 9.46162 3.50131 9.45619C3.50962 9.45076 3.5189 9.44709 3.52859 9.4454C3.53828 9.44371 3.5482 9.44403 3.55777 9.44634C3.56735 9.44865 3.57638 9.45291 3.58435 9.45887Z" fill="url(#paint84_linear_3_4889)"/>
<path d="M3.78487 9.22807C3.79735 9.24287 3.80423 9.26186 3.80423 9.28152C3.80423 9.30118 3.79735 9.32017 3.78487 9.33497C3.77102 9.34882 3.75253 9.35656 3.73328 9.35656C3.71404 9.35656 3.69554 9.34882 3.6817 9.33497C3.66856 9.3205 3.66125 9.30138 3.66125 9.28152C3.66125 9.26166 3.66856 9.24254 3.6817 9.22807C3.69542 9.21397 3.71396 9.20605 3.73328 9.20605C3.75261 9.20605 3.77115 9.21397 3.78487 9.22807Z" fill="url(#paint85_linear_3_4889)"/>
<path d="M4.01386 9.02943C4.02508 9.04571 4.02993 9.06578 4.02745 9.08562C4.02496 9.10545 4.01531 9.12357 4.00044 9.13634C3.98458 9.14749 3.96532 9.15223 3.94631 9.14967C3.9273 9.14711 3.90986 9.13742 3.89727 9.12244C3.89106 9.11464 3.88646 9.10561 3.88376 9.09589C3.88106 9.08618 3.88032 9.07599 3.88158 9.06597C3.88283 9.05594 3.88607 9.04629 3.89107 9.03762C3.89608 9.02894 3.90276 9.02143 3.91068 9.01553C3.92621 9.00339 3.94572 8.99804 3.96501 9.00064C3.9843 9.00324 4.00184 9.01358 4.01386 9.02943Z" fill="url(#paint86_linear_3_4889)"/>
<path d="M4.26917 8.87219C4.27886 8.89037 4.28127 8.91177 4.27586 8.93178C4.27046 8.95178 4.25768 8.96877 4.24028 8.9791C4.23185 8.98449 4.22246 8.98808 4.21266 8.98965C4.20287 8.99122 4.19287 8.99075 4.18326 8.98826C4.17364 8.98577 4.16461 8.98131 4.15668 8.97515C4.14876 8.96898 4.1421 8.96124 4.13711 8.95237C4.12724 8.93445 4.12452 8.91324 4.12953 8.89326C4.13454 8.87329 4.14689 8.85614 4.16393 8.84547C4.17244 8.83973 4.182 8.83586 4.19201 8.8341C4.20202 8.83233 4.21227 8.83272 4.22214 8.83522C4.232 8.83773 4.24126 8.8423 4.24935 8.84866C4.25744 8.85502 4.26418 8.86303 4.26917 8.87219Z" fill="url(#paint87_linear_3_4889)"/>
<path d="M4.54339 8.74785C4.55013 8.767 4.54937 8.78813 4.54127 8.80671C4.53318 8.82529 4.51838 8.83985 4.50006 8.84727C4.48127 8.85344 4.46094 8.85215 4.44302 8.84365C4.42509 8.83516 4.41086 8.82006 4.40307 8.8013C4.3993 8.79186 4.39744 8.78171 4.39759 8.77149C4.39775 8.76127 4.39992 8.75119 4.40398 8.74188C4.40804 8.73256 4.4139 8.72421 4.4212 8.71733C4.4285 8.71045 4.43707 8.70519 4.44641 8.70188C4.45566 8.69798 4.46558 8.69609 4.47557 8.69631C4.48556 8.69653 4.4954 8.69886 4.50448 8.70317C4.51356 8.70747 4.5217 8.71366 4.52839 8.72134C4.53508 8.72903 4.54019 8.73805 4.54339 8.74785Z" fill="url(#paint88_linear_3_4889)"/>
<path d="M4.83208 8.66958C4.83529 8.68934 4.83124 8.70962 4.82074 8.72643C4.81024 8.74325 4.79404 8.75539 4.77534 8.76045C4.75633 8.76496 4.73637 8.76155 4.71977 8.75095C4.70317 8.74035 4.69126 8.72341 4.68661 8.70379C4.68196 8.68338 4.68533 8.66189 4.69597 8.64405C4.70661 8.62621 4.72366 8.61347 4.74335 8.60865C4.75307 8.60615 4.76318 8.60577 4.77304 8.60754C4.7829 8.6093 4.79231 8.61317 4.80065 8.6189C4.80899 8.62463 4.81609 8.6321 4.82151 8.64082C4.82692 8.64954 4.83052 8.65934 4.83208 8.66958Z" fill="url(#paint89_linear_3_4889)"/>
<path d="M5.13263 8.63645C5.13349 8.65663 5.12677 8.67637 5.11388 8.69152C5.10099 8.70667 5.08293 8.71605 5.0635 8.71769C5.04393 8.71813 5.02489 8.71106 5.01003 8.69784C4.99518 8.68462 4.98556 8.66618 4.98303 8.64607C4.98187 8.63587 4.98279 8.62553 4.98572 8.61571C4.98865 8.6059 4.99352 8.59683 5.00003 8.58908C5.00654 8.58133 5.01453 8.57507 5.02351 8.57071C5.03249 8.56635 5.04224 8.56398 5.05215 8.56375C5.06208 8.56288 5.07207 8.56408 5.08154 8.56729C5.091 8.5705 5.09975 8.57565 5.10726 8.58243C5.11477 8.58921 5.12088 8.59749 5.12524 8.60677C5.1296 8.61605 5.13211 8.62614 5.13263 8.63645Z" fill="url(#paint90_linear_3_4889)"/>
<path d="M5.42733 8.64599C5.42526 8.66611 5.41592 8.68468 5.40118 8.69796C5.38645 8.71125 5.36741 8.71826 5.34789 8.71761C5.32846 8.71597 5.3104 8.70659 5.29751 8.69144C5.28461 8.67628 5.2779 8.65654 5.27876 8.63636C5.27928 8.62616 5.28177 8.61616 5.28606 8.60695C5.29035 8.59775 5.29637 8.58952 5.30377 8.58275C5.31116 8.57599 5.31979 8.57081 5.32913 8.56754C5.33848 8.56426 5.34836 8.56295 5.3582 8.56367C5.36817 8.56373 5.378 8.56599 5.38706 8.5703C5.39611 8.5746 5.40418 8.58086 5.41072 8.58864C5.41726 8.59643 5.42212 8.60557 5.42498 8.61546C5.42785 8.62535 5.42865 8.63575 5.42733 8.64599Z" fill="url(#paint91_linear_3_4889)"/>
<path d="M5.7209 8.7038C5.71601 8.72328 5.70405 8.74004 5.68752 8.7506C5.67099 8.76116 5.65116 8.76469 5.63217 8.76046C5.61328 8.75562 5.59684 8.74358 5.58613 8.72674C5.57542 8.70989 5.57123 8.68949 5.57439 8.66959C5.57609 8.6593 5.57981 8.64949 5.58532 8.64076C5.59084 8.63203 5.59804 8.62458 5.60646 8.61886C5.61488 8.61314 5.62435 8.60928 5.63428 8.60753C5.64421 8.60577 5.65438 8.60616 5.66415 8.60866C5.68385 8.61348 5.7009 8.62621 5.71154 8.64406C5.72218 8.6619 5.72555 8.68339 5.7209 8.7038Z" fill="url(#paint92_linear_3_4889)"/>
<path d="M6.00384 8.8009C5.99606 8.81966 5.98182 8.83476 5.9639 8.84325C5.94597 8.85175 5.92564 8.85304 5.90685 8.84687C5.88886 8.83902 5.87439 8.82441 5.86636 8.80597C5.85832 8.78753 5.85731 8.76663 5.86352 8.74745C5.87028 8.7286 5.88388 8.71323 5.90143 8.70464C5.91897 8.69605 5.93907 8.69492 5.95741 8.70148C5.96711 8.70431 5.97612 8.70923 5.98384 8.71594C5.99157 8.72264 5.99783 8.73096 6.00222 8.74036C6.00661 8.74976 6.00902 8.76002 6.0093 8.77045C6.00958 8.78089 6.00772 8.79127 6.00384 8.8009Z" fill="url(#paint93_linear_3_4889)"/>
<path d="M6.2667 8.94525C6.26171 8.95412 6.25506 8.96187 6.24713 8.96803C6.2392 8.9742 6.23017 8.97866 6.22055 8.98115C6.21094 8.98364 6.20094 8.98411 6.19115 8.98253C6.18135 8.98096 6.17196 8.97737 6.16353 8.97198C6.14613 8.96166 6.13335 8.94466 6.12795 8.92466C6.12254 8.90466 6.12495 8.88326 6.13464 8.86508C6.13917 8.85574 6.14551 8.84747 6.15326 8.84079C6.16101 8.83411 6.17001 8.82916 6.1797 8.82625C6.18938 8.82334 6.19955 8.82253 6.20955 8.82388C6.21955 8.82522 6.22917 8.82869 6.23782 8.83407C6.24698 8.83918 6.25505 8.84616 6.26152 8.85461C6.26798 8.86306 6.27271 8.87279 6.27542 8.8832C6.27812 8.89361 6.27875 8.90449 6.27725 8.91516C6.27575 8.92583 6.27216 8.93607 6.2667 8.94525Z" fill="url(#paint94_linear_3_4889)"/>
<path d="M6.51312 9.12428C6.50054 9.13926 6.48309 9.14895 6.46408 9.15151C6.44507 9.15407 6.42581 9.14933 6.40995 9.13817C6.39616 9.12492 6.38766 9.10679 6.38612 9.08737C6.38458 9.06794 6.39011 9.04862 6.40162 9.03321C6.41313 9.01779 6.42979 9.0074 6.44833 9.00407C6.46686 9.00075 6.48593 9.00473 6.50177 9.01523C6.50974 9.02139 6.51639 9.02918 6.52131 9.03812C6.52624 9.04706 6.52933 9.05696 6.53039 9.06719C6.53146 9.07743 6.53047 9.08778 6.5275 9.0976C6.52453 9.10742 6.51964 9.1165 6.51312 9.12428Z" fill="url(#paint95_linear_3_4889)"/>
<path d="M6.72652 9.33985C6.71267 9.3537 6.69417 9.36144 6.67493 9.36144C6.65568 9.36144 6.63719 9.3537 6.62334 9.33985C6.61065 9.32515 6.60364 9.30612 6.60364 9.2864C6.60364 9.26668 6.61065 9.24765 6.62334 9.23295C6.63706 9.21885 6.6556 9.21094 6.67493 9.21094C6.69425 9.21094 6.71279 9.21885 6.72652 9.23295C6.73965 9.24742 6.74696 9.26654 6.74696 9.2864C6.74696 9.30627 6.73965 9.32538 6.72652 9.33985Z" fill="url(#paint96_linear_3_4889)"/>
<path d="M6.90999 9.58361C6.89372 9.59452 6.87409 9.5987 6.85499 9.59534C6.83589 9.59197 6.81869 9.5813 6.80682 9.56544C6.79532 9.54871 6.79072 9.52793 6.79401 9.50769C6.79729 9.48744 6.80821 9.46937 6.82436 9.45746C6.8405 9.44556 6.86055 9.44078 6.88009 9.44419C6.89963 9.4476 6.91707 9.45891 6.92856 9.47564C6.9347 9.4838 6.9391 9.4932 6.9415 9.50324C6.9439 9.51328 6.94424 9.52373 6.94249 9.53391C6.94073 9.54409 6.93694 9.55378 6.93134 9.56234C6.92574 9.5709 6.91847 9.57815 6.90999 9.58361Z" fill="url(#paint97_linear_3_4889)"/>
<path d="M7.05501 9.85407C7.04617 9.85934 7.03637 9.86265 7.02623 9.86377C7.01609 9.86489 7.00584 9.8638 6.99612 9.86058C6.98641 9.85736 6.97746 9.85208 6.96983 9.84507C6.9622 9.83805 6.95607 9.82947 6.95183 9.81986C6.94284 9.80132 6.94103 9.77991 6.94679 9.76003C6.95254 9.74015 6.96542 9.72331 6.98278 9.71296C6.99152 9.70748 7.00127 9.70399 7.0114 9.7027C7.02153 9.70142 7.03181 9.70237 7.04156 9.7055C7.05131 9.70864 7.0603 9.71387 7.06796 9.72087C7.07561 9.72787 7.08175 9.73646 7.08596 9.7461C7.09098 9.75524 7.09417 9.76534 7.09533 9.7758C7.09648 9.78625 7.09559 9.79684 7.0927 9.80692C7.08981 9.81701 7.08498 9.82638 7.0785 9.83449C7.07202 9.84259 7.06403 9.84925 7.05501 9.85407Z" fill="url(#paint98_linear_3_4889)"/>
<path d="M7.16349 10.1423C7.14473 10.1478 7.12469 10.1459 7.10719 10.137C7.08969 10.1281 7.07595 10.1129 7.06857 10.0942C7.06225 10.0749 7.06346 10.0538 7.07195 10.0355C7.08043 10.0171 7.09551 10.0029 7.11397 9.99586C7.12331 9.99234 7.13323 9.99079 7.14316 9.99131C7.15309 9.99183 7.16281 9.99441 7.17176 9.9989C7.18071 10.0034 7.18869 10.0097 7.19525 10.0174C7.2018 10.0252 7.20679 10.0342 7.20992 10.044C7.21362 10.0535 7.21535 10.0638 7.21498 10.0741C7.21462 10.0844 7.21217 10.0946 7.20779 10.1038C7.20342 10.1131 7.19721 10.1213 7.18958 10.1279C7.18195 10.1346 7.17306 10.1395 7.16349 10.1423Z" fill="url(#paint99_linear_3_4889)"/>
<path d="M7.22706 10.4448C7.20767 10.4479 7.18787 10.4431 7.17188 10.4313C7.15589 10.4195 7.14496 10.4018 7.14143 10.3818C7.13887 10.3618 7.14357 10.3415 7.15463 10.3249C7.16569 10.3083 7.18232 10.2966 7.20127 10.292C7.21099 10.2896 7.22107 10.2894 7.23087 10.2913C7.24067 10.2932 7.24999 10.2972 7.25822 10.3031C7.26646 10.3089 7.27345 10.3164 7.27874 10.3252C7.28403 10.3339 7.28751 10.3437 7.28897 10.354C7.29227 10.3745 7.28762 10.3956 7.27603 10.4126C7.26444 10.4296 7.24685 10.4412 7.22706 10.4448Z" fill="url(#paint100_linear_3_4889)"/>
<path d="M7.25044 10.7528C7.23077 10.7531 7.21171 10.7457 7.19715 10.732C7.18258 10.7183 7.1736 10.6993 7.17203 10.679C7.17146 10.6587 7.17859 10.6389 7.19189 10.6239C7.20518 10.6089 7.2236 10.5999 7.24322 10.5988C7.25309 10.5981 7.263 10.5995 7.27236 10.6028C7.28171 10.6062 7.29031 10.6114 7.29764 10.6183C7.30497 10.6252 7.31087 10.6336 7.315 10.6429C7.31912 10.6522 7.32138 10.6623 7.32163 10.6726C7.32249 10.6828 7.32129 10.6931 7.3181 10.7028C7.31491 10.7125 7.3098 10.7214 7.3031 10.7289C7.2964 10.7365 7.28826 10.7425 7.27919 10.7466C7.27013 10.7507 7.26033 10.7528 7.25044 10.7528Z" fill="url(#paint101_linear_3_4889)"/>
</g>
</g>
<path style="mix-blend-mode:multiply" opacity="0.55" d="M5.20394 8.18481C4.7142 8.18481 4.23546 8.33529 3.82826 8.61721C3.42106 8.89913 3.10368 9.29983 2.91627 9.76865C2.72886 10.2375 2.67982 10.7533 2.77536 11.251C2.87091 11.7487 3.10674 12.2059 3.45303 12.5647C3.79933 12.9235 4.24054 13.1679 4.72086 13.2669C5.20119 13.3659 5.69906 13.3151 6.15152 13.1209C6.60398 12.9267 6.9907 12.5978 7.26278 12.1759C7.53487 11.754 7.68009 11.2579 7.68009 10.7505C7.68009 10.07 7.41921 9.41744 6.95484 8.93628C6.49047 8.45513 5.86065 8.18481 5.20394 8.18481ZM5.20394 13.1569C4.74522 13.1569 4.2968 13.0159 3.91539 12.7519C3.53398 12.4878 3.2367 12.1125 3.06116 11.6734C2.88561 11.2342 2.83968 10.751 2.92917 10.2849C3.01866 9.81869 3.23956 9.39048 3.56392 9.05439C3.88829 8.7183 4.30155 8.48942 4.75146 8.39669C5.20136 8.30396 5.6677 8.35156 6.09151 8.53345C6.51531 8.71534 6.87754 9.02336 7.13239 9.41856C7.38724 9.81376 7.52327 10.2784 7.52327 10.7537C7.52327 11.3911 7.27891 12.0023 6.84395 12.453C6.40899 12.9037 5.81906 13.1569 5.20394 13.1569Z" fill="url(#paint102_radial_3_4889)"/>
<path style="mix-blend-mode:screen" d="M7.13319 7.79661C8.16493 8.35037 8.79325 9.19812 8.54563 9.68987C8.29802 10.1816 7.26629 10.1314 6.23868 9.57655C5.21108 9.02173 4.57863 8.17505 4.82315 7.6833C5.06767 7.19154 6.10559 7.24285 7.13319 7.79661Z" fill="url(#paint103_radial_3_4889)"/>
<path style="mix-blend-mode:screen" d="M7.33135 9.03027C7.26469 9.16065 7.16233 9.26769 7.03713 9.33796C6.91193 9.40823 6.76948 9.43858 6.62767 9.4252C6.48587 9.41183 6.35105 9.35532 6.24016 9.26278C6.12926 9.17023 6.04724 9.04579 6.0044 8.90509C5.96157 8.76439 5.95983 8.61371 5.9994 8.47199C6.03897 8.33026 6.1181 8.20382 6.22682 8.10856C6.33555 8.01329 6.46902 7.95345 6.61048 7.93656C6.75193 7.91967 6.89504 7.94648 7.02183 8.01362C7.19281 8.1061 7.32142 8.26506 7.37944 8.45564C7.43747 8.64623 7.42017 8.85288 7.33135 9.03027Z" fill="url(#paint104_radial_3_4889)"/>
<path style="mix-blend-mode:screen" d="M3.88721 12.1269C4.45879 12.4935 4.76727 13.0494 4.5764 13.368C4.38553 13.6866 3.76856 13.647 3.19698 13.2793C2.6254 12.9115 2.31691 12.3556 2.50778 12.0371C2.69865 11.7185 3.31666 11.7591 3.88721 12.1269Z" fill="url(#paint105_radial_3_4889)"/>
<path d="M5.34756 11.0874C5.83144 10.7538 6.08731 10.6202 6.08731 10.1616C6.08731 9.80452 5.80565 9.56934 5.35581 9.56934C4.75947 9.56934 4.45614 9.83232 4.45614 10.2353C4.45614 10.2557 4.45614 10.3422 4.45614 10.369H5.03391V10.277C5.03789 10.2125 5.06643 10.1523 5.11325 10.1096C5.16007 10.0669 5.22134 10.0452 5.28359 10.0493H5.32692C5.36431 10.0601 5.39665 10.0846 5.41791 10.1182C5.43917 10.1518 5.4479 10.1923 5.44248 10.2321C5.44248 10.3561 5.16701 10.5154 4.7017 10.9398C4.61974 11.0065 4.5544 11.0925 4.51114 11.1907C4.46788 11.2889 4.44796 11.3965 4.45305 11.5043V11.6422H6.10382V11.0874H5.34756Z" fill="url(#paint106_linear_3_4889)"/>
<path d="M6.0325 10.2003C6.0325 10.6173 5.62497 10.8225 5.24013 11.1079H6.05417V11.5826H4.51379V11.4479C4.51379 11.2341 4.61697 11.0887 4.77276 10.9487C5.19577 10.5585 5.49497 10.4013 5.49497 10.2196C5.49497 10.1127 5.42791 10.0154 5.26283 10.0154C5.21229 10.0136 5.16234 10.0271 5.1191 10.0542C5.07585 10.0814 5.04118 10.121 5.01934 10.1683C5.00236 10.2216 4.9957 10.2779 4.99974 10.334H4.52102C4.52102 10.334 4.52102 10.195 4.52102 10.1576C4.56848 9.8283 4.83054 9.62305 5.31132 9.62305C5.75703 9.62198 6.0325 9.84969 6.0325 10.2003Z" fill="url(#paint107_linear_3_4889)"/>
</g>
<path style="mix-blend-mode:overlay" opacity="0.35" d="M7.26939 8.15779C7.2209 8.11503 7.16622 8.07761 7.1167 8.03913C7.1167 8.03913 7.1167 8.03165 7.1167 8.02737C7.1167 8.02309 7.12289 7.99744 7.12495 7.9814C7.12701 7.96537 7.12495 7.95361 7.13114 7.93971C7.13164 7.93545 7.13164 7.93114 7.13114 7.92688C7.14589 7.82928 7.15313 7.73062 7.15281 7.63183C7.15281 7.60083 7.15281 7.56982 7.15281 7.53882C7.15281 7.50782 7.15281 7.47682 7.14455 7.44475C7.1373 7.38131 7.12592 7.31845 7.11051 7.2566C7.08735 7.17151 7.05661 7.08884 7.01868 7.00965C6.96934 6.90908 6.90608 6.81652 6.83091 6.73491L6.92273 6.58311L10.1778 1.27001L9.77547 1.01879V1.01237L8.54874 0.244809L8.1443 0H2.42335V0.0096213L2.42026 0L0.386719 1.27001L3.66865 6.62801C3.47478 6.78552 3.33659 7.005 3.27556 7.25232C3.25251 7.34472 3.23834 7.43925 3.23326 7.53455C3.23326 7.56519 3.23326 7.59619 3.23326 7.62755C3.23326 7.68849 3.23326 7.74942 3.24152 7.80822C3.24106 7.81498 3.24106 7.82177 3.24152 7.82853C3.24202 7.83565 3.24202 7.84279 3.24152 7.84991C3.24152 7.87664 3.24771 7.90336 3.25183 7.92902V7.95147C3.25183 7.97819 3.26112 8.00492 3.26628 8.03058C3.26628 8.03058 3.26628 8.0402 3.26628 8.04447C3.26628 8.04875 3.26628 8.05089 3.26628 8.05516C3.05437 8.21654 2.8621 8.40392 2.69367 8.6132C2.5612 8.77964 2.44411 8.9586 2.34391 9.14772C2.1374 9.54428 2.00972 9.97973 1.96843 10.4283C1.92714 10.8769 1.97307 11.3295 2.10352 11.7594C2.16555 11.9664 2.24711 12.1665 2.34701 12.357C2.44695 12.5462 2.56407 12.7252 2.69676 12.8915C2.76279 12.9749 2.83295 13.054 2.90311 13.1299C3.04994 13.2831 3.21098 13.4209 3.3839 13.5414C4.07508 14.0313 4.92222 14.2256 5.74835 14.0836C6.57449 13.9416 7.31573 13.4744 7.81725 12.7795C8.31877 12.0846 8.54177 11.2158 8.43968 10.3546C8.33759 9.49332 7.9183 8.70627 7.26939 8.15779ZM4.1123 7.34747H6.45226L6.51623 7.24056C6.55702 7.29359 6.58845 7.35367 6.60909 7.41802C6.61631 7.4394 6.62147 7.46078 6.62662 7.48216C6.64022 7.54746 6.64611 7.61423 6.64416 7.681C6.64416 7.69811 6.64416 7.71521 6.64416 7.73232C6.19513 7.50078 5.70008 7.38116 5.19852 7.38302C4.69696 7.38488 4.20275 7.50815 3.75532 7.74301C3.75223 7.69924 3.75223 7.65529 3.75532 7.61152C3.75723 7.58 3.76067 7.5486 3.76564 7.51744C3.77086 7.48332 3.7788 7.44971 3.78937 7.41695C3.82887 7.3013 3.9007 7.20045 3.99571 7.12724L4.1123 7.34747ZM4.26706 2.22359H6.92479L5.6341 4.57546L5.28228 5.21688L3.63977 2.22359H4.26706Z" fill="url(#paint108_radial_3_4889)"/>
<defs>
<linearGradient id="paint0_linear_3_4889" x1="2.42383" y1="1.11179" x2="8.14374" y2="1.11179" gradientUnits="userSpaceOnUse">
<stop stop-color="#005898"/>
<stop offset="0.5" stop-color="#3CA6DA"/>
<stop offset="1" stop-color="#005898"/>
</linearGradient>
<linearGradient id="paint1_linear_3_4889" x1="9.18624" y1="0.593313" x2="4.82962" y2="7.28715" gradientUnits="userSpaceOnUse">
<stop stop-color="#3CA6DA"/>
<stop offset="0.4" stop-color="#0674B3"/>
<stop offset="0.62" stop-color="#056FAF"/>
<stop offset="0.87" stop-color="#0262A2"/>
<stop offset="1" stop-color="#005898"/>
</linearGradient>
<linearGradient id="paint2_linear_3_4889" x1="9.13624" y1="0.679144" x2="5.17763" y2="7.26633" gradientUnits="userSpaceOnUse">
<stop stop-color="#F0E8E5"/>
<stop offset="0.58" stop-color="#EFE6E3"/>
<stop offset="0.82" stop-color="#EBE0DC"/>
<stop offset="0.99" stop-color="#E3D6D0"/>
<stop offset="1" stop-color="#E3D5CF"/>
</linearGradient>
<radialGradient id="paint3_radial_3_4889" cx="0" cy="0" r="1" gradientUnits="userSpaceOnUse" gradientTransform="translate(5.19241 7.31772) scale(1.57958 1.63669)">
<stop offset="0.01" stop-color="#F6C054"/>
<stop offset="0.54" stop-color="#FFEA72"/>
<stop offset="0.58" stop-color="#FFF071"/>
<stop offset="0.59" stop-color="#FFF171"/>
<stop offset="0.82" stop-color="#FFE05A"/>
<stop offset="0.96" stop-color="#FFD44A"/>
</radialGradient>
<linearGradient id="paint4_linear_3_4889" x1="5.19292" y1="6.06802" x2="5.19292" y2="7.71647" gradientUnits="userSpaceOnUse">
<stop offset="0.05" stop-color="#EEEFF4"/>
<stop offset="0.1" stop-color="#C4C3C9"/>
<stop offset="0.31" stop-color="#E5E5E8"/>
<stop offset="0.5" stop-color="#C2C3CA"/>
<stop offset="0.69" stop-color="#DBDCDE"/>
<stop offset="0.84" stop-color="#DDE0E5"/>
<stop offset="0.92" stop-color="#E0E3E8"/>
<stop offset="0.98" stop-color="#E9EBF0"/>
<stop offset="1" stop-color="#EEEFF4"/>
</linearGradient>
<linearGradient id="paint5_linear_3_4889" x1="3.22747" y1="7.31772" x2="7.15837" y2="7.31772" gradientUnits="userSpaceOnUse">
<stop offset="0.05" stop-color="#EEEFF4"/>
<stop offset="0.31" stop-color="#E5E5E8"/>
<stop offset="1" stop-color="#EEEFF4"/>
</linearGradient>
<linearGradient id="paint6_linear_3_4889" x1="3.54314" y1="8.03257" x2="3.54314" y2="7.28425" gradientUnits="userSpaceOnUse">
<stop offset="0.5" stop-color="#C2C3CA"/>
<stop offset="1" stop-color="#EEEFF4"/>
</linearGradient>
<linearGradient id="paint7_linear_3_4889" x1="6.84289" y1="8.03288" x2="6.84289" y2="7.28456" gradientUnits="userSpaceOnUse">
<stop offset="0.5" stop-color="#C2C3CA"/>
<stop offset="1" stop-color="#EEEFF4"/>
</linearGradient>
<radialGradient id="paint8_radial_3_4889" cx="0" cy="0" r="1" gradientUnits="userSpaceOnUse" gradientTransform="translate(5.19216 7.51419) scale(1.27161 1.31758)">
<stop offset="0.34" stop-color="#F6F2F3"/>
<stop offset="0.99" stop-color="#565C59"/>
</radialGradient>
<linearGradient id="paint9_linear_3_4889" x1="1.36789" y1="0.574071" x2="5.62466" y2="7.41064" gradientUnits="userSpaceOnUse">
<stop stop-color="#3CA6DA"/>
<stop offset="0.4" stop-color="#0674B3"/>
<stop offset="0.62" stop-color="#056FAF"/>
<stop offset="0.87" stop-color="#0262A2"/>
<stop offset="1" stop-color="#005898"/>
</linearGradient>
<linearGradient id="paint10_linear_3_4889" x1="1.44257" y1="0.679144" x2="5.40119" y2="7.26633" gradientUnits="userSpaceOnUse">
<stop stop-color="#F0E8E5"/>
<stop offset="0.58" stop-color="#EFE6E3"/>
<stop offset="0.82" stop-color="#EBE0DC"/>
<stop offset="0.99" stop-color="#E3D6D0"/>
<stop offset="1" stop-color="#E3D5CF"/>
</linearGradient>
<linearGradient id="paint11_linear_3_4889" x1="7.466" y1="8.41988" x2="2.68582" y2="13.0137" gradientUnits="userSpaceOnUse">
<stop offset="0.05" stop-color="#EEEFF4"/>
<stop offset="0.1" stop-color="#C4C3C9"/>
<stop offset="0.31" stop-color="#E5E5E8"/>
<stop offset="0.5" stop-color="#C2C3CA"/>
<stop offset="0.69" stop-color="#DBDCDE"/>
<stop offset="0.84" stop-color="#DDE0E5"/>
<stop offset="0.92" stop-color="#E0E3E8"/>
<stop offset="0.98" stop-color="#E9EBF0"/>
<stop offset="1" stop-color="#EEEFF4"/>
</linearGradient>
<linearGradient id="paint12_linear_3_4889" x1="7.37477" y1="8.22539" x2="2.88725" y2="13.0947" gradientUnits="userSpaceOnUse">
<stop offset="0.05" stop-color="#EEEFF4"/>
<stop offset="0.31" stop-color="#E5E5E8"/>
<stop offset="1" stop-color="#EEEFF4"/>
</linearGradient>
<linearGradient id="paint13_linear_3_4889" x1="7.18406" y1="9.09638" x2="3.10884" y2="12.2721" gradientUnits="userSpaceOnUse">
<stop offset="0.48" stop-color="#CC9434"/>
<stop offset="0.68" stop-color="#FFEA72"/>
<stop offset="0.76" stop-color="#FFE76C"/>
<stop offset="0.87" stop-color="#FFDE5C"/>
<stop offset="0.96" stop-color="#FFD44A"/>
</linearGradient>
<linearGradient id="paint14_linear_3_4889" x1="6.92097" y1="8.67732" x2="3.41053" y2="12.6292" gradientUnits="userSpaceOnUse">
<stop offset="0.05" stop-color="#EEEFF4"/>
<stop offset="0.31" stop-color="#E5E5E8"/>
<stop offset="1" stop-color="#EEEFF4"/>
</linearGradient>
<linearGradient id="paint15_linear_3_4889" x1="6.64634" y1="9.52966" x2="2.92979" y2="12.4694" gradientUnits="userSpaceOnUse">
<stop stop-color="#EEEFF4"/>
<stop offset="0.26" stop-color="#C4C3C9"/>
<stop offset="0.65" stop-color="#EEEEF0"/>
<stop offset="0.95" stop-color="#DDDDE2"/>
</linearGradient>
<linearGradient id="paint16_linear_3_4889" x1="7.1628" y1="10.9856" x2="7.3124" y2="10.9856" gradientUnits="userSpaceOnUse">
<stop stop-color="#EBECE8"/>
<stop offset="1" stop-color="#444444"/>
</linearGradient>
<linearGradient id="paint17_linear_3_4889" x1="7.1066" y1="11.2901" x2="7.2562" y2="11.2901" gradientUnits="userSpaceOnUse">
<stop stop-color="#EBECE8"/>
<stop offset="1" stop-color="#444444"/>
</linearGradient>
<linearGradient id="paint18_linear_3_4889" x1="7.01215" y1="11.5828" x2="7.16175" y2="11.5828" gradientUnits="userSpaceOnUse">
<stop stop-color="#EBECE8"/>
<stop offset="1" stop-color="#444444"/>
</linearGradient>
<linearGradient id="paint19_linear_3_4889" x1="6.87441" y1="11.8581" x2="7.02401" y2="11.8581" gradientUnits="userSpaceOnUse">
<stop stop-color="#EBECE8"/>
<stop offset="1" stop-color="#444444"/>
</linearGradient>
<linearGradient id="paint20_linear_3_4889" x1="6.70207" y1="12.1081" x2="6.85167" y2="12.1081" gradientUnits="userSpaceOnUse">
<stop stop-color="#EBECE8"/>
<stop offset="1" stop-color="#444444"/>
</linearGradient>
<linearGradient id="paint21_linear_3_4889" x1="6.49374" y1="12.3319" x2="6.64334" y2="12.3319" gradientUnits="userSpaceOnUse">
<stop stop-color="#EBECE8"/>
<stop offset="1" stop-color="#444444"/>
</linearGradient>
<linearGradient id="paint22_linear_3_4889" x1="6.25738" y1="12.5213" x2="6.40698" y2="12.5213" gradientUnits="userSpaceOnUse">
<stop stop-color="#EBECE8"/>
<stop offset="1" stop-color="#444444"/>
</linearGradient>
<linearGradient id="paint23_linear_3_4889" x1="5.99829" y1="12.6721" x2="6.14789" y2="12.6721" gradientUnits="userSpaceOnUse">
<stop stop-color="#EBECE8"/>
<stop offset="1" stop-color="#444444"/>
</linearGradient>
<linearGradient id="paint24_linear_3_4889" x1="5.71825" y1="12.7832" x2="5.86785" y2="12.7832" gradientUnits="userSpaceOnUse">
<stop stop-color="#EBECE8"/>
<stop offset="1" stop-color="#444444"/>
</linearGradient>
<linearGradient id="paint25_linear_3_4889" x1="5.42736" y1="12.8492" x2="5.57696" y2="12.8492" gradientUnits="userSpaceOnUse">
<stop stop-color="#EBECE8"/>
<stop offset="1" stop-color="#444444"/>
</linearGradient>
<linearGradient id="paint26_linear_3_4889" x1="5.12889" y1="12.874" x2="5.27849" y2="12.874" gradientUnits="userSpaceOnUse">
<stop stop-color="#EBECE8"/>
<stop offset="1" stop-color="#444444"/>
</linearGradient>
<linearGradient id="paint27_linear_3_4889" x1="4.83113" y1="12.849" x2="4.98073" y2="12.849" gradientUnits="userSpaceOnUse">
<stop stop-color="#EBECE8"/>
<stop offset="1" stop-color="#444444"/>
</linearGradient>
<linearGradient id="paint28_linear_3_4889" x1="4.53895" y1="12.7829" x2="4.68855" y2="12.7829" gradientUnits="userSpaceOnUse">
<stop stop-color="#EBECE8"/>
<stop offset="1" stop-color="#444444"/>
</linearGradient>
<linearGradient id="paint29_linear_3_4889" x1="4.26002" y1="12.6718" x2="4.40858" y2="12.6718" gradientUnits="userSpaceOnUse">
<stop stop-color="#EBECE8"/>
<stop offset="1" stop-color="#444444"/>
</linearGradient>
<linearGradient id="paint30_linear_3_4889" x1="4.00043" y1="12.5214" x2="4.15003" y2="12.5214" gradientUnits="userSpaceOnUse">
<stop stop-color="#EBECE8"/>
<stop offset="1" stop-color="#444444"/>
</linearGradient>
<linearGradient id="paint31_linear_3_4889" x1="3.7644" y1="12.3317" x2="3.91297" y2="12.3317" gradientUnits="userSpaceOnUse">
<stop stop-color="#EBECE8"/>
<stop offset="1" stop-color="#444444"/>
</linearGradient>
<linearGradient id="paint32_linear_3_4889" x1="3.55729" y1="12.1081" x2="3.70689" y2="12.1081" gradientUnits="userSpaceOnUse">
<stop stop-color="#EBECE8"/>
<stop offset="1" stop-color="#444444"/>
</linearGradient>
<linearGradient id="paint33_linear_3_4889" x1="3.38343" y1="11.8579" x2="3.53303" y2="11.8579" gradientUnits="userSpaceOnUse">
<stop stop-color="#EBECE8"/>
<stop offset="1" stop-color="#444444"/>
</linearGradient>
<linearGradient id="paint34_linear_3_4889" x1="3.24636" y1="11.5828" x2="3.39596" y2="11.5828" gradientUnits="userSpaceOnUse">
<stop stop-color="#EBECE8"/>
<stop offset="1" stop-color="#444444"/>
</linearGradient>
<linearGradient id="paint35_linear_3_4889" x1="3.15112" y1="11.2897" x2="3.29969" y2="11.2897" gradientUnits="userSpaceOnUse">
<stop stop-color="#EBECE8"/>
<stop offset="1" stop-color="#444444"/>
</linearGradient>
<linearGradient id="paint36_linear_3_4889" x1="3.09619" y1="10.9846" x2="3.2458" y2="10.9846" gradientUnits="userSpaceOnUse">
<stop stop-color="#EBECE8"/>
<stop offset="1" stop-color="#444444"/>
</linearGradient>
<linearGradient id="paint37_linear_3_4889" x1="3.08633" y1="10.6758" x2="3.23593" y2="10.6758" gradientUnits="userSpaceOnUse">
<stop stop-color="#EBECE8"/>
<stop offset="1" stop-color="#444444"/>
</linearGradient>
<linearGradient id="paint38_linear_3_4889" x1="3.11845" y1="10.3679" x2="3.26702" y2="10.3679" gradientUnits="userSpaceOnUse">
<stop stop-color="#EBECE8"/>
<stop offset="1" stop-color="#444444"/>
</linearGradient>
<linearGradient id="paint39_linear_3_4889" x1="3.19246" y1="10.0686" x2="3.34309" y2="10.0686" gradientUnits="userSpaceOnUse">
<stop stop-color="#EBECE8"/>
<stop offset="1" stop-color="#444444"/>
</linearGradient>
<linearGradient id="paint40_linear_3_4889" x1="3.31062" y1="9.78401" x2="3.45919" y2="9.78401" gradientUnits="userSpaceOnUse">
<stop stop-color="#EBECE8"/>
<stop offset="1" stop-color="#444444"/>
</linearGradient>
<linearGradient id="paint41_linear_3_4889" x1="3.46467" y1="9.5198" x2="3.61531" y2="9.5198" gradientUnits="userSpaceOnUse">
<stop stop-color="#EBECE8"/>
<stop offset="1" stop-color="#444444"/>
</linearGradient>
<linearGradient id="paint42_linear_3_4889" x1="3.65693" y1="9.28259" x2="3.8055" y2="9.28259" gradientUnits="userSpaceOnUse">
<stop stop-color="#EBECE8"/>
<stop offset="1" stop-color="#444444"/>
</linearGradient>
<linearGradient id="paint43_linear_3_4889" x1="3.87767" y1="9.0754" x2="4.0283" y2="9.0754" gradientUnits="userSpaceOnUse">
<stop stop-color="#EBECE8"/>
<stop offset="1" stop-color="#444444"/>
</linearGradient>
<linearGradient id="paint44_linear_3_4889" x1="4.12885" y1="8.90426" x2="4.27742" y2="8.90426" gradientUnits="userSpaceOnUse">
<stop stop-color="#EBECE8"/>
<stop offset="1" stop-color="#444444"/>
</linearGradient>
<linearGradient id="paint45_linear_3_4889" x1="4.39792" y1="8.77458" x2="4.54752" y2="8.77458" gradientUnits="userSpaceOnUse">
<stop stop-color="#EBECE8"/>
<stop offset="1" stop-color="#444444"/>
</linearGradient>
<linearGradient id="paint46_linear_3_4889" x1="4.68455" y1="8.68455" x2="4.83311" y2="8.68455" gradientUnits="userSpaceOnUse">
<stop stop-color="#EBECE8"/>
<stop offset="1" stop-color="#444444"/>
</linearGradient>
<linearGradient id="paint47_linear_3_4889" x1="4.97993" y1="8.64072" x2="5.12953" y2="8.64072" gradientUnits="userSpaceOnUse">
<stop stop-color="#EBECE8"/>
<stop offset="1" stop-color="#444444"/>
</linearGradient>
<linearGradient id="paint48_linear_3_4889" x1="5.27876" y1="8.64064" x2="5.42836" y2="8.64064" gradientUnits="userSpaceOnUse">
<stop stop-color="#EBECE8"/>
<stop offset="1" stop-color="#444444"/>
</linearGradient>
<linearGradient id="paint49_linear_3_4889" x1="5.57336" y1="8.68456" x2="5.72296" y2="8.68456" gradientUnits="userSpaceOnUse">
<stop stop-color="#EBECE8"/>
<stop offset="1" stop-color="#444444"/>
</linearGradient>
<linearGradient id="paint50_linear_3_4889" x1="5.8594" y1="8.77418" x2="6.01003" y2="8.77418" gradientUnits="userSpaceOnUse">
<stop stop-color="#EBECE8"/>
<stop offset="1" stop-color="#444444"/>
</linearGradient>
<linearGradient id="paint51_linear_3_4889" x1="6.13052" y1="8.90463" x2="6.27908" y2="8.90463" gradientUnits="userSpaceOnUse">
<stop stop-color="#EBECE8"/>
<stop offset="1" stop-color="#444444"/>
</linearGradient>
<linearGradient id="paint52_linear_3_4889" x1="6.379" y1="9.07617" x2="6.52963" y2="9.07617" gradientUnits="userSpaceOnUse">
<stop stop-color="#EBECE8"/>
<stop offset="1" stop-color="#444444"/>
</linearGradient>
<linearGradient id="paint53_linear_3_4889" x1="6.60271" y1="9.28213" x2="6.75128" y2="9.28213" gradientUnits="userSpaceOnUse">
<stop stop-color="#EBECE8"/>
<stop offset="1" stop-color="#444444"/>
</linearGradient>
<linearGradient id="paint54_linear_3_4889" x1="6.79237" y1="9.51947" x2="6.94301" y2="9.51947" gradientUnits="userSpaceOnUse">
<stop stop-color="#EBECE8"/>
<stop offset="1" stop-color="#444444"/>
</linearGradient>
<linearGradient id="paint55_linear_3_4889" x1="6.94874" y1="9.78351" x2="7.09731" y2="9.78351" gradientUnits="userSpaceOnUse">
<stop stop-color="#EBECE8"/>
<stop offset="1" stop-color="#444444"/>
</linearGradient>
<linearGradient id="paint56_linear_3_4889" x1="7.06444" y1="10.0686" x2="7.21508" y2="10.0686" gradientUnits="userSpaceOnUse">
<stop stop-color="#EBECE8"/>
<stop offset="1" stop-color="#444444"/>
</linearGradient>
<linearGradient id="paint57_linear_3_4889" x1="7.14143" y1="10.3679" x2="7.29" y2="10.3679" gradientUnits="userSpaceOnUse">
<stop stop-color="#EBECE8"/>
<stop offset="1" stop-color="#444444"/>
</linearGradient>
<linearGradient id="paint58_linear_3_4889" x1="7.17203" y1="10.6758" x2="7.32163" y2="10.6758" gradientUnits="userSpaceOnUse">
<stop stop-color="#EBECE8"/>
<stop offset="1" stop-color="#444444"/>
</linearGradient>
<linearGradient id="paint59_linear_3_4889" x1="7.1628" y1="10.9856" x2="7.3124" y2="10.9856" gradientUnits="userSpaceOnUse">
<stop stop-color="#EBECE8"/>
<stop offset="1" stop-color="#444444"/>
</linearGradient>
<linearGradient id="paint60_linear_3_4889" x1="7.1066" y1="11.2901" x2="7.2562" y2="11.2901" gradientUnits="userSpaceOnUse">
<stop stop-color="#EBECE8"/>
<stop offset="1" stop-color="#444444"/>
</linearGradient>
<linearGradient id="paint61_linear_3_4889" x1="7.01215" y1="11.5828" x2="7.16175" y2="11.5828" gradientUnits="userSpaceOnUse">
<stop stop-color="#EBECE8"/>
<stop offset="1" stop-color="#444444"/>
</linearGradient>
<linearGradient id="paint62_linear_3_4889" x1="6.87441" y1="11.8581" x2="7.02401" y2="11.8581" gradientUnits="userSpaceOnUse">
<stop stop-color="#EBECE8"/>
<stop offset="1" stop-color="#444444"/>
</linearGradient>
<linearGradient id="paint63_linear_3_4889" x1="6.70207" y1="12.1081" x2="6.85167" y2="12.1081" gradientUnits="userSpaceOnUse">
<stop stop-color="#EBECE8"/>
<stop offset="1" stop-color="#444444"/>
</linearGradient>
<linearGradient id="paint64_linear_3_4889" x1="6.49374" y1="12.3319" x2="6.64334" y2="12.3319" gradientUnits="userSpaceOnUse">
<stop stop-color="#EBECE8"/>
<stop offset="1" stop-color="#444444"/>
</linearGradient>
<linearGradient id="paint65_linear_3_4889" x1="6.25738" y1="12.5213" x2="6.40698" y2="12.5213" gradientUnits="userSpaceOnUse">
<stop stop-color="#EBECE8"/>
<stop offset="1" stop-color="#444444"/>
</linearGradient>
<linearGradient id="paint66_linear_3_4889" x1="5.99829" y1="12.6721" x2="6.14789" y2="12.6721" gradientUnits="userSpaceOnUse">
<stop stop-color="#EBECE8"/>
<stop offset="1" stop-color="#444444"/>
</linearGradient>
<linearGradient id="paint67_linear_3_4889" x1="5.71825" y1="12.7832" x2="5.86785" y2="12.7832" gradientUnits="userSpaceOnUse">
<stop stop-color="#EBECE8"/>
<stop offset="1" stop-color="#444444"/>
</linearGradient>
<linearGradient id="paint68_linear_3_4889" x1="5.42736" y1="12.8492" x2="5.57696" y2="12.8492" gradientUnits="userSpaceOnUse">
<stop stop-color="#EBECE8"/>
<stop offset="1" stop-color="#444444"/>
</linearGradient>
<linearGradient id="paint69_linear_3_4889" x1="5.12889" y1="12.874" x2="5.27849" y2="12.874" gradientUnits="userSpaceOnUse">
<stop stop-color="#EBECE8"/>
<stop offset="1" stop-color="#444444"/>
</linearGradient>
<linearGradient id="paint70_linear_3_4889" x1="4.83113" y1="12.849" x2="4.98073" y2="12.849" gradientUnits="userSpaceOnUse">
<stop stop-color="#EBECE8"/>
<stop offset="1" stop-color="#444444"/>
</linearGradient>
<linearGradient id="paint71_linear_3_4889" x1="4.53895" y1="12.7829" x2="4.68855" y2="12.7829" gradientUnits="userSpaceOnUse">
<stop stop-color="#EBECE8"/>
<stop offset="1" stop-color="#444444"/>
</linearGradient>
<linearGradient id="paint72_linear_3_4889" x1="4.26002" y1="12.6718" x2="4.40858" y2="12.6718" gradientUnits="userSpaceOnUse">
<stop stop-color="#EBECE8"/>
<stop offset="1" stop-color="#444444"/>
</linearGradient>
<linearGradient id="paint73_linear_3_4889" x1="4.00043" y1="12.5214" x2="4.15003" y2="12.5214" gradientUnits="userSpaceOnUse">
<stop stop-color="#EBECE8"/>
<stop offset="1" stop-color="#444444"/>
</linearGradient>
<linearGradient id="paint74_linear_3_4889" x1="3.7644" y1="12.3317" x2="3.91297" y2="12.3317" gradientUnits="userSpaceOnUse">
<stop stop-color="#EBECE8"/>
<stop offset="1" stop-color="#444444"/>
</linearGradient>
<linearGradient id="paint75_linear_3_4889" x1="3.55729" y1="12.1081" x2="3.70689" y2="12.1081" gradientUnits="userSpaceOnUse">
<stop stop-color="#EBECE8"/>
<stop offset="1" stop-color="#444444"/>
</linearGradient>
<linearGradient id="paint76_linear_3_4889" x1="3.38343" y1="11.8579" x2="3.53303" y2="11.8579" gradientUnits="userSpaceOnUse">
<stop stop-color="#EBECE8"/>
<stop offset="1" stop-color="#444444"/>
</linearGradient>
<linearGradient id="paint77_linear_3_4889" x1="3.24636" y1="11.5828" x2="3.39596" y2="11.5828" gradientUnits="userSpaceOnUse">
<stop stop-color="#EBECE8"/>
<stop offset="1" stop-color="#444444"/>
</linearGradient>
<linearGradient id="paint78_linear_3_4889" x1="3.15112" y1="11.2897" x2="3.29969" y2="11.2897" gradientUnits="userSpaceOnUse">
<stop stop-color="#EBECE8"/>
<stop offset="1" stop-color="#444444"/>
</linearGradient>
<linearGradient id="paint79_linear_3_4889" x1="3.09619" y1="10.9846" x2="3.2458" y2="10.9846" gradientUnits="userSpaceOnUse">
<stop stop-color="#EBECE8"/>
<stop offset="1" stop-color="#444444"/>
</linearGradient>
<linearGradient id="paint80_linear_3_4889" x1="3.08633" y1="10.6758" x2="3.23593" y2="10.6758" gradientUnits="userSpaceOnUse">
<stop stop-color="#EBECE8"/>
<stop offset="1" stop-color="#444444"/>
</linearGradient>
<linearGradient id="paint81_linear_3_4889" x1="3.11845" y1="10.3679" x2="3.26702" y2="10.3679" gradientUnits="userSpaceOnUse">
<stop stop-color="#EBECE8"/>
<stop offset="1" stop-color="#444444"/>
</linearGradient>
<linearGradient id="paint82_linear_3_4889" x1="3.19246" y1="10.0686" x2="3.34309" y2="10.0686" gradientUnits="userSpaceOnUse">
<stop stop-color="#EBECE8"/>
<stop offset="1" stop-color="#444444"/>
</linearGradient>
<linearGradient id="paint83_linear_3_4889" x1="3.31062" y1="9.78401" x2="3.45919" y2="9.78401" gradientUnits="userSpaceOnUse">
<stop stop-color="#EBECE8"/>
<stop offset="1" stop-color="#444444"/>
</linearGradient>
<linearGradient id="paint84_linear_3_4889" x1="3.46467" y1="9.5198" x2="3.61531" y2="9.5198" gradientUnits="userSpaceOnUse">
<stop stop-color="#EBECE8"/>
<stop offset="1" stop-color="#444444"/>
</linearGradient>
<linearGradient id="paint85_linear_3_4889" x1="3.65693" y1="9.28259" x2="3.8055" y2="9.28259" gradientUnits="userSpaceOnUse">
<stop stop-color="#EBECE8"/>
<stop offset="1" stop-color="#444444"/>
</linearGradient>
<linearGradient id="paint86_linear_3_4889" x1="3.87767" y1="9.0754" x2="4.0283" y2="9.0754" gradientUnits="userSpaceOnUse">
<stop stop-color="#EBECE8"/>
<stop offset="1" stop-color="#444444"/>
</linearGradient>
<linearGradient id="paint87_linear_3_4889" x1="4.12885" y1="8.90426" x2="4.27742" y2="8.90426" gradientUnits="userSpaceOnUse">
<stop stop-color="#EBECE8"/>
<stop offset="1" stop-color="#444444"/>
</linearGradient>
<linearGradient id="paint88_linear_3_4889" x1="4.39792" y1="8.77458" x2="4.54752" y2="8.77458" gradientUnits="userSpaceOnUse">
<stop stop-color="#EBECE8"/>
<stop offset="1" stop-color="#444444"/>
</linearGradient>
<linearGradient id="paint89_linear_3_4889" x1="4.68455" y1="8.68455" x2="4.83311" y2="8.68455" gradientUnits="userSpaceOnUse">
<stop stop-color="#EBECE8"/>
<stop offset="1" stop-color="#444444"/>
</linearGradient>
<linearGradient id="paint90_linear_3_4889" x1="4.97993" y1="8.64072" x2="5.12953" y2="8.64072" gradientUnits="userSpaceOnUse">
<stop stop-color="#EBECE8"/>
<stop offset="1" stop-color="#444444"/>
</linearGradient>
<linearGradient id="paint91_linear_3_4889" x1="5.27876" y1="8.64064" x2="5.42836" y2="8.64064" gradientUnits="userSpaceOnUse">
<stop stop-color="#EBECE8"/>
<stop offset="1" stop-color="#444444"/>
</linearGradient>
<linearGradient id="paint92_linear_3_4889" x1="5.57336" y1="8.68456" x2="5.72296" y2="8.68456" gradientUnits="userSpaceOnUse">
<stop stop-color="#EBECE8"/>
<stop offset="1" stop-color="#444444"/>
</linearGradient>
<linearGradient id="paint93_linear_3_4889" x1="5.8594" y1="8.77418" x2="6.01003" y2="8.77418" gradientUnits="userSpaceOnUse">
<stop stop-color="#EBECE8"/>
<stop offset="1" stop-color="#444444"/>
</linearGradient>
<linearGradient id="paint94_linear_3_4889" x1="6.13052" y1="8.90463" x2="6.27908" y2="8.90463" gradientUnits="userSpaceOnUse">
<stop stop-color="#EBECE8"/>
<stop offset="1" stop-color="#444444"/>
</linearGradient>
<linearGradient id="paint95_linear_3_4889" x1="6.379" y1="9.07617" x2="6.52963" y2="9.07617" gradientUnits="userSpaceOnUse">
<stop stop-color="#EBECE8"/>
<stop offset="1" stop-color="#444444"/>
</linearGradient>
<linearGradient id="paint96_linear_3_4889" x1="6.60271" y1="9.28213" x2="6.75128" y2="9.28213" gradientUnits="userSpaceOnUse">
<stop stop-color="#EBECE8"/>
<stop offset="1" stop-color="#444444"/>
</linearGradient>
<linearGradient id="paint97_linear_3_4889" x1="6.79237" y1="9.51947" x2="6.94301" y2="9.51947" gradientUnits="userSpaceOnUse">
<stop stop-color="#EBECE8"/>
<stop offset="1" stop-color="#444444"/>
</linearGradient>
<linearGradient id="paint98_linear_3_4889" x1="6.94874" y1="9.78351" x2="7.09731" y2="9.78351" gradientUnits="userSpaceOnUse">
<stop stop-color="#EBECE8"/>
<stop offset="1" stop-color="#444444"/>
</linearGradient>
<linearGradient id="paint99_linear_3_4889" x1="7.06444" y1="10.0686" x2="7.21508" y2="10.0686" gradientUnits="userSpaceOnUse">
<stop stop-color="#EBECE8"/>
<stop offset="1" stop-color="#444444"/>
</linearGradient>
<linearGradient id="paint100_linear_3_4889" x1="7.14143" y1="10.3679" x2="7.29" y2="10.3679" gradientUnits="userSpaceOnUse">
<stop stop-color="#EBECE8"/>
<stop offset="1" stop-color="#444444"/>
</linearGradient>
<linearGradient id="paint101_linear_3_4889" x1="7.17203" y1="10.6758" x2="7.32163" y2="10.6758" gradientUnits="userSpaceOnUse">
<stop stop-color="#EBECE8"/>
<stop offset="1" stop-color="#444444"/>
</linearGradient>
<radialGradient id="paint102_radial_3_4889" cx="0" cy="0" r="1" gradientUnits="userSpaceOnUse" gradientTransform="translate(5.20394 10.7537) scale(2.89091 2.99543)">
<stop offset="0.57" stop-color="#CBD2D6"/>
<stop offset="0.97" stop-color="#5C707E"/>
</radialGradient>
<radialGradient id="paint103_radial_3_4889" cx="0" cy="0" r="1" gradientUnits="userSpaceOnUse" gradientTransform="translate(6.85978 8.73433) rotate(-62.6601) scale(0.996082 2.11699)">
<stop stop-color="#EBEAE6"/>
<stop offset="1"/>
</radialGradient>
<radialGradient id="paint104_radial_3_4889" cx="0" cy="0" r="1" gradientUnits="userSpaceOnUse" gradientTransform="translate(6.57448 8.7865) rotate(28.4411) scale(0.692321 0.795006)">
<stop stop-color="#FFF9EF"/>
<stop offset="0.13" stop-color="#E5E0D7"/>
<stop offset="0.4" stop-color="#A3A099"/>
<stop offset="0.79" stop-color="#3B3A37"/>
<stop offset="1"/>
</radialGradient>
<radialGradient id="paint105_radial_3_4889" cx="0" cy="0" r="1" gradientUnits="userSpaceOnUse" gradientTransform="translate(3.63831 12.7542) rotate(-58.7146) scale(0.674826 1.22468)">
<stop stop-color="#EBEAE6"/>
<stop offset="1"/>
</radialGradient>
<linearGradient id="paint106_linear_3_4889" x1="4.52114" y1="11.1173" x2="6.27331" y2="10.3177" gradientUnits="userSpaceOnUse">
<stop stop-color="#9B9BA7"/>
<stop offset="0.65" stop-color="#EEEEF0"/>
<stop offset="0.95" stop-color="#DDDDE2"/>
</linearGradient>
<linearGradient id="paint107_linear_3_4889" x1="5.28347" y1="9.61984" x2="5.28347" y2="11.6179" gradientUnits="userSpaceOnUse">
<stop offset="0.05" stop-color="#EEEFF4"/>
<stop offset="0.17" stop-color="#E5E5E8"/>
<stop offset="0.25" stop-color="#C8C8CE"/>
<stop offset="0.33" stop-color="#AFAFB9"/>
<stop offset="0.41" stop-color="#A0A0AC"/>
<stop offset="0.47" stop-color="#9B9BA7"/>
<stop offset="0.65" stop-color="#707081"/>
<stop offset="0.79" stop-color="#BEBEC5"/>
<stop offset="0.81" stop-color="#C9C9D0"/>
<stop offset="0.85" stop-color="#D3D3DA"/>
<stop offset="0.88" stop-color="#D7D7DE"/>
<stop offset="0.91" stop-color="#E3E4E9"/>
<stop offset="0.95" stop-color="#EBECF2"/>
<stop offset="1" stop-color="#EEEFF4"/>
</linearGradient>
<radialGradient id="paint108_radial_3_4889" cx="0" cy="0" r="1" gradientUnits="userSpaceOnUse" gradientTransform="translate(5.28176 7.05883) scale(5.93193 6.14641)">
<stop stop-color="#ECECBB"/>
<stop offset="1" stop-color="#784F58"/>
</radialGradient>
</defs>
</svg>
