<svg width="145" height="145" viewBox="0 0 145 145" fill="none" xmlns="http://www.w3.org/2000/svg">
<g filter="url(#filter0_f_3_7724)">
<circle cx="72.4996" cy="72.4996" r="27.7105" fill="#FF7800"/>
</g>
<circle cx="72.5" cy="72.5" r="58.5" fill="white" fill-opacity="0.03"/>
<path d="M72.4982 39.7407C54.4158 39.7407 39.7402 54.4163 39.7402 72.4987C39.7402 90.5811 54.4158 105.257 72.4982 105.257C90.5806 105.257 105.256 90.5811 105.256 72.4987C105.256 54.4163 90.5806 39.7407 72.4982 39.7407ZM87.6979 62.0162C87.2066 67.1919 85.0773 79.771 83.9963 85.5691C83.5377 88.026 82.6204 88.8449 81.7687 88.9432C79.8688 89.107 78.4274 87.6984 76.593 86.4864C73.7103 84.5864 72.0724 83.4071 69.2879 81.5727C66.0449 79.4434 68.1414 78.2641 70.0086 76.3641C70.5 75.8728 78.886 68.2402 79.0498 67.5522C79.0726 67.4481 79.0695 67.3399 79.041 67.2371C79.0125 67.1344 78.9593 67.0401 78.886 66.9626C78.6895 66.7988 78.4274 66.8643 78.1981 66.8971C77.9033 66.9626 73.3172 70.0091 64.3742 76.0366C63.0639 76.921 61.8846 77.3796 60.8364 77.3469C59.6571 77.3141 57.4295 76.6917 55.7589 76.1348C53.6951 75.4797 52.09 75.1193 52.221 73.9728C52.2865 73.3832 53.1055 72.7935 54.6451 72.1711C64.2104 68.0109 70.5655 65.2592 73.743 63.9489C82.8497 60.1489 84.7169 59.4938 85.9618 59.4938C86.2238 59.4938 86.8462 59.5593 87.2393 59.8869C87.5669 60.1489 87.6652 60.5093 87.6979 60.7713C87.6652 60.9679 87.7307 61.5575 87.6979 62.0162Z" fill="url(#paint0_linear_3_7724)"/>
<defs>
<filter id="filter0_f_3_7724" x="0.789062" y="0.789062" width="143.421" height="143.421" filterUnits="userSpaceOnUse" color-interpolation-filters="sRGB">
<feFlood flood-opacity="0" result="BackgroundImageFix"/>
<feBlend mode="normal" in="SourceGraphic" in2="BackgroundImageFix" result="shape"/>
<feGaussianBlur stdDeviation="22" result="effect1_foregroundBlur_3_7724"/>
</filter>
<linearGradient id="paint0_linear_3_7724" x1="105.256" y1="72.4987" x2="39.7402" y2="72.4987" gradientUnits="userSpaceOnUse">
<stop stop-color="#FFE601"/>
<stop offset="0.735577" stop-color="#FF7800"/>
</linearGradient>
</defs>
</svg>
