<svg width="25" height="24" viewBox="0 0 25 24" fill="none" xmlns="http://www.w3.org/2000/svg">
<path d="M23.6842 20V21.3333C23.6842 22.8 22.5 24 21.0526 24H2.63158C1.17105 24 0 22.8 0 21.3333V2.66667C0 1.2 1.17105 0 2.63158 0H21.0526C22.5 0 23.6842 1.2 23.6842 2.66667V4H11.8421C10.3816 4 9.21053 5.2 9.21053 6.66667V17.3333C9.21053 18.8 10.3816 20 11.8421 20H23.6842ZM11.8421 17.3333H25V6.66667H11.8421V17.3333ZM17.1053 14C16.0132 14 15.1316 13.1067 15.1316 12C15.1316 10.8933 16.0132 10 17.1053 10C18.1974 10 19.0789 10.8933 19.0789 12C19.0789 13.1067 18.1974 14 17.1053 14Z" fill="url(#paint0_linear_256_1995)"/>
<defs>
<linearGradient id="paint0_linear_256_1995" x1="0" y1="12" x2="25" y2="12" gradientUnits="userSpaceOnUse">
<stop stop-color="#FF7800"/>
<stop offset="1" stop-color="#FFE601"/>
</linearGradient>
</defs>
</svg>
