<svg width="58" height="58" viewBox="0 0 58 58" fill="none" xmlns="http://www.w3.org/2000/svg">
<g filter="url(#filter0_d_3_8260)">
<circle cx="29.2652" cy="24.6421" r="24.4585" fill="white"/>
</g>
<path d="M29.8707 17.5518C34.1205 17.5518 37.5656 20.9969 37.5656 25.2467C37.5656 29.4964 34.1205 32.9416 29.8707 32.9416C28.4595 32.9416 27.1371 32.5618 26.0001 31.8987L22.179 32.9416L23.2193 29.1184C22.5559 27.9811 22.1758 26.6583 22.1758 25.2467C22.1758 20.9969 25.6209 17.5518 29.8707 17.5518ZM27.0939 21.6365C26.9943 21.6435 26.8967 21.6678 26.8078 21.7133C26.7411 21.7474 26.6792 21.7967 26.582 21.8885C26.4901 21.9752 26.4369 22.051 26.3808 22.124C26.0963 22.4944 25.9434 22.949 25.9463 23.416C25.9478 23.7936 26.0459 24.1605 26.2008 24.503C26.5148 25.1977 27.0327 25.9321 27.7169 26.6132C27.8812 26.7768 28.0422 26.9422 28.2158 27.095C29.0649 27.8426 30.0768 28.3817 31.1709 28.6695C31.1709 28.6695 31.6018 28.7357 31.6081 28.7361C31.7509 28.7438 31.8934 28.7335 32.0363 28.7262C32.2604 28.7146 32.4793 28.654 32.6774 28.5485C32.8047 28.4807 32.865 28.447 32.9718 28.3796C32.9718 28.3796 33.0046 28.3574 33.0679 28.3103C33.1718 28.2329 33.2359 28.1784 33.3223 28.0887C33.3861 28.0225 33.4408 27.9444 33.4832 27.8562C33.5433 27.7307 33.6039 27.491 33.628 27.2919C33.6464 27.1399 33.6408 27.0567 33.6388 27.0053C33.6355 26.9225 33.5671 26.8373 33.4922 26.8011L33.0447 26.6C33.0447 26.6 32.3756 26.3088 31.9664 26.1221C31.9238 26.1027 31.8772 26.0937 31.8303 26.0908C31.7276 26.0845 31.6126 26.1113 31.5394 26.1884C31.5356 26.1868 31.4846 26.2309 30.9279 26.9053C30.8972 26.942 30.8253 27.0218 30.7008 27.0143C30.6821 27.013 30.6634 27.0103 30.6451 27.0056C30.5947 26.9923 30.5456 26.9747 30.4976 26.9544C30.4024 26.914 30.369 26.8987 30.304 26.8707C29.8598 26.6766 29.4521 26.417 29.0918 26.0993C28.9951 26.0142 28.9052 25.9225 28.8126 25.8327C28.4892 25.5193 28.2245 25.186 28.0276 24.8572C28.0169 24.8392 28.0003 24.8133 27.9824 24.7843C27.9502 24.7319 27.9147 24.6696 27.9035 24.6268C27.8749 24.5136 27.9508 24.4226 27.9508 24.4226C27.9508 24.4226 28.1381 24.2179 28.2251 24.1065C28.3089 23.9993 28.3811 23.8945 28.4271 23.8198C28.5178 23.6741 28.5465 23.5235 28.4989 23.4073C28.283 22.881 28.0602 22.3575 27.8307 21.837C27.7854 21.7343 27.6506 21.6597 27.5281 21.6455C27.4866 21.6407 27.4451 21.6359 27.4034 21.6332C27.3002 21.6281 27.1969 21.6292 27.0939 21.6365Z" fill="url(#paint0_linear_3_8260)"/>
<defs>
<filter id="filter0_d_3_8260" x="0.806641" y="0.183594" width="56.9171" height="56.917" filterUnits="userSpaceOnUse" color-interpolation-filters="sRGB">
<feFlood flood-opacity="0" result="BackgroundImageFix"/>
<feColorMatrix in="SourceAlpha" type="matrix" values="0 0 0 0 0 0 0 0 0 0 0 0 0 0 0 0 0 0 127 0" result="hardAlpha"/>
<feOffset dy="4"/>
<feGaussianBlur stdDeviation="2"/>
<feComposite in2="hardAlpha" operator="out"/>
<feColorMatrix type="matrix" values="0 0 0 0 0 0 0 0 0 0 0 0 0 0 0 0 0 0 0.07 0"/>
<feBlend mode="normal" in2="BackgroundImageFix" result="effect1_dropShadow_3_8260"/>
<feBlend mode="normal" in="SourceGraphic" in2="effect1_dropShadow_3_8260" result="shape"/>
</filter>
<linearGradient id="paint0_linear_3_8260" x1="37.5656" y1="25.2467" x2="22.1758" y2="25.2467" gradientUnits="userSpaceOnUse">
<stop stop-color="#FFE601"/>
<stop offset="0.5625" stop-color="#FF7800"/>
</linearGradient>
</defs>
</svg>
